<svg width="25" height="20" viewBox="0 0 25 20" fill="none" xmlns="http://www.w3.org/2000/svg">
<g clip-path="url(#clip0_84_2638)">
<path d="M0 0H25V6.66667H0V0Z" fill="#FF9933"/>
<path d="M0 6.6665H25V13.3332H0V6.6665Z" fill="white"/>
<path d="M0 13.3335H25V20.0002H0V13.3335Z" fill="#128807"/>
<path d="M12.5 12.6668C13.8807 12.6668 15 11.4729 15 10.0002C15 8.5274 13.8807 7.3335 12.5 7.3335C11.1193 7.3335 10 8.5274 10 10.0002C10 11.4729 11.1193 12.6668 12.5 12.6668Z" fill="#000088"/>
<path d="M12.5 12.3332C13.7081 12.3332 14.6875 11.2885 14.6875 9.99984C14.6875 8.71117 13.7081 7.6665 12.5 7.6665C11.2919 7.6665 10.3125 8.71117 10.3125 9.99984C10.3125 11.2885 11.2919 12.3332 12.5 12.3332Z" fill="white"/>
<path d="M12.5 10.4665C12.7416 10.4665 12.9375 10.2576 12.9375 9.99987C12.9375 9.74214 12.7416 9.5332 12.5 9.5332C12.2584 9.5332 12.0625 9.74214 12.0625 9.99987C12.0625 10.2576 12.2584 10.4665 12.5 10.4665Z" fill="#000088"/>
<path d="M14.6535 10.4245C14.7151 10.4332 14.7716 10.3869 14.7797 10.3212C14.7878 10.2555 14.7444 10.1952 14.6828 10.1866C14.6212 10.1779 14.5647 10.2242 14.5566 10.2899C14.5485 10.3556 14.5919 10.4159 14.6535 10.4245Z" fill="#000088"/>
<path d="M12.4998 12.3333L12.5748 10.9333L12.4998 10.2666L12.4248 10.9333L12.4998 12.3333Z" fill="#000088"/>
<path d="M14.4784 11.0032C14.5365 11.0292 14.6023 11.0013 14.6254 10.9408C14.6485 10.8803 14.6202 10.8101 14.5621 10.784C14.5041 10.758 14.4383 10.7859 14.4152 10.8464C14.392 10.9069 14.4204 10.9771 14.4784 11.0032Z" fill="#000088"/>
<path d="M11.937 12.2526L12.348 10.9238L12.4321 10.2587L12.1967 10.88L11.937 12.2526Z" fill="#000088"/>
<path d="M14.169 11.5145C14.2189 11.5556 14.2896 11.5469 14.3267 11.4951C14.3638 11.4433 14.3534 11.368 14.3034 11.3269C14.2534 11.2858 14.1828 11.2945 14.1457 11.3463C14.1085 11.3981 14.119 11.4734 14.169 11.5145Z" fill="#000088"/>
<path d="M11.4092 12.0193L12.1297 10.8502L12.3737 10.2323L11.9955 10.7674L11.4092 12.0193Z" fill="#000088"/>
<path d="M13.7439 11.9232C13.7823 11.9764 13.853 11.9874 13.9016 11.9478C13.9503 11.9081 13.9586 11.8328 13.9202 11.7795C13.8817 11.7263 13.8111 11.7153 13.7624 11.755C13.7138 11.7946 13.7055 11.87 13.7439 11.9232Z" fill="#000088"/>
<path d="M10.9547 11.6483L11.9354 10.7184L12.322 10.1899L11.8265 10.6023L10.9547 11.6483Z" fill="#000088"/>
<path d="M13.2314 12.2037C13.2544 12.2641 13.3203 12.2919 13.3784 12.2657C13.4366 12.2395 13.4651 12.1693 13.4421 12.1089C13.419 12.0485 13.3532 12.0207 13.2951 12.0469C13.2369 12.0731 13.2084 12.1433 13.2314 12.2037Z" fill="#000088"/>
<path d="M10.6047 11.1688L11.7793 10.5328L12.2852 10.131L11.7069 10.3987L10.6047 11.1688Z" fill="#000088"/>
<path d="M12.6731 12.3305C12.6805 12.3954 12.737 12.4403 12.7994 12.4308C12.8617 12.4214 12.9064 12.3611 12.899 12.2962C12.8917 12.2313 12.8352 12.1864 12.7728 12.1959C12.7104 12.2053 12.6658 12.2656 12.6731 12.3305Z" fill="#000088"/>
<path d="M10.387 10.6071L11.6745 10.3144L12.2605 10.0658L11.6378 10.1663L10.387 10.6071Z" fill="#000088"/>
<path d="M12.1034 12.2989C12.0946 12.3655 12.1367 12.4258 12.1976 12.4336C12.2585 12.4414 12.315 12.3937 12.3238 12.3271C12.3327 12.2605 12.2905 12.2002 12.2296 12.1925C12.1688 12.1847 12.1122 12.2324 12.1034 12.2989Z" fill="#000088"/>
<path d="M10.3135 10.0126L11.6236 10.0627L12.249 9.9872L11.6256 9.92813L10.3135 10.0126Z" fill="#000088"/>
<path d="M11.5592 12.11C11.5351 12.1716 11.5619 12.2418 11.619 12.2668C11.6761 12.2918 11.7419 12.2621 11.766 12.2004C11.7901 12.1388 11.7633 12.0686 11.7062 12.0436C11.6491 12.0187 11.5833 12.0484 11.5592 12.11Z" fill="#000088"/>
<path d="M10.3879 9.39808L11.6351 9.83704L12.2584 9.92924L11.6749 9.67876L10.3879 9.39808Z" fill="#000088"/>
<path d="M11.0769 11.7765C11.0398 11.8283 11.0503 11.9036 11.1003 11.9447C11.1503 11.9858 11.2209 11.9772 11.258 11.9254C11.2951 11.8735 11.2847 11.7982 11.2347 11.7571C11.1847 11.716 11.114 11.7247 11.0769 11.7765Z" fill="#000088"/>
<path d="M10.6036 8.83148L11.7058 9.60155L12.2841 9.86929L11.7782 9.46747L10.6036 8.83148Z" fill="#000088"/>
<path d="M10.6944 11.3233C10.6458 11.3629 10.6376 11.4382 10.6762 11.4916C10.7147 11.5449 10.7853 11.5561 10.8339 11.5165C10.8825 11.4769 10.8906 11.4016 10.8521 11.3482C10.8136 11.2949 10.743 11.2837 10.6944 11.3233Z" fill="#000088"/>
<path d="M10.9514 8.34848L11.8301 9.39559L12.3245 9.81319L11.933 9.28581L10.9514 8.34848Z" fill="#000088"/>
<path d="M10.434 10.7805C10.3771 10.8052 10.3507 10.8754 10.375 10.9373C10.3993 10.9991 10.4651 11.0291 10.522 11.0043C10.5789 10.9796 10.6053 10.9094 10.581 10.8475C10.5567 10.7857 10.4909 10.7557 10.434 10.7805Z" fill="#000088"/>
<path d="M11.4043 7.97861L11.999 9.23141L12.3759 9.77043L12.126 9.15344L11.4043 7.97861Z" fill="#000088"/>
<path d="M10.3162 10.1841C10.2551 10.1922 10.2126 10.2525 10.2212 10.3188C10.2298 10.3851 10.2863 10.4323 10.3474 10.4243C10.4085 10.4162 10.451 10.3559 10.4424 10.2896C10.4338 10.2233 10.3772 10.1761 10.3162 10.1841Z" fill="#000088"/>
<path d="M11.9318 7.74566L12.204 9.11895L12.4374 9.74353L12.3447 9.07916L11.9318 7.74566Z" fill="#000088"/>
<path d="M10.3444 9.57703C10.2821 9.56753 10.2256 9.6124 10.2182 9.67726C10.2108 9.74212 10.2554 9.80239 10.3178 9.8119C10.3801 9.8214 10.4366 9.77653 10.444 9.71167C10.4514 9.64681 10.4068 9.58654 10.3444 9.57703Z" fill="#000088"/>
<path d="M12.4892 7.66741L12.4402 9.06467L12.5112 9.73175L12.5681 9.06699L12.4892 7.66741Z" fill="#000088"/>
<path d="M10.5216 8.99635C10.4636 8.97027 10.3978 8.99817 10.3746 9.05867C10.3515 9.11918 10.3798 9.18937 10.4379 9.21546C10.4959 9.24155 10.5617 9.21365 10.5849 9.15314C10.608 9.09264 10.5797 9.02244 10.5216 8.99635Z" fill="#000088"/>
<path d="M13.0641 7.74691L12.6531 9.07575L12.5689 9.74082L12.8043 9.1195L13.0641 7.74691Z" fill="#000088"/>
<path d="M10.832 8.48452C10.782 8.44341 10.7114 8.45207 10.6743 8.50388C10.6371 8.55568 10.6476 8.63101 10.6976 8.67213C10.7476 8.71325 10.8182 8.70458 10.8553 8.65278C10.8924 8.60097 10.882 8.52564 10.832 8.48452Z" fill="#000088"/>
<path d="M13.5917 7.98027L12.8713 9.14927L12.6273 9.76713L13.0055 9.23219L13.5917 7.98027Z" fill="#000088"/>
<path d="M11.2577 8.07648C11.2192 8.02314 11.1485 8.01199 11.0999 8.05157C11.0513 8.09115 11.0431 8.16648 11.0816 8.21982C11.1201 8.27316 11.1908 8.28432 11.2394 8.24474C11.288 8.20516 11.2962 8.12983 11.2577 8.07648Z" fill="#000088"/>
<path d="M14.0457 8.35196L13.0652 9.2813L12.6788 9.80988L13.1743 9.39787L14.0457 8.35196Z" fill="#000088"/>
<path d="M11.7686 7.79678C11.7456 7.73637 11.6798 7.70863 11.6216 7.73481C11.5634 7.76099 11.5349 7.83118 11.5579 7.89159C11.581 7.952 11.6468 7.97975 11.7049 7.95357C11.7631 7.92739 11.7916 7.85719 11.7686 7.79678Z" fill="#000088"/>
<path d="M14.3953 8.83118L13.2207 9.46717L12.7148 9.86899L13.2931 9.60126L14.3953 8.83118Z" fill="#000088"/>
<path d="M12.3269 7.66951C12.3195 7.60462 12.263 7.55969 12.2006 7.56916C12.1383 7.57862 12.0936 7.6389 12.101 7.70379C12.1083 7.76868 12.1648 7.81361 12.2272 7.80415C12.2896 7.79468 12.3342 7.7344 12.3269 7.66951Z" fill="#000088"/>
<path d="M14.613 9.39291L13.3255 9.68557L12.7395 9.93425L13.3622 9.83368L14.613 9.39291Z" fill="#000088"/>
<path d="M12.8954 7.70048C12.9044 7.63379 12.8624 7.57351 12.8016 7.56584C12.7408 7.55817 12.6843 7.60602 12.6754 7.67271C12.6664 7.7394 12.7084 7.79967 12.7692 7.80734C12.83 7.81501 12.8865 7.76717 12.8954 7.70048Z" fill="#000088"/>
<path d="M14.6854 9.9856L13.3756 9.93854L12.7502 10.0136L13.3733 10.0706L14.6854 9.9856Z" fill="#000088"/>
<path d="M13.4406 7.88923C13.4648 7.82747 13.4382 7.75728 13.3813 7.73245C13.3243 7.70761 13.2585 7.73755 13.2343 7.79931C13.2101 7.86107 13.2366 7.93126 13.2936 7.9561C13.3506 7.98093 13.4164 7.95099 13.4406 7.88923Z" fill="#000088"/>
<path d="M14.6119 10.6013L13.3652 10.1626L12.7418 10.0715L13.3249 10.3223L14.6119 10.6013Z" fill="#000088"/>
<path d="M13.9202 8.22212C13.9584 8.16915 13.9496 8.09382 13.9007 8.05386C13.8517 8.01391 13.7811 8.02446 13.7429 8.07743C13.7048 8.1304 13.7135 8.20573 13.7624 8.24568C13.8114 8.28564 13.882 8.27509 13.9202 8.22212Z" fill="#000088"/>
<path d="M14.3935 11.1656L13.2959 10.3967L12.7169 10.1346L13.2196 10.5377L14.3935 11.1656Z" fill="#000088"/>
<path d="M14.3037 8.67478C14.3534 8.63404 14.3632 8.55871 14.3258 8.50653C14.2883 8.45434 14.2177 8.44507 14.168 8.48581C14.1184 8.52654 14.1085 8.60187 14.146 8.65406C14.1834 8.70624 14.2541 8.71552 14.3037 8.67478Z" fill="#000088"/>
<path d="M14.0453 11.6492L13.1721 10.603L12.6769 10.1896L13.0645 10.7179L14.0453 11.6492Z" fill="#000088"/>
<path d="M14.5625 9.21869C14.6202 9.19295 14.648 9.12275 14.6246 9.0619C14.6011 9.00105 14.5353 8.97258 14.4776 8.99832C14.4199 9.02406 14.392 9.09425 14.4155 9.15511C14.4389 9.21596 14.5047 9.24442 14.5625 9.21869Z" fill="#000088"/>
<path d="M13.5923 12.0208L13.0033 10.7686L12.6255 10.2323L12.8715 10.8499L13.5923 12.0208Z" fill="#000088"/>
<path d="M14.6833 9.81496C14.7452 9.80594 14.7891 9.74566 14.7813 9.68033C14.7736 9.615 14.7171 9.56935 14.6551 9.57838C14.5932 9.58741 14.5493 9.64769 14.557 9.71302C14.5648 9.77835 14.6213 9.82399 14.6833 9.81496Z" fill="#000088"/>
<path d="M13.0647 12.2533L12.8007 10.8805L12.566 10.2581L12.653 10.9229L13.0647 12.2533Z" fill="#000088"/>
</g>
<defs>
<clipPath id="clip0_84_2638">
<rect width="25" height="20" fill="white"/>
</clipPath>
</defs>
</svg>
