<svg width="25" height="20" viewBox="0 0 25 20" fill="none" xmlns="http://www.w3.org/2000/svg">
<path d="M0 0H25V20H0V0Z" fill="#007A3D"/>
<path fill-rule="evenodd" clip-rule="evenodd" d="M10.7443 10.8242C10.3908 11.3073 10.646 11.6215 11.0105 11.6439C11.2507 11.66 11.7503 11.3346 11.749 10.9521L11.6125 10.8826C11.6889 11.0788 11.6097 11.1409 11.4473 11.275C11.1265 11.5396 10.4713 11.5582 10.7443 10.8242Z" fill="white" stroke="white" stroke-width="0.00991745"/>
<path fill-rule="evenodd" clip-rule="evenodd" d="M13.538 12.0918C15.5282 12.1427 16.1616 10.3904 14.9331 8.89014L14.8116 9.05531C14.8907 9.7545 15.0054 10.4438 15.0163 11.1603C14.7761 11.4174 14.4266 11.3218 14.357 11.0361C14.3611 10.6487 14.2219 10.3208 14.0458 10.0079L13.9475 10.173C14.0622 10.4301 14.1864 10.7195 14.2123 11.0361C13.6445 11.6559 13.0166 11.7813 13.25 10.9666C12.8009 11.6807 13.4807 12.1837 14.2505 11.0846C14.4157 11.8347 15.0545 11.369 15.0928 11.2075C15.1624 10.7157 15.1269 9.9234 14.9863 9.29748C15.5405 10.1705 15.5596 10.8002 15.2647 11.2212C14.9371 11.6894 14.2246 11.908 13.538 12.0918Z" fill="white" stroke="white" stroke-width="0.0247441"/>
<path fill-rule="evenodd" clip-rule="evenodd" d="M14.6696 10.1119C14.2437 10.1405 14.0253 10.061 14.256 9.77412C14.4839 9.49345 14.6969 9.717 14.7542 10.0921C14.8074 10.4435 14.0062 10.8918 13.7291 10.8918C13.31 10.8918 13.1162 10.4013 13.5025 9.96041C13.0056 11.247 14.5754 10.5006 14.6696 10.1119ZM14.3747 9.81386C14.3229 9.81138 14.2847 9.89459 14.3106 9.91073C14.3857 9.95792 14.5044 9.92936 14.5167 9.90577C14.5426 9.85361 14.4471 9.81635 14.3747 9.81386Z" fill="white" stroke="white" stroke-width="0.0247441"/>
<path fill-rule="evenodd" clip-rule="evenodd" d="M12.3478 10.7184C11.9383 11.4512 12.3464 11.7542 12.8719 11.6697C13.1777 11.6188 13.5653 11.4214 13.7892 11.1519C13.7933 10.5582 13.7837 9.96956 13.7264 9.39456C13.9312 9.17226 13.7087 9.1735 13.6309 8.93506C13.5954 9.07415 13.5094 9.22442 13.5926 9.33247C13.6513 9.91244 13.6841 10.4999 13.6827 11.0985C13.2705 11.4002 12.9606 11.512 12.7395 11.5095C12.2822 11.5058 12.184 11.1556 12.3478 10.7184Z" fill="white" stroke="white" stroke-width="0.0247441"/>
<path fill-rule="evenodd" clip-rule="evenodd" d="M13.189 10.9111C13.1822 10.3584 13.1726 9.73126 13.118 9.34503C13.331 9.13018 13.1071 9.12521 13.0375 8.88428C12.9965 9.02089 12.9064 9.16991 12.9856 9.28044C13.0211 9.87159 13.0552 10.4627 13.062 11.0539C13.1112 11.0253 13.1672 11.0141 13.189 10.9111Z" fill="white" stroke="white" stroke-width="0.0247441"/>
<path fill-rule="evenodd" clip-rule="evenodd" d="M11.6064 10.885C11.5545 10.8254 11.5177 10.7583 11.4754 10.7C11.4685 10.6168 11.53 10.5398 11.5381 10.4975C11.6078 10.5957 11.6487 10.6702 11.7047 10.7186M11.7784 10.7571C11.8808 10.7944 12.0063 10.7944 12.1224 10.7968C12.5701 10.8043 13.041 10.7372 12.9905 11.2886C12.9468 11.7779 12.5005 12.0611 12.1005 12.0574C11.5313 12.0524 11.0454 11.4811 11.9231 10.4292C12.0077 10.4168 12.1183 10.4379 12.2097 10.4454C12.3667 10.4566 12.5278 10.4429 12.7121 10.3088C12.6902 9.96228 12.6902 9.63442 12.6438 9.32146C12.5646 9.21093 12.6547 9.06314 12.6957 8.92529C12.7653 9.16622 12.9878 9.17119 12.7762 9.38728C12.8267 9.73501 12.8322 10.089 12.8322 10.3001C12.7257 10.4479 12.6424 10.6043 12.3312 10.664C12.0132 10.6217 11.8698 10.2169 11.5381 10.351C11.6296 9.98588 12.4718 9.90267 12.5564 10.1908C12.5005 10.4913 11.7142 10.3709 11.5054 11.342C11.4412 11.6413 11.7879 11.917 12.1442 11.8947C12.4923 11.8736 12.8636 11.6538 12.9004 11.2837C12.9291 10.9744 12.45 11.0104 12.2493 11.0142C11.9572 11.0204 11.7729 10.9794 11.6624 10.921M11.9613 10.2516C12.0132 10.2069 12.1947 10.1759 12.2602 10.2479C12.2111 10.2777 12.1633 10.31 12.1237 10.3485C12.0555 10.3162 12.0104 10.2839 11.9613 10.2516Z" fill="white"/>
<path d="M11.6064 10.885C11.5545 10.8254 11.5177 10.7583 11.4754 10.7C11.4685 10.6168 11.53 10.5398 11.5381 10.4975C11.6078 10.5957 11.6487 10.6702 11.7047 10.7186M11.7784 10.7571C11.8808 10.7944 12.0063 10.7944 12.1224 10.7968C12.5701 10.8043 13.041 10.7372 12.9905 11.2886C12.9468 11.7779 12.5005 12.0611 12.1005 12.0574C11.5313 12.0524 11.0454 11.4811 11.9231 10.4292C12.0077 10.4168 12.1183 10.4379 12.2097 10.4454C12.3667 10.4566 12.5278 10.4429 12.7121 10.3088C12.6902 9.96228 12.6902 9.63442 12.6438 9.32146C12.5646 9.21093 12.6547 9.06314 12.6957 8.92529C12.7653 9.16622 12.9878 9.17119 12.7762 9.38728C12.8267 9.73501 12.8322 10.089 12.8322 10.3001C12.7257 10.4479 12.6424 10.6043 12.3312 10.664C12.0132 10.6217 11.8698 10.2169 11.5381 10.351C11.6296 9.98588 12.4718 9.90267 12.5564 10.1908C12.5005 10.4913 11.7142 10.3709 11.5054 11.342C11.4412 11.6413 11.7879 11.917 12.1442 11.8947C12.4923 11.8736 12.8636 11.6538 12.9004 11.2837C12.9291 10.9744 12.45 11.0104 12.2493 11.0142C11.9572 11.0204 11.7729 10.9794 11.6624 10.921M11.9613 10.2516C12.0132 10.2069 12.1947 10.1759 12.2602 10.2479C12.2111 10.2777 12.1633 10.31 12.1237 10.3485C12.0555 10.3162 12.0104 10.2839 11.9613 10.2516Z" stroke="white" stroke-width="0.00991745"/>
<path fill-rule="evenodd" clip-rule="evenodd" d="M12.403 9.22461C12.4522 9.32396 12.4726 9.38978 12.4754 9.48541C12.4453 9.61457 12.3239 9.73503 12.1983 9.73876C12.1205 9.74124 12.0331 9.72137 11.9717 9.61084C11.9649 9.59718 11.9321 9.56489 11.9007 9.5798C11.7628 9.78595 11.6605 9.87288 11.5362 9.87164C11.2878 9.86792 11.3615 9.66673 11.1322 9.60463C11.0367 9.60215 10.8797 9.69033 10.7991 9.86295C10.4934 10.6516 10.2149 9.86047 10.3337 9.49286C10.3514 9.84432 10.4442 10.053 10.5398 10.0468C10.6094 10.0405 10.6708 9.894 10.7596 9.74C10.8278 9.62202 10.9916 9.40965 11.165 9.40965C11.3233 9.41338 11.2237 9.67791 11.5403 9.67418C11.6932 9.6717 11.8338 9.56489 11.9758 9.35129C12.0072 9.34632 12.0154 9.39723 12.0222 9.41462C12.044 9.48789 12.1833 9.68908 12.3716 9.50528C12.3621 9.46554 12.3662 9.39972 12.3184 9.38606L12.403 9.22461Z" fill="white" stroke="white" stroke-width="0.0247441"/>
<path fill-rule="evenodd" clip-rule="evenodd" d="M13.3978 8.5725C13.2299 8.64826 13.107 8.57871 13.0374 8.51165C13.1589 8.48929 13.2531 8.44955 13.2804 8.36262C13.2258 8.25085 13.0961 8.20241 12.9132 8.20117C12.6689 8.20738 12.5433 8.2968 12.5283 8.41975C12.6415 8.42347 12.7439 8.39491 12.7876 8.49426C12.5869 8.58368 12.3508 8.61597 12.0942 8.61473C11.6738 8.6346 11.6123 8.46197 11.5018 8.31046C11.4936 8.30052 11.4567 8.28438 11.4376 8.28687C11.3079 8.28687 11.2124 8.69918 11.0663 8.69793C10.9203 8.68055 10.953 8.43217 10.9107 8.29059C10.8752 8.51289 10.9558 9.34 11.4076 8.4421C11.4212 8.4123 11.4403 8.42099 11.4526 8.44583C11.5741 8.69669 11.8212 8.78363 12.0874 8.79605C12.3099 8.80722 12.5938 8.71905 12.8982 8.56257C12.9787 8.64329 13.0429 8.73519 13.2121 8.75258C13.41 8.76127 13.6216 8.63087 13.6694 8.46942C13.694 8.38622 13.6981 8.22228 13.6011 8.2198C13.466 8.21607 13.3677 8.51413 13.3991 8.78238C13.4019 8.77866 13.4169 8.71532 13.4169 8.71532M12.819 8.35765C12.9077 8.3204 12.9937 8.30301 13.062 8.38497C13.0087 8.40236 12.976 8.41354 12.9473 8.43465C12.9091 8.40733 12.8572 8.39367 12.819 8.35765ZM13.4715 8.5427C13.4933 8.45452 13.5056 8.38373 13.5848 8.33778C13.6011 8.43092 13.6039 8.48308 13.4715 8.5427Z" fill="white"/>
<path d="M13.3978 8.5725C13.2299 8.64826 13.107 8.57871 13.0374 8.51165C13.1589 8.48929 13.2531 8.44955 13.2804 8.36262C13.2258 8.25085 13.0961 8.20241 12.9132 8.20117C12.6689 8.20738 12.5433 8.2968 12.5283 8.41975C12.6415 8.42347 12.7439 8.39491 12.7876 8.49426C12.5869 8.58368 12.3508 8.61597 12.0942 8.61473C11.6738 8.6346 11.6123 8.46197 11.5018 8.31046C11.4936 8.30052 11.4567 8.28438 11.4376 8.28687C11.3079 8.28687 11.2124 8.69918 11.0663 8.69793C10.9203 8.68055 10.953 8.43217 10.9107 8.29059C10.8752 8.51289 10.9558 9.34 11.4076 8.4421C11.4212 8.4123 11.4403 8.42099 11.4526 8.44583C11.5741 8.69669 11.8212 8.78363 12.0874 8.79605C12.3099 8.80722 12.5938 8.71905 12.8982 8.56257C12.9787 8.64329 13.0429 8.73519 13.2121 8.75258C13.41 8.76127 13.6216 8.63087 13.6694 8.46942C13.694 8.38622 13.6981 8.22228 13.6011 8.2198C13.466 8.21607 13.3677 8.51413 13.3991 8.78238C13.4019 8.77866 13.4169 8.71532 13.4169 8.71532M12.819 8.35765C12.9077 8.3204 12.9937 8.30301 13.062 8.38497C13.0087 8.40236 12.976 8.41354 12.9473 8.43465C12.9091 8.40733 12.8572 8.39367 12.819 8.35765ZM13.4715 8.5427C13.4933 8.45452 13.5056 8.38373 13.5848 8.33778C13.6011 8.43092 13.6039 8.48308 13.4715 8.5427Z" stroke="white" stroke-width="0.00991745"/>
<path fill-rule="evenodd" clip-rule="evenodd" d="M14 8.67935C13.974 8.6036 13.9481 8.53778 13.9399 8.45581C13.9208 8.2894 14.0778 8.19501 14.2197 8.20867C14.3658 8.22233 14.4627 8.27201 14.6019 8.31548C14.7111 8.34901 14.8586 8.37509 14.9992 8.4111C15.0783 8.44339 14.9992 8.52784 14.9787 8.53902C14.6265 8.66445 14.3767 8.86315 14.1529 8.87185C14.0191 8.87806 13.9003 8.79858 13.7925 8.63589C13.7857 8.32044 13.7734 7.95036 13.7393 7.71812C13.7911 7.67093 13.802 7.63616 13.8266 7.59766C13.8539 7.90441 13.8648 8.2273 13.8717 8.55268C13.9003 8.60857 13.9358 8.65576 14 8.67935ZM14.2252 8.70419C14.0368 8.75263 14.06 8.60732 14.0423 8.51791C14.0218 8.41359 14.0355 8.2956 14.1815 8.32541C14.3713 8.37136 14.5446 8.43221 14.7125 8.49679L14.2252 8.70419Z" fill="white" stroke="white" stroke-width="0.00991745"/>
<path fill-rule="evenodd" clip-rule="evenodd" d="M14.0449 8.85791L14.0709 8.97341H14.0913L14.0831 8.86536" fill="white"/>
<path d="M14.0449 8.85791L14.0709 8.97341H14.0913L14.0831 8.86536" stroke="white" stroke-width="0.00991745"/>
<path fill-rule="evenodd" clip-rule="evenodd" d="M11.0439 10.0635L11.1395 9.97412L11.2501 10.0598L11.1477 10.143L11.0439 10.0635Z" fill="white" stroke="white" stroke-width="0.0991745" stroke-linecap="round" stroke-linejoin="round"/>
<path fill-rule="evenodd" clip-rule="evenodd" d="M11.29 10.0342L11.387 9.94482L11.4975 10.0305L11.3951 10.1137L11.29 10.0342Z" fill="white" stroke="white" stroke-width="0.0991745" stroke-linecap="round" stroke-linejoin="round"/>
<path fill-rule="evenodd" clip-rule="evenodd" d="M10.6104 9.10797L10.7073 9.01855L10.8178 9.10424L10.7155 9.18745L10.6104 9.10797Z" fill="white" stroke="white" stroke-width="0.0991745" stroke-linecap="round" stroke-linejoin="round"/>
<path fill-rule="evenodd" clip-rule="evenodd" d="M10.6572 9.37164L10.7541 9.28223L10.8633 9.36792L10.761 9.45113L10.6572 9.37164Z" fill="white" stroke="white" stroke-width="0.0991745" stroke-linecap="round" stroke-linejoin="round"/>
<path fill-rule="evenodd" clip-rule="evenodd" d="M12.4033 9.8124L12.492 9.74658L12.5739 9.82731L12.4811 9.88692L12.4033 9.8124Z" fill="white" stroke="white" stroke-width="0.0991745" stroke-linecap="round" stroke-linejoin="round"/>
<path fill-rule="evenodd" clip-rule="evenodd" d="M11.2314 8.12673L11.2942 8.06836L11.3666 8.12425L11.2997 8.17889L11.2314 8.12673Z" fill="white" stroke="white" stroke-width="0.0991745" stroke-linecap="round" stroke-linejoin="round"/>
<path fill-rule="evenodd" clip-rule="evenodd" d="M11.3955 8.10893L11.4583 8.04932L11.5306 8.10645L11.4638 8.15985L11.3955 8.10893Z" fill="white" stroke="white" stroke-width="0.0991745" stroke-linecap="round" stroke-linejoin="round"/>
<path fill-rule="evenodd" clip-rule="evenodd" d="M14.7482 8.77526L14.6882 8.82121L14.6309 8.76781L14.6936 8.72559L14.7482 8.77526Z" fill="white" stroke="white" stroke-width="0.0991745" stroke-linecap="round" stroke-linejoin="round"/>
<path fill-rule="evenodd" clip-rule="evenodd" d="M11.918 10.4243L11.9111 10.5224L12.0831 10.5373L12.221 10.4429L11.918 10.4243Z" fill="white" stroke="white" stroke-width="0.00991745"/>
<path fill-rule="evenodd" clip-rule="evenodd" d="M13.376 8.58953L13.4265 8.57959L13.421 8.70751L13.3896 8.71868L13.376 8.58953Z" fill="white" stroke="white" stroke-width="0.0247441"/>
<path d="M12.9988 13.7401C14.9366 13.7401 16.5132 12.3057 16.5132 10.543C16.5132 9.57302 16.0375 8.70757 15.2889 8.12256C15.7381 8.60341 16.0111 9.23647 16.0111 9.92565C16.0111 11.4565 14.6635 12.6984 12.9988 12.6984C11.3341 12.6984 9.98646 11.4565 9.98646 9.92565C9.98646 9.23647 10.2595 8.60341 10.7087 8.12256C9.96001 8.70757 9.48438 9.57302 9.48438 10.543C9.48438 12.3057 11.0611 13.7401 12.9988 13.7401Z" fill="white"/>
<path d="M12.5189 15.5181C11.7438 15.8707 10.775 15.7745 9.9559 15.2937C9.92067 15.2777 9.90305 15.3017 9.93828 15.3899C10.0264 15.6222 10.0968 15.8066 9.83259 16.1511C9.71809 16.3034 9.85021 16.3274 10.044 16.3114C11.0304 16.2232 11.9993 16.0229 12.4661 15.8546L12.5189 15.5181Z" fill="white" stroke="black" stroke-width="0.12792"/>
<path d="M12.4986 15.9355C12.1903 16.0477 11.6619 16.184 11.0718 16.2801C10.834 16.3122 10.8428 16.4484 11.2655 16.4965C11.6971 16.5366 12.252 16.2561 12.5867 16.0077L12.4986 15.9355Z" fill="white" stroke="black" stroke-width="0.12792"/>
<path d="M12.9977 15.1652C13.1034 15.1652 13.2971 15.1251 13.4909 15.101C13.852 15.0449 13.5878 15.5498 12.9977 15.5498V15.7181C13.5966 15.7181 14.2219 15.1251 14.0898 14.8606C13.9049 14.476 13.394 14.8045 12.9977 14.8045C12.6013 14.8045 12.0905 14.476 11.9055 14.8606C11.7734 15.1251 12.3988 15.7181 12.9977 15.7181V15.5498C12.4076 15.5498 12.1433 15.0449 12.5045 15.101C12.6982 15.1251 12.892 15.1652 12.9977 15.1652Z" fill="white"/>
<path d="M12.9977 15.5498C13.5878 15.5498 13.852 15.0449 13.4909 15.101C13.2971 15.1251 13.1034 15.1652 12.9977 15.1652C12.892 15.1652 12.6982 15.1251 12.5045 15.101C12.1433 15.0449 12.4076 15.5498 12.9977 15.5498ZM12.9977 15.5498V15.7181M12.9977 15.7181C13.5966 15.7181 14.2219 15.1251 14.0898 14.8606C13.9049 14.476 13.394 14.8045 12.9977 14.8045C12.6013 14.8045 12.0905 14.476 11.9055 14.8606C11.7734 15.1251 12.3988 15.7181 12.9977 15.7181Z" stroke="black" stroke-width="0.12792"/>
<path d="M13.4707 15.5181C14.2458 15.8707 15.2146 15.7745 16.0337 15.2937C16.0689 15.2777 16.0866 15.3017 16.0513 15.3899C15.9633 15.6222 15.8928 15.8066 16.157 16.1511C16.2715 16.3034 16.1394 16.3274 15.9456 16.3114C14.9592 16.2232 13.9904 16.0229 13.5235 15.8546L13.4707 15.5181Z" fill="white" stroke="black" stroke-width="0.12792"/>
<path d="M13.4885 15.9355C13.7967 16.0477 14.3164 16.184 14.9153 16.2801C15.1531 16.3122 15.1443 16.4484 14.7215 16.4965C14.29 16.5366 13.7351 16.2561 13.4004 16.0077L13.4885 15.9355Z" fill="white" stroke="black" stroke-width="0.12792"/>
<path d="M13.0257 15.8546C13.0434 15.9909 13.0698 16.2873 13.2724 16.1591C13.5454 15.9909 13.6071 15.8626 13.6071 15.6222C13.6071 15.47 13.4045 15.2456 12.9993 15.2456C12.5942 15.2456 12.3916 15.47 12.3916 15.6222C12.3916 15.8626 12.4533 15.9909 12.7263 16.1591C12.9289 16.2873 12.9465 15.9909 12.9729 15.8546C12.9817 15.8065 13.0257 15.8226 13.0257 15.8546Z" fill="white" stroke="black" stroke-width="0.12792"/>
<path d="M12.7428 5.58942C12.6283 4.99643 11.6683 4.95637 11.5186 4.86021C11.3424 4.75603 11.3688 4.86021 11.4305 5.02047C11.6066 5.43717 12.2055 5.60545 12.4786 5.65353C12.6988 5.68558 12.7692 5.70161 12.7428 5.58942Z" fill="white" stroke="black" stroke-width="0.12792"/>
<path d="M13.0373 5.60631C13.1342 4.99729 12.183 4.70881 12.0685 4.57258C11.9364 4.42834 11.9188 4.51648 11.9804 4.68477C12.0949 5.04537 12.5089 5.47008 12.7555 5.58227C12.9581 5.67843 13.0197 5.71849 13.0373 5.60631Z" fill="white" stroke="black" stroke-width="0.12792"/>
<path d="M13.8238 5.95875C13.9118 5.22953 13.1368 5.11735 12.9342 4.88496C12.8021 4.74072 12.7933 4.82085 12.8373 4.98913C12.9254 5.35775 13.3129 5.79047 13.5507 5.9267C13.7357 6.03087 13.8149 6.07094 13.8238 5.95875Z" fill="white" stroke="black" stroke-width="0.12792"/>
<path d="M13.5804 5.79836C12.779 5.32557 12.2153 5.59001 11.9863 5.56597C11.7661 5.54193 11.6956 5.67014 12.0743 5.86246C12.5411 6.09485 13.1929 6.0628 13.4483 5.97465C13.7126 5.87849 13.6333 5.83041 13.5804 5.79836Z" fill="white" stroke="black" stroke-width="0.12792"/>
<path d="M14.785 6.11911C14.5384 5.3338 13.9659 5.46201 13.7986 5.36585C13.6312 5.26969 13.6136 5.29373 13.6489 5.47003C13.7193 5.78255 14.3094 6.12712 14.6001 6.2313C14.7058 6.26335 14.8379 6.31143 14.785 6.11911Z" fill="white" stroke="black" stroke-width="0.12792"/>
<path d="M14.6738 6.25531C13.9868 5.75046 13.4496 6.12709 13.2382 6.071C13.0796 6.03093 13.1501 6.12709 13.2118 6.16716C13.6521 6.44763 14.1982 6.59988 14.621 6.42359C14.7883 6.35948 14.7971 6.34345 14.6738 6.25531Z" fill="white" stroke="black" stroke-width="0.12792"/>
<path d="M16.1653 6.76863C16.1741 6.2718 15.0467 6.06345 14.8089 5.75894C14.668 5.57463 14.5447 5.67079 14.6152 5.96729C14.7209 6.35193 15.4959 6.77664 15.9187 6.85677C16.1741 6.90485 16.1653 6.82472 16.1653 6.76863Z" fill="white" stroke="black" stroke-width="0.12792"/>
<path d="M16.1223 6.85617C15.4088 6.27119 14.8099 6.46351 14.5897 6.40742C14.3695 6.35934 14.2815 6.47954 14.625 6.71994C15.0477 7.00842 15.6995 7.06452 15.9725 7.00842C16.2456 6.95233 16.1751 6.89624 16.1223 6.85617Z" fill="white" stroke="black" stroke-width="0.12792"/>
<path d="M17.4064 7.71312C17.2038 6.8637 16.5608 6.68741 16.4023 6.52714C16.2526 6.36687 16.094 6.41495 16.2261 6.79959C16.3847 7.25636 16.9043 7.65703 17.1774 7.75319C17.4416 7.85736 17.424 7.77723 17.4064 7.71312Z" fill="white" stroke="black" stroke-width="0.12792"/>
<path d="M17.3978 7.82473C16.8781 7.06346 16.1999 7.0875 15.9886 6.98332C15.786 6.87114 15.6451 6.9673 15.9181 7.29585C16.2352 7.69652 16.8869 7.92089 17.1864 7.93692C17.4859 7.95294 17.433 7.88082 17.3978 7.82473Z" fill="white" stroke="black" stroke-width="0.12792"/>
<path d="M18.0697 8.73137C18.3691 7.86592 17.6821 7.54539 17.6117 7.40114C17.5324 7.2569 17.4531 7.2569 17.4091 7.40916C17.2153 8.02619 17.8407 8.62719 17.9375 8.74739C18.0344 8.85958 18.052 8.80349 18.0697 8.73137Z" fill="white" stroke="black" stroke-width="0.12792"/>
<path d="M17.9179 8.97208C17.6801 8.00246 17.0547 8.05855 16.9138 7.92233C16.7641 7.7861 16.7465 7.88226 16.7729 8.05855C16.8434 8.53134 17.4687 8.85188 17.7505 9.01215C17.8386 9.06023 17.9443 9.11632 17.9179 8.97208Z" fill="white" stroke="black" stroke-width="0.12792"/>
<path d="M18.5314 10.1101C18.963 9.19658 18.4521 8.57955 18.2936 8.44332C18.1351 8.31511 18.0382 8.25901 18.091 8.44332C18.1615 8.72379 17.9149 9.44499 18.2936 9.97388C18.4169 10.1502 18.4345 10.3185 18.5314 10.1101Z" fill="white" stroke="black" stroke-width="0.12792"/>
<path d="M18.2938 10.2941C18.3907 9.73313 18.0384 9.22028 17.6597 9.01994C17.4395 8.89974 17.4307 8.9318 17.4307 9.10008C17.4483 9.62095 17.9855 10.0537 18.1441 10.2941C18.2938 10.5184 18.285 10.3502 18.2938 10.2941Z" fill="white" stroke="black" stroke-width="0.12792"/>
<path d="M18.196 11.7528C17.879 10.6951 18.5395 10.086 18.7421 9.96584C18.9359 9.83763 19.0592 9.78955 18.9711 9.98988C18.839 10.2864 18.9799 11.1118 18.4779 11.6326C18.3193 11.8089 18.2577 11.9932 18.196 11.7528Z" fill="white" stroke="black" stroke-width="0.12792"/>
<path d="M18.2656 11.5201C18.5298 10.5986 17.9573 10.0777 17.7812 9.97354C17.6138 9.86937 17.5081 9.8293 17.5874 9.99758C17.6931 10.254 17.5786 10.9752 18.019 11.424C18.1599 11.5762 18.2127 11.7285 18.2656 11.5201Z" fill="white" stroke="black" stroke-width="0.12792"/>
<path d="M17.9424 11.0865C17.4668 11.5513 17.458 12.2324 17.6693 12.6331C17.8015 12.8655 17.8191 12.8494 17.9424 12.6811C18.2771 12.1923 18.0745 11.4872 18.0921 11.1746C18.1009 10.8781 17.9952 11.0384 17.9424 11.0865Z" fill="white" stroke="black" stroke-width="0.12792"/>
<path d="M18.7306 11.8255C18.7306 12.4666 18.299 12.9875 17.841 13.1477C17.5768 13.2359 17.5768 13.2118 17.612 13.0195C17.7353 12.2983 18.3431 12.0339 18.5633 11.8015C18.7746 11.5771 18.7306 11.7614 18.7306 11.8255Z" fill="white" stroke="black" stroke-width="0.12792"/>
<path d="M17.0919 13.7315C17.8669 13.0904 17.453 12.6417 17.4882 12.225C17.5058 12.0006 17.4089 12.0567 17.3209 12.1368C16.8276 12.5776 16.8012 13.3629 16.9069 13.6674C16.9509 13.8036 17.0214 13.7876 17.0919 13.7315Z" fill="white" stroke="black" stroke-width="0.12792"/>
<path d="M18.13 13.3148C17.8746 14.02 17.1964 14.4527 16.6239 14.4767C16.2892 14.4928 16.298 14.4687 16.4125 14.2604C16.8441 13.5071 17.6103 13.419 17.9538 13.2266C18.2709 13.0503 18.1564 13.2427 18.13 13.3148Z" fill="white" stroke="black" stroke-width="0.12792"/>
<path d="M16.019 14.6373C17.023 14.1805 16.8205 13.4193 17.0054 13.227C17.1375 13.0907 16.979 13.1067 16.8997 13.1548C16.3096 13.4674 15.834 13.9642 15.8252 14.4931C15.8252 14.6934 15.8428 14.7174 16.019 14.6373Z" fill="white" stroke="black" stroke-width="0.12792"/>
<path d="M14.6434 15.4869C15.9117 15.6712 16.5018 14.7977 16.8717 14.7176C17.0655 14.6775 16.9246 14.6054 16.8277 14.5974C15.9821 14.5092 14.9076 14.8698 14.5817 15.2705C14.4496 15.4308 14.4496 15.4628 14.6434 15.4869Z" fill="white" stroke="black" stroke-width="0.12792"/>
<path d="M15.9345 14.1162C15.6791 14.8774 14.7279 15.5025 14.0145 15.5506C13.6798 15.5746 13.6798 15.5425 13.8031 15.3422C14.3756 14.3966 15.3709 14.2364 15.7232 13.996C16.0226 13.7876 15.961 14.044 15.9345 14.1162Z" fill="white" stroke="black" stroke-width="0.12792"/>
<path d="M13.2523 5.58942C13.3668 4.99643 14.3269 4.95637 14.4766 4.86021C14.6528 4.75603 14.6263 4.86021 14.5647 5.02047C14.3885 5.43717 13.7896 5.60545 13.5166 5.65353C13.2964 5.68558 13.2259 5.70161 13.2523 5.58942Z" fill="white" stroke="black" stroke-width="0.12792"/>
<path d="M12.9727 5.60631C12.8759 4.99729 13.8271 4.70881 13.9416 4.57258C14.0737 4.42834 14.0913 4.51648 14.0296 4.68477C13.9151 5.04537 13.5012 5.47008 13.2546 5.58227C13.052 5.67843 12.9904 5.71849 12.9727 5.60631Z" fill="white" stroke="black" stroke-width="0.12792"/>
<path d="M12.1759 5.95875C12.0878 5.22953 12.8629 5.11735 13.0655 4.88496C13.1976 4.74072 13.2064 4.82085 13.1623 4.98913C13.0743 5.35775 12.6867 5.79047 12.4489 5.9267C12.264 6.03087 12.1847 6.07094 12.1759 5.95875Z" fill="white" stroke="black" stroke-width="0.12792"/>
<path d="M12.4219 5.79836C13.2234 5.32557 13.787 5.59001 14.016 5.56597C14.2362 5.54193 14.3067 5.67014 13.928 5.86246C13.4612 6.09485 12.8094 6.0628 12.554 5.97465C12.2898 5.87849 12.369 5.83041 12.4219 5.79836Z" fill="white" stroke="black" stroke-width="0.12792"/>
<path d="M11.2083 6.11911C11.4549 5.3338 12.0274 5.46201 12.1948 5.36585C12.3621 5.26969 12.3797 5.29373 12.3445 5.47003C12.274 5.78255 11.6839 6.12712 11.3933 6.2313C11.2876 6.26335 11.1555 6.31143 11.2083 6.11911Z" fill="white" stroke="black" stroke-width="0.12792"/>
<path d="M11.327 6.25531C12.014 5.75046 12.5512 6.12709 12.7626 6.071C12.9211 6.03093 12.8507 6.12709 12.789 6.16716C12.3486 6.44763 11.8026 6.59988 11.3798 6.42359C11.2125 6.35948 11.2037 6.34345 11.327 6.25531Z" fill="white" stroke="black" stroke-width="0.12792"/>
<path d="M9.83599 6.76863C9.82718 6.2718 10.9546 6.06345 11.1924 5.75894C11.3333 5.57463 11.4566 5.67079 11.3861 5.96729C11.2804 6.35193 10.5054 6.77664 10.0826 6.85677C9.82718 6.90485 9.83599 6.82472 9.83599 6.76863Z" fill="white" stroke="black" stroke-width="0.12792"/>
<path d="M9.87346 6.85617C10.5869 6.27119 11.1858 6.46351 11.406 6.40742C11.6262 6.35934 11.7142 6.47954 11.3708 6.71994C10.948 7.00842 10.2962 7.06452 10.0232 7.00842C9.75015 6.95233 9.82061 6.89624 9.87346 6.85617Z" fill="white" stroke="black" stroke-width="0.12792"/>
<path d="M8.59084 7.71312C8.79341 6.8637 9.43637 6.68741 9.59491 6.52714C9.74464 6.36687 9.90317 6.41495 9.77106 6.79959C9.61252 7.25636 9.09287 7.65703 8.81984 7.75319C8.55561 7.85736 8.57322 7.77723 8.59084 7.71312Z" fill="white" stroke="black" stroke-width="0.12792"/>
<path d="M8.59795 7.82473C9.1176 7.06346 9.79579 7.0875 10.0072 6.98332C10.2097 6.87114 10.3507 6.9673 10.0776 7.29585C9.76056 7.69652 9.10879 7.92089 8.80933 7.93692C8.50988 7.95294 8.56272 7.88082 8.59795 7.82473Z" fill="white" stroke="black" stroke-width="0.12792"/>
<path d="M7.94238 8.73137C7.64292 7.86592 8.32991 7.54539 8.40037 7.40114C8.47964 7.2569 8.55891 7.2569 8.60295 7.40916C8.79671 8.02619 8.17137 8.62719 8.07449 8.74739C7.97761 8.85958 7.95999 8.80349 7.94238 8.73137Z" fill="white" stroke="black" stroke-width="0.12792"/>
<path d="M8.07053 8.97208C8.30834 8.00246 8.93368 8.05855 9.0746 7.92233C9.22433 7.7861 9.24195 7.88226 9.21552 8.05855C9.14506 8.53134 8.51972 8.85188 8.23788 9.01215C8.1498 9.06023 8.04411 9.11632 8.07053 8.97208Z" fill="white" stroke="black" stroke-width="0.12792"/>
<path d="M7.47401 10.1101C7.04244 9.19658 7.55328 8.57955 7.71182 8.44332C7.87035 8.31511 7.96724 8.25901 7.91439 8.44332C7.84393 8.72379 8.09054 9.44499 7.71182 9.97388C7.58851 10.1502 7.5709 10.3185 7.47401 10.1101Z" fill="white" stroke="black" stroke-width="0.12792"/>
<path d="M7.70765 10.2941C7.61077 9.73313 7.96307 9.22028 8.3418 9.01994C8.56199 8.89974 8.5708 8.9318 8.5708 9.10008C8.55318 9.62095 8.01592 10.0537 7.85738 10.2941C7.70765 10.5184 7.71646 10.3502 7.70765 10.2941Z" fill="white" stroke="black" stroke-width="0.12792"/>
<path d="M7.80402 11.7528C8.1211 10.6951 7.46053 10.086 7.25795 9.96584C7.06418 9.83763 6.94088 9.78955 7.02895 9.98988C7.16107 10.2864 7.02015 11.1118 7.52218 11.6326C7.68072 11.8089 7.73356 11.9932 7.80402 11.7528Z" fill="white" stroke="black" stroke-width="0.12792"/>
<path d="M7.73652 11.5201C7.4723 10.5986 8.04479 10.0777 8.22094 9.97354C8.38829 9.86937 8.49398 9.8293 8.41471 9.99758C8.30902 10.254 8.42352 10.9752 7.98314 11.424C7.84222 11.5762 7.78937 11.7285 7.73652 11.5201Z" fill="white" stroke="black" stroke-width="0.12792"/>
<path d="M8.06173 11.0865C8.53734 11.5513 8.54615 12.2324 8.33477 12.6331C8.20265 12.8655 8.18504 12.8494 8.06173 12.6811C7.72704 12.1923 7.92962 11.4872 7.912 11.1746C7.9032 10.8781 8.00889 11.0384 8.06173 11.0865Z" fill="white" stroke="black" stroke-width="0.12792"/>
<path d="M7.27334 11.8255C7.27334 12.4666 7.70491 12.9875 8.16291 13.1477C8.42714 13.2359 8.42714 13.2118 8.39191 13.0195C8.2686 12.2983 7.66088 12.0339 7.44069 11.8015C7.2293 11.5771 7.27334 11.7614 7.27334 11.8255Z" fill="white" stroke="black" stroke-width="0.12792"/>
<path d="M8.90534 13.7315C8.13027 13.0904 8.54423 12.6417 8.50899 12.225C8.49138 12.0006 8.58826 12.0567 8.67634 12.1368C9.16957 12.5776 9.19599 13.3629 9.0903 13.6674C9.04626 13.8036 8.9758 13.7876 8.90534 13.7315Z" fill="white" stroke="black" stroke-width="0.12792"/>
<path d="M7.87386 13.3148C8.12928 14.02 8.80746 14.4527 9.37996 14.4767C9.71465 14.4928 9.70584 14.4687 9.59134 14.2604C9.15977 13.5071 8.39351 13.419 8.05001 13.2266C7.73293 13.0503 7.84743 13.2427 7.87386 13.3148Z" fill="white" stroke="black" stroke-width="0.12792"/>
<path d="M9.98251 14.6373C8.97844 14.1805 9.18102 13.4193 8.99606 13.227C8.86394 13.0907 9.02248 13.1067 9.10175 13.1548C9.69186 13.4674 10.1675 13.9642 10.1763 14.4931C10.1763 14.6934 10.1587 14.7174 9.98251 14.6373Z" fill="white" stroke="black" stroke-width="0.12792"/>
<path d="M11.3525 15.4869C10.0842 15.6712 9.49409 14.7977 9.12417 14.7176C8.9304 14.6775 9.07132 14.6054 9.16821 14.5974C10.0137 14.5092 11.0883 14.8698 11.4141 15.2705C11.5463 15.4308 11.5463 15.4628 11.3525 15.4869Z" fill="white" stroke="black" stroke-width="0.12792"/>
<path d="M10.0706 14.1162C10.326 14.8774 11.2773 15.5025 11.9907 15.5506C12.3254 15.5746 12.3254 15.5425 12.2021 15.3422C11.6296 14.3966 10.6343 14.2364 10.282 13.996C9.98254 13.7876 10.0442 14.044 10.0706 14.1162Z" fill="white" stroke="black" stroke-width="0.12792"/>
<path d="M14.497 6.32723C14.3297 6.21504 13.7131 6.27915 13.5986 6.20703C13.8188 6.37531 14.312 6.25511 14.497 6.32723Z" fill="#006233"/>
<path d="M15.9885 6.61542C15.8564 6.39906 15.0725 6.25482 14.958 6.0625C15.1606 6.43112 15.7683 6.38304 15.9885 6.61542Z" fill="#006233"/>
<path d="M15.8716 6.86359C15.581 6.60716 14.9028 6.71134 14.7002 6.55908C15.1758 6.95174 15.44 6.64723 15.8716 6.86359Z" fill="#006233"/>
<path d="M14.1729 5.72607C14.3579 5.81422 14.5869 5.90237 14.7014 6.11072C14.5693 5.95045 14.3315 5.88634 14.1377 5.75011C14.1465 5.75011 14.1641 5.73409 14.1729 5.72607Z" fill="#006233"/>
<path d="M17.0598 7.37668C16.9453 7.13628 16.5401 6.87184 16.5049 6.78369C16.6194 7.09621 16.9541 7.16833 17.0598 7.37668Z" fill="#006233"/>
<path d="M17.1635 7.80172C16.8112 7.29687 16.2563 7.35297 16.0361 7.16064C16.2035 7.34495 16.8376 7.46515 17.1635 7.80172Z" fill="#006233"/>
<path d="M17.9805 8.57836C18.0069 8.04146 17.5666 7.84113 17.549 7.53662C17.5401 7.89722 17.9981 8.38604 17.9805 8.57836Z" fill="#006233"/>
<path d="M17.7663 8.86694C17.6782 8.40216 17.0793 8.37011 16.9736 8.09766C16.9736 8.35408 17.6782 8.61853 17.7663 8.86694Z" fill="#006233"/>
<path d="M18.252 8.60254C18.569 8.95513 18.3488 9.49203 18.481 9.88468C18.3224 9.5962 18.4017 8.87499 18.252 8.60254Z" fill="#006233"/>
<path d="M17.7363 10.1089C18.2119 10.5737 18.0182 11.0945 18.2119 11.3189C17.9741 11.0064 18.0094 10.3974 17.7363 10.1089Z" fill="#006233"/>
<path d="M18.7273 10.1729C18.3222 10.5815 18.5688 11.1986 18.3574 11.487C18.5952 11.2386 18.56 10.4774 18.7273 10.1729Z" fill="#006233"/>
<path d="M18.2159 10.1729C18.1631 9.70016 17.6787 9.45174 17.6346 9.19531C17.5818 9.45174 18.1014 9.85241 18.2159 10.1729Z" fill="#006233"/>
<path d="M17.9641 11.3037C18.0434 11.6323 17.7527 12.3374 17.8408 12.5538C17.647 12.1772 18.0081 11.464 17.9641 11.3037Z" fill="#006233"/>
<path d="M18.5933 12.0566C18.3995 12.6416 18.012 12.6016 17.8887 12.9541C17.9767 12.6176 18.4876 12.3131 18.5933 12.0566Z" fill="#006233"/>
<path d="M17.3345 12.3291C17.0791 12.7218 17.2905 13.1705 17.0791 13.451C17.3786 13.1705 17.22 12.6496 17.3345 12.3291Z" fill="#006233"/>
<path d="M17.9488 13.4023C17.6405 13.9232 17.0064 13.8751 16.751 14.2518C17.0064 13.779 17.7903 13.6988 17.9488 13.4023Z" fill="#006233"/>
<path d="M16.8288 13.3379C16.2827 13.6825 16.4501 14.0431 16.0361 14.4277C16.5558 14.0431 16.5117 13.6184 16.8288 13.3379Z" fill="#006233"/>
<path d="M16.573 14.7332C16.0446 14.7172 15.2871 15.3422 14.8291 15.2942C15.2871 15.3823 16.1326 14.8214 16.573 14.7332Z" fill="#006233"/>
<path d="M15.7201 14.1724C15.6848 14.6612 14.3109 14.9737 14.1611 15.3023C14.3285 14.8695 15.5351 14.549 15.7201 14.1724Z" fill="#006233"/>
<path d="M12.6064 5.15662C12.4303 5.02039 12.2189 4.9082 12.1572 4.77197C12.2013 4.94827 12.3774 5.07648 12.5536 5.19668C12.5712 5.18867 12.5888 5.16463 12.6064 5.15662Z" fill="#006233"/>
<path d="M12.314 5.30098C12.041 5.18078 11.7239 5.18879 11.583 5.02051C11.6711 5.18879 11.9705 5.2529 12.226 5.34104C12.2524 5.32502 12.2876 5.30899 12.314 5.30098Z" fill="#006233"/>
<path d="M11.5244 6.32723C11.6918 6.21504 12.3083 6.27915 12.4228 6.20703C12.2026 6.37531 11.7094 6.25511 11.5244 6.32723Z" fill="#006233"/>
<path d="M10.0352 6.61542C10.1673 6.39906 10.9511 6.25482 11.0656 6.0625C10.8631 6.43112 10.2553 6.38304 10.0352 6.61542Z" fill="#006233"/>
<path d="M10.1406 6.86359C10.4313 6.60716 11.1095 6.71134 11.312 6.55908C10.8364 6.95174 10.5722 6.64723 10.1406 6.86359Z" fill="#006233"/>
<path d="M11.3135 6.11103C11.4808 5.79049 11.9564 5.75043 12.0797 5.55811C11.8948 5.84659 11.4896 5.89467 11.3135 6.11103Z" fill="#006233"/>
<path d="M12.6729 5.82987C13.1573 5.62153 13.6329 5.79782 13.8619 5.70166C13.58 5.83789 12.9107 5.77378 12.6729 5.82987Z" fill="#006233"/>
<path d="M8.95703 7.37668C9.07153 7.13628 9.47668 6.87184 9.51191 6.78369C9.39741 7.09621 9.06272 7.16833 8.95703 7.37668Z" fill="#006233"/>
<path d="M8.85156 7.80172C9.20387 7.29687 9.75875 7.35297 9.97894 7.16064C9.81159 7.34495 9.17744 7.46515 8.85156 7.80172Z" fill="#006233"/>
<path d="M8.03239 8.57836C8.00597 8.04146 8.44635 7.84113 8.46397 7.53662C8.47277 7.89722 8.01478 8.38604 8.03239 8.57836Z" fill="#006233"/>
<path d="M8.25391 8.86694C8.34198 8.40216 8.9409 8.37011 9.04659 8.09766C9.04659 8.35408 8.34198 8.61853 8.25391 8.86694Z" fill="#006233"/>
<path d="M7.75634 8.60254C7.43927 8.95513 7.65946 9.49203 7.52734 9.88468C7.68588 9.5962 7.60661 8.87499 7.75634 8.60254Z" fill="#006233"/>
<path d="M8.27249 10.1089C7.79688 10.5737 7.99064 11.0945 7.79688 11.3189C8.03468 11.0064 7.99945 10.3974 8.27249 10.1089Z" fill="#006233"/>
<path d="M7.29297 10.1729C7.69812 10.5815 7.45151 11.1986 7.66289 11.487C7.42508 11.2386 7.46031 10.4774 7.29297 10.1729Z" fill="#006233"/>
<path d="M7.79688 10.1729C7.84972 9.70016 8.33414 9.45174 8.37818 9.19531C8.43102 9.45174 7.91137 9.85241 7.79688 10.1729Z" fill="#006233"/>
<path d="M8.0451 11.3037C7.96584 11.6323 8.25649 12.3374 8.16841 12.5538C8.36218 12.1772 8.00107 11.464 8.0451 11.3037Z" fill="#006233"/>
<path d="M7.42188 12.0566C7.61564 12.6416 8.00318 12.6016 8.12648 12.9541C8.03841 12.6176 7.52757 12.3131 7.42188 12.0566Z" fill="#006233"/>
<path d="M8.6875 12.3291C8.94292 12.7218 8.73154 13.1705 8.94292 13.451C8.64346 13.1705 8.802 12.6496 8.6875 12.3291Z" fill="#006233"/>
<path d="M8.06641 13.4023C8.37467 13.9232 9.00882 13.8751 9.26424 14.2518C9.00882 13.779 8.22494 13.6988 8.06641 13.4023Z" fill="#006233"/>
<path d="M9.19141 13.3379C9.73748 13.6825 9.57013 14.0431 9.98409 14.4277C9.46444 14.0431 9.50848 13.6184 9.19141 13.3379Z" fill="#006233"/>
<path d="M9.4375 14.7332C9.96596 14.7172 10.7234 15.3422 11.1814 15.2942C10.7234 15.3823 9.87788 14.8214 9.4375 14.7332Z" fill="#006233"/>
<path d="M10.293 14.1724C10.3282 14.6612 11.7022 14.9737 11.8519 15.3023C11.6846 14.8695 10.4779 14.549 10.293 14.1724Z" fill="#006233"/>
<path d="M12.2979 5.84595C12.4035 5.41322 12.932 5.33309 13.0025 5.07666C12.976 5.34912 12.3507 5.65362 12.2979 5.84595Z" fill="#006233"/>
<path d="M13.8492 4.77197C13.7699 5.10052 13.1974 5.28483 13.1182 5.53324C13.1446 5.19668 13.7347 5.00436 13.8492 4.77197Z" fill="#006233"/>
<path d="M13.3994 5.54939C13.6725 5.14872 14.2361 5.2529 14.4299 5.02051C14.289 5.29296 13.5932 5.30098 13.3994 5.54939Z" fill="#006233"/>
<path d="M17.1229 10.502C17.1229 12.5831 15.2687 14.2701 12.9814 14.2701C10.6941 14.2701 8.83984 12.5831 8.83984 10.502C8.83984 8.42093 10.6941 6.73389 12.9814 6.73389C15.2687 6.73389 17.1229 8.42093 17.1229 10.502Z" stroke="#F7C608" stroke-width="0.127923" stroke-linecap="round" stroke-linejoin="round"/>
<path d="M12.1713 14.2733L12.1565 14.3195C12.1465 14.3502 12.1138 14.3665 12.0775 14.3651C11.993 14.3426 11.8806 14.3209 11.7792 14.2938L11.8734 14.0018C11.9833 14.0311 12.0956 14.0528 12.1742 14.0654C12.208 14.0744 12.2259 14.1043 12.216 14.135L12.2036 14.1734M11.4912 13.9915L11.5061 13.9454C11.516 13.9147 11.5488 13.8984 11.5826 13.9074C11.6646 13.9377 11.7636 13.9724 11.8734 14.0018L11.7792 14.2938C11.6778 14.2667 11.5764 14.2396 11.4859 14.2071C11.4546 14.1904 11.4466 14.1298 11.4565 14.0991" fill="#F7C608"/>
<path d="M12.1164 14.2474L12.1057 14.2805C12.0985 14.3027 12.0722 14.3133 12.0424 14.3111C11.9721 14.2924 11.879 14.2733 11.7946 14.2508L11.8621 14.0418C11.9534 14.0662 12.0465 14.0852 12.1115 14.0967C12.1396 14.1042 12.1555 14.126 12.1483 14.1483L12.1394 14.1759M11.5473 14.0236L11.5579 13.9906C11.5651 13.9683 11.5914 13.9578 11.6195 13.9653C11.6881 13.9894 11.7707 14.0174 11.8621 14.0418L11.7946 14.2508C11.7103 14.2283 11.6259 14.2057 11.5503 14.1797C11.5239 14.1668 11.5153 14.1228 11.5225 14.1005" fill="#006233"/>
<path d="M11.0308 13.9083L11.0023 13.9487C10.9833 13.9757 10.9468 13.9829 10.9124 13.9723C10.8382 13.929 10.7372 13.8794 10.6482 13.8275L10.8291 13.5714C10.9254 13.6277 11.0265 13.6773 11.0979 13.7095C11.1276 13.7268 11.1355 13.7601 11.1165 13.787L11.0927 13.8207M10.4655 13.4636L10.494 13.4231C10.5131 13.3962 10.5496 13.389 10.5792 13.4063C10.6486 13.4564 10.7327 13.5151 10.8291 13.5714L10.6482 13.8275C10.5593 13.7755 10.4704 13.7235 10.3936 13.6691C10.3687 13.645 10.3798 13.5849 10.3989 13.5579" fill="#F7C608"/>
<path d="M10.9833 13.8691L10.9629 13.898C10.9491 13.9176 10.9206 13.9209 10.8926 13.9112C10.831 13.8752 10.7475 13.8331 10.6735 13.7898L10.803 13.6065C10.8831 13.6534 10.9665 13.6955 11.0253 13.7232C11.05 13.7376 11.0585 13.7626 11.0447 13.7821L11.0276 13.8064M10.5065 13.5085L10.527 13.4795C10.5408 13.46 10.5693 13.4566 10.5939 13.471C10.6522 13.5118 10.7229 13.5597 10.803 13.6065L10.6735 13.7898C10.5996 13.7466 10.5256 13.7034 10.4612 13.659C10.4398 13.6399 10.4451 13.5954 10.4589 13.5759" fill="#006233"/>
<path d="M10.0732 13.2658L10.0333 13.2973C10.0067 13.3182 9.96941 13.3158 9.93968 13.2968C9.88199 13.2363 9.80034 13.1628 9.73111 13.0902L9.98389 12.8908C10.0589 12.9695 10.1405 13.043 10.1991 13.0922C10.2222 13.1165 10.2195 13.1504 10.1929 13.1713L10.1597 13.1976M9.66841 12.6942L9.70832 12.6627C9.73493 12.6417 9.77219 12.6441 9.79527 12.6684C9.84631 12.7342 9.90889 12.8121 9.98389 12.8908L9.73111 13.0902C9.66188 13.0175 9.59264 12.9448 9.53583 12.873C9.5194 12.8435 9.54866 12.7886 9.57527 12.7676" fill="#F7C608"/>
<path d="M10.0389 13.2152L10.0103 13.2378C9.99098 13.253 9.96261 13.2489 9.93876 13.2324C9.89078 13.182 9.82374 13.1202 9.76616 13.0598L9.9471 12.9171C10.0095 12.9826 10.0765 13.0444 10.1244 13.086C10.1435 13.1062 10.144 13.1323 10.1247 13.1475L10.1007 13.1664M9.69302 12.747L9.72162 12.7245C9.74092 12.7093 9.76928 12.7134 9.78847 12.7335C9.8318 12.7875 9.88472 12.8516 9.9471 12.9171L9.76616 13.0598C9.70858 12.9994 9.651 12.9389 9.60288 12.8799C9.58834 12.856 9.6072 12.8147 9.62649 12.7995" fill="#006233"/>
<path d="M9.33489 12.402L9.28684 12.422C9.25482 12.4353 9.21981 12.4234 9.19716 12.3976C9.16055 12.3247 9.10495 12.2333 9.06102 12.1458L9.36529 12.0193C9.41288 12.1141 9.46848 12.2055 9.50944 12.2678C9.52408 12.2969 9.51104 12.3288 9.47901 12.3421L9.43898 12.3587M9.12345 11.7498L9.17149 11.7298C9.20352 11.7165 9.23852 11.7284 9.25317 11.7576C9.28177 11.8338 9.31769 11.9246 9.36529 12.0193L9.06102 12.1458C9.01709 12.0584 8.97315 11.9709 8.94089 11.8874C8.93425 11.8549 8.97932 11.8097 9.01135 11.7964" fill="#F7C608"/>
<path d="M9.31655 12.3461L9.28212 12.3605C9.25889 12.3701 9.23294 12.3589 9.21516 12.337C9.18471 12.2764 9.13952 12.1999 9.10299 12.1272L9.32078 12.0366C9.36036 12.1154 9.40555 12.1919 9.43856 12.2441C9.45073 12.2684 9.44306 12.2935 9.41984 12.3032L9.39101 12.3152M9.12964 11.8083L9.16407 11.794C9.18729 11.7843 9.21324 11.7955 9.22542 11.8198C9.25026 11.8827 9.28119 11.9578 9.32078 12.0366L9.10299 12.1272C9.06645 12.0544 9.0299 11.9817 9.00202 11.9127C8.99544 11.8861 9.02634 11.8513 9.04956 11.8416" fill="#006233"/>
<path d="M8.89257 11.3828L8.84028 11.3897C8.80543 11.3943 8.77552 11.3739 8.76178 11.3433C8.74922 11.264 8.72417 11.162 8.7091 11.0668L9.04022 11.0234C9.05655 11.1265 9.0816 11.2285 9.10161 11.2987C9.10664 11.3305 9.08427 11.3577 9.04941 11.3623L9.00584 11.368M8.8916 10.7028L8.94389 10.696C8.97874 10.6914 9.00865 10.7118 9.01368 10.7435C9.01753 10.824 9.02389 10.9203 9.04022 11.0234L8.7091 11.0668C8.69402 10.9716 8.67895 10.8765 8.67384 10.7881C8.67753 10.7552 8.73476 10.7234 8.76961 10.7188" fill="#F7C608"/>
<path d="M8.8898 11.3246L8.85233 11.3295C8.82706 11.3328 8.80563 11.3154 8.79535 11.2899C8.7849 11.2239 8.76522 11.1389 8.75268 11.0598L8.98969 11.0287C9.00327 11.1144 9.02296 11.1994 9.03846 11.258C9.04264 11.2844 9.02748 11.3066 9.00221 11.3099L8.97084 11.314M8.87697 10.7606L8.91444 10.7557C8.93971 10.7524 8.96114 10.7698 8.96532 10.7962C8.96967 10.863 8.97611 10.9429 8.98969 11.0287L8.75268 11.0598C8.74014 10.9806 8.7276 10.9014 8.72221 10.8281C8.72413 10.8009 8.76456 10.7754 8.78983 10.772" fill="#006233"/>
<path d="M8.77575 10.2942L8.72346 10.2874C8.68861 10.2828 8.66621 10.2556 8.6625 10.2227C8.675 10.1434 8.68254 10.0391 8.69754 9.94395L9.02869 9.98715C9.01244 10.0903 9.0049 10.1945 9.00237 10.2671C8.99737 10.2988 8.96747 10.3192 8.93261 10.3146L8.88904 10.309M8.98534 9.64147L9.03763 9.64829C9.07249 9.65284 9.09488 9.68005 9.08988 9.71178C9.06866 9.78997 9.04495 9.88402 9.02869 9.98715L8.69754 9.94395C8.71254 9.84876 8.72755 9.75356 8.75002 9.66744C8.76373 9.63684 8.82848 9.62101 8.86334 9.62555" fill="#F7C608"/>
<path d="M8.7967 10.2385L8.75923 10.2336C8.73396 10.2303 8.71878 10.2081 8.71684 10.1809C8.72724 10.1149 8.73465 10.0284 8.74713 9.94918L8.98417 9.9801C8.97065 10.0659 8.96323 10.1524 8.95997 10.2126C8.95582 10.239 8.93439 10.2564 8.90912 10.2531L8.87775 10.249M8.95899 9.69402L8.99647 9.69891C9.02174 9.70221 9.03692 9.72438 9.03276 9.75078C9.01626 9.81596 8.99768 9.89433 8.98417 9.9801L8.74713 9.94918C8.75961 9.87001 8.77209 9.79083 8.78962 9.71906C8.79988 9.69346 8.84658 9.67935 8.87185 9.68265" fill="#006233"/>
<path d="M9.01321 9.22319L8.96516 9.20325C8.93312 9.18995 8.92006 9.1581 8.92667 9.12561C8.96323 9.0527 9.00273 8.9546 9.0466 8.86711L9.35096 8.99342C9.30344 9.0882 9.26393 9.18631 9.23904 9.25525C9.22442 9.28442 9.18942 9.29632 9.15739 9.28302L9.11734 9.2664M9.41638 8.65064L9.46444 8.67058C9.49648 8.68388 9.50954 8.71572 9.49492 8.74488C9.45036 8.81447 9.39848 8.89864 9.35096 8.99342L9.0466 8.86711C9.09046 8.77962 9.13433 8.69212 9.18255 8.61524C9.20518 8.5894 9.27221 8.5908 9.30425 8.6041" fill="#F7C608"/>
<path d="M9.05144 9.17448L9.017 9.16019C8.99378 9.15055 8.98608 9.12537 8.99263 9.09879C9.02303 9.03816 9.05695 8.95699 9.09343 8.88423L9.31129 8.97464C9.27177 9.05347 9.23785 9.13463 9.2161 9.19153C9.20394 9.21579 9.178 9.227 9.15477 9.21736L9.12593 9.2054M9.37571 8.6937L9.41015 8.70799C9.43337 8.71763 9.44107 8.7428 9.42891 8.76706C9.3929 8.82537 9.35082 8.89581 9.31129 8.97464L9.09343 8.88423C9.12992 8.81146 9.1664 8.73869 9.20545 8.67432C9.22322 8.65238 9.27238 8.65081 9.29561 8.66045" fill="#006233"/>
<path d="M9.58471 8.25388L9.54478 8.22242C9.51815 8.20146 9.51548 8.16755 9.53188 8.13807C9.58953 8.07748 9.65781 7.99348 9.72698 7.92077L9.97992 8.11997C9.90499 8.19873 9.8367 8.28274 9.79148 8.34251C9.76842 8.36675 9.73115 8.3692 9.70453 8.34823L9.67125 8.32202M10.1488 7.80783L10.1888 7.83928C10.2154 7.86025 10.2181 7.89415 10.195 7.91839C10.1307 7.97374 10.0549 8.0412 9.97992 8.11997L9.72698 7.92077C9.79616 7.84806 9.86534 7.77535 9.93541 7.71394C9.96512 7.69495 10.029 7.71347 10.0556 7.73444" fill="#F7C608"/>
<path d="M9.63143 8.21619L9.60281 8.19364C9.58351 8.17844 9.58392 8.15231 9.59843 8.12849C9.64638 8.0781 9.70405 8.00891 9.76158 7.94845L9.94263 8.09103C9.88031 8.15654 9.82264 8.22572 9.78415 8.27474C9.76497 8.2949 9.73661 8.29901 9.7173 8.28381L9.69334 8.26493M10.0914 7.83797L10.12 7.86051C10.1393 7.87571 10.1389 7.90184 10.1198 7.922C10.0672 7.96872 10.005 8.02552 9.94263 8.09103L9.76158 7.94845C9.81911 7.88798 9.87665 7.8275 9.93405 7.77574C9.95789 7.75925 10.0056 7.77034 10.0249 7.78554" fill="#006233"/>
<path d="M10.4071 7.46832L10.3786 7.42791C10.3595 7.40097 10.3674 7.36775 10.3923 7.34367C10.4664 7.3003 10.5579 7.2372 10.6468 7.18516L10.8278 7.44112C10.7315 7.49749 10.64 7.5606 10.5781 7.60636C10.5485 7.6237 10.512 7.61651 10.4929 7.58956L10.4691 7.55589M11.0865 7.1849L11.1151 7.22531C11.1341 7.25226 11.1262 7.28547 11.0966 7.30281C11.0178 7.33944 10.9241 7.38474 10.8278 7.44112L10.6468 7.18516C10.7357 7.13313 10.8246 7.08109 10.9108 7.04012C10.9452 7.02951 11.0008 7.06365 11.0198 7.0906" fill="#F7C608"/>
<path d="M10.4636 7.44606L10.4432 7.41709C10.4293 7.39756 10.4378 7.37259 10.4591 7.35345C10.5207 7.31739 10.5975 7.26579 10.6714 7.22251L10.801 7.40572C10.7209 7.4526 10.6442 7.5042 10.592 7.54138C10.5674 7.5558 10.5389 7.55248 10.5251 7.53294L10.508 7.5087M11.0221 7.20103L11.0426 7.23C11.0564 7.24953 11.0479 7.27449 11.0233 7.28892C10.9583 7.32027 10.8811 7.35883 10.801 7.40572L10.6714 7.22251C10.7453 7.17923 10.8193 7.13595 10.8904 7.10099C10.9184 7.09128 10.9606 7.11414 10.9745 7.13367" fill="#006233"/>
<path d="M11.4673 6.92814L11.4524 6.88204C11.4425 6.8513 11.4604 6.82146 11.4917 6.80473C11.5762 6.7821 11.6836 6.74501 11.7849 6.71786L11.8794 7.00984C11.7696 7.03925 11.6622 7.07635 11.5886 7.10439C11.5548 7.11344 11.522 7.09718 11.5121 7.06645L11.4997 7.02803M12.2069 6.83029L12.2219 6.87639C12.2318 6.90713 12.2139 6.93696 12.1801 6.94601C12.0931 6.96096 11.9892 6.98042 11.8794 7.00984L11.7849 6.71786C11.8863 6.6907 11.9877 6.66355 12.0832 6.64635C12.1195 6.64498 12.1622 6.69198 12.1721 6.72271" fill="#F7C608"/>
<path d="M11.5341 6.92092L11.5234 6.88788C11.5162 6.8656 11.5321 6.84382 11.5585 6.83091C11.6287 6.8121 11.7184 6.78225 11.8027 6.75967L11.8703 6.96867C11.779 6.99313 11.6893 7.02297 11.6278 7.04529C11.5997 7.05281 11.5734 7.04233 11.5662 7.02004L11.5573 6.99238M12.1458 6.82893L12.1565 6.86197C12.1637 6.88426 12.1479 6.90604 12.1197 6.91356C12.0477 6.927 11.9617 6.9442 11.8703 6.96867L11.8027 6.75967C11.887 6.73709 11.9714 6.71451 12.0504 6.69919C12.0803 6.69704 12.1138 6.72981 12.121 6.75209" fill="#006233"/>
<path d="M12.6242 6.67963L12.6242 6.63157C12.6242 6.59953 12.6506 6.57549 12.6858 6.56745C12.7739 6.5674 12.8884 6.55932 12.9941 6.55925L12.9943 6.86361C12.8798 6.86368 12.7653 6.87177 12.686 6.87983C12.6508 6.87985 12.6244 6.85584 12.6243 6.8238L12.6243 6.78375M13.3642 6.77527L13.3642 6.82333C13.3642 6.85537 13.3378 6.87941 13.3026 6.87943C13.2145 6.87148 13.1088 6.86354 12.9943 6.86361L12.9941 6.55925C13.0998 6.55918 13.2055 6.55912 13.3024 6.56706C13.3376 6.57505 13.3641 6.6311 13.3641 6.66314" fill="#F7C608"/>
<path d="M12.6902 6.68856L12.6902 6.65412C12.6901 6.6309 12.7121 6.61406 12.7414 6.60844C12.8147 6.60839 12.9099 6.60272 12.9978 6.60267L12.998 6.82052C12.9027 6.82059 12.8075 6.82625 12.7416 6.8319C12.7123 6.83192 12.6903 6.81511 12.6903 6.79189L12.6902 6.76305M13.3056 6.75705L13.3056 6.7915C13.3056 6.81472 13.2837 6.83156 13.2544 6.83158C13.1811 6.82602 13.0932 6.82046 12.998 6.82052L12.9978 6.60267C13.0857 6.60261 13.1736 6.60255 13.2542 6.60811C13.2835 6.6137 13.3055 6.65373 13.3055 6.67696" fill="#006233"/>
<path d="M13.7439 6.73177L13.7584 6.68555C13.768 6.65473 13.8006 6.63819 13.8369 6.63924C13.9217 6.66115 14.0342 6.68192 14.1359 6.70821L14.0445 7.00098C13.9343 6.97251 13.8218 6.95173 13.7431 6.93972C13.7092 6.93096 13.691 6.90128 13.7006 6.87046L13.7127 6.83193M14.4268 7.00824L14.4124 7.05447C14.4027 7.08528 14.3701 7.10183 14.3362 7.09306C14.2539 7.06345 14.1546 7.02946 14.0445 7.00098L14.1359 6.70821C14.2376 6.7345 14.3393 6.76078 14.4301 6.79259C14.4615 6.80905 14.4701 6.86956 14.4605 6.90037" fill="#F7C608"/>
<path d="M13.7998 6.75739L13.8101 6.72426C13.8171 6.70191 13.8433 6.6912 13.8732 6.69309C13.9436 6.71131 14.0369 6.7296 14.1215 6.75147L14.056 6.96103C13.9644 6.93735 13.8711 6.91906 13.806 6.90805C13.7778 6.90077 13.7617 6.87912 13.7687 6.85678L13.7774 6.82904M14.371 6.97669L14.3607 7.00982C14.3537 7.03216 14.3275 7.04287 14.2993 7.03559C14.2305 7.01197 14.1476 6.98472 14.056 6.96103L14.1215 6.75147C14.206 6.77333 14.2906 6.79519 14.3664 6.82063C14.393 6.83331 14.4021 6.8773 14.3951 6.89964" fill="#006233"/>
<path d="M14.883 7.08787L14.9112 7.04721C14.93 7.02011 14.9664 7.0126 15.0009 7.02292C15.0754 7.06565 15.177 7.11442 15.2664 7.1657L15.088 7.42319C14.9912 7.36764 14.8896 7.31886 14.8179 7.28718C14.788 7.27009 14.7798 7.23694 14.7986 7.20984L14.822 7.17596M15.4526 7.52812L15.4245 7.56878C15.4057 7.59588 15.3692 7.60339 15.3394 7.5863C15.2696 7.53679 15.1849 7.47874 15.088 7.42319L15.2664 7.1657C15.3558 7.21698 15.4453 7.26826 15.5225 7.32204C15.5476 7.34591 15.5371 7.40616 15.5183 7.43326" fill="#F7C608"/>
<path d="M14.9316 7.12656L14.9518 7.09743C14.9654 7.07777 14.9939 7.07421 15.0219 7.08368C15.0839 7.11922 15.1678 7.16068 15.2421 7.20333L15.1144 7.38763C15.0339 7.34143 14.95 7.29997 14.891 7.27273C14.8662 7.25852 14.8574 7.23362 14.8711 7.21397L14.888 7.18958M15.4118 7.48337L15.3916 7.51251C15.378 7.53216 15.3496 7.53572 15.3248 7.52151C15.2661 7.48122 15.195 7.43384 15.1144 7.38763L15.2421 7.20333C15.3165 7.24597 15.3909 7.28862 15.4558 7.33246C15.4773 7.35142 15.4724 7.39596 15.4588 7.41561" fill="#006233"/>
<path d="M15.8641 7.72161L15.9037 7.68982C15.9301 7.66862 15.9674 7.67076 15.9973 7.6895C16.0556 7.7496 16.1379 7.82242 16.2078 7.89454L15.957 8.09588C15.8812 8.01776 15.7989 7.94493 15.7398 7.89615C15.7165 7.87211 15.7188 7.83818 15.7453 7.81699L15.7783 7.79049M16.2743 8.29L16.2347 8.32179C16.2083 8.34299 16.171 8.34086 16.1477 8.31682C16.096 8.25143 16.0327 8.17401 15.957 8.09588L16.2078 7.89454C16.2778 7.96665 16.3477 8.03877 16.4052 8.11018C16.4219 8.13951 16.3931 8.19463 16.3667 8.21582" fill="#F7C608"/>
<path d="M15.8996 7.77143L15.928 7.74865C15.9471 7.73328 15.9755 7.73715 15.9995 7.75343C16.048 7.80342 16.1156 7.86469 16.1738 7.92466L15.9942 8.06879C15.9312 8.00381 15.8636 7.94254 15.8153 7.90127C15.7959 7.88128 15.7953 7.85515 15.8144 7.83979L15.8382 7.82071M16.2499 8.23685L16.2215 8.25964C16.2023 8.275 16.1739 8.27114 16.1546 8.25114C16.1107 8.19745 16.0572 8.13377 15.9942 8.06879L16.1738 7.92466C16.2319 7.98464 16.2901 8.04463 16.3387 8.10331C16.3535 8.12702 16.335 8.1685 16.3159 8.18387" fill="#006233"/>
<path d="M16.6028 8.57932L16.6507 8.55897C16.6826 8.5454 16.7177 8.557 16.7406 8.58265C16.7779 8.65524 16.8344 8.74622 16.8791 8.83334L16.5761 8.96224C16.5276 8.86787 16.4711 8.77688 16.4296 8.71494C16.4146 8.68591 16.4274 8.65395 16.4593 8.64038L16.4992 8.62342M16.8205 9.22983L16.7726 9.25018C16.7407 9.26375 16.7056 9.25215 16.6907 9.22311C16.6614 9.14712 16.6246 9.05662 16.5761 8.96224L16.8791 8.83334C16.9239 8.92045 16.9687 9.00757 17.0017 9.09082C17.0087 9.12325 16.964 9.16877 16.9321 9.18234" fill="#F7C608"/>
<path d="M16.6224 8.63572L16.6567 8.62113C16.6798 8.61129 16.7059 8.62229 16.7239 8.64406C16.7549 8.70444 16.8008 8.78056 16.838 8.85301L16.6211 8.94527C16.5808 8.86679 16.5349 8.79067 16.5013 8.7387C16.4889 8.71456 16.4964 8.68931 16.5195 8.67948L16.5482 8.66727M16.8144 9.17206L16.7801 9.18665C16.757 9.19649 16.7309 9.1855 16.7185 9.16134C16.6931 9.09859 16.6614 9.02377 16.6211 8.94527L16.838 8.85301C16.8753 8.92546 16.9125 8.99792 16.941 9.06671C16.9479 9.09324 16.9173 9.12831 16.8942 9.13815" fill="#006233"/>
<path d="M17.0569 9.59432L17.1091 9.58706C17.1439 9.58221 17.174 9.60235 17.188 9.63282C17.2013 9.71204 17.2273 9.81381 17.2433 9.90888L16.9126 9.9549C16.8953 9.85192 16.8693 9.75014 16.8486 9.68006C16.8433 9.64837 16.8654 9.62097 16.9002 9.61612L16.9437 9.61007M17.0643 10.2743L17.0121 10.2816C16.9773 10.2864 16.9472 10.2663 16.9419 10.2346C16.9372 10.1542 16.93 10.0579 16.9126 9.9549L17.2433 9.90888C17.2593 10.0039 17.2753 10.099 17.2812 10.1874C17.2779 10.2203 17.2209 10.2525 17.1861 10.2573" fill="#F7C608"/>
<path d="M17.0608 9.65339L17.0982 9.64818C17.1234 9.64467 17.145 9.66189 17.1556 9.6874C17.1666 9.75328 17.1871 9.83809 17.2004 9.91715L16.9637 9.95009C16.9493 9.86445 16.9288 9.77964 16.9128 9.72119C16.9083 9.69484 16.9233 9.67252 16.9485 9.66901L16.9798 9.66465M17.079 10.2172L17.0416 10.2225C17.0163 10.226 16.9947 10.2087 16.9903 10.1824C16.9853 10.1157 16.9781 10.0357 16.9637 9.95009L17.2004 9.91715C17.2137 9.99621 17.227 10.0753 17.2331 10.1486C17.2314 10.1758 17.1912 10.2016 17.166 10.2051" fill="#006233"/>
<path d="M17.1742 10.6833L17.2266 10.6897C17.2615 10.694 17.2841 10.721 17.2881 10.7539C17.2764 10.8333 17.2698 10.9376 17.2557 11.0329L16.9242 10.9923C16.9395 10.8891 16.946 10.7847 16.9479 10.7122C16.9526 10.6804 16.9823 10.6598 17.0172 10.6641L17.0608 10.6694M16.9708 11.3376L16.9185 11.3312C16.8836 11.3269 16.8609 11.2999 16.8656 11.2681C16.8861 11.1898 16.9089 11.0955 16.9242 10.9923L17.2557 11.0329C17.2416 11.1282 17.2275 11.2235 17.2059 11.3098C17.1925 11.3405 17.1279 11.3568 17.093 11.3526" fill="#F7C608"/>
<path d="M17.1543 10.7382L17.1918 10.7428C17.2171 10.7459 17.2325 10.7679 17.2347 10.7951C17.2249 10.8612 17.2183 10.9478 17.2066 11.027L16.9693 10.998C16.982 10.9121 16.9886 10.8255 16.9912 10.7653C16.9951 10.7389 17.0164 10.7213 17.0417 10.7244L17.0731 10.7283M16.9972 11.2839L16.9596 11.2793C16.9343 11.2762 16.9189 11.2541 16.9229 11.2277C16.9387 11.1624 16.9566 11.0839 16.9693 10.998L17.2066 11.027C17.1948 11.1063 17.1831 11.1856 17.1663 11.2575C17.1563 11.2832 17.1097 11.2976 17.0844 11.2945" fill="#006233"/>
<path d="M16.9495 11.7557L16.9978 11.7753C17.0299 11.7884 17.0433 11.8201 17.037 11.8526C17.0011 11.9258 16.9626 12.0242 16.9195 12.1121L16.614 11.9882C16.6606 11.893 16.6991 11.7946 16.7234 11.7255C16.7377 11.6962 16.7726 11.684 16.8048 11.697L16.845 11.7134M16.5518 12.3315L16.5036 12.3119C16.4714 12.2988 16.458 12.2671 16.4724 12.2378C16.5163 12.1679 16.5673 12.0833 16.614 11.9882L16.9195 12.1121C16.8765 12.1999 16.8335 12.2877 16.786 12.365C16.7636 12.391 16.6965 12.3901 16.6644 12.3771" fill="#F7C608"/>
<path d="M16.912 11.8048L16.9466 11.8188C16.9699 11.8283 16.9779 11.8534 16.9716 11.88C16.9418 11.9409 16.9086 12.0223 16.8728 12.0954L16.6541 12.0067C16.6929 11.9276 16.726 11.8461 16.7472 11.7891C16.7592 11.7647 16.785 11.7533 16.8083 11.7628L16.8373 11.7745M16.5924 12.2881L16.5578 12.2741C16.5345 12.2647 16.5265 12.2395 16.5385 12.2152C16.5739 12.1566 16.6153 12.0858 16.6541 12.0067L16.8728 12.0954C16.837 12.1684 16.8012 12.2415 16.7628 12.3062C16.7452 12.3282 16.6961 12.3302 16.6728 12.3207" fill="#006233"/>
<path d="M16.3902 12.7293L16.4304 12.7604C16.4572 12.7812 16.4602 12.8151 16.4441 12.8447C16.387 12.9057 16.3196 12.9903 16.2511 13.0635L15.9963 12.8663C16.0704 12.787 16.1379 12.7024 16.1826 12.6423C16.2054 12.6179 16.2426 12.6151 16.2695 12.6359L16.303 12.6618M15.8303 13.1798L15.7901 13.1486C15.7633 13.1279 15.7603 13.094 15.7831 13.0696C15.8469 13.0137 15.9221 12.9457 15.9963 12.8663L16.2511 13.0635C16.1826 13.1368 16.1141 13.21 16.0446 13.272C16.0151 13.2912 15.951 13.2732 15.9242 13.2524" fill="#F7C608"/>
<path d="M16.3439 12.767L16.3728 12.7893C16.3922 12.8044 16.392 12.8305 16.3778 12.8545C16.3303 12.9052 16.2733 12.9749 16.2163 13.0358L16.0339 12.8946C16.0956 12.8286 16.1526 12.759 16.1907 12.7097C16.2096 12.6894 16.238 12.685 16.2574 12.7001L16.2816 12.7188M15.8876 13.1488L15.8587 13.1265C15.8393 13.1115 15.8394 13.0854 15.8584 13.065C15.9106 13.0179 15.9722 12.9606 16.0339 12.8946L16.2163 13.0358C16.1594 13.0967 16.1024 13.1576 16.0455 13.2098C16.0218 13.2265 15.9741 13.2158 15.9546 13.2007" fill="#006233"/>
<path d="M15.5802 13.5215L15.6092 13.5616C15.6285 13.5884 15.6209 13.6217 15.5962 13.646C15.5226 13.6899 15.4317 13.7538 15.3433 13.8065L15.1598 13.552C15.2556 13.4948 15.3465 13.431 15.408 13.3848C15.4374 13.3672 15.474 13.3741 15.4933 13.4009L15.5175 13.4344M14.9036 13.8102L14.8746 13.77C14.8553 13.7432 14.8629 13.71 14.8924 13.6924C14.9709 13.6551 15.0641 13.6091 15.1598 13.552L15.3433 13.8065C15.2549 13.8592 15.1665 13.912 15.0807 13.9536C15.0464 13.9645 14.9905 13.9308 14.9712 13.904" fill="#F7C608"/>
<path d="M15.5238 13.5463L15.5446 13.5751C15.5586 13.5945 15.5504 13.6195 15.5292 13.6388C15.468 13.6754 15.3917 13.7276 15.3182 13.7714L15.1869 13.5893C15.2665 13.5418 15.3428 13.4896 15.3945 13.452C15.419 13.4374 15.4476 13.4404 15.4616 13.4599L15.4789 13.484M14.9678 13.7957L14.947 13.7669C14.933 13.7475 14.9412 13.7224 14.9657 13.7078C15.0304 13.676 15.1073 13.6368 15.1869 13.5893L15.3182 13.7714C15.2447 13.8153 15.1712 13.8592 15.1004 13.8947C15.0725 13.9046 15.03 13.8821 15.016 13.8627" fill="#006233"/>
<path d="M14.5346 14.0702L14.55 14.1162C14.5602 14.1468 14.5426 14.1768 14.5114 14.1938C14.4272 14.2171 14.3202 14.255 14.219 14.283L14.1218 13.9917C14.2313 13.9614 14.3384 13.9235 14.4116 13.8949C14.4454 13.8856 14.4783 13.9016 14.4885 13.9322L14.5013 13.9705M13.796 14.1738L13.7806 14.1279C13.7704 14.0972 13.788 14.0672 13.8217 14.0579C13.9085 14.0423 14.0122 14.022 14.1218 13.9917L14.219 14.283C14.1179 14.3109 14.0167 14.3389 13.9215 14.3568C13.8852 14.3585 13.842 14.3118 13.8318 14.2811" fill="#F7C608"/>
<path d="M14.4676 14.0775L14.4786 14.1104C14.486 14.1327 14.4704 14.1546 14.4441 14.1677C14.374 14.1871 14.2847 14.2176 14.2006 14.2409L14.131 14.0324C14.2221 14.0072 14.3114 13.9767 14.3727 13.9539C14.4008 13.9461 14.4272 13.9564 14.4346 13.9786L14.4438 14.0062M13.8568 14.1743L13.8458 14.1413C13.8384 14.1191 13.854 14.0972 13.8821 14.0895C13.954 14.0755 14.0399 14.0576 14.131 14.0324L14.2006 14.2409C14.1165 14.2641 14.0324 14.2873 13.9535 14.3033C13.9236 14.3057 13.8898 14.2732 13.8824 14.2509" fill="#006233"/>
<path d="M13.3561 14.3302L13.3566 14.3782C13.357 14.4103 13.3308 14.4345 13.2956 14.4428C13.2076 14.4436 13.0932 14.4526 12.9875 14.4535L12.9843 14.1491C13.0988 14.1481 13.2132 14.1391 13.2924 14.1305C13.3277 14.1302 13.3543 14.154 13.3547 14.186L13.3551 14.226M12.6153 14.2404L12.6148 14.1923C12.6145 14.1603 12.6407 14.136 12.6759 14.1357C12.7641 14.143 12.8698 14.1501 12.9843 14.1491L12.9875 14.4535C12.8818 14.4544 12.7761 14.4553 12.6791 14.4481C12.6438 14.4404 12.6168 14.3845 12.6165 14.3525" fill="#F7C608"/>
<path d="M13.2896 14.3198L13.29 14.3542C13.2902 14.3774 13.2684 14.3944 13.2392 14.4003C13.1659 14.4009 13.0708 14.4073 12.9829 14.4081L12.9806 14.1902C13.0758 14.1894 13.171 14.183 13.2369 14.1768C13.2662 14.1766 13.2883 14.1932 13.2886 14.2165L13.2889 14.2453M12.6736 14.2561L12.6733 14.2217C12.673 14.1985 12.6948 14.1815 12.7241 14.1812C12.7974 14.1862 12.8854 14.191 12.9806 14.1902L12.9829 14.4081C12.895 14.4088 12.8071 14.4096 12.7264 14.4047C12.6971 14.3993 12.6747 14.3595 12.6744 14.3362" fill="#006233"/>
</svg>
