<svg width="256" height="152" viewBox="0 0 256 152" fill="none" xmlns="http://www.w3.org/2000/svg">
<path d="M127.313 23.7102C127.314 20.0887 126.487 16.5151 124.895 13.2637C123.303 10.0124 120.989 7.16976 118.13 4.95406C115.271 2.73837 111.943 1.2085 108.403 0.48194C104.862 -0.244624 101.202 -0.148585 97.704 0.762688C94.206 1.67396 90.9628 3.37625 88.2236 5.73885C85.4843 8.10145 83.3218 11.0615 81.902 14.3919C80.4821 17.7223 79.8426 21.3344 80.0328 24.9509C80.2229 28.5674 81.2375 32.0922 82.9988 35.2546L102.604 70.1691C102.716 70.3508 102.872 70.5009 103.058 70.605C103.243 70.7091 103.452 70.7638 103.665 70.7638C103.878 70.7638 104.087 70.7091 104.273 70.605C104.459 70.5009 104.615 70.3508 104.726 70.1691L124.35 35.2371C126.298 31.709 127.318 27.7422 127.313 23.7102Z" fill="#199675"/>
<path d="M114.156 35.4186C120.638 29.5934 121.179 19.6062 115.366 13.1116C109.552 6.61697 99.5849 6.07431 93.1033 11.8996C86.6217 17.7248 86.08 27.7121 91.8936 34.2067C97.7072 40.7013 107.675 41.2439 114.156 35.4186Z" fill="white"/>
<path d="M255.148 110.65C255.156 108.874 254.757 107.12 253.981 105.523C253.206 103.926 252.074 102.529 250.675 101.439C249.275 100.35 247.645 99.5966 245.909 99.2384C244.173 98.8801 242.378 98.9262 240.662 99.373C238.947 99.8197 237.357 100.655 236.015 101.815C234.673 102.975 233.614 104.428 232.921 106.063C232.228 107.697 231.919 109.47 232.018 111.243C232.117 113.016 232.62 114.743 233.49 116.29L243.065 133.37C243.12 133.461 243.197 133.536 243.289 133.588C243.381 133.641 243.485 133.668 243.591 133.668C243.695 133.667 243.796 133.639 243.885 133.586C243.974 133.534 244.048 133.459 244.1 133.37L253.692 116.29C254.652 114.566 255.154 112.624 255.148 110.65Z" fill="#1F1F1F"/>
<path d="M243.591 118.381C247.852 118.381 251.307 114.92 251.307 110.65C251.307 106.38 247.852 102.918 243.591 102.918C239.33 102.918 235.875 106.38 235.875 110.65C235.875 114.92 239.33 118.381 243.591 118.381Z" fill="white"/>
<path d="M27.9999 123.434C28.0048 121.232 27.5184 119.057 26.5782 117.078C25.6379 115.099 24.2689 113.368 22.5765 112.019C20.884 110.669 18.9131 109.737 16.8155 109.294C14.7179 108.851 12.5496 108.909 10.4771 109.463C8.4047 110.018 6.48348 111.054 4.86129 112.492C3.2391 113.929 1.95919 115.731 1.11998 117.757C0.280765 119.784 -0.0953795 121.982 0.0205236 124.181C0.136427 126.381 0.741268 128.524 1.78851 130.445L13.3832 151.635C13.447 151.749 13.5394 151.843 13.6506 151.907C13.7619 151.971 13.8878 152.003 14.0154 152C14.1385 152 14.2598 151.969 14.3677 151.908C14.4756 151.846 14.5666 151.758 14.6321 151.651L26.2422 130.429C27.4015 128.291 28.0068 125.882 27.9999 123.434Z" fill="#199675"/>
<path d="M23 123.485C23.003 125.368 22.4461 127.21 21.3999 128.777C20.3537 130.343 18.8655 131.563 17.1243 132.281C15.3832 133 13.4679 133.185 11.6215 132.812C9.77509 132.44 8.08105 131.527 6.7547 130.19C5.42835 128.852 4.52947 127.151 4.17233 125.301C3.81519 123.452 4.01589 121.538 4.74891 119.803C5.48193 118.068 6.71422 116.59 8.28915 115.557C9.86408 114.523 11.7106 113.982 13.5941 114C16.0958 114.021 18.4882 115.029 20.2499 116.806C22.0116 118.582 23.0001 120.983 23 123.485Z" fill="white"/>
</svg>
