<svg width="269" height="96" viewBox="0 0 269 96" fill="none" xmlns="http://www.w3.org/2000/svg">
<path d="M80.8138 50.8947C80.5049 50.9197 80.2347 50.6876 80.2098 50.3779L79.9433 47.0126C79.9184 46.7029 80.1499 46.432 80.4588 46.4071C80.7677 46.3821 81.0378 46.6142 81.0627 46.9239L81.3292 50.2891C81.3532 50.5988 81.1227 50.8697 80.8138 50.8947ZM22.7231 55.5173C22.4143 55.5423 22.1441 55.3102 22.1192 55.0005L22.0463 54.0834C22.0214 53.7737 22.252 53.5028 22.5609 53.4778C22.8698 53.4528 23.1399 53.6849 23.1648 53.9946L23.2377 54.9117C23.2626 55.2214 23.032 55.4933 22.7231 55.5173ZM22.3838 51.2349C22.0749 51.2599 21.8048 51.0278 21.7799 50.7181L21.5134 47.3529C21.4885 47.0431 21.719 46.7723 22.0288 46.7473C22.3377 46.7223 22.6079 46.9544 22.6328 47.2641L22.8993 50.6303C22.9232 50.9391 22.6927 51.2109 22.3838 51.2349ZM80.2808 44.1632C79.9719 44.1882 79.7017 43.9562 79.6769 43.6464L79.4104 40.2812C79.3855 39.9715 79.6169 39.7006 79.9258 39.6756C80.2347 39.6507 80.5049 39.8827 80.5298 40.1924L80.7963 43.5577C80.8202 43.8674 80.5897 44.1392 80.2808 44.1632ZM21.8509 44.5035C21.542 44.5284 21.2718 44.2964 21.2469 43.9867L21.1759 43.0917C21.1095 42.2541 21.0781 41.4054 21.0818 40.5696C21.0837 40.259 21.3372 40.0103 21.6452 40.0094C21.955 40.0112 22.2049 40.2636 22.204 40.5743C22.2003 41.3786 22.2308 42.195 22.2944 43.0021L22.3654 43.897C22.3903 44.2076 22.1598 44.4794 21.8509 44.5035ZM79.7073 37.4374C79.4113 37.4605 79.1466 37.2478 79.107 36.9501C78.9622 35.8564 78.7538 34.7637 78.4864 33.7014C78.4108 33.4 78.5934 33.094 78.8931 33.0182C79.1946 32.9433 79.4989 33.1254 79.5745 33.4259C79.852 34.5297 80.0687 35.666 80.219 36.8022C80.2596 37.1101 80.0438 37.393 79.7368 37.4337C79.7266 37.4355 79.7165 37.4364 79.7073 37.4374ZM21.897 37.7674C21.8601 37.7702 21.8223 37.7693 21.7845 37.7646C21.4765 37.7277 21.257 37.4475 21.2948 37.1387C21.4313 36.0034 21.636 34.8653 21.9025 33.755C21.9753 33.4527 22.2787 33.2678 22.5793 33.3399C22.8808 33.4129 23.0662 33.7171 22.9933 34.0185C22.737 35.0872 22.5397 36.1819 22.4087 37.2737C22.3764 37.5446 22.1579 37.7462 21.897 37.7674ZM78.065 30.9065C77.8235 30.926 77.5874 30.7845 77.4961 30.5451C77.107 29.5188 76.6524 28.5028 76.1462 27.5247C76.0032 27.2491 76.1102 26.9089 76.3859 26.7656C76.6607 26.6223 76.9991 26.7305 77.143 27.006C77.6695 28.022 78.1416 29.0778 78.5464 30.1457C78.657 30.436 78.5104 30.7614 78.2209 30.8714C78.1683 30.8908 78.1167 30.9028 78.065 30.9065ZM23.4691 31.22C23.3907 31.2264 23.3096 31.2163 23.2312 31.1867C22.9408 31.0794 22.7914 30.7558 22.8983 30.4646C23.2912 29.394 23.7513 28.3336 24.2667 27.3129C24.4069 27.0356 24.7444 26.9256 25.021 27.0642C25.2976 27.2048 25.4083 27.5431 25.2681 27.8205C24.7729 28.8023 24.3294 29.8221 23.9514 30.852C23.8739 31.0665 23.6812 31.2033 23.4691 31.22ZM74.9659 24.9286C74.7713 24.9443 74.574 24.8574 74.456 24.6836C73.841 23.7748 73.1669 22.891 72.4495 22.0561C72.2476 21.8204 72.2734 21.4653 72.5085 21.2629C72.7437 21.0604 73.0978 21.0863 73.2997 21.322C74.0447 22.1892 74.7455 23.1082 75.3845 24.0521C75.5588 24.3092 75.4915 24.6596 75.2352 24.8334C75.1522 24.8898 75.0599 24.9212 74.9659 24.9286ZM26.5009 25.2124C26.3802 25.2217 26.2557 25.193 26.1478 25.1209C25.8887 24.9499 25.8177 24.6004 25.9892 24.3415C26.6162 23.3893 27.3069 22.4629 28.0399 21.5864C28.2391 21.3488 28.5932 21.3174 28.8301 21.5171C29.068 21.7168 29.0985 22.0718 28.8993 22.3103C28.193 23.1535 27.5291 24.0457 26.9251 24.9619C26.8264 25.1116 26.6669 25.1985 26.5009 25.2124ZM70.5814 19.8234C70.4311 19.8354 70.2762 19.7864 70.1563 19.6764C69.3495 18.9303 68.4919 18.224 67.6058 17.5768C67.3559 17.3937 67.3006 17.0424 67.4831 16.791C67.6657 16.5404 68.017 16.4849 68.2669 16.668C69.1872 17.3401 70.0788 18.0742 70.917 18.8499C71.1448 19.0607 71.1595 19.4166 70.9493 19.645C70.8497 19.7531 70.7169 19.8132 70.5814 19.8234ZM30.8219 20.0545C30.6586 20.0675 30.4908 20.0092 30.3691 19.8798C30.1561 19.6542 30.1662 19.2973 30.3912 19.0847C31.2211 18.2988 32.1045 17.5537 33.0155 16.8705C33.2635 16.6837 33.6158 16.7355 33.8011 16.9842C33.9864 17.2329 33.9357 17.586 33.6877 17.7719C32.8108 18.4292 31.9616 19.1457 31.163 19.9029C31.0662 19.9944 30.9454 20.0443 30.8219 20.0545ZM65.1521 15.8563C65.0442 15.8646 64.9336 15.8424 64.8321 15.7851C63.8759 15.2433 62.8801 14.7515 61.8722 14.3253C61.5864 14.2042 61.4527 13.8741 61.5735 13.5875C61.6943 13.3009 62.0235 13.1678 62.3093 13.2879C63.3568 13.7308 64.3914 14.2411 65.3854 14.8051C65.6547 14.9576 65.7505 15.3016 65.5975 15.5715C65.5016 15.7416 65.3328 15.8424 65.1521 15.8563ZM36.2041 16.0208C35.9957 16.0375 35.7864 15.9358 35.6739 15.7426C35.518 15.4735 35.6093 15.1296 35.8777 14.9733C36.8643 14.3983 37.8952 13.8759 38.9399 13.4211C39.2248 13.2963 39.5549 13.4276 39.6785 13.7132C39.8021 13.998 39.6721 14.3299 39.3871 14.4538C38.3821 14.8911 37.3908 15.394 36.442 15.9469C36.3664 15.9903 36.2852 16.0144 36.2041 16.0208ZM58.9649 13.238C58.8985 13.2436 58.8312 13.2371 58.7639 13.2168C57.7118 12.9098 56.6302 12.6611 55.5486 12.479C55.2434 12.4272 55.0368 12.1369 55.0885 11.8309C55.1401 11.5249 55.4259 11.3159 55.7348 11.3696C56.8598 11.5591 57.9847 11.817 59.0783 12.1369C59.3762 12.2238 59.5467 12.5363 59.4601 12.834C59.3928 13.0661 59.1908 13.2205 58.9649 13.238ZM42.3664 13.3351C42.1091 13.3554 41.8629 13.1946 41.7855 12.9366C41.696 12.6389 41.8639 12.3246 42.1598 12.2349C43.2488 11.9049 44.371 11.6349 45.4941 11.4324C45.8002 11.3807 46.0907 11.5813 46.146 11.8873C46.2004 12.1933 45.9976 12.4855 45.6924 12.5409C44.6117 12.7351 43.5319 12.9949 42.4844 13.312C42.4457 13.3249 42.406 13.3323 42.3664 13.3351ZM52.3425 12.1194C52.3185 12.1212 52.2936 12.1212 52.2687 12.1203C51.1779 12.0648 50.0677 12.0722 48.9695 12.1425C48.6606 12.1628 48.3932 11.9271 48.3738 11.6173C48.3544 11.3104 48.584 11.0451 48.8892 11.0201C48.892 11.0201 48.8957 11.0201 48.8985 11.0201C50.0391 10.9471 51.1926 10.9397 52.3259 10.997C52.6357 11.0127 52.8736 11.2771 52.8579 11.5877C52.8432 11.8725 52.6191 12.0981 52.3425 12.1194Z" fill="#199675"/>
<path d="M164.609 57.3595C164.303 57.4048 164.017 57.1921 163.972 56.8852L163.48 51.2248C163.435 50.9179 163.647 50.6313 163.953 50.586C164.259 50.5407 164.545 50.7533 164.59 51.0602L165.082 56.7206C165.128 57.0285 164.915 57.3142 164.609 57.3595ZM163.624 48.3597C163.318 48.405 163.033 48.1924 162.987 47.8854L162.495 44.5461C162.45 44.2391 162.662 43.9525 162.968 43.9072C163.274 43.8619 163.56 44.0746 163.605 44.3815L164.098 47.7209C164.143 48.0278 163.931 48.3144 163.624 48.3597ZM162.639 41.6801C162.333 41.7254 162.047 41.5127 162.002 41.2058L161.509 37.8664C161.464 37.5595 161.676 37.2729 161.982 37.2276C162.288 37.1823 162.574 37.3949 162.619 37.7018L163.112 41.0412C163.158 41.3482 162.946 41.6348 162.639 41.6801ZM161.654 35.0004C161.348 35.0457 161.062 34.8331 161.017 34.5261L160.892 33.6839C160.772 32.8629 160.623 32.0392 160.451 31.2357C160.386 30.9325 160.579 30.633 160.882 30.5673C161.171 30.4943 161.483 30.6949 161.549 31C161.726 31.8265 161.879 32.6743 162.003 33.5193L162.128 34.3615C162.172 34.6685 161.961 34.9551 161.654 35.0004ZM85.1751 45.4771C84.8689 45.5224 84.5831 45.3097 84.5379 45.0028C84.4918 44.6922 84.4503 44.3824 84.4125 44.0727C84.3747 43.7686 84.5868 43.4912 84.8874 43.4468C84.892 43.4459 84.9012 43.445 84.9012 43.445C85.2092 43.4071 85.4886 43.6262 85.5273 43.934C85.5642 44.2354 85.6057 44.5359 85.65 44.8373C85.6942 45.1461 85.4821 45.4318 85.1751 45.4771ZM84.7823 41.1984C84.762 41.2012 84.7408 41.203 84.7205 41.2039C84.4107 41.215 84.1506 40.9728 84.1387 40.6622C84.0972 39.5232 84.1045 38.3712 84.1617 37.2396C84.1774 36.9289 84.4402 36.6913 84.7509 36.7061C85.0607 36.7219 85.2986 36.9863 85.283 37.2969C85.2276 38.3962 85.2203 39.5148 85.2608 40.6215C85.271 40.9099 85.0617 41.1568 84.7823 41.1984ZM160.235 28.4104C159.965 28.4502 159.699 28.2884 159.617 28.0184C159.294 26.9626 158.92 25.9096 158.506 24.8861C158.39 24.5977 158.528 24.2704 158.815 24.153C159.104 24.0365 159.429 24.1752 159.546 24.4627C159.972 25.5157 160.358 26.6011 160.69 27.6874C160.782 27.9842 160.615 28.2995 160.319 28.3901C160.29 28.4002 160.263 28.4067 160.235 28.4104ZM85.1207 34.466C85.069 34.4734 85.0156 34.4743 84.9612 34.4669C84.6541 34.4235 84.4402 34.1397 84.4826 33.8318C84.6394 32.7048 84.8468 31.5723 85.1013 30.4647C85.1705 30.1624 85.4729 29.9729 85.7735 30.0422C86.076 30.1125 86.2641 30.4138 86.1949 30.7171C85.9478 31.7923 85.7458 32.8925 85.5937 33.9862C85.5596 34.2404 85.3614 34.4309 85.1207 34.466ZM157.707 22.1653C157.475 22.1995 157.237 22.0858 157.125 21.8648C156.622 20.8811 156.07 19.9085 155.483 18.9738C155.318 18.7113 155.397 18.3636 155.659 18.1981C155.921 18.0336 156.269 18.1122 156.433 18.3747C157.036 19.3362 157.605 20.3375 158.123 21.3517C158.264 21.6281 158.156 21.9674 157.88 22.1089C157.825 22.1375 157.766 22.156 157.707 22.1653ZM86.6283 27.8973C86.5453 27.9093 86.4586 27.9038 86.3729 27.8751C86.0778 27.779 85.9164 27.4619 86.0123 27.166C86.3618 26.0852 86.7638 25.0063 87.2074 23.9598C87.3282 23.6741 87.6573 23.54 87.9432 23.6621C88.2281 23.7832 88.3609 24.1132 88.2401 24.3998C87.8104 25.4159 87.4195 26.4634 87.0801 27.5136C87.0119 27.7244 86.8321 27.8668 86.6283 27.8973ZM154.126 16.4554C153.931 16.4841 153.725 16.4083 153.597 16.2391C152.931 15.3589 152.218 14.4982 151.479 13.68C151.27 13.4498 151.288 13.0939 151.517 12.8849C151.747 12.676 152.102 12.6935 152.31 12.9247C153.072 13.7669 153.805 14.6535 154.491 15.5596C154.678 15.8073 154.63 16.1596 154.383 16.3482C154.305 16.4064 154.216 16.4416 154.126 16.4554ZM89.2535 21.6919C89.1391 21.7086 89.0183 21.691 88.9086 21.6318C88.6348 21.4857 88.5306 21.1455 88.6762 20.8709C89.2083 19.866 89.791 18.874 90.407 17.9208C90.5757 17.6601 90.9234 17.5852 91.1834 17.7544C91.4434 17.9236 91.5172 18.2721 91.3494 18.5328C90.7509 19.4592 90.1848 20.4235 89.6684 21.3988C89.5808 21.5634 89.4241 21.6669 89.2535 21.6919ZM149.61 11.4584C149.447 11.4824 149.276 11.4353 149.146 11.3142C148.337 10.5625 147.487 9.83862 146.617 9.16095C146.373 8.9705 146.329 8.61733 146.519 8.37141C146.709 8.12549 147.061 8.08111 147.306 8.27249C148.201 8.96957 149.077 9.71567 149.908 10.4895C150.136 10.7003 150.149 11.0562 149.939 11.2846C149.849 11.3826 149.732 11.4399 149.61 11.4584ZM92.9105 16.0348C92.7639 16.056 92.609 16.02 92.4835 15.922C92.2392 15.7306 92.1949 15.3774 92.3858 15.1324C93.0848 14.2338 93.8289 13.3564 94.5998 12.5253C94.8109 12.2978 95.1659 12.2849 95.3927 12.4957C95.6196 12.7074 95.6325 13.0634 95.4223 13.2908C94.6744 14.0988 93.9506 14.9503 93.2719 15.824C93.1788 15.9423 93.0488 16.0144 92.9105 16.0348ZM144.3 7.32023C144.17 7.33964 144.033 7.31283 143.914 7.2361C142.99 6.63701 142.027 6.07028 141.054 5.55254C140.78 5.40739 140.676 5.06625 140.82 4.79166C140.965 4.51708 141.306 4.41261 141.579 4.55776C142.582 5.09029 143.572 5.67366 144.523 6.29032C144.783 6.4595 144.858 6.80804 144.689 7.06876C144.598 7.21021 144.454 7.29712 144.3 7.32023ZM97.4896 11.0941C97.3098 11.1209 97.1216 11.0599 96.9907 10.9148C96.7823 10.6846 96.8008 10.3286 97.0304 10.1197C97.8704 9.35787 98.7556 8.62288 99.6602 7.93596C99.9073 7.74921 100.26 7.79728 100.447 8.04505C100.634 8.29282 100.585 8.64599 100.338 8.83367C99.4591 9.50118 98.5998 10.2149 97.7828 10.9545C97.698 11.0322 97.5956 11.0784 97.4896 11.0941ZM138.359 4.16299C138.261 4.17778 138.157 4.16576 138.06 4.12416C137.044 3.69333 135.999 3.30226 134.953 2.96389C134.658 2.86866 134.497 2.55155 134.592 2.25571C134.687 1.95986 135.003 1.79714 135.298 1.89329C136.375 2.24183 137.451 2.64492 138.497 3.08777C138.783 3.20888 138.916 3.53894 138.795 3.82554C138.715 4.01322 138.546 4.13525 138.359 4.16299ZM102.852 7.02346C102.638 7.05489 102.415 6.96059 102.294 6.76644C102.13 6.50295 102.209 6.15625 102.471 5.99077C103.432 5.38705 104.43 4.81755 105.441 4.29982C105.718 4.15837 106.055 4.26839 106.196 4.54482C106.337 4.82125 106.228 5.16055 105.952 5.302C104.97 5.80494 104 6.35781 103.067 6.94488C103 6.98648 102.926 7.01329 102.852 7.02346ZM131.964 2.08837C131.896 2.09854 131.826 2.09576 131.756 2.08005C130.681 1.8332 129.584 1.63165 128.495 1.48095C128.188 1.43842 127.973 1.1546 128.015 0.846734C128.058 0.538869 128.342 0.324376 128.648 0.365979C129.77 0.521299 130.9 0.728391 132.006 0.982635C132.309 1.05197 132.498 1.3543 132.428 1.65661C132.376 1.89052 132.186 2.05601 131.964 2.08837ZM108.839 3.95497C108.588 3.99195 108.335 3.85513 108.237 3.6092C108.12 3.32075 108.259 2.99347 108.546 2.87606C109.598 2.44893 110.68 2.06433 111.764 1.7315C112.058 1.63997 112.375 1.80731 112.465 2.10501C112.556 2.40178 112.39 2.71704 112.093 2.80765C111.04 3.1303 109.988 3.50473 108.968 3.91892C108.925 3.93741 108.882 3.9485 108.839 3.95497ZM125.305 1.1657C125.269 1.17124 125.232 1.17309 125.195 1.17124C124.097 1.11669 122.982 1.11022 121.879 1.15183C121.569 1.16385 121.308 0.921623 121.297 0.610984C121.286 0.300345 121.528 0.0377768 121.836 0.027607C122.971 -0.0149209 124.119 -0.00844636 125.25 0.0479494C125.56 0.0636663 125.798 0.327155 125.783 0.637794C125.769 0.909604 125.564 1.12779 125.305 1.1657ZM115.267 1.98112C114.977 2.02457 114.699 1.83412 114.638 1.54197C114.573 1.23781 114.766 0.939185 115.069 0.874469C115.896 0.697885 116.743 0.535172 117.585 0.420531C117.869 0.378003 118.152 0.340098 118.436 0.304966C118.743 0.266136 119.024 0.485248 119.062 0.793113C119.1 1.09728 118.888 1.37463 118.588 1.41901C118.583 1.41993 118.58 1.41994 118.575 1.42086C118.287 1.45692 117.999 1.49575 117.71 1.5392C116.905 1.65846 116.095 1.80454 115.304 1.97373C115.29 1.97743 115.279 1.97927 115.267 1.98112Z" fill="#199675"/>
<path d="M250.007 58.339C249.829 58.3011 249.678 58.167 249.619 57.972C249.462 57.4561 249.294 56.93 249.118 56.4095C249.02 56.1201 249.164 55.7956 249.438 55.6838C249.715 55.5719 250.018 55.717 250.115 56.0064C250.296 56.5389 250.468 57.0761 250.629 57.604C250.718 57.8971 250.564 58.216 250.285 58.3177C250.192 58.3519 250.097 58.3575 250.007 58.339Z" fill="#199675"/>
<path d="M163.333 48.297C163.278 48.2859 163.225 48.2646 163.175 48.2332C162.925 48.0788 162.845 47.7358 162.997 47.4668C163.55 46.4859 164.141 45.5142 164.754 44.5786C164.924 44.3215 165.252 44.2522 165.493 44.4242C165.732 44.5971 165.789 44.9456 165.62 45.2026C165.021 46.117 164.444 47.0664 163.903 48.0243C163.781 48.2406 163.548 48.3432 163.333 48.297ZM166.989 42.7175C166.911 42.7009 166.837 42.6657 166.771 42.6103C166.544 42.4198 166.511 42.0676 166.696 41.8226C167.368 40.9332 168.08 40.0558 168.81 39.2145C169.01 38.9834 169.346 38.963 169.559 39.171C169.772 39.3781 169.782 39.7322 169.582 39.9634C168.868 40.7843 168.174 41.6414 167.516 42.5104C167.384 42.6861 167.178 42.7582 166.989 42.7175ZM171.329 37.7195C171.228 37.6983 171.133 37.6447 171.057 37.5605C170.858 37.3377 170.872 36.9827 171.086 36.7673C171.869 35.9805 172.687 35.2132 173.517 34.4874C173.745 34.2868 174.08 34.3173 174.261 34.5549C174.444 34.7916 174.408 35.1466 174.179 35.3454C173.369 36.0554 172.57 36.8043 171.805 37.5735C171.673 37.7057 171.493 37.7547 171.329 37.7195ZM248.337 53.6629C248.179 53.6287 248.038 53.5178 247.967 53.3486C247.554 52.3482 247.103 51.3488 246.626 50.3809C246.492 50.1091 246.594 49.7679 246.854 49.619C247.115 49.4702 247.434 49.571 247.567 49.8428C248.054 50.8329 248.515 51.8536 248.938 52.8771C249.055 53.1581 248.931 53.4919 248.663 53.6222C248.557 53.6731 248.443 53.6851 248.337 53.6629ZM176.272 33.3891C176.148 33.3623 176.033 33.2883 175.954 33.17C175.787 32.9194 175.846 32.5681 176.087 32.386C176.96 31.7203 177.867 31.0769 178.782 30.4741C179.033 30.3095 179.359 30.3862 179.509 30.6488C179.659 30.9104 179.577 31.2571 179.325 31.4226C178.431 32.0125 177.545 32.6411 176.692 33.2911C176.564 33.3891 176.412 33.4187 176.272 33.3891ZM245.438 47.7672C245.302 47.7386 245.178 47.6526 245.101 47.5176C244.565 46.5866 243.991 45.663 243.398 44.7727C243.232 44.5231 243.292 44.1718 243.532 43.9887C243.772 43.8057 244.102 43.8602 244.269 44.1108C244.876 45.0205 245.461 45.9653 246.009 46.9167C246.159 47.1783 246.079 47.525 245.827 47.6914C245.706 47.7719 245.566 47.795 245.438 47.7672ZM181.713 29.8019C181.564 29.7705 181.431 29.6716 181.357 29.5181C181.224 29.2454 181.328 28.9052 181.588 28.7572C182.536 28.221 183.514 27.7116 184.495 27.2429C184.762 27.1144 185.075 27.2382 185.19 27.5202C185.304 27.8022 185.18 28.135 184.91 28.2635C183.952 28.7221 182.996 29.2195 182.069 29.7446C181.954 29.8103 181.829 29.8269 181.713 29.8019ZM241.824 42.3458C241.71 42.3218 241.604 42.258 241.527 42.1554C240.878 41.3095 240.194 40.4765 239.494 39.6795C239.298 39.4558 239.314 39.0998 239.53 38.8863C239.747 38.6709 240.082 38.681 240.278 38.9039C240.994 39.7193 241.693 40.5708 242.356 41.4352C242.538 41.6728 242.5 42.0269 242.271 42.2257C242.14 42.3403 241.976 42.3782 241.824 42.3458ZM187.543 27.0127C187.371 26.9757 187.222 26.8481 187.159 26.6604C187.063 26.3701 187.208 26.0465 187.484 25.9365C188.486 25.539 189.515 25.1701 190.545 24.841C190.827 24.7504 191.119 24.9177 191.197 25.2154C191.276 25.5122 191.11 25.8256 190.828 25.9153C189.822 26.237 188.815 26.5966 187.834 26.9868C187.737 27.0256 187.636 27.0321 187.543 27.0127ZM237.562 37.4903C237.47 37.4708 237.384 37.4255 237.311 37.3534C236.56 36.6055 235.777 35.877 234.985 35.1873C234.762 34.9931 234.735 34.639 234.923 34.3977C235.112 34.1564 235.446 34.1185 235.67 34.3118C236.479 35.0172 237.28 35.7614 238.047 36.526C238.257 36.7359 238.263 37.0909 238.06 37.3192C237.926 37.4699 237.736 37.5272 237.562 37.4903ZM193.654 25.0592C193.457 25.0175 193.295 24.8576 193.252 24.6357C193.193 24.3343 193.376 24.032 193.663 23.9617C194.705 23.7066 195.768 23.4838 196.824 23.3007C197.112 23.2508 197.381 23.4579 197.421 23.7639C197.462 24.0699 197.259 24.3584 196.97 24.4083C195.937 24.5876 194.897 24.8049 193.878 25.0545C193.8 25.0749 193.725 25.0749 193.654 25.0592ZM232.726 33.28C232.656 33.2652 232.589 33.2347 232.528 33.1885C231.693 32.5552 230.827 31.9422 229.95 31.3653C229.705 31.2035 229.634 30.8587 229.792 30.5933C229.951 30.3298 230.278 30.2457 230.524 30.4075C231.42 30.9964 232.306 31.6223 233.158 32.2695C233.393 32.4479 233.443 32.7983 233.268 33.0516C233.139 33.2393 232.924 33.3225 232.726 33.28ZM199.934 23.9701C199.713 23.9229 199.54 23.726 199.523 23.4745C199.502 23.1657 199.721 22.8911 200.012 22.8616C201.075 22.7525 202.153 22.6785 203.218 22.6434C203.51 22.6332 203.749 22.8773 203.751 23.187C203.752 23.4967 203.517 23.7556 203.224 23.7657C202.182 23.8 201.127 23.8721 200.089 23.9784C200.036 23.9839 199.984 23.9812 199.934 23.9701ZM227.404 29.7798C227.355 29.7696 227.308 29.752 227.262 29.7261C226.355 29.213 225.417 28.724 224.475 28.2719C224.212 28.1452 224.099 27.8133 224.225 27.5304C224.352 27.2475 224.67 27.1236 224.932 27.2475C225.894 27.7088 226.851 28.209 227.777 28.7323C228.033 28.8765 228.124 29.2158 227.982 29.4904C227.866 29.716 227.627 29.8269 227.404 29.7798ZM206.276 23.7602C206.028 23.7075 205.849 23.469 205.865 23.1907C205.882 22.881 206.133 22.6388 206.425 22.6489C207.489 22.6878 208.564 22.7645 209.62 22.8764C209.911 22.9124 210.116 23.1824 210.08 23.4902C210.043 23.799 209.778 24.0237 209.489 23.9932C208.456 23.8832 207.404 23.8083 206.363 23.7704C206.333 23.7704 206.305 23.7657 206.276 23.7602ZM221.684 27.033C221.657 27.0275 221.63 27.0191 221.602 27.008C220.634 26.6207 219.642 26.2619 218.655 25.943C218.378 25.8533 218.226 25.5399 218.318 25.2431C218.409 24.9464 218.707 24.7809 218.986 24.8687C219.995 25.1951 221.007 25.5612 221.997 25.9569C222.268 26.065 222.4 26.3886 222.29 26.6789C222.193 26.9406 221.933 27.0866 221.684 27.033ZM212.569 24.4277C212.292 24.3685 212.112 24.0856 212.166 23.7852C212.222 23.4791 212.499 23.273 212.786 23.3229C213.322 23.4172 213.858 23.5272 214.398 23.6372C214.899 23.7445 215.408 23.8619 215.914 23.9886C216.197 24.0588 216.367 24.3611 216.293 24.6625C216.219 24.9639 215.93 25.1507 215.646 25.0813C215.143 24.9556 214.635 24.841 214.136 24.7328C213.622 24.6237 213.101 24.522 212.586 24.4305C212.58 24.4305 212.575 24.4295 212.569 24.4277Z" fill="#199675"/>
<path d="M161.064 52.833C161.027 52.8247 160.99 52.8127 160.954 52.796C160.689 52.6712 160.576 52.3393 160.7 52.0564C160.93 51.5359 161.168 51.0154 161.41 50.5097C161.544 50.2305 161.862 50.1122 162.123 50.2481C162.383 50.383 162.487 50.7186 162.352 50.9979C162.115 51.4925 161.882 52 161.658 52.5094C161.551 52.7535 161.3 52.883 161.064 52.833Z" fill="#199675"/>
<path d="M248.085 74.156L238.797 83.4687L248.085 95.2517L257.374 83.4687L248.085 74.156Z" fill="#FA940E"/>
<path d="M238.797 83.4684L242.501 88.1677C244.193 88.6956 245.992 88.9795 247.857 88.9795C249.954 88.9795 251.964 88.6162 253.836 87.956L257.374 83.4675L248.086 74.1548L238.797 83.4684Z" fill="#DE830C"/>
<path d="M250.75 86.4328C260.568 84.8353 267.234 75.5607 265.641 65.7173C264.048 55.874 254.798 49.1894 244.98 50.7869C235.163 52.3844 228.496 61.6591 230.089 71.5024C231.682 81.3458 240.933 88.0303 250.75 86.4328Z" fill="#FA940E"/>
<path d="M251.762 85.2133C260.918 83.0455 266.588 73.8459 264.426 64.6654C262.264 55.4849 253.089 49.7999 243.933 51.9677C234.776 54.1355 229.106 63.3351 231.268 72.5156C233.43 81.6961 242.606 87.381 251.762 85.2133Z" fill="white"/>
<mask id="mask0_8706_8047" style="mask-type:luminance" maskUnits="userSpaceOnUse" x="230" y="51" width="35" height="35">
<path d="M251.76 85.214C260.916 83.0462 266.586 73.8466 264.424 64.6661C262.262 55.4856 253.086 49.8007 243.93 51.9684C234.774 54.1362 229.104 63.3358 231.266 72.5163C233.428 81.6968 242.603 87.3818 251.76 85.214Z" fill="white"/>
</mask>
<g mask="url(#mask0_8706_8047)">
<path d="M241.109 65.0424C241.037 64.9342 238.363 63.2673 239.446 59.9695C242.337 59.8604 242.988 59.1365 242.626 60.2589C242.265 61.3822 241.831 62.4694 241.831 62.4694L241.325 63.81L241.109 65.0424Z" fill="#0D1A38"/>
<path d="M254.9 69.9136C256.177 69.6704 256.634 66.4246 255.921 62.664C255.209 58.9034 253.596 56.0521 252.319 56.2953C251.042 56.5386 250.585 59.7844 251.298 63.545C252.011 67.3056 253.624 70.1569 254.9 69.9136Z" fill="#0D1A38"/>
<path d="M254.18 72.7454C255.566 72.7454 256.689 71.6191 256.689 70.2297C256.689 68.8404 255.566 67.7141 254.18 67.7141C252.795 67.7141 251.671 68.8404 251.671 70.2297C251.671 71.6191 252.795 72.7454 254.18 72.7454Z" fill="#EA9E7C"/>
<path d="M258.023 85.591C257.153 81.6452 255.722 79.5992 253.476 79.2026C247.48 78.1459 241.752 78.842 238.938 85.052C238.866 85.211 238.804 85.4034 238.74 85.591H258.023Z" fill="#488CEA"/>
<path d="M260.996 85.5907L260.785 85.3512C260.696 85.2532 260.635 85.183 260.496 85.0397C258.849 83.3996 256.187 83.4098 254.55 85.0619C254.387 85.2264 254.253 85.4076 254.122 85.5907H260.996Z" fill="#EA9E7C"/>
<path d="M251.923 85.5906C253.625 84.1391 254.672 81.9813 255.305 80.0305C254.766 79.5979 254.159 79.3233 253.476 79.2031C248.902 78.3969 244.487 78.6142 241.399 81.5172C241.482 82.9382 241.829 84.4645 242.821 85.5915L251.923 85.5906Z" fill="url(#paint0_linear_8706_8047)"/>
<path d="M253.906 72.719C253.906 72.719 253.836 84.9061 247.951 84.9061C242.067 84.9061 246.2 74.8963 244.519 71.2795C247.041 71.4201 253.906 72.719 253.906 72.719Z" fill="#EA9E7C"/>
<path d="M244.566 85.5913H250.474C252.706 84.2582 253.799 81.5068 254.319 79.446C254.052 79.3369 253.772 79.2556 253.478 79.2038C249.539 78.5095 245.717 78.5724 242.76 80.4556C242.687 82.1031 242.841 84.3987 244.566 85.5913Z" fill="#EA9E7C"/>
<path d="M253.905 72.719C253.905 72.719 253.904 73.0213 253.878 73.5298C252.768 75.7246 250.966 77.7272 248.924 78.8042L246.751 79.9506C245.996 80.3491 245.285 80.5312 244.654 80.5284C244.571 77.3684 245.464 73.3135 244.519 71.2795C247.04 71.4201 253.905 72.719 253.905 72.719Z" fill="#EA9E7C"/>
<path d="M245.65 76.845H247.933C251.447 76.845 254.295 73.9891 254.295 70.4658V65.5742C254.295 61.8844 251.313 58.8936 247.632 58.8936H240.825V72.0079C240.827 74.6798 242.986 76.845 245.65 76.845Z" fill="#EA9E7C"/>
<path d="M245.65 76.845H247.933C251.447 76.845 254.295 73.9891 254.295 70.4658V65.5742C254.295 61.8844 251.313 58.8936 247.632 58.8936H240.825V72.0079C240.827 74.6798 242.986 76.845 245.65 76.845Z" fill="#EA9E7C"/>
<path d="M243.846 72.5417C243.562 71.5506 244.955 72.3125 246.294 71.9325C247.634 71.5525 248.413 70.174 248.697 71.1661C248.981 72.1571 248.125 73.2684 246.785 73.6484C245.447 74.0284 244.13 73.5328 243.846 72.5417Z" fill="white"/>
<path d="M253.406 70.7624C253.406 70.7624 251.592 65.4723 251.647 65.0313C251.703 64.5903 252.142 62.3862 252.142 62.3862C252.142 62.3862 244.502 64.0947 242.634 63.8738C240.765 63.6537 238.072 60.1822 238.292 57.7571C238.511 55.3321 240.436 54.9466 241.699 55.2776C242.963 55.6085 245.438 52.2969 251.54 55.7306C252.842 56.4628 252.361 58.4736 252.965 58.8037C253.57 59.1347 254.998 67.8954 254.998 67.8954L253.406 70.7624Z" fill="#0D1A38"/>
<path d="M261.197 85.5908C258.219 80.8064 255.353 79.8948 255.075 79.8948C255.075 79.8948 255.04 82.33 254.624 85.5908H261.197Z" fill="#488CEA"/>
<path d="M260.996 85.5907L260.785 85.3512C260.696 85.2532 260.635 85.183 260.496 85.0397C258.849 83.3996 256.187 83.4098 254.55 85.0619C254.387 85.2264 254.253 85.4076 254.122 85.5907H260.996Z" fill="#488CEA"/>
</g>
<path d="M164.477 69.093L155.189 78.4057L164.477 90.1897L173.765 78.4057L164.477 69.093Z" fill="#199675"/>
<path d="M155.189 78.4057L158.893 83.1051C160.585 83.633 162.384 83.9168 164.249 83.9168C166.346 83.9168 168.357 83.5535 170.228 82.8933L173.766 78.4057L164.478 69.093L155.189 78.4057Z" fill="#0A6D53"/>
<path d="M167.98 81.2148C177.708 79.1417 183.918 69.5542 181.85 59.8005C179.782 50.0469 170.22 43.8207 160.492 45.8939C150.764 47.9671 144.554 57.5546 146.622 67.3082C148.69 77.0618 158.252 83.288 167.98 81.2148Z" fill="#199675"/>
<path d="M169.898 79.6708C178.773 76.5399 183.437 66.7882 180.314 57.8897C177.191 48.9913 167.465 44.3158 158.59 47.4467C149.715 50.5776 145.052 60.3293 148.175 69.2278C151.297 78.1262 161.023 82.8017 169.898 79.6708Z" fill="white"/>
<mask id="mask1_8706_8047" style="mask-type:luminance" maskUnits="userSpaceOnUse" x="147" y="46" width="35" height="35">
<path d="M169.9 79.6726C178.775 76.5417 183.439 66.7898 180.316 57.8913C177.193 48.9927 167.467 44.3171 158.592 47.4481C149.717 50.579 145.053 60.3309 148.176 69.2295C151.299 78.128 161.025 82.8036 169.9 79.6726Z" fill="white"/>
</mask>
<g mask="url(#mask1_8706_8047)">
<path d="M170.093 58.5702L164.246 56.4854L157.1 57.1371C157.1 57.1371 153.333 60.85 152.878 63.8455C152.424 66.8418 153.527 71.4007 152.943 75.0479C152.358 78.6951 151.328 80.3306 151.328 80.3306L156.339 80.5294C156.288 79.7898 156.562 80.6542 157.513 80.6542H161.613C162.025 80.2881 162.379 79.8563 162.621 79.3469C162.621 79.3469 166.583 78.1746 167.752 75.6997C168.922 73.2247 170.871 65.2138 170.871 65.2138L170.093 58.5702Z" fill="#0D1A38"/>
<path d="M172.913 59.3489L170.202 56.7251L167.398 54.8511L165.809 55.648L162.725 60.1939L155.215 61.2802C155.049 63.0692 155.25 64.8988 155.219 66.6886C155.21 67.2258 155.203 67.7639 155.194 68.301C157.263 68.5007 159.082 69.1682 160.482 71.1115C162.913 74.4851 162.773 74.1569 165.81 73.642C168.848 73.1261 170.39 73.4071 173.101 69.2375C175.811 65.0652 172.913 59.3489 172.913 59.3489Z" fill="#0D1A38"/>
<path d="M171.652 77.0551C170.891 76.0242 170.057 74.3814 169.491 73.1832C169.059 72.2679 168.14 71.6882 167.131 71.6956C165.56 71.7076 163.439 71.7243 163.317 71.7243C163.119 71.7243 161.462 71.801 161.462 71.801L157.463 72.7172C157.463 72.7172 158.985 75.5407 158.788 76.3968C158.59 77.252 158.657 77.4499 158.328 78.7664C158.208 79.2462 158.247 79.9017 158.352 80.6348C162.385 80.8475 169.202 80.9982 173.376 81.1156C174.244 79.7316 172.36 78.012 171.652 77.0551Z" fill="#21CEA0"/>
<path d="M161.171 66.0214L161.462 71.8015C161.462 71.8015 165.58 75.3933 165.996 75.5051C166.412 75.617 167.452 72.6428 167.202 71.8015C166.952 70.9602 166.662 68.6027 166.578 68.3225C166.494 68.0424 166.702 64.9 166.702 64.226C166.702 63.5529 166.578 62.7107 166.578 62.7107L161.171 66.0214Z" fill="#EA9E7C"/>
<path d="M166.578 68.3225C166.495 68.0424 166.702 64.9 166.702 64.226C166.702 63.5529 166.578 62.7107 166.578 62.7107L161.171 66.0214L161.197 66.5308C162.19 69.676 163.941 72.3091 165.936 73.3038C166.287 73.4786 166.628 73.5923 166.961 73.6542C167.178 72.9192 167.309 72.163 167.202 71.8015C166.952 70.9593 166.661 68.6027 166.578 68.3225Z" fill="#EA9E7C"/>
<path d="M171.971 61.0559C171.971 66.2776 169.365 70.511 166.15 70.511C162.936 70.511 160.33 66.2776 160.33 61.0559C160.33 55.8342 162.936 51.6008 166.15 51.6008C169.365 51.5999 171.971 55.8333 171.971 61.0559Z" fill="#EA9E7C"/>
<path d="M162.211 65.3973C162.882 64.6697 162.843 63.5298 162.123 62.8503C161.404 62.1707 160.277 62.2096 159.606 62.9372C158.935 63.6648 158.975 64.8047 159.694 65.4842C160.413 66.1637 161.54 66.1249 162.211 65.3973Z" fill="#EA9E7C"/>
<path d="M161.1 78.0645C161.119 78.0284 161.107 78.0469 161.107 78.0469L161.096 78.0645L161.067 78.1162L161 78.241L160.863 78.5202C160.772 78.7144 160.685 78.9169 160.604 79.1221C160.441 79.5326 160.302 79.9542 160.194 80.3711C159.976 81.2069 159.876 82.026 159.911 82.7656C159.989 84.2467 160.535 85.3885 161.769 86.4351C161.843 86.5007 161.927 86.5617 162.006 86.6255C162.083 86.6865 162.201 86.7725 162.298 86.8437C162.501 86.9935 162.713 87.1414 162.926 87.2875C163.354 87.5796 163.8 87.8635 164.255 88.1399C165.168 88.6927 166.126 89.2151 167.107 89.7106C168.089 90.2062 169.096 90.6758 170.118 91.1224C170.629 91.3452 171.143 91.5625 171.661 91.7742L172.441 92.0867L172.835 92.2411L173.042 92.3215L173.159 92.3668L173.242 92.3991L173.322 92.4306L173.388 92.4583C173.456 92.487 173.553 92.5323 173.63 92.5739C173.031 94.8639 175.317 87.6379 172.339 97.753C170.823 97.7558 169.593 96.5253 169.591 95.0054C169.589 93.4855 170.816 92.2522 172.332 92.2494C169.357 102.359 171.635 95.133 171.033 97.4212C171.106 97.4618 171.198 97.5053 171.262 97.5312L171.304 97.5487C171.343 97.5645 171.328 97.5589 171.333 97.5608C171.342 97.5645 171.32 97.5571 171.314 97.5561L171.225 97.5293L171.021 97.4655L170.594 97.3315L169.734 97.0532C169.162 96.8637 168.59 96.6677 168.021 96.4643C166.882 96.0566 165.748 95.6202 164.62 95.145C163.492 94.6688 162.368 94.1539 161.249 93.5779C160.689 93.2895 160.132 92.9862 159.576 92.6608C159.297 92.4972 159.02 92.3307 158.742 92.1551C158.599 92.0636 158.475 91.9877 158.316 91.8787C158.16 91.7714 158.004 91.6669 157.851 91.5514C156.624 90.6527 155.469 89.4638 154.629 88.028C153.781 86.5987 153.279 84.9679 153.107 83.3925C152.931 81.8106 153.046 80.2842 153.327 78.8475C153.469 78.1282 153.654 77.4284 153.878 76.7415C153.99 76.3975 154.112 76.0573 154.247 75.7143C154.315 75.5433 154.386 75.3713 154.463 75.1957L154.584 74.9257L154.653 74.7815L154.75 74.5882C155.707 72.8298 157.905 72.1826 159.658 73.1423C161.411 74.1029 162.057 76.306 161.1 78.0645Z" fill="#21CEA0"/>
<path d="M167.038 67.4C165.868 67.4 164.906 66.5689 164.692 66.1575C164.643 66.0632 164.679 65.9467 164.774 65.8977C164.867 65.8487 164.984 65.8857 165.033 65.979C165.221 66.3405 166.359 67.3113 167.633 66.9257C167.734 66.8952 167.842 66.9525 167.872 67.0542C167.903 67.1559 167.846 67.2641 167.744 67.2946C167.504 67.3686 167.267 67.4 167.038 67.4Z" fill="#EA9E7C"/>
<path d="M166.45 53.8797C166.45 53.8797 165.931 51.4362 163.598 51.904C161.264 52.3718 158.93 54.9716 156.545 57.7276C155.824 58.5596 155.52 59.3593 153.571 61.8343C153.919 64.4174 154.06 64.3739 154.374 66.9617C157.357 64.544 159.879 62.487 160.278 62.4075C161.056 62.2512 164.219 62.9271 165.879 59.9122C167.539 56.8955 166.45 53.8797 166.45 53.8797Z" fill="#0D1A38"/>
<path d="M165.668 56.1152C166.088 56.0681 168.004 55.506 170.295 57.8958C172.585 60.2857 171.892 62.5943 171.743 63.847C172.257 64.1281 177.445 55.8813 173.94 52.4606C170.435 49.0399 163.938 51.9447 163.938 51.9447L165.668 56.1152Z" fill="#0D1A38"/>
<path d="M165.722 57.7432C166.258 57.8773 172.287 58.9525 172.555 63.9228C172.867 58.9978 172.644 57.8329 172.644 57.8329L169.384 54.7432L165.633 54.3401L164.829 55.5494L165.722 57.7432Z" fill="#0D1A38"/>
<path d="M160.225 64.7671L158.72 66.2759L160.225 67.7847L161.73 66.2759L160.225 64.7671Z" fill="#199675"/>
<path d="M168.053 67.1149C168.407 66.2394 167.231 66.8616 166.252 66.4631C165.273 66.0647 164.861 64.7962 164.507 65.6727C164.153 66.5482 164.66 67.5809 165.639 67.9794C166.617 68.3778 167.699 67.9904 168.053 67.1149Z" fill="white"/>
</g>
<path d="M87.1949 63.0413L77.9058 72.354L87.1949 84.1379L96.4831 72.354L87.1949 63.0413Z" fill="#02B6C2"/>
<path d="M77.9058 72.3537L81.6098 77.053C83.3018 77.5809 85.1008 77.8647 86.9662 77.8647C89.063 77.8647 91.0732 77.5014 92.945 76.8413L96.4831 72.3527L87.1949 63.04L77.9058 72.3537Z" fill="#02939C"/>
<path d="M103.639 64.3396C107.4 55.1085 102.986 44.5679 93.7792 40.7965C84.5724 37.0251 74.0596 41.4511 70.2981 50.6821C66.5366 59.9132 70.9509 70.4538 80.1577 74.2252C89.3644 77.9966 99.8773 73.5707 103.639 64.3396Z" fill="#02B6C2"/>
<path d="M102.726 63.9684C106.286 55.2369 102.113 45.2649 93.4043 41.6954C84.6958 38.1258 74.7501 42.3103 71.1899 51.0418C67.6297 59.7733 71.8033 69.7453 80.5118 73.3148C89.2203 76.8844 99.166 72.6998 102.726 63.9684Z" fill="white"/>
<mask id="mask2_8706_8047" style="mask-type:luminance" maskUnits="userSpaceOnUse" x="69" y="40" width="35" height="35">
<path d="M102.724 63.9689C106.284 55.2374 102.111 45.2654 93.4023 41.6959C84.6938 38.1263 74.7481 42.3108 71.188 51.0423C67.6278 59.7738 71.8013 69.7458 80.5098 73.3153C89.2183 76.8849 99.164 72.7003 102.724 63.9689Z" fill="white"/>
</mask>
<g mask="url(#mask2_8706_8047)">
<path d="M81.5236 86.1859C82.442 85.0774 83.3161 83.9384 84.1128 82.7467C84.6255 81.9785 85.1133 81.1926 85.5771 80.3846C85.8104 79.9806 86.0354 79.5691 86.2576 79.1485L86.5868 78.5023L86.7518 78.1629C86.8118 78.0363 86.8542 77.9485 86.939 77.7534C87.8703 75.4966 86.8007 72.9098 84.5499 71.9761C82.2991 71.0423 79.7191 72.1147 78.7878 74.3715C78.7924 74.3678 78.7509 74.4704 78.725 74.5324L78.6292 74.7589L78.4171 75.235C78.2686 75.5567 78.1119 75.8831 77.9459 76.2076C77.6158 76.8575 77.2608 77.5038 76.8836 78.1371C76.1285 79.4037 75.2921 80.6222 74.3848 81.7649C73.0597 83.4355 71.5641 84.9332 69.9385 86.1859H81.5236Z" fill="#02B6C2"/>
<path d="M97.0507 86.1861C97.3476 79.6941 97.5302 71.551 96.728 69.3737C90.6117 66.0334 81.4231 67.6523 78.8007 74.1664C78.2945 75.4238 78.0003 80.2535 77.8325 86.1861H97.0507Z" fill="#02B6C2"/>
<path d="M84.045 73.8784C84.0422 74.1798 84.2026 74.4248 84.4027 74.4248C84.6037 74.4248 84.7679 74.1798 84.7706 73.8784C84.7734 73.577 84.613 73.332 84.4119 73.332C84.2128 73.332 84.0477 73.5761 84.045 73.8784Z" fill="#A9CEE6"/>
<path d="M87.2512 74.1912C87.2512 75.5105 86.4453 76.5802 85.4513 76.5802C84.4573 76.5802 83.6514 75.5105 83.6514 74.1912C83.6514 72.8719 84.4573 71.8022 85.4513 71.8022C86.4453 71.8022 87.2512 72.8719 87.2512 74.1912Z" fill="#0D1A38"/>
<path d="M90.9274 75.8449C93.2253 78.9115 95.3332 82.053 96.9653 85.299C97.1128 85.594 97.252 85.8907 97.3913 86.1866H106.166C105.675 84.6593 105.099 83.1782 104.46 81.747C102.667 77.7512 100.438 74.1271 98.0921 70.6833C98.0579 70.6333 98.0128 70.5696 97.9759 70.5206C96.5125 68.567 93.7463 68.1732 91.7979 69.6413C89.8495 71.1086 89.4567 73.8821 90.921 75.8356L90.9274 75.8449Z" fill="#309FD4"/>
<path d="M90.9274 75.8449C93.2253 78.9115 95.3332 82.053 96.9653 85.299C97.1128 85.594 97.252 85.8907 97.3913 86.1866H106.166C105.675 84.6593 105.099 83.1782 104.46 81.747C102.667 77.7512 100.438 74.1271 98.0921 70.6833C98.0579 70.6333 98.0128 70.5696 97.9759 70.5206C96.5125 68.567 93.7463 68.1732 91.7979 69.6413C89.8495 71.1086 89.4567 73.8821 90.921 75.8356L90.9274 75.8449Z" fill="#02B6C2"/>
<path opacity="0.35" d="M93.9761 68.3093C93.8922 68.4165 88.3117 76.1982 88.3117 76.1982L85.5528 71.8881L82.9258 75.8756L82.8105 74.5045L85.3666 71.89L92.309 67.6667L93.9761 68.3093Z" fill="#C22F96"/>
<path d="M87.3103 71.8784C86.7671 71.7527 86.1051 71.945 85.5528 71.8867C85.1184 71.8414 84.78 71.8424 84.4324 72.1114C83.3711 68.9042 85.1101 62.5112 84.0405 59.7256C86.2775 59.8726 92.3578 61.2363 92.3578 61.2363C92.3578 61.2363 92.4177 64.8909 92.3891 67.9853C91.8764 70.5536 90.556 72.7354 88.7303 73.6091C88.6565 72.8196 88.083 72.0578 87.3103 71.8784Z" fill="#EA9E7C"/>
<path d="M92.407 63.6345C92.3987 61.6911 92.3738 60.0649 92.371 59.8504C92.3691 59.8393 92.3673 59.8291 92.3654 59.818C92.3415 59.8125 91.9616 59.7274 91.365 59.5999C89.9533 59.7922 87.163 60.1185 84.5259 60.1185C84.4779 60.1185 84.4346 60.1176 84.3875 60.1176C84.5655 62.9623 83.7688 67.1014 84.2326 69.8232C84.4576 69.8482 84.69 69.8639 84.9362 69.8639C90.3581 69.863 92.0012 66.5273 92.407 63.6345Z" fill="#EA9E7C"/>
<path d="M85.3674 71.8891L82.8114 74.5036C82.8114 74.5036 82.6897 69.9236 82.7275 69.5723C82.7662 69.2209 84.2471 67.9932 84.2471 67.9932C84.2471 67.9932 84.166 70.7224 85.3674 71.8891Z" fill="#02939C"/>
<path d="M90.4425 58.3245C90.4545 57.0265 91.513 55.9744 92.8076 55.9744C94.1022 55.9744 95.1424 57.0265 95.1304 58.3245C95.1184 59.6225 94.0598 60.6746 92.7652 60.6746C91.4706 60.6746 90.4314 59.6225 90.4425 58.3245Z" fill="#EA9E7C"/>
<path d="M84.7687 64.504H86.8867C90.174 64.504 92.8637 61.8322 92.8932 58.5362L92.9347 53.9839C92.9661 50.5327 90.2016 47.7341 86.7586 47.7341H80.4081L80.2966 59.9794C80.2744 62.4784 82.2763 64.504 84.7687 64.504Z" fill="#EA9E7C"/>
<path d="M91.8004 58.3633C91.8004 58.3633 88.1941 58.9467 84.8746 58.9467C81.5542 58.9467 80.3121 58.4798 80.3121 58.4798C80.3121 58.4798 79.0249 67.6242 85.2397 67.6242C93.7654 67.6242 91.8004 58.3633 91.8004 58.3633Z" fill="#0D1A38"/>
<path d="M84.3524 62.2118C83.8231 62.2118 83.2468 62.0722 82.7526 61.6691C82.6723 61.6035 82.6604 61.4851 82.7258 61.4047C82.7913 61.3243 82.9084 61.3132 82.9895 61.3779C83.9882 62.1933 85.374 61.7348 85.6774 61.4777C85.7558 61.4102 85.8738 61.4213 85.9411 61.4999C86.0075 61.5785 85.9974 61.6978 85.919 61.7643C85.682 61.9631 85.0587 62.2118 84.3524 62.2118Z" fill="#EA9E7C"/>
<path d="M80.1836 51.7579C80.2131 51.7579 80.3025 51.7532 80.4427 51.7459C81.7908 51.671 87.8314 51.2882 90.0361 51.5905C92.4695 51.9252 91.9679 55.8276 91.9679 55.8276L93.624 56.1623C93.624 56.1623 95.2173 52.014 94.1044 48.9473C92.9914 45.8807 81.6082 43.4501 80.771 44.2868C79.9337 45.1235 80.3035 51.7532 80.3035 51.7532L80.1836 51.7579Z" fill="#0D1A38"/>
<path d="M90.7834 58.568C90.7834 58.568 90.2422 57.343 90.8968 55.739C91.5515 54.1349 92.0209 53.6976 91.6004 51.9475C91.1799 50.1983 91.1467 50.6061 91.6364 51.1894C92.126 51.7728 92.3565 55.1843 92.3565 55.1843C92.3565 55.1843 91.7276 56.817 91.8023 58.3628C91.2684 59.56 90.7834 58.568 90.7834 58.568Z" fill="#0D1A38"/>
<path d="M88.3166 75.0483L85.3696 71.8893L92.4171 66.7646L93.9792 68.3095L88.3166 75.0483Z" fill="#02939C"/>
<path d="M86.8679 61.2863C86.808 60.1288 85.8232 61.4323 84.5286 61.4998C83.234 61.5673 82.1201 60.371 82.18 61.5294C82.24 62.6869 83.3382 63.5717 84.6328 63.5042C85.9274 63.4376 86.9288 62.4447 86.8679 61.2863Z" fill="white"/>
</g>
<path d="M24.3214 72.5222L15.0332 81.8349L24.3214 93.6189L33.6096 81.8349L24.3214 72.5222Z" fill="#199675"/>
<path d="M15.0332 81.8358L18.7372 86.5352C20.4293 87.0631 22.2283 87.3469 24.0936 87.3469C26.1905 87.3469 28.2006 86.9836 30.0725 86.3235L33.6105 81.8349L24.3223 72.5222L15.0332 81.8358Z" fill="#127B60"/>
<path d="M24.0938 85.0376C34.0396 85.0376 42.1022 76.9537 42.1022 66.9817C42.1022 57.0097 34.0396 48.9258 24.0938 48.9258C14.1481 48.9258 6.08545 57.0097 6.08545 66.9817C6.08545 76.9537 14.1481 85.0376 24.0938 85.0376Z" fill="#199675"/>
<path d="M36.1376 79.0591C42.7903 72.3888 42.7903 61.5741 36.1376 54.9038C29.4848 48.2335 18.6986 48.2335 12.0459 54.9038C5.39311 61.5741 5.39311 72.3888 12.0459 79.0591C18.6986 85.7294 29.4848 85.7294 36.1376 79.0591Z" fill="white"/>
<mask id="mask3_8706_8047" style="mask-type:luminance" maskUnits="userSpaceOnUse" x="7" y="49" width="35" height="36">
<path d="M36.1389 79.0587C42.7917 72.3884 42.7917 61.5736 36.1389 54.9032C29.4861 48.2328 18.6998 48.2328 12.0469 54.9032C5.39414 61.5736 5.39414 72.3884 12.0469 79.0587C18.6998 85.7291 29.4861 85.7291 36.1389 79.0587Z" fill="white"/>
</mask>
<g mask="url(#mask3_8706_8047)">
<path d="M33.2821 89.4349C33.2618 88.1285 33.2424 86.8222 33.2406 85.5306V85.4899C33.2406 85.4409 33.2387 85.391 33.2369 85.3411C33.1438 83.2304 31.3614 81.594 29.2553 81.6874C27.1493 81.7808 25.5181 83.5679 25.6112 85.6795C25.6665 86.9414 25.7394 88.1868 25.8104 89.4349H33.2821Z" fill="#EA9E7C"/>
<path d="M33.2821 89.4349C33.2618 88.1285 33.2424 86.8222 33.2406 85.5306V85.4899C33.2406 85.4409 33.2387 85.391 33.2369 85.3411C33.1438 83.2304 31.3614 81.594 29.2553 81.6874C27.1493 81.7808 25.5181 83.5679 25.6112 85.6795C25.6665 86.9414 25.7394 88.1868 25.8104 89.4349H33.2821Z" fill="#2C90BF"/>
<path d="M32.3901 90.5188C32.3926 89.373 32.3976 88.2115 32.4075 87.0168C32.4307 84.2093 31.2635 81.5423 29.2891 80.229C25.676 77.8271 20.8967 79.2069 16.7402 80.4921C14.2066 81.275 13.8054 84.1719 13.9014 90.5188H32.3901Z" fill="#199675"/>
<g opacity="0.45">
<path d="M20.9459 84.0577C20.9766 84.0587 20.984 84.0419 20.9673 84.0075C20.9645 84.0019 20.9599 83.9954 20.9561 83.988L20.9245 83.9629C20.9013 83.9601 20.8789 83.9582 20.8743 83.9787C20.8724 83.988 20.8724 84.0057 20.8929 84.0401L20.9385 84.0475C20.9403 84.054 20.9375 84.0577 20.9375 84.0577C20.9375 84.0577 20.9422 84.0577 20.9459 84.0577Z" fill="#C22F96"/>
<path d="M22.3923 83.7778C22.3867 83.775 22.3821 83.7731 22.3774 83.7712C22.357 83.7638 22.343 83.7647 22.3374 83.775C22.3319 83.7852 22.3328 83.8019 22.3421 83.8252L22.3811 83.8633L22.3895 83.8642C22.4053 83.867 22.4462 83.8745 22.423 83.8131L22.3923 83.7778Z" fill="#C22F96"/>
<path d="M19.5973 83.9342C19.588 83.9333 19.5834 83.937 19.5815 83.9398L19.5713 83.9686C19.5778 83.9817 19.5852 83.9919 19.5899 83.9975L19.628 84.0347C19.6373 84.0356 19.642 84.0319 19.6448 84.0291L19.655 84.0003C19.6485 83.9872 19.641 83.977 19.6364 83.9714L19.5973 83.9342Z" fill="#C22F96"/>
<path d="M22.786 83.238C22.772 83.2343 22.7637 83.2417 22.7637 83.2575L22.7757 83.2882L22.7953 83.3152L22.8362 83.3338C22.8362 83.3338 22.8325 83.3366 22.8278 83.3357L22.8464 83.3477C22.8548 83.3468 22.8585 83.3394 22.8576 83.3282C22.8548 83.2975 22.812 83.2445 22.786 83.238Z" fill="#C22F96"/>
<path d="M18.4991 83.3426C18.5223 83.3472 18.5205 83.3175 18.5196 83.2961L18.5009 83.258C18.487 83.2431 18.4721 83.2291 18.4582 83.2263C18.4442 83.2235 18.4405 83.2329 18.4377 83.2394C18.4368 83.2431 18.4349 83.2468 18.4321 83.2487L18.4405 83.2887C18.4489 83.3017 18.4758 83.3379 18.4991 83.3426Z" fill="#C22F96"/>
<path d="M20.4914 82.6343C20.4849 82.6547 20.4932 82.6836 20.5165 82.7161L20.5193 82.7198L20.5528 82.7412C20.5677 82.7394 20.5695 82.7282 20.5695 82.7198C20.5686 82.6994 20.5518 82.6752 20.5398 82.6585L20.4914 82.6343Z" fill="#C22F96"/>
<path d="M19.9098 82.2484C19.9042 82.2466 19.8996 82.2447 19.8958 82.2438C19.8763 82.2382 19.8633 82.241 19.8586 82.2521C19.854 82.2633 19.8568 82.281 19.867 82.3042L19.9061 82.3396H19.9135C19.9284 82.3405 19.9674 82.3433 19.9405 82.2819L19.9098 82.2484Z" fill="#C22F96"/>
<path d="M23.8294 84.0369C23.8238 84.0341 23.8191 84.0322 23.8145 84.0313C23.7996 84.0266 23.7912 84.0313 23.7866 84.0341C23.7847 84.035 23.7829 84.0359 23.781 84.0359L23.7764 84.0675C23.7885 84.0908 23.8061 84.1038 23.8136 84.1085C23.8136 84.1085 23.808 84.101 23.8052 84.0954L23.8471 84.1345C23.8554 84.1336 23.8582 84.1289 23.861 84.1261L23.8712 84.1019L23.861 84.074L23.8294 84.0369Z" fill="#C22F96"/>
<path d="M20.396 84.0363C20.3969 84.0225 20.3896 84.0041 20.3748 83.9857L20.3491 83.9654L20.3279 83.959L20.3187 83.9903C20.3169 83.9875 20.315 83.9829 20.316 83.9774L20.3086 83.9875C20.3114 83.9995 20.3187 84.0133 20.3279 84.0252C20.3528 84.0556 20.3933 84.0621 20.396 84.0363Z" fill="#C22F96"/>
<path d="M18.8555 83.7499C18.8434 83.7462 18.8341 83.7489 18.8313 83.7582C18.8276 83.7703 18.8322 83.7899 18.8453 83.8168L18.8788 83.8494L18.9327 83.8652L18.9457 83.841C18.9401 83.8252 18.929 83.8085 18.9132 83.7908C18.8973 83.775 18.8741 83.7545 18.8555 83.7499Z" fill="#C22F96"/>
<path d="M17.3275 82.7351C17.3192 82.7351 17.3154 82.7398 17.3127 82.7425L17.3062 82.7742C17.3127 82.7872 17.321 82.7974 17.3257 82.8021L17.3647 82.8374C17.374 82.8374 17.3778 82.8328 17.3796 82.83L17.3861 82.7984C17.3796 82.7853 17.3713 82.776 17.3666 82.7704L17.3275 82.7351Z" fill="#C22F96"/>
<path d="M16.7322 83.5412L16.748 83.5747C16.7787 83.6091 16.8001 83.6175 16.8094 83.6165C16.8215 83.6156 16.827 83.6035 16.8261 83.5812L16.7824 83.531C16.7843 83.531 16.7852 83.5319 16.7852 83.5319C16.7378 83.4994 16.7303 83.5189 16.7322 83.5412Z" fill="#C22F96"/>
<path d="M20.1453 84.0131C20.1323 84.001 20.1193 83.9945 20.1091 83.9954C20.097 83.9964 20.0905 84.0075 20.0914 84.0299L20.1137 84.0699L20.1723 84.1219L20.203 84.1247C20.2058 84.1145 20.2021 84.0978 20.1918 84.0782C20.1825 84.0587 20.1658 84.0317 20.1453 84.0131Z" fill="#C22F96"/>
<path d="M17.2101 82.0621L17.1878 82.0193L17.1525 81.9877L17.1209 81.9849L17.1162 82.0035L17.1339 82.0444C17.1627 82.0751 17.1813 82.0816 17.1897 82.0816C17.199 82.0825 17.2083 82.0797 17.2101 82.0621Z" fill="#C22F96"/>
<path d="M18.8684 82.3716L18.8674 82.3688L18.8398 82.3227C18.8287 82.3153 18.8213 82.3135 18.8167 82.3135L18.7891 82.319C18.7891 82.3301 18.7946 82.3402 18.7964 82.3458L18.814 82.3743L18.8213 82.4094L18.8601 82.4629L18.8942 82.485C18.9135 82.4813 18.9154 82.4665 18.9163 82.4573C18.9163 82.4536 18.9182 82.4509 18.9182 82.4509L18.9108 82.4177C18.8933 82.3909 18.8794 82.3789 18.8684 82.3716Z" fill="#C22F96"/>
<path d="M17.2916 84.144L17.3165 84.1735L17.3488 84.202C17.3617 84.2103 17.369 84.2159 17.3746 84.2196C17.393 84.2334 17.4087 84.2445 17.4382 84.2564L17.4613 84.2601L17.4779 84.2564L17.4926 84.2454C17.5166 84.1983 17.4862 84.1347 17.4742 84.1117H17.4723L17.4686 84.0951L17.4502 84.0554L17.417 84.0084L17.3856 83.9807C17.3349 83.9411 17.2898 83.93 17.2639 83.9522C17.2353 83.9771 17.2363 84.0398 17.2667 84.1062L17.2916 84.144Z" fill="#C22F96"/>
<path d="M17.5186 83.3531C17.5232 83.3771 17.5333 83.3992 17.5379 83.4084L17.5702 83.4638L17.5969 83.4942L17.5831 83.5431L17.6366 83.5864C17.6845 83.6085 17.7196 83.603 17.7316 83.5707L17.703 83.5431L17.7242 83.5191L17.7269 83.4877L17.7159 83.4426L17.6965 83.402L17.6569 83.3513C17.655 83.3494 17.6532 83.3485 17.6513 83.3467C17.6043 83.3098 17.5813 83.3061 17.573 83.3052L17.5324 83.3172L17.5186 83.3531Z" fill="#C22F96"/>
<path d="M18.1835 82.2977C18.1705 82.3126 18.1872 82.3573 18.1956 82.374L18.2207 82.401C18.2542 82.4205 18.256 82.3898 18.257 82.3749C18.257 82.3712 18.257 82.3675 18.2579 82.3647L18.2402 82.3238C18.2142 82.2949 18.1928 82.2866 18.1835 82.2977Z" fill="#C22F96"/>
<path d="M19.8391 83.0779C19.8493 83.076 19.854 83.063 19.8521 83.0397L19.8233 82.9951C19.7879 82.9718 19.7749 82.9839 19.7749 83.0007C19.7749 83.0211 19.7917 83.0518 19.8121 83.0676L19.8391 83.0779Z" fill="#C22F96"/>
<path d="M16.5025 81.9255C16.4979 81.9384 16.5099 81.9587 16.5163 81.9707C16.5191 81.9744 16.5228 81.9827 16.5237 81.9845L16.544 82.0371L16.591 82.074L16.6187 82.0657L16.6159 82.05C16.615 82.0454 16.6141 82.0426 16.6141 82.0398C16.6141 82.0398 16.615 82.0371 16.6168 82.0343L16.6214 82.0242L16.6095 81.9873C16.5873 81.9578 16.5606 81.9476 16.5477 81.9458C16.5569 81.955 16.5624 81.9651 16.5643 81.9688L16.5311 81.9237C16.5154 81.9154 16.5053 81.9163 16.5025 81.9255Z" fill="#C22F96"/>
<path d="M20.0471 82.2869C20.0564 82.2878 20.0629 82.2832 20.0638 82.2739C20.0666 82.2488 20.0304 82.1939 20.0025 82.1809C19.9876 82.1744 19.9774 82.1771 19.9736 82.1902L19.9801 82.2181L19.9969 82.246L20.0378 82.272C20.0378 82.272 20.0332 82.2729 20.0285 82.2711L20.0471 82.2869Z" fill="#C22F96"/>
<path d="M17.0388 82.4746L17.012 82.47L16.9881 82.4773C16.965 82.5069 16.9761 82.5751 17.0139 82.6387C17.036 82.6765 17.0664 82.7106 17.0978 82.7337L17.1356 82.7494H17.1614L17.1826 82.7337C17.1881 82.718 17.1854 82.6986 17.1835 82.6894L17.1669 82.624L17.1448 82.5742C17.1273 82.5437 17.1033 82.517 17.0747 82.493L17.0388 82.4746Z" fill="#C22F96"/>
<path d="M17.5855 81.118L17.6181 81.1449C17.6348 81.1477 17.6395 81.1394 17.6404 81.1319C17.6432 81.1143 17.6292 81.091 17.619 81.0733L17.5707 81.0408C17.5586 81.0557 17.5632 81.0817 17.5818 81.1142L17.5855 81.118Z" fill="#C22F96"/>
<path d="M17.1444 83.525L17.1628 83.5785C17.1988 83.6366 17.2495 83.6753 17.2919 83.6762L17.3242 83.6596L17.3343 83.6329C17.3325 83.6043 17.3233 83.5757 17.3048 83.5453C17.2892 83.5195 17.2726 83.501 17.2652 83.4927L17.2228 83.4568L17.1868 83.4383L17.1499 83.4355C17.1398 83.4429 17.1241 83.4641 17.1435 83.5204L17.1444 83.525Z" fill="#C22F96"/>
<path d="M16.3681 83.2095L16.3994 83.2168C16.4308 83.2067 16.452 83.1818 16.4169 83.0988L16.4132 83.097L16.4031 83.0601L16.3616 82.9937C16.3127 82.9457 16.2657 82.9282 16.2408 82.9485C16.2104 82.9743 16.2298 83.0481 16.262 83.1034C16.2906 83.1523 16.3303 83.1919 16.3681 83.2095Z" fill="#C22F96"/>
<path d="M15.557 81.9686L15.5045 81.9372L15.4639 81.9326C15.4519 81.9418 15.4492 81.9566 15.4482 81.9667L15.4547 82.0221L15.4805 82.0792C15.5017 82.1078 15.5229 82.1253 15.5303 82.1318L15.5856 82.165L15.6271 82.1687C15.64 82.1576 15.641 82.1401 15.6419 82.1336L15.6354 82.0802L15.6096 82.023C15.5866 81.9916 15.5644 81.9741 15.557 81.9686Z" fill="#C22F96"/>
<path d="M18.7498 82.9223C18.7341 82.9204 18.735 82.937 18.735 82.9462C18.735 82.9499 18.7341 82.9564 18.7341 82.9564L18.7212 82.9877L18.7535 83.0431L18.795 83.0689L18.8023 83.0624C18.8051 83.0606 18.806 83.0596 18.8079 83.0587C18.8097 83.0587 18.8116 83.0597 18.8152 83.0597L18.8282 83.0615L18.8401 83.0421C18.8337 83.0136 18.8069 82.984 18.7922 82.9711C18.7977 82.9831 18.7977 82.9905 18.7968 82.9923L18.7867 82.949C18.7728 82.9324 18.7599 82.9232 18.7498 82.9223Z" fill="#C22F96"/>
<path d="M18.1195 83.6938L18.1064 83.7143L18.1176 83.7534C18.1325 83.772 18.1464 83.7813 18.1539 83.7859L18.1623 83.8017C18.1902 83.8222 18.1995 83.8148 18.2022 83.8101C18.205 83.8055 18.2069 83.7962 18.1995 83.7766C18.1911 83.7552 18.1697 83.7208 18.1492 83.7004L18.1195 83.6938Z" fill="#C22F96"/>
<path d="M16.4447 83.3526L16.4659 83.3987L16.5037 83.4512C16.6088 83.549 16.6439 83.5204 16.655 83.5038L16.6586 83.4964L16.6577 83.4558L16.6448 83.418L16.6181 83.371C16.5793 83.3231 16.5434 83.2917 16.5093 83.2788C16.4798 83.2668 16.4558 83.2714 16.4429 83.2908L16.4447 83.3526Z" fill="#C22F96"/>
<path d="M17.2808 81.9425L17.2668 81.9332C17.2352 81.9211 17.2148 81.95 17.2306 81.9881C17.2361 82.0011 17.2473 82.0216 17.2706 82.043L17.2845 82.0523C17.3003 82.0578 17.3143 82.055 17.3217 82.0439C17.3282 82.0327 17.3282 82.016 17.3208 81.9974C17.3152 81.9834 17.304 81.963 17.2808 81.9425Z" fill="#C22F96"/>
<path d="M19.1939 83.1158C19.2293 83.1539 19.2516 83.166 19.2627 83.1492C19.2646 83.1464 19.2655 83.1427 19.2665 83.1371L19.2516 83.1009C19.2283 83.073 19.2032 83.0441 19.179 83.0358C19.1688 83.0321 19.153 83.0293 19.1465 83.0506L19.1921 83.1065C19.1883 83.1074 19.1837 83.1046 19.1818 83.1037C19.1837 83.1055 19.1902 83.112 19.1939 83.1158Z" fill="#C22F96"/>
<path d="M15.9563 82.461C15.9722 82.487 15.9973 82.5094 16.0196 82.5159L16.0345 82.5103C16.0373 82.501 16.0428 82.4647 15.9814 82.4043L15.9517 82.394C15.9349 82.408 15.9387 82.4331 15.9563 82.461Z" fill="#C22F96"/>
<path d="M16.8515 83.8444L16.8589 83.8426L16.8755 83.8186L16.8764 83.7891L16.8644 83.7448C16.8386 83.6932 16.8073 83.6517 16.7722 83.624C16.7409 83.5982 16.7105 83.5862 16.6856 83.5899L16.6708 83.6111L16.6192 83.5503L16.5906 83.5254L16.5288 83.4875C16.6256 83.6 16.7271 83.719 16.8349 83.8444C16.8423 83.8444 16.8478 83.8453 16.8515 83.8444Z" fill="#C22F96"/>
<path d="M18.2974 83.3151C18.2639 83.2881 18.2267 83.2918 18.2286 83.3244C18.2295 83.3355 18.2342 83.3541 18.2537 83.3811L18.2676 83.396C18.2844 83.409 18.303 83.4164 18.3169 83.4136C18.33 83.4118 18.3374 83.4015 18.3365 83.3857C18.3355 83.3746 18.3309 83.356 18.3123 83.3299L18.2974 83.3151Z" fill="#C22F96"/>
<path d="M16.4551 82.8034C16.4635 82.8285 16.4839 82.8573 16.5081 82.875L16.5295 82.8815C16.5379 82.8778 16.5602 82.8601 16.5109 82.7866L16.4793 82.7615C16.4532 82.7587 16.4467 82.7755 16.4551 82.8034Z" fill="#C22F96"/>
<path d="M17.3789 83.8318C17.3891 83.8513 17.4058 83.869 17.4282 83.8848L17.4486 83.8606C17.4496 83.8634 17.4505 83.8643 17.4505 83.8643C17.4468 83.8169 17.4207 83.7909 17.4003 83.776L17.377 83.7732C17.364 83.7927 17.3705 83.8169 17.3789 83.8318Z" fill="#C22F96"/>
<path d="M15.5143 82.3146C15.531 82.3202 15.5385 82.3156 15.5394 82.31C15.5413 82.3044 15.5403 82.2932 15.531 82.2737C15.5199 82.2514 15.4957 82.2188 15.4743 82.2021L15.4464 82.2012L15.439 82.2281L15.4399 82.23C15.4641 82.256 15.4883 82.2839 15.5143 82.3146Z" fill="#C22F96"/>
<path d="M16.8813 83.3187L16.8915 83.3481C16.9172 83.3849 16.943 83.3831 16.955 83.3831C16.9577 83.3831 16.9614 83.3822 16.9642 83.3831L16.9734 83.3592C16.9623 83.3288 16.943 83.3058 16.9237 83.2975C16.897 83.2846 16.8832 83.3076 16.8813 83.3187Z" fill="#C22F96"/>
</g>
<path d="M25.1136 89.4345C24.7577 89.0795 24.3981 88.7282 24.0514 88.3639C23.4889 87.7741 22.9375 87.1732 22.4027 86.5648C22.1362 86.2607 21.8716 85.9546 21.6161 85.6486L21.239 85.1928L21.0592 84.9691L20.9117 84.7796L20.8656 84.7204C20.8241 84.6677 20.7816 84.6169 20.7383 84.566C19.1311 82.6994 16.3187 82.4923 14.457 84.1038C12.8941 85.4573 12.5142 87.6567 13.3791 89.4336L25.1136 89.4345Z" fill="#6D37E3"/>
<path d="M18.9302 79.8516C22.2912 79.1296 25.7933 78.7034 28.7679 79.7268C28.5918 83.0791 27.8772 85.9516 24.4581 85.9516C20.5844 85.9516 19.3128 83.6514 18.9302 79.8516Z" fill="#2ADAAB"/>
<path d="M19.6093 73.2483C19.6093 73.2483 19.4369 77.221 19.6766 79.6266C20.0031 82.904 21.0948 84.8889 24.4309 84.8889C30.2143 84.8889 26.9989 75.3285 28.9584 71.8735C26.4669 72.0067 19.6093 73.2483 19.6093 73.2483Z" fill="#EA9E7C"/>
<path d="M19.6089 73.2479C19.6089 73.2479 19.5849 73.5364 19.5674 74.0218C20.4646 77.1069 21.8062 78.2145 23.7223 79.2426L26.0294 80.1541C26.7385 80.535 27.4217 80.7088 28.0414 80.7051C28.3908 77.6866 27.856 73.8138 28.957 71.8713C26.4664 72.0063 19.6089 73.2479 19.6089 73.2479Z" fill="#EA9E7C"/>
<path d="M33.1921 65.5803C33.2705 63.3115 31.5001 61.4079 29.2364 61.3284C26.9735 61.2499 25.075 63.0249 24.9957 65.2946C24.9173 67.5634 26.6877 69.467 28.9514 69.5465C31.2151 69.6251 33.1137 67.8491 33.1921 65.5803Z" fill="#0D1A38"/>
<path d="M27.0366 61.4546C29.3012 61.4546 31.1371 59.6139 31.1371 57.3433C31.1371 55.0726 29.3012 53.2319 27.0366 53.2319C24.7719 53.2319 22.936 55.0726 22.936 57.3433C22.936 59.6139 24.7719 61.4546 27.0366 61.4546Z" fill="#0D1A38"/>
<path d="M26.6228 57.5654C26.7012 55.2967 24.9307 53.3931 22.667 53.3135C20.4042 53.235 18.5056 55.01 18.4263 57.2797C18.348 59.5485 20.1184 61.4521 22.3821 61.5316C24.6458 61.6102 26.5435 59.8351 26.6228 57.5654Z" fill="#0D1A38"/>
<path d="M23.1233 61.6943C23.2016 59.4256 21.4312 57.522 19.1675 57.4425C16.9047 57.3639 15.0061 59.1389 14.9268 61.4086C14.8484 63.6774 16.6189 65.581 18.8826 65.6605C21.1463 65.7391 23.0449 63.964 23.1233 61.6943Z" fill="#0D1A38"/>
<path d="M22.6125 68.5439C22.6909 66.2752 20.9205 64.3716 18.6568 64.2921C16.394 64.2135 14.4954 65.9886 14.4161 68.2583C14.3377 70.527 16.1081 72.4306 18.3718 72.5101C20.6356 72.5887 22.5341 70.8127 22.6125 68.5439Z" fill="#0D1A38"/>
<path d="M21.3484 71.7017C21.3816 70.3926 20.3507 69.2943 19.0451 69.248C17.7394 69.2027 16.6541 70.2271 16.6209 71.5362C16.5877 72.8453 17.6186 73.9437 18.9243 73.9899C20.23 74.0352 21.3153 73.0108 21.3484 71.7017Z" fill="#EA9E7C"/>
<path d="M26.8598 78.1322L24.7233 78.0573C21.4075 77.9417 18.7888 75.1524 18.8736 71.8269L18.9907 67.2348C19.0801 63.7531 21.9663 61.0285 25.4379 61.1496L31.8428 61.3724L31.5274 73.7259C31.4629 76.2471 29.3734 78.22 26.8598 78.1322Z" fill="#EA9E7C"/>
<path d="M34.0832 60.3762C34.1616 58.1074 32.3912 56.2038 30.1275 56.1243C27.8647 56.0458 25.9661 57.8208 25.8868 60.0905C25.8084 62.3593 27.5788 64.2629 29.8425 64.3424C32.1063 64.421 34.0049 62.645 34.0832 60.3762Z" fill="#0D1A38"/>
<path d="M20.7779 55.8344C22.469 56.1006 24.2957 55.9814 26.0698 55.7364C24.5004 55.5589 22.7724 55.3434 21.0665 55.2944C20.7835 55.4682 20.5124 55.643 20.2505 55.8186C20.4137 55.8029 20.588 55.8048 20.7779 55.8344Z" fill="#0D1A38"/>
<path d="M28.9449 59.2902C26.317 59.7099 23.287 60.2267 20.6424 59.8107C19.0417 59.5592 18.517 57.8313 19.0112 56.7292C18.2459 57.3533 17.688 57.9616 17.4686 58.5062C16.2394 61.5599 18.3271 66.3535 18.3271 66.3535L20.0089 66.0743C20.0089 66.0743 19.6392 62.1201 22.1049 61.8687C24.3391 61.6403 30.4175 62.2394 31.7748 62.3624C31.8329 62.3679 31.8753 62.3716 31.9159 62.3744C31.9159 62.3716 31.9334 60.7444 31.903 58.7382C30.9108 58.95 29.9186 59.1339 28.9449 59.2902Z" fill="#0D1A38"/>
<path d="M19.3463 71.4541C19.7004 71.1102 19.9946 70.0488 20.3274 69.6864C19.7631 68.1739 19.5114 67.7745 19.9816 66.0798C18.5662 64.0903 19.4662 64.6468 18.9517 65.2173C18.4381 65.7886 18.9305 69.2251 18.9305 69.2251C18.9305 69.2251 19.2089 70.5887 19.3463 71.4541Z" fill="#0D1A38"/>
<path d="M29.4283 73.1809C29.5527 71.9337 28.2886 73.167 26.8944 73.0274C25.5002 72.8878 24.5043 71.428 24.3798 72.6761C24.2553 73.9232 25.2853 75.0475 26.6795 75.1861C28.0737 75.3257 29.3047 74.428 29.4283 73.1809Z" fill="white"/>
</g>
<defs>
<linearGradient id="paint0_linear_8706_8047" x1="241.399" y1="82.1943" x2="255.305" y2="82.1943" gradientUnits="userSpaceOnUse">
<stop stop-color="#EAEDFC"/>
<stop offset="0.8382" stop-color="#CAE0FC"/>
</linearGradient>
</defs>
</svg>
