<svg width="42" height="33" viewBox="0 0 42 33" fill="none" xmlns="http://www.w3.org/2000/svg">
<g clip-path="url(#clip0_8738_9448)">
<mask id="mask0_8738_9448" style="mask-type:luminance" maskUnits="userSpaceOnUse" x="0" y="0" width="41" height="33">
<path d="M40.6283 0H0.5V33H40.6283V0Z" fill="white"/>
</mask>
<g mask="url(#mask0_8738_9448)">
<mask id="mask1_8738_9448" style="mask-type:luminance" maskUnits="userSpaceOnUse" x="0" y="0" width="41" height="33">
<path d="M40.5956 0H0.5V32.9761H40.5956V0Z" fill="white"/>
</mask>
<g mask="url(#mask1_8738_9448)">
<path d="M40.5949 28.5325C40.5777 27.7236 40.3349 26.9356 39.8938 26.2573L24.2052 1.9899C23.8102 1.37928 23.2686 0.877271 22.6298 0.529685C21.991 0.182099 21.2753 0 20.5481 0C19.8209 0 19.1052 0.182099 18.4664 0.529685C17.8276 0.877271 17.286 1.37928 16.8911 1.9899L1.20242 26.2573C0.775151 26.9144 0.53343 27.6747 0.502828 28.4579C0.472226 29.2411 0.653882 30.018 1.02858 30.7064C1.40327 31.3948 1.95707 31.9692 2.63139 32.3687C3.30571 32.7682 4.07547 32.978 4.85927 32.9759H36.2365C36.8159 32.975 37.3893 32.8588 37.9233 32.634C38.4574 32.4093 38.9413 32.0805 39.347 31.6668C39.7526 31.2531 40.0719 30.7628 40.2861 30.2244C40.5004 29.6861 40.6053 29.1105 40.5949 28.5312V28.5325ZM35.9074 31.1637H5.18843C2.97234 31.1637 1.63641 28.7094 2.84026 26.8489L18.1976 3.09018C18.4513 2.69816 18.799 2.37588 19.2092 2.15274C19.6194 1.92959 20.0789 1.81269 20.5458 1.81269C21.0127 1.81269 21.4722 1.92959 21.8824 2.15274C22.2925 2.37588 22.6403 2.69816 22.894 3.09018L38.2559 26.8481C39.4594 28.7094 38.1234 31.1637 35.9074 31.1637ZM22.0088 3.66422C21.851 3.42026 21.6348 3.21969 21.3796 3.08081C21.1245 2.94193 20.8386 2.86917 20.5481 2.86917C20.2576 2.86917 19.9717 2.94193 19.7166 3.08081C19.4614 3.21969 19.2451 3.42026 19.0874 3.66422L3.72794 27.4225C3.55817 27.6852 3.46233 27.9887 3.45053 28.3012C3.43872 28.6137 3.51139 28.9236 3.66087 29.1983C3.81036 29.4729 4.03113 29.7022 4.29995 29.862C4.56877 30.0218 4.87571 30.1061 5.18843 30.1062H35.9074C36.22 30.1061 36.5269 30.0217 36.7957 29.8619C37.0645 29.7021 37.2853 29.4729 37.4348 29.1982C37.5843 28.9236 37.657 28.6137 37.6453 28.3013C37.6336 27.9888 37.5379 27.6852 37.3683 27.4225L22.0088 3.66422ZM20.4837 8.27667C20.6843 8.26787 20.8845 8.30091 21.0717 8.37366C21.2588 8.44641 21.4287 8.55728 21.5707 8.69926C21.7127 8.8412 21.8235 9.01114 21.8963 9.19828C21.969 9.38542 22.002 9.58564 21.9933 9.7862L21.4855 21.1676C21.4753 21.4091 21.3721 21.6373 21.1977 21.8045C21.0232 21.9718 20.7908 22.0652 20.5492 22.0652C20.3075 22.0652 20.0751 21.9718 19.9006 21.8045C19.7262 21.6373 19.623 21.4091 19.6128 21.1676L19.1038 9.78201C19.0872 9.39926 19.2232 9.02561 19.4819 8.74312C19.7407 8.46063 20.101 8.2924 20.4837 8.27541V8.27667ZM20.5479 26.973C20.2591 26.973 19.9768 26.8874 19.7367 26.727C19.4966 26.5666 19.3095 26.3385 19.199 26.0717C19.0885 25.805 19.0595 25.5114 19.1159 25.2281C19.1722 24.9449 19.3113 24.6848 19.5155 24.4806C19.7197 24.2764 19.9798 24.1373 20.2631 24.081C20.5463 24.0247 20.8398 24.0536 21.1066 24.1641C21.3734 24.2746 21.6014 24.4617 21.7619 24.7018C21.9223 24.9419 22.0079 25.2242 22.0079 25.513C22.0081 25.7048 21.9705 25.8948 21.8971 26.0721C21.8238 26.2493 21.7163 26.4104 21.5807 26.5461C21.4451 26.6817 21.2841 26.7894 21.1069 26.8628C20.9296 26.9362 20.7397 26.973 20.5479 26.973Z" fill="#199675"/>
</g>
</g>
</g>
<defs>
<clipPath id="clip0_8738_9448">
<rect width="41" height="33" fill="white" transform="translate(0.5)"/>
</clipPath>
</defs>
</svg>
