<svg width="22" height="22" viewBox="0 0 22 22" fill="none" xmlns="http://www.w3.org/2000/svg">
<g clip-path="url(#clip0_6992_6681)">
<path d="M15.3753 0.0110096C15.3285 -0.0412404 13.6441 0.0316347 12.1784 1.62251C10.7126 3.21201 10.9381 5.03526 10.9711 5.08201C11.0041 5.12876 13.0611 5.20164 14.3743 3.35226C15.6874 1.50288 15.422 0.0646347 15.3753 0.0110096ZM19.932 16.1439C19.866 16.0119 16.7351 14.4471 17.0266 11.4386C17.3181 8.42876 19.3298 7.60376 19.3614 7.51439C19.393 7.42501 18.5405 6.42814 17.6371 5.92351C16.9738 5.56773 16.2398 5.3639 15.488 5.32676C15.3395 5.32264 14.8239 5.19614 13.7638 5.48626C13.0653 5.67739 11.4909 6.29614 11.0578 6.32089C10.6233 6.34564 9.33075 5.60314 7.94063 5.40651C7.051 5.23464 6.10775 5.58664 5.43263 5.85751C4.75888 6.12701 3.47738 6.89426 2.58088 8.93339C1.68438 10.9711 2.15325 14.1996 2.48875 15.2034C2.82425 16.2058 3.34813 17.8489 4.23913 19.0479C5.03113 20.4009 6.08163 21.34 6.52025 21.659C6.95888 21.978 8.19638 22.1898 9.05438 21.7511C9.74463 21.3276 10.9904 21.0843 11.4826 21.1021C11.9735 21.12 12.9415 21.3139 13.9329 21.8433C14.718 22.1141 15.4605 22.0014 16.2044 21.6989C16.9483 21.395 18.0249 20.2428 19.2816 17.9066C19.7588 16.8204 19.976 16.2333 19.932 16.1439Z" fill="#1F1F1F"/>
<path d="M15.3753 0.0110096C15.3285 -0.0412404 13.6441 0.0316347 12.1784 1.62251C10.7126 3.21201 10.9381 5.03526 10.9711 5.08201C11.0041 5.12876 13.0611 5.20164 14.3743 3.35226C15.6874 1.50288 15.422 0.0646347 15.3753 0.0110096ZM19.932 16.1439C19.866 16.0119 16.7351 14.4471 17.0266 11.4386C17.3181 8.42876 19.3298 7.60376 19.3614 7.51439C19.393 7.42501 18.5405 6.42814 17.6371 5.92351C16.9738 5.56773 16.2398 5.3639 15.488 5.32676C15.3395 5.32264 14.8239 5.19614 13.7638 5.48626C13.0653 5.67739 11.4909 6.29614 11.0578 6.32089C10.6233 6.34564 9.33075 5.60314 7.94063 5.40651C7.051 5.23464 6.10775 5.58664 5.43263 5.85751C4.75888 6.12701 3.47738 6.89426 2.58088 8.93339C1.68438 10.9711 2.15325 14.1996 2.48875 15.2034C2.82425 16.2058 3.34813 17.8489 4.23913 19.0479C5.03113 20.4009 6.08163 21.34 6.52025 21.659C6.95888 21.978 8.19638 22.1898 9.05438 21.7511C9.74463 21.3276 10.9904 21.0843 11.4826 21.1021C11.9735 21.12 12.9415 21.3139 13.9329 21.8433C14.718 22.1141 15.4605 22.0014 16.2044 21.6989C16.9483 21.395 18.0249 20.2428 19.2816 17.9066C19.7588 16.8204 19.976 16.2333 19.932 16.1439Z" fill="#1F1F1F"/>
</g>
<defs>
<clipPath id="clip0_6992_6681">
<rect width="22" height="22" fill="white"/>
</clipPath>
</defs>
</svg>
