<svg width="42" height="42" viewBox="0 0 42 42" fill="none" xmlns="http://www.w3.org/2000/svg">
<mask id="mask0_147_2674" style="mask-type:luminance" maskUnits="userSpaceOnUse" x="0" y="0" width="42" height="42">
<path d="M42 0H0V42H42V0Z" fill="white"/>
</mask>
<g mask="url(#mask0_147_2674)">
<mask id="mask1_147_2674" style="mask-type:luminance" maskUnits="userSpaceOnUse" x="0" y="0" width="42" height="42">
<path d="M42 0H0V42H42V0Z" fill="white"/>
</mask>
<g mask="url(#mask1_147_2674)">
<path d="M7.67659 14.0657C7.18309 14.6929 6.39691 15.1899 5.61203 15.1171C5.50834 14.2715 5.89947 13.3657 6.35097 12.8043C6.84316 12.1645 7.70416 11.7053 8.40241 11.6675C8.48509 12.5509 8.16091 13.4189 7.67659 14.0657ZM8.39453 15.2837C7.25397 15.2095 6.27484 15.9823 5.73409 15.9823C5.18153 15.9823 4.35334 15.3201 3.45166 15.3425C2.28222 15.3579 1.18891 16.0705 0.59435 17.2171C-0.643337 19.4977 0.272787 22.8745 1.46191 24.7337C2.04334 25.6521 2.73897 26.6587 3.65641 26.6307C4.52397 26.5929 4.87309 26.0189 5.91916 26.0189C6.97834 26.0189 7.27891 26.6307 8.20291 26.6083C9.15184 26.5929 9.75297 25.6899 10.3344 24.7715C10.9972 23.7285 11.2702 22.7065 11.2847 22.6561C11.2702 22.6337 9.44584 21.8833 9.43272 19.6223C9.41828 17.7253 10.8673 16.8223 10.929 16.7705C10.1152 15.4587 8.83028 15.3201 8.39322 15.2851L8.39453 15.2837ZM14.978 12.7161V26.5131H16.9664V21.7965H19.7161C22.2243 21.7965 23.9883 19.9373 23.9883 17.2535C23.9883 14.5641 22.2598 12.7175 19.7844 12.7175L14.978 12.7161ZM16.9664 14.5249H19.2568C20.9788 14.5249 21.9644 15.5161 21.9644 17.2591C21.9644 19.0021 20.9788 20.0017 19.2436 20.0017H16.9664V14.5249ZM27.6095 26.6153C28.8603 26.6153 30.0153 25.9377 30.5429 24.8569H30.5849V26.5131H32.4224V19.6433C32.4224 17.6609 30.9472 16.3715 28.67 16.3715C26.5648 16.3715 25.0055 17.6763 24.9517 19.4627H26.7354C26.8863 18.6101 27.6108 18.0557 28.6162 18.0557C29.8329 18.0557 30.5101 18.6675 30.5101 19.7917V20.5491L28.0361 20.7101C25.7248 20.8627 24.4805 21.8763 24.4805 23.6487C24.4805 25.4351 25.7668 26.6167 27.6108 26.6167L27.6095 26.6153ZM28.1503 24.9815C27.0898 24.9815 26.4138 24.4341 26.4138 23.5969C26.4138 22.7289 27.0635 22.2179 28.2999 22.1367L30.5088 21.9911V22.7709C30.5088 24.0631 29.4903 24.9815 28.1424 24.9815H28.1503ZM34.8768 30.2679C36.8101 30.2679 37.721 29.4657 38.5138 27.0521L41.9998 16.5087H39.9838L37.6462 24.6525H37.6042L35.2666 16.5087H33.1889L36.5529 26.5495L36.3744 27.1613C36.0659 28.1903 35.5751 28.5893 34.6996 28.5893C34.5421 28.5893 34.2416 28.5683 34.1182 28.5543V30.2105C34.2337 30.2455 34.7272 30.2609 34.8703 30.2609L34.8768 30.2679Z" fill="#8B8B8B"/>
</g>
</g>
</svg>
