<svg width="61" height="27" viewBox="0 0 61 27" fill="none" xmlns="http://www.w3.org/2000/svg">
<g filter="url(#filter0_f_1_17461)">
<ellipse cx="30.5" cy="24.5" rx="29.5" ry="1.5" fill="url(#paint0_radial_1_17461)" fill-opacity="0.27"/>
</g>
<path d="M43.2881 20.8712H55.5252C55.5252 20.8712 56.3192 13.6795 50.8432 13.358C50.8432 13.358 43.7134 11.7471 43.2881 20.8712Z" fill="black"/>
<path d="M4.88777 19.965H12.7003L15.1423 21.0862H17.5366C17.5366 21.0862 16.9514 15.3978 13.9185 14.5398C13.9185 14.5398 9.1309 11.9084 6.78986 14.915C6.78986 14.9139 4.53389 17.9857 4.88777 19.965Z" fill="black"/>
<path d="M59.4798 18.6289C59.4213 19.0537 59.2945 19.466 59.1044 19.8496C59.0233 20.0222 58.9101 20.1776 58.7709 20.3072C58.3059 20.7763 56.9188 20.8632 55.9966 20.8667C55.4919 20.8667 55.1267 20.8449 55.1267 20.8449C55.3921 19.5293 55.2594 17.7857 54.0616 15.7195C52.8639 13.6533 49.1414 12.7941 46.4805 14.5651C43.8196 16.3361 44.06 20.5223 44.06 20.5223C44.034 21.0314 43.4748 21.1927 43.4748 21.1927H43.1345L17.1789 21.1664H17.0111C16.1592 21.1321 16.2851 20.496 16.2851 20.496C16.3645 19.3165 16.5245 16.5787 13.8908 14.8076C11.2571 13.0366 8.49075 14.3786 8.49075 14.3786C5.00755 16.041 5.32854 19.9045 5.32854 19.9045C5.1837 19.9344 5.03707 19.9547 4.88959 19.9651L4.78638 19.972H4.72059H4.63779C4.19503 19.9735 3.75481 19.9043 3.33343 19.7672C2.93419 19.5796 2.50772 18.7204 2.50772 18.7204C2.13569 17.9962 2.37615 17.7548 2.37615 17.7548C2.58825 17.2972 2.26273 16.8693 2.26273 16.8693C2.07671 16.3052 2.10393 16.1451 2.10393 16.1451L2.13002 15.152C2.26273 13.4611 2.87521 13.3547 2.87521 13.3547L3.80641 12.7632C3.99242 12.5492 4.04573 11.9623 4.04573 11.9623C4.07898 11.3002 4.15476 10.641 4.27257 9.98877C4.58675 8.27265 5.08921 7.53472 5.08921 7.53472C5.09715 7.51641 5.10509 7.49926 5.11417 7.48095C5.70396 6.2728 8.60531 3.07968 8.94104 2.71243L8.9728 2.6781L8.06542 2.11407C7.9212 1.98108 7.81272 1.81341 7.75011 1.62669C7.72677 1.56706 7.70744 1.5059 7.69226 1.44364C8.33083 0.986011 13.6776 0.772069 13.6776 0.772069C14.9819 0.772069 18.5457 0.611895 18.5457 0.611895C26.7767 -0.0928576 31.5892 0.82927 33.0445 1.18393C33.3643 1.26059 33.5231 1.31093 33.5231 1.31093C33.6286 1.34182 33.7363 1.37614 33.8452 1.41275L33.877 1.42305C34.1968 1.53059 34.5326 1.65186 34.8819 1.8006C39.0921 3.53388 45.0899 7.64341 45.0899 7.64341H45.1115C46.4828 8.01752 50.0385 8.49575 50.0385 8.49575C51.7602 8.66487 53.4445 9.10737 55.0291 9.80686C55.6257 10.0706 56.1987 10.3857 56.7418 10.7484C56.9392 10.8812 57.039 10.9635 57.039 10.9635C58.5554 12.0104 58.2866 12.8421 58.2866 12.8421C58.2594 13.3524 58.7403 13.7276 58.7403 13.7276C59.6182 14.4255 59.5343 16.7594 59.5343 16.7594C59.5867 17.3826 59.5685 18.0098 59.4798 18.6289Z" fill="url(#paint1_linear_1_17461)"/>
<path style="mix-blend-mode:screen" opacity="0.3" d="M56.7757 13.223C56.1573 12.5721 55.6854 11.7944 55.3919 10.9429L52.1197 9.30224L46.4009 8.41672C46.4009 8.41672 43.74 8.22909 41.2663 5.51877C41.2663 5.51877 36.6647 1.68153 30.8654 1.36004C30.8654 1.36004 23.2831 -0.0895046 13.6796 2.2181L11.5779 2.75811C11.5779 2.75811 11.2059 3.02696 11.0199 2.46293C11.0199 2.46293 10.7 2.0339 10.142 2.40916L6.86976 6.97175C6.86976 6.97175 6.63044 7.23946 7.02969 7.42938L8.49284 7.93964C8.49284 7.93964 9.13141 8.20736 8.43953 8.18104H6.31059C6.31059 8.18104 6.2845 8.18104 5.99187 7.93964C5.99187 7.93964 5.72646 11.1865 4.58203 12.2322C4.58203 12.2322 7.3484 10.5687 10.6479 10.2198C13.9473 9.87085 10.4074 8.74507 17.2445 9.1741L35.653 10.2736L41.9638 10.7815C41.9638 10.7815 47.4966 11.0229 50.61 12.6327C50.61 12.6327 52.418 13.7596 53.0565 13.7333C53.0565 13.7333 54.573 12.7139 56.0894 13.5456C56.0894 13.5456 57.5526 14.2161 58.2978 15.3704C58.2978 15.3704 59.0691 16.9001 59.0691 15.6919C59.0691 14.4838 57.9723 13.5719 56.7757 13.223ZM44.0599 9.8022L37.5551 9.39948L10.421 7.74972C8.58584 7.66849 9.78245 7.347 9.78245 7.347C10.421 7.347 10.86 6.70289 10.86 6.70289C12.3764 2.51671 18.5614 2.24099 18.5614 2.24099L22.1149 3.44227L42.0273 8.31261C50.4047 10.4864 44.0599 9.8022 44.0599 9.8022Z" fill="url(#paint2_linear_1_17461)"/>
<path style="mix-blend-mode:screen" opacity="0.3" d="M11.524 12.8488C10.3898 13.7824 4.91259 12.8328 4.90011 19.9661C4.81051 19.9661 4.72204 19.9764 4.63584 19.9764C4.19307 19.9779 3.75286 19.9087 3.33148 19.7716C2.93223 19.584 2.50577 18.7248 2.50577 18.7248C2.13374 18.0006 2.3742 17.7592 2.3742 17.7592C2.5863 17.3015 2.26077 16.8737 2.26077 16.8737C2.07476 16.3096 2.10198 16.1495 2.10198 16.1495L2.12807 15.1564C2.26077 13.4654 2.87325 13.359 2.87325 13.359L3.80445 12.7676C3.99047 12.5536 4.04377 11.9667 4.04377 11.9667C4.07703 11.3046 4.1528 10.6454 4.27062 9.99316C4.47705 10.2609 4.58707 10.9302 4.32506 12.4632C4.32506 12.4632 4.68801 12.557 3.94283 13.0353C3.19764 13.5135 2.31975 13.6256 2.29367 15.5843C2.29367 15.5843 2.50577 17.8118 2.53299 16.7112L2.719 14.6988C2.719 14.6988 2.77231 14.0821 3.30426 13.8407C3.30426 13.8407 6.28387 12.7138 5.13944 12.7138C5.13944 12.7138 4.52809 12.2035 8.54211 11.2379C12.5561 10.2723 12.6684 11.9084 11.524 12.8488Z" fill="url(#paint3_linear_1_17461)"/>
<path style="mix-blend-mode:screen" opacity="0.3" d="M59.4801 18.6287C59.4216 19.0535 59.2948 19.4658 59.1047 19.8494C59.0825 19.8519 59.06 19.8519 59.0378 19.8494C58.1599 19.9032 58.186 18.6699 58.1066 17.6231C58.0272 16.5762 57.2548 16.5225 56.2703 16.0934C55.2858 15.6644 56.0843 14.7777 57.5179 15.3692C58.9516 15.9607 58.3958 18.0258 58.7951 19.0452C59.0026 19.568 59.2692 19.1561 59.4801 18.6287Z" fill="url(#paint4_linear_1_17461)"/>
<path style="mix-blend-mode:screen" opacity="0.3" d="M13.8634 10.6476C13.8634 10.6476 17.2445 11.1304 18.4003 11.4484C19.5561 11.7665 20.4759 12.1349 19.319 12.2939C18.1621 12.453 15.7269 13.0593 14.1708 13.0181C12.6146 12.9769 13.5322 13.7435 15.0883 13.6222C16.6445 13.5009 27.2597 13.4208 30.7713 13.7034C34.2828 13.986 38.9513 14.1462 39.3914 13.3007C39.8315 12.4552 32.3286 11.127 25.4245 10.9656C18.5205 10.8043 13.835 9.60076 13.8634 10.6476Z" fill="url(#paint5_linear_1_17461)"/>
<path style="mix-blend-mode:screen" opacity="0.3" d="M33.046 1.17923L33.4305 1.30736C29.1398 0.333753 23.1703 0.561422 23.1703 0.561422C19.7586 0.561422 12.1967 1.90915 12.1967 1.90915C11.8168 1.95034 12.1162 1.26618 12.1162 1.26618C12.0572 1.48699 12.2364 1.70894 12.2364 1.70894L13.5136 1.54762C15.1695 1.34626 14.5707 1.1655 14.5707 1.1655C13.4364 0.811979 9.12637 1.41605 7.75169 1.62313C7.72835 1.56349 7.70903 1.50234 7.69385 1.44008C8.33242 0.98245 13.6792 0.7685 13.6792 0.7685C14.9835 0.7685 18.5472 0.608333 18.5472 0.608333C26.7783 -0.0929871 31.5874 0.82914 33.046 1.17923Z" fill="url(#paint6_linear_1_17461)"/>
<path d="M25.8369 1.38978C25.8369 1.38978 30.7311 1.12092 34.7746 2.99949C34.7746 2.99949 38.3927 4.74422 40.7338 6.70289C40.7338 6.70289 42.2502 7.99112 42.2763 8.87664C42.2763 8.87664 42.3829 9.35943 41.319 9.27935L24.4803 8.15129L12.5086 7.45454C12.5086 7.45454 11.684 7.5884 12.0833 6.43402C12.4825 5.27965 14.1056 1.68495 22.8833 1.41724L25.8369 1.38978Z" fill="#1A1A1A"/>
<path opacity="0.6" d="M26.5281 2.0075L27.4865 8.01735L27.5262 8.35257L24.5863 8.16494L24.5602 7.82972L24.2415 1.7661C24.2415 1.7661 24.4025 1.54873 23.5757 1.56017V1.408L25.8373 1.38741C26.6092 1.35973 27.3821 1.37538 28.1523 1.43432V1.62309C27.7235 1.59792 27.288 1.58877 26.8479 1.6025C26.8479 1.60479 26.4419 1.61165 26.5281 2.0075Z" fill="url(#paint7_linear_1_17461)"/>
<path style="mix-blend-mode:screen" opacity="0.6" d="M12.4829 6.64902C12.4829 6.64902 12.9082 3.99246 16.633 2.73169L16.7385 7.42241L12.7222 7.20847C12.7222 7.20847 12.1903 7.21305 12.4829 6.64902Z" fill="url(#paint8_linear_1_17461)"/>
<path style="mix-blend-mode:screen" opacity="0.6" d="M16.98 2.5441L17.0594 7.40072L24.5611 7.82975L24.2424 1.76613C24.2424 1.76613 24.4817 1.44464 22.8814 1.60596C22.8848 1.60481 19.4265 1.79244 16.98 2.5441Z" fill="url(#paint9_linear_1_17461)"/>
<path style="mix-blend-mode:screen" opacity="0.6" d="M26.5294 2.00759L27.4867 8.01744L39.8032 8.8183L39.6172 6.18691C39.6172 6.18691 37.0369 4.1207 33.7113 2.80615C33.7113 2.80615 30.3858 1.49161 26.8481 1.59915C26.8481 1.60487 26.4421 1.61174 26.5294 2.00759Z" fill="url(#paint10_linear_1_17461)"/>
<path d="M40.4414 8.80908C40.4414 8.80908 39.0179 9.37311 38.8183 8.11119C38.8183 8.11119 38.6856 6.59528 39.3775 6.46143C39.4798 6.43494 39.5841 6.41696 39.6894 6.40766C40.1011 6.36876 40.8157 6.40766 41.173 7.10554C41.31 7.39906 41.3783 7.72044 41.3726 8.04484H41.6516C41.6516 8.04484 41.6788 9.01044 40.4414 8.80908Z" fill="url(#paint11_linear_1_17461)"/>
<path style="mix-blend-mode:screen" opacity="0.1" d="M40.4413 8.80909C40.4413 8.80909 39.0179 9.37313 38.8182 8.11121C38.8182 8.11121 38.7502 7.33209 38.9668 6.84128C38.9984 6.74843 39.0525 6.66504 39.1242 6.59869C39.1959 6.53234 39.283 6.48516 39.3774 6.46144C39.4798 6.43496 39.5841 6.41698 39.6893 6.40767C40.0024 6.37793 40.4924 6.39737 40.8655 6.71314C40.9913 6.82264 41.0946 6.95596 41.1695 7.10556C41.3066 7.39907 41.3749 7.72045 41.3691 8.04485H41.6481C41.6481 8.04485 41.6788 9.01045 40.4413 8.80909Z" fill="url(#paint12_linear_1_17461)"/>
<path d="M9.52477 2.97996L7.9482 5.11253L7.11001 6.25661C7.11001 6.25661 6.59166 6.84009 6.11302 7.02085L5.11377 7.47848C5.70357 6.27033 8.60491 3.07721 8.94064 2.70996L9.52477 2.97996Z" fill="#1A1A1A"/>
<path style="mix-blend-mode:screen" opacity="0.6" d="M9.52477 2.97996L7.9482 5.11253L7.11001 6.25661C7.11001 6.25661 6.59166 6.84009 6.11302 7.02085L5.11377 7.47848C5.70357 6.27033 8.60491 3.07721 8.94064 2.70996L9.52477 2.97996Z" fill="url(#paint13_linear_1_17461)"/>
<path d="M57.9074 12.4049C57.9267 13.4117 56.8491 12.8076 56.8491 12.8076C55.6525 12.2436 54.854 12.2436 54.854 12.2436C54.0068 12.2974 54.2155 12.0148 54.2155 12.0148C54.7951 11.3913 53.468 10.6259 52.5901 9.94173C51.7122 9.25757 52.5005 9.30448 52.5005 9.30448C53.0495 9.26901 54.2291 9.62139 55.1092 9.9177C55.7056 10.182 56.2785 10.497 56.8219 10.8593C57.9981 11.9782 57.9074 12.4049 57.9074 12.4049Z" fill="#262A2C"/>
<path d="M58.7591 17.8897C58.8555 18.6505 58.7818 19.2866 58.5947 19.3106C58.4075 19.3347 58.1761 18.7386 58.0797 17.9778C57.9833 17.217 58.0559 16.5809 58.243 16.5557C58.4302 16.5305 58.6616 17.1289 58.7591 17.8897Z" fill="#1A1A1A"/>
<path d="M58.8644 17.9903C58.9382 18.5738 58.8497 19.0658 58.6648 19.0898C58.4799 19.1138 58.2701 18.6608 58.1964 18.0773C58.1226 17.4938 58.2111 17.0019 58.396 16.9778C58.5809 16.9538 58.7918 17.408 58.8644 17.9903Z" fill="url(#paint14_linear_1_17461)"/>
<path d="M45.1181 7.6478C44.492 8.05967 42.0863 6.22457 40.0141 4.82421C37.8352 3.35293 33.8711 1.5224 33.8711 1.5224L33.879 1.41943C38.0609 2.82322 45.0965 7.63979 45.0965 7.63979L45.1181 7.6478Z" fill="#1A1A1A"/>
<path style="mix-blend-mode:screen" opacity="0.6" d="M45.1181 7.6478C44.492 8.05967 42.0863 6.22457 40.0141 4.82421C37.8352 3.35293 33.8711 1.5224 33.8711 1.5224L33.879 1.41943C38.0609 2.82322 45.0965 7.63979 45.0965 7.63979L45.1181 7.6478Z" fill="url(#paint15_linear_1_17461)"/>
<path d="M17.0105 21.1652C16.1587 21.1309 16.2846 20.4948 16.2846 20.4948C16.364 19.3152 16.5239 16.5774 13.8902 14.8064C11.2566 13.0354 8.49019 14.3774 8.49019 14.3774C5.00698 16.0409 5.32797 19.9044 5.32797 19.9044C5.18313 19.9343 5.0365 19.9546 4.88902 19.9651L4.78581 19.9719H4.72002H4.63723C4.51586 18.8828 4.43307 15.5718 7.53517 13.7298C7.53517 13.7298 9.46335 12.2665 12.3511 13.1932C15.1957 14.1074 16.4434 16.0409 16.8721 18.4297L17.0105 21.1652Z" fill="url(#paint16_linear_1_17461)"/>
<path d="M55.9967 20.8666C55.492 20.8666 55.1267 20.8448 55.1267 20.8448C55.3921 19.5291 55.2594 17.7856 54.0617 15.7194C52.864 13.6531 49.1414 12.7939 46.4805 14.565C43.8197 16.336 44.0601 20.5222 44.0601 20.5222C44.034 21.0313 43.4748 21.1926 43.4748 21.1926H43.1346C43.0212 19.9158 42.9883 15.9013 46.4 13.5994C46.4 13.5994 49.1131 11.6933 52.2787 13.1967C55.4443 14.7 56.0557 18.3759 56.0035 19.6905C56.0046 19.6905 56.0284 20.2087 55.9967 20.8666Z" fill="url(#paint17_linear_1_17461)"/>
<path d="M43.0233 18.3884C43.0078 18.5189 42.9801 18.6476 42.9406 18.7728C42.9303 18.8049 42.9213 18.8358 42.9099 18.8667C42.8986 18.8975 42.8884 18.9284 42.8736 18.9582C42.849 19.019 42.8205 19.0782 42.7886 19.1355C42.7727 19.1653 42.7534 19.1916 42.7364 19.2202C42.7189 19.2481 42.6996 19.2749 42.6785 19.3003C42.6596 19.3269 42.6383 19.3517 42.615 19.3746L42.5458 19.4444L42.4676 19.505C42.441 19.5244 42.4129 19.5416 42.3836 19.5565C42.3554 19.5739 42.3254 19.5881 42.294 19.5989L42.201 19.632L39.1715 19.6423H36.142H30.0841L24.0251 19.6229L20.9956 19.6126L17.9638 19.5989C17.9161 19.5894 17.8692 19.5768 17.8231 19.5611C17.7766 19.5463 17.7312 19.5283 17.687 19.5073C17.6423 19.4891 17.5991 19.4673 17.5577 19.4421L17.4954 19.4055C17.4746 19.3925 17.4545 19.3783 17.4352 19.3632L17.3774 19.3197C17.3575 19.3061 17.3386 19.2912 17.3207 19.2751L17.2175 19.1721C17.1997 19.1556 17.1834 19.1376 17.1687 19.1184L17.1256 19.06L17.0405 18.9456L17.1267 19.06L17.1698 19.1184C17.1853 19.137 17.202 19.1546 17.2197 19.171L17.3241 19.2717C17.3422 19.2875 17.3611 19.3024 17.3808 19.3163L17.4398 19.3586C17.4582 19.374 17.478 19.3878 17.4988 19.3998L17.5623 19.4353C17.6036 19.46 17.6469 19.4815 17.6916 19.4993C17.7354 19.5194 17.7805 19.5366 17.8265 19.5508C17.8719 19.5655 17.9181 19.5773 17.9649 19.5863L20.9944 19.5737H24.024H30.083L36.1409 19.592L39.1704 19.6012L42.1999 19.6183L42.2918 19.5874C42.3518 19.564 42.4089 19.5337 42.4619 19.497L42.5402 19.4387L42.6094 19.3712C42.6531 19.3229 42.694 19.2721 42.7319 19.219C42.7489 19.1904 42.7682 19.1653 42.784 19.1355C42.8163 19.0788 42.8454 19.0204 42.8714 18.9605C42.885 18.9307 42.8952 18.8998 42.9077 18.8689C42.9201 18.8381 42.9292 18.8072 42.9394 18.7763C42.979 18.6498 43.0071 18.52 43.0233 18.3884Z" fill="#36A8C1"/>
<path d="M25.3845 1.04079C25.3845 1.04079 31.1044 0.69757 35.8386 3.05323C35.8386 3.05323 40.0421 5.06566 42.4636 8.04485C42.4636 8.04485 42.8357 8.76905 43.0489 10.0298L43.3415 14.6187C43.3415 14.6187 43.3415 17.1677 43.0217 18.3221C43.0217 18.3221 42.9151 19.3678 42.1971 19.5554L19.1065 19.5291H17.9621C17.9621 19.5291 16.8721 19.3678 16.7916 18.0269C16.7916 18.0269 16.6328 15.7994 14.1318 14.1085C13.0077 13.043 12.1585 11.7167 11.6581 10.2449C11.6581 10.2449 10.8335 8.04484 11.3915 6.38135C11.3915 6.38135 12.0834 2.94911 18.3353 1.57622C18.3353 1.57736 21.9262 0.933248 25.3845 1.04079Z" stroke="#1A1A1A" stroke-width="0.2" stroke-miterlimit="10"/>
<path d="M25.3833 1.04077L26.0752 8.25877C26.5442 9.36833 26.7623 10.5693 26.7137 11.7745L26.6604 16.9L26.5799 17.7855C26.5799 17.7855 26.454 19.1836 26.1534 19.5543" stroke="#1A1A1A" stroke-width="0.2" stroke-miterlimit="10"/>
<path d="M5.01367 11.976L5.80763 12.5995C5.80763 12.5995 8.00235 14.2298 8.41635 14.3911" stroke="#1A1A1A" stroke-width="0.2" stroke-miterlimit="10"/>
<path style="mix-blend-mode:screen" opacity="0.3" d="M18.6803 16.8051C18.6803 16.8051 21.3934 17.5304 23.0289 17.6506C24.6645 17.7707 38.4714 18.416 41.4249 17.9332C41.4249 17.9332 41.9308 17.9332 41.8366 17.6643C41.7425 17.3954 41.0529 17.2753 40.5731 17.289L20.4883 16.6575C20.4883 16.6575 18.3877 16.4973 18.6803 16.8051Z" fill="url(#paint18_linear_1_17461)"/>
<path d="M45.1873 12.7001C45.1873 12.8385 44.9162 12.9518 44.5839 12.9518C44.2515 12.9518 43.9805 12.8374 43.9805 12.7001C43.9805 12.5628 44.2504 12.4484 44.5839 12.4484C44.9173 12.4484 45.1873 12.5605 45.1873 12.7001Z" fill="url(#paint19_linear_1_17461)"/>
<path d="M9.5249 2.97999L10.092 2.19515C10.092 2.19515 10.2519 1.49726 9.82547 1.04077" stroke="#1A1A1A" stroke-width="0.2" stroke-miterlimit="10"/>
<path d="M12.2168 0.853149C12.0714 1.17267 11.999 1.52101 12.0047 1.87252" stroke="#1A1A1A" stroke-width="0.2" stroke-miterlimit="10"/>
<path d="M5.15746 8.0311L5.86636 7.97046C5.86636 7.97046 6.31437 8.2725 6.18507 9.43031C6.18507 9.43031 5.62703 11.4622 4.77863 12.4278L4.45992 12.4587C4.45992 12.4587 4.32948 10.889 4.64933 9.77238C4.7326 9.44829 4.84263 9.13181 4.97826 8.82623C5.0831 8.57363 5.14373 8.3046 5.15746 8.0311Z" fill="#36CACD"/>
<path d="M13.8807 9.91655L13.3226 9.88565C13.3226 9.88565 12.7555 9.81587 12.7034 10.2678C12.7034 10.2678 12.6035 10.6911 13.3317 10.6911L13.8614 10.7014C13.8614 10.7014 13.9601 11.2139 14.889 11.159C14.889 11.159 15.5763 11.1087 15.683 10.7471H16.2421C16.2832 10.7442 16.3233 10.7329 16.3599 10.7138C16.3964 10.6947 16.4288 10.6683 16.4549 10.6361C16.481 10.604 16.5004 10.5668 16.5118 10.5269C16.5231 10.487 16.5263 10.4451 16.5212 10.4039C16.5212 10.4039 16.621 10.0023 15.7125 10.0424C15.7125 10.0424 15.5038 9.48866 14.7155 9.539C14.7189 9.54358 14.0905 9.54358 13.8807 9.91655Z" fill="#36A8C1"/>
<path d="M13.8807 9.86276L13.3226 9.83187C13.3226 9.83187 12.7555 9.76208 12.7034 10.2151C12.7034 10.2151 12.6035 10.6373 13.3317 10.6373L13.8614 10.6476C13.8614 10.6476 13.9601 11.1601 14.889 11.1052C14.889 11.1052 15.5763 11.0549 15.683 10.6934H16.2421C16.2832 10.6904 16.3233 10.6791 16.3599 10.66C16.3964 10.6409 16.4288 10.6145 16.4549 10.5823C16.481 10.5502 16.5004 10.5131 16.5118 10.4731C16.5231 10.4332 16.5263 10.3913 16.5212 10.3501C16.5212 10.3501 16.621 9.94742 15.7125 9.98746C15.7125 9.98746 15.5038 9.43373 14.7155 9.48407C14.7189 9.48979 14.0905 9.48979 13.8807 9.86276Z" fill="url(#paint20_linear_1_17461)"/>
<path d="M12.8057 10.2552C12.8057 10.2552 12.7558 9.89249 13.3445 9.93253L15.47 10.0641C15.47 10.0641 16.3978 10.0435 16.3978 10.3959C16.3978 10.3959 16.4273 10.5972 15.968 10.6075L13.1449 10.5263C13.0659 10.5278 12.9889 10.5016 12.9271 10.4521C12.8652 10.4027 12.8223 10.333 12.8057 10.2552Z" fill="url(#paint21_linear_1_17461)"/>
<path d="M28.5407 10.5332L27.9827 10.5034C27.9827 10.5034 27.4155 10.4325 27.3634 10.8856C27.3634 10.8856 27.2647 11.3077 27.9929 11.3077L28.5214 11.318C28.5214 11.318 28.6212 11.8317 29.549 11.7756C29.549 11.7756 30.2375 11.7253 30.343 11.3626H30.9022C30.9433 11.3599 30.9834 11.3486 31.0201 11.3296C31.0568 11.3105 31.0892 11.2841 31.1153 11.252C31.1415 11.2198 31.1608 11.1826 31.1721 11.1426C31.1835 11.1026 31.1865 11.0607 31.1812 11.0194C31.1812 11.0194 31.281 10.6167 30.3736 10.6567C30.3736 10.6567 30.1638 10.1041 29.3755 10.1545C29.3744 10.1614 28.7505 10.1614 28.5407 10.5332Z" fill="#36A8C1"/>
<path d="M28.5407 10.4795L27.9827 10.4497C27.9827 10.4497 27.4155 10.3788 27.3634 10.8319C27.3634 10.8319 27.2647 11.254 27.9929 11.254L28.5214 11.2643C28.5214 11.2643 28.6212 11.778 29.549 11.7277C29.549 11.7277 30.2375 11.6773 30.343 11.3147H30.9022C30.9434 11.3121 30.9836 11.3009 31.0203 11.2819C31.0571 11.2629 31.0896 11.2365 31.1157 11.2043C31.1419 11.1721 31.1612 11.1348 31.1725 11.0947C31.1838 11.0547 31.1867 11.0127 31.1812 10.9714C31.1812 10.9714 31.281 10.5687 30.3736 10.6088C30.3736 10.6088 30.1638 10.0562 29.3755 10.1065C29.3744 10.1031 28.7505 10.1031 28.5407 10.4795Z" fill="url(#paint22_linear_1_17461)"/>
<path d="M27.462 10.8719C27.462 10.8719 27.4121 10.5092 28.0007 10.5504L30.1263 10.6808C30.1263 10.6808 31.0541 10.6602 31.0541 11.0126C31.0541 11.0126 31.0836 11.2139 30.6253 11.2242L27.8023 11.1442C27.7233 11.1446 27.6465 11.1178 27.5847 11.0683C27.5228 11.0188 27.4795 10.9495 27.462 10.8719Z" fill="url(#paint23_linear_1_17461)"/>
<path d="M41.3962 8.04369C40.7486 8.44069 39.5633 8.11005 39.5633 8.11005C39.4988 7.53932 39.5435 6.96141 39.6949 6.40766C40.1066 6.36876 40.8212 6.40766 41.1785 7.10554C41.3155 7.39906 41.3838 7.72044 41.3781 8.04484L41.3962 8.04369Z" fill="url(#paint24_linear_1_17461)"/>
<g style="mix-blend-mode:screen" opacity="0.3">
<path d="M40.8665 6.71314C40.3527 6.87102 39.5054 6.8653 38.9678 6.84128C38.9993 6.74843 39.0535 6.66504 39.1252 6.59869C39.1969 6.53234 39.2839 6.48516 39.3784 6.46144C39.4807 6.43496 39.585 6.41698 39.6903 6.40767C40.0033 6.37793 40.4899 6.39737 40.8665 6.71314Z" fill="white"/>
</g>
<path d="M10.7846 14.9242C9.84511 14.9244 8.92674 15.2057 8.14569 15.7324C7.36463 16.2591 6.75597 17.0077 6.39669 17.8833C6.0374 18.759 5.94363 19.7225 6.12722 20.6519C6.31082 21.5813 6.76354 22.435 7.42813 23.1048C8.09272 23.7747 8.93933 24.2308 9.86088 24.4153C10.7824 24.5998 11.7375 24.5045 12.6054 24.1415C13.4733 23.7785 14.2149 23.164 14.7366 22.3758C15.2582 21.5876 15.5364 20.661 15.5359 19.7133C15.535 18.4428 15.034 17.2247 14.1431 16.3267C13.2522 15.4286 12.0442 14.9242 10.7846 14.9242Z" fill="url(#paint25_radial_1_17461)"/>
<path d="M10.7855 16.0294C10.0623 16.0294 9.35542 16.2458 8.75419 16.6511C8.15295 17.0564 7.68441 17.6325 7.40783 18.3065C7.13124 18.9805 7.05905 19.722 7.20037 20.4374C7.3417 21.1528 7.69021 21.8098 8.20179 22.3254C8.71338 22.8409 9.36506 23.1918 10.0744 23.3337C10.7837 23.4756 11.5189 23.4021 12.1868 23.1225C12.8547 22.8429 13.4254 22.3697 13.8267 21.7629C14.2279 21.156 14.4418 20.4428 14.4411 19.7134C14.4405 18.7359 14.0551 17.7987 13.3695 17.1079C12.684 16.417 11.7545 16.0291 10.7855 16.0294ZM13.4418 17.8599L13.5632 17.8188C13.8751 18.2884 14.0593 18.8325 14.0974 19.3964C13.6766 19.552 13.0766 19.3839 12.8067 19.3141C12.733 19.2954 12.6687 19.2502 12.6259 19.1869C12.5831 19.1237 12.5647 19.0468 12.5742 18.9708C12.6887 18.4549 13.4418 17.8599 13.4418 17.8599ZM9.81232 16.4276C10.3536 16.2813 10.9236 16.2813 11.4649 16.4276C11.4762 16.8852 11.1246 17.3955 10.9704 17.6323C10.9294 17.6982 10.8657 17.7464 10.7915 17.7675C10.7173 17.7887 10.6379 17.7813 10.5689 17.7467C10.1208 17.4698 9.81232 16.5614 9.81232 16.5614V16.4276ZM7.39302 19.6665C7.40932 19.1 7.57238 18.5478 7.86599 18.0647C8.29813 18.1791 8.68831 18.6722 8.86978 18.8885C8.91966 18.9473 8.94612 19.0227 8.94402 19.1C8.94193 19.1774 8.91143 19.2512 8.85844 19.3072C8.46713 19.6619 7.51552 19.7008 7.51552 19.7008L7.39302 19.6665ZM7.97148 21.3414C7.84785 21.227 7.60059 20.6446 7.5348 20.4021C7.46902 20.1595 7.79114 20.1172 7.79114 20.1172L9.02857 19.774C9.08396 19.7482 9.14394 19.7339 9.20493 19.732C9.26592 19.7301 9.32666 19.7406 9.38352 19.7629C9.44038 19.7852 9.4922 19.8189 9.53587 19.8619C9.57953 19.9049 9.61415 19.9563 9.63765 20.0131C9.84749 20.4536 9.32234 20.7842 9.32234 20.7842C8.98207 20.8986 8.40929 21.3196 8.26864 21.4249C8.128 21.5302 7.97148 21.3414 7.97148 21.3414ZM9.71478 22.8573L9.63765 22.9603C9.11812 22.7481 8.66288 22.4021 8.31742 21.9569C8.57829 21.5896 9.16695 21.3849 9.43009 21.2945C9.50222 21.2675 9.58169 21.2685 9.65313 21.2973C9.72457 21.326 9.78291 21.3805 9.81686 21.4501C10.0097 21.9432 9.71478 22.8573 9.71478 22.8573ZM10.1004 18.7512C9.73747 19.0738 9.27811 18.6539 9.27811 18.6539C9.07621 18.353 8.52158 17.9114 8.38207 17.8039C8.24256 17.6963 8.38207 17.4927 8.38207 17.4927C8.45693 17.3417 8.94918 16.9435 9.16128 16.8143C9.37338 16.685 9.50155 16.987 9.50155 16.987L10.1628 18.0945C10.2026 18.1412 10.2326 18.1956 10.251 18.2543C10.2695 18.313 10.276 18.3749 10.2702 18.4362C10.2644 18.4976 10.2463 18.5571 10.2172 18.6112C10.188 18.6653 10.1483 18.7129 10.1004 18.7512ZM11.4728 23.0049C11.3208 23.0747 10.6913 23.0747 10.4441 23.0403C10.1968 23.006 10.2853 22.6914 10.2853 22.6914L10.4588 21.4089C10.457 21.3476 10.4674 21.2866 10.4894 21.2295C10.5114 21.1724 10.5445 21.1203 10.5868 21.0764C10.6291 21.0324 10.6798 20.9975 10.7357 20.9736C10.7917 20.9498 10.8518 20.9375 10.9125 20.9375C11.3957 20.9158 11.4921 21.5324 11.4921 21.5324C11.4638 21.8951 11.6214 22.5896 11.6634 22.7612C11.7053 22.9328 11.4728 23.0049 11.4728 23.0049ZM11.5171 18.7295C11.0997 18.4823 11.3515 17.9114 11.3515 17.9114C11.5715 17.6231 11.8131 16.9538 11.8721 16.7879C11.9311 16.6221 12.1658 16.6907 12.1658 16.6907C12.3303 16.7147 12.8589 17.0602 13.0471 17.2238C13.2354 17.3874 12.9916 17.6048 12.9916 17.6048L12.1545 18.5853C12.1235 18.6386 12.082 18.6849 12.0325 18.7213C11.983 18.7577 11.9266 18.7835 11.8668 18.797C11.807 18.8105 11.7451 18.8115 11.685 18.7999C11.6248 18.7883 11.5677 18.7643 11.5171 18.7295ZM12.1806 22.8744C11.8993 22.5232 11.8664 21.8963 11.8403 21.616C11.8339 21.5387 11.8561 21.4618 11.9026 21.4002C11.9491 21.3385 12.0166 21.2963 12.0921 21.2819C12.615 21.227 13.4101 21.7578 13.4101 21.7578L13.4872 21.8596C13.1471 22.3073 12.6966 22.6572 12.1806 22.8744ZM13.7572 21.1755C13.6505 21.4043 13.3783 21.2224 13.3783 21.2224L12.2203 20.6675C12.1612 20.6513 12.106 20.623 12.0582 20.5844C12.0104 20.5458 11.971 20.4978 11.9424 20.4432C11.9138 20.3885 11.8966 20.3286 11.8919 20.267C11.8873 20.2054 11.8952 20.1435 11.9152 20.0852C12.0399 19.6138 12.6524 19.7076 12.6524 19.7076C12.9859 19.8461 13.6902 19.9044 13.8649 19.917C14.0396 19.9296 14.035 20.1767 14.035 20.1767C14.0555 20.3437 13.8649 20.949 13.7572 21.1755ZM11.322 19.8026C11.322 19.9096 11.2905 20.0142 11.2316 20.1032C11.1726 20.1922 11.0888 20.2616 10.9908 20.3026C10.8928 20.3435 10.7849 20.3542 10.6808 20.3333C10.5768 20.3125 10.4812 20.2609 10.4061 20.1852C10.3311 20.1096 10.28 20.0131 10.2593 19.9082C10.2386 19.8032 10.2492 19.6944 10.2898 19.5955C10.3304 19.4966 10.3992 19.4121 10.4874 19.3526C10.5757 19.2932 10.6794 19.2614 10.7855 19.2614C10.9276 19.2614 11.0639 19.3183 11.1644 19.4195C11.265 19.5208 11.3217 19.6581 11.322 19.8015V19.8026Z" fill="url(#paint26_linear_1_17461)" stroke="url(#paint27_radial_1_17461)" stroke-width="0.75" stroke-miterlimit="10"/>
<path d="M11.852 19.4742C11.852 19.5222 11.8379 19.5691 11.8115 19.609C11.7851 19.6489 11.7475 19.68 11.7036 19.6983C11.6596 19.7167 11.6113 19.7215 11.5646 19.7121C11.518 19.7028 11.4752 19.6797 11.4415 19.6457C11.4079 19.6118 11.385 19.5686 11.3757 19.5216C11.3664 19.4745 11.3712 19.4257 11.3894 19.3814C11.4076 19.3371 11.4384 19.2992 11.478 19.2726C11.5175 19.2459 11.564 19.2317 11.6115 19.2317C11.6753 19.2317 11.7365 19.2572 11.7816 19.3027C11.8267 19.3482 11.852 19.4099 11.852 19.4742Z" fill="#1B1A1C"/>
<path d="M11.7792 19.4742C11.7792 19.5197 11.7613 19.5634 11.7294 19.5956C11.6975 19.6278 11.6542 19.6458 11.6091 19.6458C11.564 19.6458 11.5207 19.6278 11.4888 19.5956C11.4569 19.5634 11.439 19.5197 11.439 19.4742C11.439 19.4287 11.4569 19.3851 11.4888 19.3529C11.5207 19.3207 11.564 19.3026 11.6091 19.3026C11.6542 19.3026 11.6975 19.3207 11.7294 19.3529C11.7613 19.3851 11.7792 19.4287 11.7792 19.4742Z" fill="url(#paint28_linear_1_17461)"/>
<path d="M10.9985 18.8953C10.9985 18.9432 10.9844 18.9901 10.958 19.03C10.9315 19.0699 10.894 19.101 10.8501 19.1193C10.8061 19.1377 10.7578 19.1425 10.7111 19.1331C10.6645 19.1238 10.6216 19.1007 10.588 19.0668C10.5544 19.0328 10.5315 18.9896 10.5222 18.9426C10.5129 18.8955 10.5177 18.8468 10.5359 18.8024C10.5541 18.7581 10.5849 18.7202 10.6244 18.6936C10.664 18.6669 10.7105 18.6527 10.758 18.6527C10.8218 18.6527 10.883 18.6783 10.9281 18.7238C10.9732 18.7692 10.9985 18.8309 10.9985 18.8953Z" fill="#1B1A1C"/>
<path d="M10.9313 18.8953C10.9313 18.929 10.9214 18.962 10.9028 18.99C10.8842 19.0181 10.8578 19.0399 10.8269 19.0528C10.7961 19.0657 10.7621 19.0691 10.7293 19.0625C10.6965 19.0559 10.6664 19.0397 10.6428 19.0159C10.6191 18.992 10.603 18.9616 10.5965 18.9286C10.59 18.8955 10.5933 18.8612 10.6061 18.8301C10.6189 18.7989 10.6406 18.7723 10.6684 18.7536C10.6962 18.7348 10.7288 18.7249 10.7623 18.7249C10.7845 18.7249 10.8064 18.7293 10.8269 18.7378C10.8474 18.7464 10.8661 18.759 10.8818 18.7748C10.8975 18.7906 10.9099 18.8094 10.9184 18.8301C10.9269 18.8508 10.9313 18.8729 10.9313 18.8953Z" fill="url(#paint29_linear_1_17461)"/>
<path d="M10.1977 19.5463C10.1977 19.5943 10.1836 19.6412 10.1571 19.6811C10.1306 19.721 10.093 19.7521 10.049 19.7705C10.005 19.7888 9.9566 19.7935 9.90992 19.7841C9.86325 19.7746 9.82041 19.7514 9.78682 19.7174C9.75324 19.6833 9.73043 19.64 9.72128 19.5929C9.71213 19.5458 9.71705 19.4969 9.73543 19.4526C9.7538 19.4083 9.7848 19.3705 9.82449 19.344C9.86418 19.3175 9.91078 19.3035 9.95839 19.3037C10.022 19.304 10.0828 19.3297 10.1277 19.3752C10.1725 19.4206 10.1977 19.4821 10.1977 19.5463Z" fill="#1B1A1C"/>
<path d="M10.1279 19.5462C10.1279 19.5918 10.1099 19.6354 10.078 19.6676C10.0461 19.6998 10.0029 19.7179 9.95773 19.7179C9.91261 19.7179 9.86934 19.6998 9.83743 19.6676C9.80552 19.6354 9.7876 19.5918 9.7876 19.5462C9.7876 19.5007 9.80552 19.4571 9.83743 19.4249C9.86934 19.3927 9.91261 19.3746 9.95773 19.3746C10.0029 19.3746 10.0461 19.3927 10.078 19.4249C10.1099 19.4571 10.1279 19.5007 10.1279 19.5462Z" fill="url(#paint30_linear_1_17461)"/>
<path d="M10.5922 20.5371C10.5922 20.5851 10.5781 20.6321 10.5516 20.672C10.5252 20.7119 10.4875 20.743 10.4435 20.7613C10.3995 20.7796 10.3511 20.7844 10.3045 20.7749C10.2578 20.7654 10.2149 20.7422 10.1814 20.7082C10.1478 20.6742 10.125 20.6308 10.1158 20.5837C10.1067 20.5366 10.1116 20.4878 10.13 20.4435C10.1483 20.3992 10.1793 20.3614 10.219 20.3349C10.2587 20.3084 10.3053 20.2943 10.3529 20.2946C10.3844 20.2946 10.4157 20.3008 10.4448 20.313C10.4739 20.3252 10.5003 20.3431 10.5225 20.3657C10.5448 20.3882 10.5624 20.4149 10.5743 20.4444C10.5863 20.4738 10.5924 20.5053 10.5922 20.5371Z" fill="#1B1A1C"/>
<path d="M10.5214 20.5371C10.5214 20.5826 10.5035 20.6263 10.4716 20.6584C10.4397 20.6906 10.3964 20.7087 10.3513 20.7087C10.3062 20.7087 10.2629 20.6906 10.231 20.6584C10.1991 20.6263 10.1812 20.5826 10.1812 20.5371C10.1812 20.4916 10.1991 20.4479 10.231 20.4157C10.2629 20.3836 10.3062 20.3655 10.3513 20.3655C10.3964 20.3655 10.4397 20.3836 10.4716 20.4157C10.5035 20.4479 10.5214 20.4916 10.5214 20.5371Z" fill="url(#paint31_linear_1_17461)"/>
<path d="M11.6118 20.5371C11.6118 20.5851 11.5976 20.6321 11.5712 20.672C11.5447 20.7119 11.5071 20.743 11.4631 20.7613C11.4191 20.7796 11.3707 20.7844 11.324 20.7749C11.2773 20.7654 11.2345 20.7422 11.2009 20.7082C11.1673 20.6742 11.1445 20.6308 11.1353 20.5837C11.1262 20.5366 11.1311 20.4878 11.1495 20.4435C11.1679 20.3992 11.1989 20.3614 11.2386 20.3349C11.2782 20.3084 11.3248 20.2943 11.3724 20.2946C11.404 20.2946 11.4352 20.3008 11.4643 20.313C11.4934 20.3252 11.5198 20.3431 11.5421 20.3657C11.5643 20.3882 11.5819 20.4149 11.5939 20.4444C11.6058 20.4738 11.6119 20.5053 11.6118 20.5371Z" fill="#1B1A1C"/>
<path d="M11.539 20.5371C11.539 20.5826 11.5211 20.6263 11.4892 20.6584C11.4573 20.6906 11.414 20.7087 11.3689 20.7087C11.3237 20.7087 11.2805 20.6906 11.2486 20.6584C11.2167 20.6263 11.1987 20.5826 11.1987 20.5371C11.1987 20.4916 11.2167 20.4479 11.2486 20.4157C11.2805 20.3836 11.3237 20.3655 11.3689 20.3655C11.414 20.3655 11.4573 20.3836 11.4892 20.4157C11.5211 20.4479 11.539 20.4916 11.539 20.5371Z" fill="url(#paint32_linear_1_17461)"/>
<path d="M11.1857 19.8014C11.1859 19.8811 11.1627 19.959 11.119 20.0254C11.0752 20.0918 11.013 20.1436 10.94 20.1742C10.8671 20.2049 10.7868 20.213 10.7093 20.1976C10.6317 20.1822 10.5605 20.1439 10.5045 20.0877C10.4486 20.0314 10.4105 19.9596 10.395 19.8815C10.3795 19.8033 10.3873 19.7223 10.4175 19.6487C10.4477 19.575 10.4988 19.512 10.5645 19.4677C10.6302 19.4234 10.7074 19.3998 10.7865 19.3998C10.8921 19.3998 10.9935 19.4421 11.0684 19.5173C11.1432 19.5926 11.1854 19.6947 11.1857 19.8014Z" fill="url(#paint33_linear_1_17461)"/>
<path d="M49.6242 14.9242C48.6846 14.9242 47.7661 15.2053 46.9849 15.7319C46.2037 16.2584 45.5948 17.0069 45.2354 17.8825C44.8759 18.7582 44.782 19.7217 44.9655 20.6512C45.1489 21.5807 45.6016 22.4344 46.2661 23.1044C46.9307 23.7744 47.7773 24.2306 48.6988 24.4152C49.6204 24.5998 50.5756 24.5046 51.4435 24.1416C52.3115 23.7786 53.0532 23.1641 53.5748 22.3759C54.0965 21.5876 54.3747 20.6611 54.3743 19.7133C54.3737 18.4429 53.873 17.2248 52.9822 16.3268C52.0914 15.4287 50.8836 14.9242 49.6242 14.9242Z" fill="url(#paint34_radial_1_17461)"/>
<path d="M49.6239 16.0294C48.9007 16.0294 48.1938 16.2458 47.5926 16.6511C46.9913 17.0564 46.5228 17.6325 46.2462 18.3065C45.9696 18.9805 45.8974 19.722 46.0388 20.4374C46.1801 21.1528 46.5286 21.8098 47.0402 22.3254C47.5518 22.8409 48.2034 23.1918 48.9128 23.3337C49.6221 23.4756 50.3573 23.4021 51.0252 23.1225C51.6931 22.8429 52.2638 22.3697 52.665 21.7629C53.0663 21.156 53.2801 20.4428 53.2795 19.7134C53.2789 18.7359 52.8934 17.7987 52.2079 17.1079C51.5224 16.417 50.5929 16.0291 49.6239 16.0294ZM52.2802 17.8599L52.4016 17.8188C52.7135 18.2884 52.8977 18.8325 52.9358 19.3964C52.515 19.552 51.915 19.3839 51.6451 19.3141C51.5714 19.2954 51.5071 19.2502 51.4643 19.1869C51.4214 19.1237 51.403 19.0468 51.4125 18.9708C51.5271 18.4549 52.2848 17.8599 52.2848 17.8599H52.2802ZM48.6507 16.4276C49.192 16.2813 49.762 16.2813 50.3033 16.4276C50.3146 16.8852 49.963 17.3955 49.8087 17.6323C49.7678 17.6982 49.7041 17.7464 49.6299 17.7675C49.5556 17.7887 49.4763 17.7813 49.4072 17.7467C48.9535 17.4698 48.6507 16.5614 48.6507 16.5614V16.4276ZM46.2314 19.6665C46.2477 19.1 46.4108 18.5478 46.7044 18.0647C47.1365 18.1791 47.5267 18.6722 47.707 18.8885C47.7571 18.9471 47.7837 19.0225 47.7818 19.0998C47.7799 19.1772 47.7496 19.2511 47.6968 19.3072C47.3055 19.6619 46.3539 19.7008 46.3539 19.7008L46.2314 19.6665ZM46.8099 21.3414C46.6862 21.227 46.439 20.6446 46.3732 20.4021C46.3074 20.1595 46.6295 20.1172 46.6295 20.1172L47.8658 19.774C47.9213 19.748 47.9813 19.7335 48.0425 19.7315C48.1036 19.7295 48.1645 19.74 48.2215 19.7624C48.2784 19.7847 48.3304 19.8184 48.3741 19.8615C48.4179 19.9046 48.4525 19.9562 48.476 20.0131C48.6859 20.4536 48.1607 20.7842 48.1607 20.7842C47.8205 20.8986 47.2533 21.3196 47.107 21.4249C46.9607 21.5302 46.8099 21.3414 46.8099 21.3414ZM48.5532 22.8573L48.476 22.9603C47.9565 22.7481 47.5013 22.4021 47.1558 21.9569C47.4167 21.5896 48.0053 21.3849 48.2685 21.2945C48.3406 21.2675 48.4201 21.2685 48.4915 21.2973C48.563 21.326 48.6213 21.3805 48.6552 21.4501C48.8481 21.9432 48.5532 22.8573 48.5532 22.8573ZM48.9377 18.7512C48.5758 19.0738 48.1165 18.6539 48.1165 18.6539C47.9146 18.353 47.36 17.9114 47.2204 17.8039C47.0809 17.6963 47.2204 17.4927 47.2204 17.4927C47.2953 17.3417 47.7876 16.9435 47.9997 16.8143C48.2118 16.685 48.3399 16.987 48.3399 16.987L49.0012 18.0945C49.0409 18.1413 49.0708 18.1957 49.0892 18.2545C49.1076 18.3132 49.114 18.3752 49.108 18.4365C49.1021 18.4978 49.084 18.5573 49.0547 18.6114C49.0254 18.6654 48.9856 18.713 48.9377 18.7512ZM50.3112 23.0049C50.1592 23.0747 49.5297 23.0747 49.2825 23.0403C49.0352 23.006 49.1237 22.6914 49.1237 22.6914L49.2972 21.4089C49.2954 21.3476 49.3058 21.2866 49.3278 21.2295C49.3497 21.1724 49.3829 21.1203 49.4252 21.0764C49.4675 21.0324 49.5181 20.9975 49.5741 20.9736C49.63 20.9498 49.6902 20.9375 49.7509 20.9375C50.2341 20.9158 50.3305 21.5324 50.3305 21.5324C50.3021 21.8951 50.4598 22.5896 50.5006 22.7612C50.5415 22.9328 50.3112 23.0049 50.3112 23.0049ZM50.3566 18.7295C49.9392 18.4823 50.191 17.9114 50.191 17.9114C50.411 17.6231 50.6526 16.9538 50.7116 16.7879C50.7706 16.6221 51.0053 16.6907 51.0053 16.6907C51.1698 16.7147 51.6984 17.0602 51.8866 17.2238C52.0749 17.3874 51.8311 17.6048 51.8311 17.6048L50.994 18.5853C50.963 18.6386 50.9215 18.6849 50.872 18.7213C50.8225 18.7577 50.7661 18.7835 50.7063 18.797C50.6466 18.8105 50.5847 18.8115 50.5245 18.7999C50.4643 18.7883 50.4072 18.7643 50.3566 18.7295ZM51.0201 22.8744C50.7388 22.5232 50.7059 21.8963 50.6798 21.616C50.6734 21.5387 50.6956 21.4618 50.7421 21.4002C50.7886 21.3385 50.8561 21.2963 50.9316 21.2819C51.4545 21.227 52.2485 21.7578 52.2485 21.7578L52.3267 21.8596C51.9863 22.3075 51.5354 22.6574 51.019 22.8744H51.0201ZM52.5978 21.1755C52.4844 21.4043 52.2178 21.2224 52.2178 21.2224L51.0598 20.6675C51.0011 20.6506 50.9465 20.6219 50.8991 20.5831C50.8517 20.5444 50.8125 20.4964 50.7839 20.442C50.7553 20.3877 50.7379 20.328 50.7327 20.2667C50.7275 20.2054 50.7346 20.1437 50.7536 20.0852C50.8795 19.6138 51.4919 19.7076 51.4919 19.7076C51.8254 19.8461 52.5298 19.9044 52.7044 19.917C52.8791 19.9296 52.8746 20.1767 52.8746 20.1767C52.8938 20.3437 52.7033 20.949 52.5967 21.1755H52.5978ZM50.1615 19.8026C50.1615 19.9096 50.13 20.0142 50.0711 20.1032C50.0121 20.1922 49.9283 20.2616 49.8303 20.3026C49.7323 20.3435 49.6244 20.3542 49.5203 20.3333C49.4163 20.3125 49.3207 20.2609 49.2456 20.1852C49.1706 20.1096 49.1195 20.0131 49.0988 19.9082C49.0781 19.8032 49.0887 19.6944 49.1294 19.5955C49.17 19.4966 49.2387 19.4121 49.3269 19.3526C49.4152 19.2932 49.5189 19.2614 49.625 19.2614C49.7669 19.2617 49.9029 19.3187 50.0032 19.4199C50.1036 19.5211 50.1601 19.6583 50.1604 19.8015L50.1615 19.8026Z" fill="url(#paint35_linear_1_17461)" stroke="url(#paint36_radial_1_17461)" stroke-width="0.75" stroke-miterlimit="10"/>
<path d="M50.6977 19.4742C50.6977 19.5222 50.6836 19.5691 50.6572 19.609C50.6308 19.6489 50.5932 19.68 50.5493 19.6983C50.5053 19.7167 50.457 19.7215 50.4103 19.7121C50.3637 19.7028 50.3209 19.6797 50.2872 19.6457C50.2536 19.6118 50.2307 19.5686 50.2214 19.5216C50.2121 19.4745 50.2169 19.4257 50.2351 19.3814C50.2533 19.3371 50.2841 19.2992 50.3237 19.2726C50.3632 19.2459 50.4097 19.2317 50.4573 19.2317C50.521 19.2317 50.5822 19.2572 50.6273 19.3027C50.6724 19.3482 50.6977 19.4099 50.6977 19.4742Z" fill="#1B1A1C"/>
<path d="M50.6196 19.4742C50.6196 19.5197 50.6016 19.5634 50.5697 19.5956C50.5378 19.6278 50.4946 19.6458 50.4494 19.6458C50.4043 19.6458 50.361 19.6278 50.3291 19.5956C50.2972 19.5634 50.2793 19.5197 50.2793 19.4742C50.2793 19.4287 50.2972 19.3851 50.3291 19.3529C50.361 19.3207 50.4043 19.3026 50.4494 19.3026C50.4946 19.3026 50.5378 19.3207 50.5697 19.3529C50.6016 19.3851 50.6196 19.4287 50.6196 19.4742Z" fill="url(#paint37_linear_1_17461)"/>
<path d="M49.8427 18.8953C49.8427 18.9432 49.8286 18.9901 49.8022 19.03C49.7758 19.0699 49.7382 19.101 49.6943 19.1193C49.6504 19.1377 49.602 19.1425 49.5554 19.1331C49.5087 19.1238 49.4659 19.1007 49.4322 19.0668C49.3986 19.0328 49.3757 18.9896 49.3664 18.9426C49.3572 18.8955 49.3619 18.8468 49.3801 18.8024C49.3983 18.7581 49.4291 18.7202 49.4687 18.6936C49.5082 18.6669 49.5547 18.6527 49.6023 18.6527C49.666 18.6527 49.7272 18.6783 49.7723 18.7238C49.8174 18.7692 49.8427 18.8309 49.8427 18.8953Z" fill="#1B1A1C"/>
<path d="M49.7696 18.8953C49.7696 18.929 49.7597 18.962 49.7412 18.99C49.7226 19.0181 49.6962 19.0399 49.6653 19.0528C49.6344 19.0657 49.6005 19.0691 49.5677 19.0625C49.5349 19.0559 49.5048 19.0397 49.4811 19.0159C49.4575 18.992 49.4414 18.9616 49.4349 18.9286C49.4284 18.8955 49.4317 18.8612 49.4445 18.8301C49.4573 18.7989 49.479 18.7723 49.5068 18.7536C49.5345 18.7348 49.5672 18.7249 49.6006 18.7249C49.6228 18.7249 49.6448 18.7293 49.6653 18.7378C49.6858 18.7464 49.7045 18.759 49.7201 18.7748C49.7358 18.7906 49.7483 18.8094 49.7568 18.8301C49.7653 18.8508 49.7696 18.8729 49.7696 18.8953Z" fill="url(#paint38_linear_1_17461)"/>
<path d="M49.038 19.5463C49.038 19.5943 49.0239 19.6412 48.9974 19.6811C48.971 19.721 48.9333 19.7521 48.8893 19.7705C48.8453 19.7888 48.7969 19.7935 48.7503 19.7841C48.7036 19.7746 48.6607 19.7514 48.6272 19.7174C48.5936 19.6833 48.5708 19.64 48.5616 19.5929C48.5525 19.5458 48.5574 19.4969 48.5758 19.4526C48.5941 19.4083 48.6251 19.3705 48.6648 19.344C48.7045 19.3175 48.7511 19.3035 48.7987 19.3037C48.8623 19.304 48.9232 19.3297 48.968 19.3752C49.0129 19.4206 49.038 19.4821 49.038 19.5463Z" fill="#1B1A1C"/>
<path d="M48.9662 19.5462C48.9662 19.5918 48.9483 19.6354 48.9164 19.6676C48.8845 19.6998 48.8412 19.7179 48.7961 19.7179C48.751 19.7179 48.7077 19.6998 48.6758 19.6676C48.6439 19.6354 48.626 19.5918 48.626 19.5462C48.626 19.5007 48.6439 19.4571 48.6758 19.4249C48.7077 19.3927 48.751 19.3746 48.7961 19.3746C48.8412 19.3746 48.8845 19.3927 48.9164 19.4249C48.9483 19.4571 48.9662 19.5007 48.9662 19.5462Z" fill="url(#paint39_linear_1_17461)"/>
<path d="M49.4321 20.5371C49.4321 20.5851 49.418 20.6321 49.3915 20.672C49.365 20.7119 49.3274 20.743 49.2834 20.7613C49.2394 20.7796 49.191 20.7844 49.1443 20.7749C49.0976 20.7654 49.0548 20.7422 49.0212 20.7082C48.9876 20.6742 48.9648 20.6308 48.9557 20.5837C48.9465 20.5366 48.9514 20.4878 48.9698 20.4435C48.9882 20.3992 49.0192 20.3614 49.0589 20.3349C49.0986 20.3084 49.1452 20.2943 49.1928 20.2946C49.2243 20.2946 49.2555 20.3008 49.2846 20.313C49.3137 20.3252 49.3402 20.3431 49.3624 20.3657C49.3846 20.3882 49.4022 20.4149 49.4142 20.4444C49.4262 20.4738 49.4322 20.5053 49.4321 20.5371Z" fill="#1B1A1C"/>
<path d="M49.3608 20.5371C49.3608 20.5826 49.3429 20.6263 49.3109 20.6584C49.279 20.6906 49.2358 20.7087 49.1906 20.7087C49.1455 20.7087 49.1023 20.6906 49.0703 20.6584C49.0384 20.6263 49.0205 20.5826 49.0205 20.5371C49.0205 20.4916 49.0384 20.4479 49.0703 20.4157C49.1023 20.3836 49.1455 20.3655 49.1906 20.3655C49.2358 20.3655 49.279 20.3836 49.3109 20.4157C49.3429 20.4479 49.3608 20.4916 49.3608 20.5371Z" fill="url(#paint40_linear_1_17461)"/>
<path d="M50.4506 20.5371C50.4506 20.5851 50.4365 20.6321 50.41 20.672C50.3836 20.7119 50.3459 20.743 50.3019 20.7613C50.2579 20.7796 50.2095 20.7844 50.1629 20.7749C50.1162 20.7654 50.0733 20.7422 50.0398 20.7082C50.0062 20.6742 49.9834 20.6308 49.9742 20.5837C49.9651 20.5366 49.97 20.4878 49.9884 20.4435C50.0067 20.3992 50.0377 20.3614 50.0774 20.3349C50.1171 20.3084 50.1637 20.2943 50.2113 20.2946C50.2428 20.2946 50.2741 20.3008 50.3032 20.313C50.3323 20.3252 50.3587 20.3431 50.3809 20.3657C50.4032 20.3882 50.4208 20.4149 50.4327 20.4444C50.4447 20.4738 50.4508 20.5053 50.4506 20.5371Z" fill="#1B1A1C"/>
<path d="M50.3793 20.5371C50.3793 20.5826 50.3614 20.6263 50.3295 20.6584C50.2976 20.6906 50.2543 20.7087 50.2092 20.7087C50.1641 20.7087 50.1208 20.6906 50.0889 20.6584C50.057 20.6263 50.0391 20.5826 50.0391 20.5371C50.0391 20.4916 50.057 20.4479 50.0889 20.4157C50.1208 20.3836 50.1641 20.3655 50.2092 20.3655C50.2543 20.3655 50.2976 20.3836 50.3295 20.4157C50.3614 20.4479 50.3793 20.4916 50.3793 20.5371Z" fill="url(#paint41_linear_1_17461)"/>
<path d="M50.0218 19.8014C50.0218 19.8808 49.9985 19.9584 49.9547 20.0245C49.911 20.0905 49.8488 20.142 49.7761 20.1724C49.7033 20.2027 49.6233 20.2107 49.546 20.1952C49.4688 20.1797 49.3979 20.1415 49.3422 20.0853C49.2865 20.0291 49.2486 19.9576 49.2332 19.8797C49.2179 19.8018 49.2258 19.7211 49.2559 19.6477C49.286 19.5743 49.337 19.5116 49.4025 19.4675C49.468 19.4233 49.545 19.3998 49.6237 19.3998C49.7293 19.3998 49.8305 19.4421 49.9052 19.5174C49.9799 19.5927 50.0218 19.6948 50.0218 19.8014Z" fill="url(#paint42_linear_1_17461)"/>
<path d="M5.1018 8.0311L5.81069 7.97046C5.81069 7.97046 6.26438 8.2725 6.12941 9.43031C6.12941 9.43031 5.57137 11.4622 4.72297 12.4278L4.40425 12.4587C4.40425 12.4587 4.27382 10.889 4.59367 9.77238C4.67693 9.44829 4.78696 9.13181 4.92259 8.82623C5.02743 8.57363 5.08807 8.3046 5.1018 8.0311Z" fill="#FF0000"/>
<defs>
<filter id="filter0_f_1_17461" x="0" y="22" width="61" height="5" filterUnits="userSpaceOnUse" color-interpolation-filters="sRGB">
<feFlood flood-opacity="0" result="BackgroundImageFix"/>
<feBlend mode="normal" in="SourceGraphic" in2="BackgroundImageFix" result="shape"/>
<feGaussianBlur stdDeviation="0.5" result="effect1_foregroundBlur_1_17461"/>
</filter>
<radialGradient id="paint0_radial_1_17461" cx="0" cy="0" r="1" gradientUnits="userSpaceOnUse" gradientTransform="translate(30.5 24.5) rotate(90) scale(1.5 29.5)">
<stop stop-color="#171C26"/>
<stop offset="1" stop-color="#171C26" stop-opacity="0"/>
</radialGradient>
<linearGradient id="paint1_linear_1_17461" x1="35.3878" y1="-7.7559" x2="29.2209" y2="24.7463" gradientUnits="userSpaceOnUse">
<stop offset="0.07" stop-color="#36A8C1"/>
<stop offset="0.1" stop-color="#2B9DB9"/>
<stop offset="0.22" stop-color="#0C7DA1"/>
<stop offset="0.29" stop-color="#007198"/>
<stop offset="0.41" stop-color="#007198"/>
<stop offset="0.59" stop-color="#005E7E"/>
<stop offset="0.99" stop-color="#0D2932"/>
</linearGradient>
<linearGradient id="paint2_linear_1_17461" x1="25.7376" y1="8.60206" x2="53.7465" y2="27.9363" gradientUnits="userSpaceOnUse">
<stop offset="0.22" stop-color="#FFFEFF"/>
<stop offset="0.98" stop-color="#222225"/>
</linearGradient>
<linearGradient id="paint3_linear_1_17461" x1="2.10538" y1="14.9813" x2="12.1535" y2="14.9813" gradientUnits="userSpaceOnUse">
<stop offset="0.22" stop-color="#FFFEFF"/>
<stop offset="0.98" stop-color="#222225"/>
</linearGradient>
<linearGradient id="paint4_linear_1_17461" x1="59.6242" y1="12.4839" x2="56.8708" y2="19.0684" gradientUnits="userSpaceOnUse">
<stop offset="0.22" stop-color="#FFFEFF"/>
<stop offset="0.98" stop-color="#222225"/>
</linearGradient>
<linearGradient id="paint5_linear_1_17461" x1="13.3677" y1="12.0788" x2="39.4095" y2="12.0788" gradientUnits="userSpaceOnUse">
<stop offset="0.22" stop-color="#FFFEFF"/>
<stop offset="0.98" stop-color="#222225"/>
</linearGradient>
<linearGradient id="paint6_linear_1_17461" x1="7.69385" y1="1.13347" x2="33.4305" y2="1.13347" gradientUnits="userSpaceOnUse">
<stop offset="0.22" stop-color="#FFFEFF"/>
<stop offset="0.98" stop-color="#222225"/>
</linearGradient>
<linearGradient id="paint7_linear_1_17461" x1="26.7844" y1="9.8147" x2="26.1718" y2="4.37234" gradientUnits="userSpaceOnUse">
<stop stop-color="#FCFCFA"/>
<stop offset="0.16" stop-color="#FCFCFA" stop-opacity="0.79"/>
<stop offset="0.39" stop-color="#FCFCFA" stop-opacity="0.51"/>
<stop offset="0.6" stop-color="#FCFCFA" stop-opacity="0.29"/>
<stop offset="0.77" stop-color="#FCFCFA" stop-opacity="0.13"/>
<stop offset="0.91" stop-color="#FCFCFA" stop-opacity="0.04"/>
<stop offset="1" stop-color="#FCFCFA" stop-opacity="0"/>
</linearGradient>
<linearGradient id="paint8_linear_1_17461" x1="14.5665" y1="7.79767" x2="14.5665" y2="4.29565" gradientUnits="userSpaceOnUse">
<stop offset="0.06" stop-color="#3E3D3F"/>
<stop offset="0.1" stop-color="#3A393B"/>
<stop offset="0.47" stop-color="#1A1A1B"/>
<stop offset="0.77" stop-color="#070707"/>
<stop offset="0.98"/>
</linearGradient>
<linearGradient id="paint9_linear_1_17461" x1="20.8556" y1="10.2174" x2="20.7333" y2="3.3347" gradientUnits="userSpaceOnUse">
<stop offset="0.06" stop-color="#3E3D3F"/>
<stop offset="0.1" stop-color="#3A393B"/>
<stop offset="0.47" stop-color="#1A1A1B"/>
<stop offset="0.77" stop-color="#070707"/>
<stop offset="0.98"/>
</linearGradient>
<linearGradient id="paint10_linear_1_17461" x1="33.3892" y1="8.73363" x2="32.8203" y2="0.523245" gradientUnits="userSpaceOnUse">
<stop offset="0.06" stop-color="#3E3D3F"/>
<stop offset="0.1" stop-color="#3A393B"/>
<stop offset="0.47" stop-color="#1A1A1B"/>
<stop offset="0.77" stop-color="#070707"/>
<stop offset="0.98"/>
</linearGradient>
<linearGradient id="paint11_linear_1_17461" x1="38.8081" y1="7.66615" x2="41.6516" y2="7.66615" gradientUnits="userSpaceOnUse">
<stop offset="0.22" stop-color="#232224"/>
<stop offset="0.98"/>
</linearGradient>
<linearGradient id="paint12_linear_1_17461" x1="40.1861" y1="9.17062" x2="40.2946" y2="6.05765" gradientUnits="userSpaceOnUse">
<stop offset="0.22" stop-color="#FFFEFF"/>
<stop offset="0.98" stop-color="#222225"/>
</linearGradient>
<linearGradient id="paint13_linear_1_17461" x1="8.63213" y1="3.70073" x2="6.64315" y2="6.04402" gradientUnits="userSpaceOnUse">
<stop offset="0.06" stop-color="#3E3D3F"/>
<stop offset="0.1" stop-color="#3A393B"/>
<stop offset="0.47" stop-color="#1A1A1B"/>
<stop offset="0.77" stop-color="#070707"/>
<stop offset="0.98"/>
</linearGradient>
<linearGradient id="paint14_linear_1_17461" x1="57.9968" y1="18.3816" x2="59.5744" y2="17.3747" gradientUnits="userSpaceOnUse">
<stop stop-color="#DED9D6"/>
<stop offset="0.04" stop-color="#CFCCC9"/>
<stop offset="0.11" stop-color="#A8A8A8"/>
<stop offset="0.21" stop-color="#6A7072"/>
<stop offset="0.26" stop-color="#465053"/>
<stop offset="0.37" stop-color="#878D8F"/>
<stop offset="0.46" stop-color="#B7BABB"/>
<stop offset="0.53" stop-color="#D5D6D6"/>
<stop offset="0.57" stop-color="#E0E0E0"/>
<stop offset="0.63" stop-color="#D6D7D8"/>
<stop offset="0.73" stop-color="#BCBFC2"/>
<stop offset="0.86" stop-color="#92989E"/>
<stop offset="0.88" stop-color="#8B9298"/>
<stop offset="1" stop-color="#A7A9AC"/>
</linearGradient>
<linearGradient id="paint15_linear_1_17461" x1="41.4409" y1="5.8127" x2="43.406" y2="7.04553" gradientUnits="userSpaceOnUse">
<stop offset="0.06" stop-color="#3E3D3F"/>
<stop offset="0.1" stop-color="#3A393B"/>
<stop offset="0.47" stop-color="#1A1A1B"/>
<stop offset="0.77" stop-color="#070707"/>
<stop offset="0.98"/>
</linearGradient>
<linearGradient id="paint16_linear_1_17461" x1="13.6906" y1="27.3181" x2="8.82103" y2="13.8023" gradientUnits="userSpaceOnUse">
<stop offset="0.22" stop-color="#005E7E"/>
<stop offset="0.99" stop-color="#0D2932"/>
</linearGradient>
<linearGradient id="paint17_linear_1_17461" x1="53.6159" y1="25.7472" x2="46.2634" y2="14.2128" gradientUnits="userSpaceOnUse">
<stop offset="0.07" stop-color="#36A8C1"/>
<stop offset="0.1" stop-color="#2B9DB9"/>
<stop offset="0.22" stop-color="#0C7DA1"/>
<stop offset="0.29" stop-color="#007198"/>
<stop offset="0.41" stop-color="#007198"/>
<stop offset="0.59" stop-color="#005E7E"/>
<stop offset="0.99" stop-color="#0D2932"/>
</linearGradient>
<linearGradient id="paint18_linear_1_17461" x1="18.652" y1="17.3634" x2="41.8491" y2="17.3634" gradientUnits="userSpaceOnUse">
<stop offset="0.22" stop-color="#FFFEFF"/>
<stop offset="0.98" stop-color="#222225"/>
</linearGradient>
<linearGradient id="paint19_linear_1_17461" x1="43.9805" y1="12.7001" x2="45.1873" y2="12.7001" gradientUnits="userSpaceOnUse">
<stop stop-color="#DED9D6"/>
<stop offset="0.04" stop-color="#CFCCC9"/>
<stop offset="0.11" stop-color="#A8A8A8"/>
<stop offset="0.21" stop-color="#6A7072"/>
<stop offset="0.26" stop-color="#465053"/>
<stop offset="0.37" stop-color="#878D8F"/>
<stop offset="0.46" stop-color="#B7BABB"/>
<stop offset="0.53" stop-color="#D5D6D6"/>
<stop offset="0.57" stop-color="#E0E0E0"/>
<stop offset="0.63" stop-color="#D6D7D8"/>
<stop offset="0.73" stop-color="#BCBFC2"/>
<stop offset="0.86" stop-color="#92989E"/>
<stop offset="0.88" stop-color="#8B9298"/>
<stop offset="1" stop-color="#A7A9AC"/>
</linearGradient>
<linearGradient id="paint20_linear_1_17461" x1="14.6134" y1="9.57445" x2="14.6134" y2="11.0103" gradientUnits="userSpaceOnUse">
<stop offset="0.41"/>
<stop offset="0.51" stop-color="#010303"/>
<stop offset="0.58" stop-color="#030B0C"/>
<stop offset="0.65" stop-color="#08191D"/>
<stop offset="0.71" stop-color="#0E2D33"/>
<stop offset="0.76" stop-color="#174651"/>
<stop offset="0.82" stop-color="#216675"/>
<stop offset="0.87" stop-color="#2C8A9F"/>
<stop offset="0.9" stop-color="#36A8C1"/>
<stop offset="1" stop-color="#74C1D5"/>
</linearGradient>
<linearGradient id="paint21_linear_1_17461" x1="14.6012" y1="9.94969" x2="14.6012" y2="11.2516" gradientUnits="userSpaceOnUse">
<stop offset="0.02" stop-color="#FCFCFA"/>
<stop offset="0.03" stop-color="#F6F8F7"/>
<stop offset="0.05" stop-color="#C8DBE0"/>
<stop offset="0.08" stop-color="#9DC0CB"/>
<stop offset="0.1" stop-color="#77A9B9"/>
<stop offset="0.13" stop-color="#5794A9"/>
<stop offset="0.17" stop-color="#3B839B"/>
<stop offset="0.21" stop-color="#257590"/>
<stop offset="0.25" stop-color="#146B88"/>
<stop offset="0.3" stop-color="#096382"/>
<stop offset="0.38" stop-color="#025F7F"/>
<stop offset="0.59" stop-color="#005E7E"/>
<stop offset="0.99" stop-color="#0D2932"/>
</linearGradient>
<linearGradient id="paint22_linear_1_17461" x1="29.2734" y1="10.1912" x2="29.2734" y2="11.627" gradientUnits="userSpaceOnUse">
<stop offset="0.41"/>
<stop offset="0.51" stop-color="#010303"/>
<stop offset="0.58" stop-color="#030B0C"/>
<stop offset="0.65" stop-color="#08191D"/>
<stop offset="0.71" stop-color="#0E2D33"/>
<stop offset="0.76" stop-color="#174651"/>
<stop offset="0.82" stop-color="#216675"/>
<stop offset="0.87" stop-color="#2C8A9F"/>
<stop offset="0.9" stop-color="#36A8C1"/>
<stop offset="1" stop-color="#74C1D5"/>
</linearGradient>
<linearGradient id="paint23_linear_1_17461" x1="29.2575" y1="10.5664" x2="29.2575" y2="11.8684" gradientUnits="userSpaceOnUse">
<stop offset="0.02" stop-color="#FCFCFA"/>
<stop offset="0.03" stop-color="#F6F8F7"/>
<stop offset="0.05" stop-color="#C8DBE0"/>
<stop offset="0.08" stop-color="#9DC0CB"/>
<stop offset="0.1" stop-color="#77A9B9"/>
<stop offset="0.13" stop-color="#5794A9"/>
<stop offset="0.17" stop-color="#3B839B"/>
<stop offset="0.21" stop-color="#257590"/>
<stop offset="0.25" stop-color="#146B88"/>
<stop offset="0.3" stop-color="#096382"/>
<stop offset="0.38" stop-color="#025F7F"/>
<stop offset="0.59" stop-color="#005E7E"/>
<stop offset="0.99" stop-color="#0D2932"/>
</linearGradient>
<linearGradient id="paint24_linear_1_17461" x1="38.9656" y1="7.36182" x2="40.921" y2="7.29548" gradientUnits="userSpaceOnUse">
<stop offset="0.07" stop-color="#36A8C1"/>
<stop offset="0.1" stop-color="#2B9DB9"/>
<stop offset="0.22" stop-color="#0C7DA1"/>
<stop offset="0.29" stop-color="#007198"/>
<stop offset="0.41" stop-color="#007198"/>
<stop offset="0.59" stop-color="#005E7E"/>
<stop offset="0.99" stop-color="#0D2932"/>
</linearGradient>
<radialGradient id="paint25_radial_1_17461" cx="0" cy="0" r="1" gradientUnits="userSpaceOnUse" gradientTransform="translate(10.7846 19.7156) scale(4.75013 4.7914)">
<stop offset="0.01" stop-color="#1A1A1A"/>
<stop offset="0.38" stop-color="#1C1C1C"/>
<stop offset="0.56" stop-color="#242424"/>
<stop offset="0.7" stop-color="#313030"/>
<stop offset="0.82" stop-color="#434343"/>
<stop offset="0.84" stop-color="#464545"/>
<stop offset="0.89" stop-color="#434242"/>
<stop offset="0.93" stop-color="#3B3A3A"/>
<stop offset="0.95" stop-color="#2C2B2B"/>
<stop offset="0.97" stop-color="#1D1D1D"/>
</radialGradient>
<linearGradient id="paint26_linear_1_17461" x1="10.055" y1="18.0293" x2="11.4187" y2="21.1199" gradientUnits="userSpaceOnUse">
<stop stop-color="#DED9D6"/>
<stop offset="0.06" stop-color="#CFCAC9"/>
<stop offset="0.18" stop-color="#A8A4A7"/>
<stop offset="0.26" stop-color="#8B878D"/>
<stop offset="0.52" stop-color="#F3F4F4"/>
<stop offset="0.58" stop-color="#E5E5E6"/>
<stop offset="0.7" stop-color="#C0BEC0"/>
<stop offset="0.86" stop-color="#858085"/>
<stop offset="0.88" stop-color="#807B80"/>
<stop offset="1" stop-color="#A7A9AC"/>
</linearGradient>
<radialGradient id="paint27_radial_1_17461" cx="0" cy="0" r="1" gradientUnits="userSpaceOnUse" gradientTransform="translate(10.7866 19.7156) scale(3.69757 3.7297)">
<stop stop-color="#DED9D6"/>
<stop offset="0.06" stop-color="#CFCAC9"/>
<stop offset="0.18" stop-color="#A8A4A7"/>
<stop offset="0.26" stop-color="#8B878D"/>
<stop offset="0.52" stop-color="#F3F4F4"/>
<stop offset="0.58" stop-color="#E5E5E6"/>
<stop offset="0.7" stop-color="#C0BEC0"/>
<stop offset="0.86" stop-color="#858085"/>
<stop offset="0.88" stop-color="#807B80"/>
<stop offset="1" stop-color="#A7A9AC"/>
</radialGradient>
<linearGradient id="paint28_linear_1_17461" x1="11.4979" y1="19.3472" x2="11.7671" y2="19.6458" gradientUnits="userSpaceOnUse">
<stop stop-color="#DED9D6"/>
<stop offset="0.06" stop-color="#CFCAC9"/>
<stop offset="0.18" stop-color="#A8A4A7"/>
<stop offset="0.26" stop-color="#8B878D"/>
<stop offset="0.52" stop-color="#F3F4F4"/>
<stop offset="0.58" stop-color="#E5E5E6"/>
<stop offset="0.7" stop-color="#C0BEC0"/>
<stop offset="0.86" stop-color="#858085"/>
<stop offset="0.88" stop-color="#807B80"/>
<stop offset="1" stop-color="#A7A9AC"/>
</linearGradient>
<linearGradient id="paint29_linear_1_17461" x1="10.6488" y1="18.7672" x2="10.9191" y2="19.0669" gradientUnits="userSpaceOnUse">
<stop stop-color="#DED9D6"/>
<stop offset="0.06" stop-color="#CFCAC9"/>
<stop offset="0.18" stop-color="#A8A4A7"/>
<stop offset="0.26" stop-color="#8B878D"/>
<stop offset="0.52" stop-color="#F3F4F4"/>
<stop offset="0.58" stop-color="#E5E5E6"/>
<stop offset="0.7" stop-color="#C0BEC0"/>
<stop offset="0.86" stop-color="#858085"/>
<stop offset="0.88" stop-color="#807B80"/>
<stop offset="1" stop-color="#A7A9AC"/>
</linearGradient>
<linearGradient id="paint30_linear_1_17461" x1="9.84658" y1="19.4181" x2="10.1157" y2="19.7178" gradientUnits="userSpaceOnUse">
<stop stop-color="#DED9D6"/>
<stop offset="0.06" stop-color="#CFCAC9"/>
<stop offset="0.18" stop-color="#A8A4A7"/>
<stop offset="0.26" stop-color="#8B878D"/>
<stop offset="0.52" stop-color="#F3F4F4"/>
<stop offset="0.58" stop-color="#E5E5E6"/>
<stop offset="0.7" stop-color="#C0BEC0"/>
<stop offset="0.86" stop-color="#858085"/>
<stop offset="0.88" stop-color="#807B80"/>
<stop offset="1" stop-color="#A7A9AC"/>
</linearGradient>
<linearGradient id="paint31_linear_1_17461" x1="10.2401" y1="20.409" x2="10.5092" y2="20.7075" gradientUnits="userSpaceOnUse">
<stop stop-color="#DED9D6"/>
<stop offset="0.06" stop-color="#CFCAC9"/>
<stop offset="0.18" stop-color="#A8A4A7"/>
<stop offset="0.26" stop-color="#8B878D"/>
<stop offset="0.52" stop-color="#F3F4F4"/>
<stop offset="0.58" stop-color="#E5E5E6"/>
<stop offset="0.7" stop-color="#C0BEC0"/>
<stop offset="0.86" stop-color="#858085"/>
<stop offset="0.88" stop-color="#807B80"/>
<stop offset="1" stop-color="#A7A9AC"/>
</linearGradient>
<linearGradient id="paint32_linear_1_17461" x1="11.2577" y1="20.409" x2="11.5268" y2="20.7075" gradientUnits="userSpaceOnUse">
<stop stop-color="#DED9D6"/>
<stop offset="0.06" stop-color="#CFCAC9"/>
<stop offset="0.18" stop-color="#A8A4A7"/>
<stop offset="0.26" stop-color="#8B878D"/>
<stop offset="0.52" stop-color="#F3F4F4"/>
<stop offset="0.58" stop-color="#E5E5E6"/>
<stop offset="0.7" stop-color="#C0BEC0"/>
<stop offset="0.86" stop-color="#858085"/>
<stop offset="0.88" stop-color="#807B80"/>
<stop offset="1" stop-color="#A7A9AC"/>
</linearGradient>
<linearGradient id="paint33_linear_1_17461" x1="10.8806" y1="19.5542" x2="10.686" y2="20.0588" gradientUnits="userSpaceOnUse">
<stop stop-color="#DED9D6"/>
<stop offset="0.06" stop-color="#CFCAC9"/>
<stop offset="0.18" stop-color="#A8A4A7"/>
<stop offset="0.26" stop-color="#8B878D"/>
<stop offset="0.52" stop-color="#F3F4F4"/>
<stop offset="0.58" stop-color="#E5E5E6"/>
<stop offset="0.7" stop-color="#C0BEC0"/>
<stop offset="0.86" stop-color="#858085"/>
<stop offset="0.88" stop-color="#807B80"/>
<stop offset="1" stop-color="#A7A9AC"/>
</linearGradient>
<radialGradient id="paint34_radial_1_17461" cx="0" cy="0" r="1" gradientUnits="userSpaceOnUse" gradientTransform="translate(49.6242 19.7156) scale(4.75013 4.7914)">
<stop offset="0.01" stop-color="#1A1A1A"/>
<stop offset="0.38" stop-color="#1C1C1C"/>
<stop offset="0.56" stop-color="#242424"/>
<stop offset="0.7" stop-color="#313030"/>
<stop offset="0.82" stop-color="#434343"/>
<stop offset="0.84" stop-color="#464545"/>
<stop offset="0.89" stop-color="#434242"/>
<stop offset="0.93" stop-color="#3B3A3A"/>
<stop offset="0.95" stop-color="#2C2B2B"/>
<stop offset="0.97" stop-color="#1D1D1D"/>
</radialGradient>
<linearGradient id="paint35_linear_1_17461" x1="48.8934" y1="18.0304" x2="50.2571" y2="21.1199" gradientUnits="userSpaceOnUse">
<stop stop-color="#DED9D6"/>
<stop offset="0.06" stop-color="#CFCAC9"/>
<stop offset="0.18" stop-color="#A8A4A7"/>
<stop offset="0.26" stop-color="#8B878D"/>
<stop offset="0.52" stop-color="#F3F4F4"/>
<stop offset="0.58" stop-color="#E5E5E6"/>
<stop offset="0.7" stop-color="#C0BEC0"/>
<stop offset="0.86" stop-color="#858085"/>
<stop offset="0.88" stop-color="#807B80"/>
<stop offset="1" stop-color="#A7A9AC"/>
</linearGradient>
<radialGradient id="paint36_radial_1_17461" cx="0" cy="0" r="1" gradientUnits="userSpaceOnUse" gradientTransform="translate(49.6239 19.7156) scale(3.69757 3.7297)">
<stop stop-color="#DED9D6"/>
<stop offset="0.06" stop-color="#CFCAC9"/>
<stop offset="0.18" stop-color="#A8A4A7"/>
<stop offset="0.26" stop-color="#8B878D"/>
<stop offset="0.52" stop-color="#F3F4F4"/>
<stop offset="0.58" stop-color="#E5E5E6"/>
<stop offset="0.7" stop-color="#C0BEC0"/>
<stop offset="0.86" stop-color="#858085"/>
<stop offset="0.88" stop-color="#807B80"/>
<stop offset="1" stop-color="#A7A9AC"/>
</radialGradient>
<linearGradient id="paint37_linear_1_17461" x1="50.3383" y1="19.3472" x2="50.6074" y2="19.6458" gradientUnits="userSpaceOnUse">
<stop stop-color="#DED9D6"/>
<stop offset="0.06" stop-color="#CFCAC9"/>
<stop offset="0.18" stop-color="#A8A4A7"/>
<stop offset="0.26" stop-color="#8B878D"/>
<stop offset="0.52" stop-color="#F3F4F4"/>
<stop offset="0.58" stop-color="#E5E5E6"/>
<stop offset="0.7" stop-color="#C0BEC0"/>
<stop offset="0.86" stop-color="#858085"/>
<stop offset="0.88" stop-color="#807B80"/>
<stop offset="1" stop-color="#A7A9AC"/>
</linearGradient>
<linearGradient id="paint38_linear_1_17461" x1="49.4872" y1="18.7672" x2="49.7563" y2="19.0669" gradientUnits="userSpaceOnUse">
<stop stop-color="#DED9D6"/>
<stop offset="0.06" stop-color="#CFCAC9"/>
<stop offset="0.18" stop-color="#A8A4A7"/>
<stop offset="0.26" stop-color="#8B878D"/>
<stop offset="0.52" stop-color="#F3F4F4"/>
<stop offset="0.58" stop-color="#E5E5E6"/>
<stop offset="0.7" stop-color="#C0BEC0"/>
<stop offset="0.86" stop-color="#858085"/>
<stop offset="0.88" stop-color="#807B80"/>
<stop offset="1" stop-color="#A7A9AC"/>
</linearGradient>
<linearGradient id="paint39_linear_1_17461" x1="48.685" y1="19.4181" x2="48.9541" y2="19.7178" gradientUnits="userSpaceOnUse">
<stop stop-color="#DED9D6"/>
<stop offset="0.06" stop-color="#CFCAC9"/>
<stop offset="0.18" stop-color="#A8A4A7"/>
<stop offset="0.26" stop-color="#8B878D"/>
<stop offset="0.52" stop-color="#F3F4F4"/>
<stop offset="0.58" stop-color="#E5E5E6"/>
<stop offset="0.7" stop-color="#C0BEC0"/>
<stop offset="0.86" stop-color="#858085"/>
<stop offset="0.88" stop-color="#807B80"/>
<stop offset="1" stop-color="#A7A9AC"/>
</linearGradient>
<linearGradient id="paint40_linear_1_17461" x1="49.0795" y1="20.409" x2="49.3486" y2="20.7075" gradientUnits="userSpaceOnUse">
<stop stop-color="#DED9D6"/>
<stop offset="0.06" stop-color="#CFCAC9"/>
<stop offset="0.18" stop-color="#A8A4A7"/>
<stop offset="0.26" stop-color="#8B878D"/>
<stop offset="0.52" stop-color="#F3F4F4"/>
<stop offset="0.58" stop-color="#E5E5E6"/>
<stop offset="0.7" stop-color="#C0BEC0"/>
<stop offset="0.86" stop-color="#858085"/>
<stop offset="0.88" stop-color="#807B80"/>
<stop offset="1" stop-color="#A7A9AC"/>
</linearGradient>
<linearGradient id="paint41_linear_1_17461" x1="50.098" y1="20.409" x2="50.3672" y2="20.7075" gradientUnits="userSpaceOnUse">
<stop stop-color="#DED9D6"/>
<stop offset="0.06" stop-color="#CFCAC9"/>
<stop offset="0.18" stop-color="#A8A4A7"/>
<stop offset="0.26" stop-color="#8B878D"/>
<stop offset="0.52" stop-color="#F3F4F4"/>
<stop offset="0.58" stop-color="#E5E5E6"/>
<stop offset="0.7" stop-color="#C0BEC0"/>
<stop offset="0.86" stop-color="#858085"/>
<stop offset="0.88" stop-color="#807B80"/>
<stop offset="1" stop-color="#A7A9AC"/>
</linearGradient>
<linearGradient id="paint42_linear_1_17461" x1="49.7178" y1="19.5542" x2="49.5232" y2="20.0588" gradientUnits="userSpaceOnUse">
<stop stop-color="#DED9D6"/>
<stop offset="0.06" stop-color="#CFCAC9"/>
<stop offset="0.18" stop-color="#A8A4A7"/>
<stop offset="0.26" stop-color="#8B878D"/>
<stop offset="0.52" stop-color="#F3F4F4"/>
<stop offset="0.58" stop-color="#E5E5E6"/>
<stop offset="0.7" stop-color="#C0BEC0"/>
<stop offset="0.86" stop-color="#858085"/>
<stop offset="0.88" stop-color="#807B80"/>
<stop offset="1" stop-color="#A7A9AC"/>
</linearGradient>
</defs>
</svg>
