<svg width="42" height="42" viewBox="0 0 42 42" fill="none" xmlns="http://www.w3.org/2000/svg">
<mask id="mask0_153_2668" style="mask-type:luminance" maskUnits="userSpaceOnUse" x="0" y="0" width="42" height="42">
<path d="M42 0H0V42H42V0Z" fill="white"/>
</mask>
<g mask="url(#mask0_153_2668)">
<path d="M40.0909 33.5079H1.90912C0.859117 33.5079 0 32.6488 0 31.5988V10.5988C0 9.54881 0.859117 8.6897 1.90912 8.6897H40.091C41.141 8.6897 42.0001 9.54881 42.0001 10.5988V31.5988C42 32.6488 41.1409 33.5079 40.0909 33.5079Z" fill="#0E9347"/>
<path d="M35.318 25.8715C33.1224 25.8715 31.118 26.9215 29.9724 28.6395C29.018 28.1623 27.968 27.7806 26.7271 27.7806C23.3862 27.7806 20.618 30.2623 20.1406 33.5078H40.0906C41.0452 33.5078 41.8089 32.8397 41.9997 31.885C41.618 28.5441 38.7543 25.8715 35.318 25.8715Z" fill="#0D8944"/>
<path d="M36.2728 31.5989H5.72733C5.72733 29.4989 4.00918 27.7806 1.90918 27.7806V14.4171C4.00918 14.4171 5.72733 12.699 5.72733 10.599H36.2728C36.2728 12.699 37.9909 14.4171 40.0909 14.4171V27.7806C37.9909 27.7806 36.2728 29.4989 36.2728 31.5989Z" fill="#3BB54A"/>
<path d="M20.9996 29.6896C25.2171 29.6896 28.6359 25.8432 28.6359 21.0987C28.6359 16.354 25.2171 12.5078 20.9996 12.5078C16.7822 12.5078 13.3633 16.354 13.3633 21.0987C13.3633 25.8432 16.7822 29.6896 20.9996 29.6896Z" fill="#0E9347"/>
<path d="M9.54486 23.0079C10.5992 23.0079 11.454 22.1532 11.454 21.0988C11.454 20.0445 10.5992 19.1897 9.54486 19.1897C8.49051 19.1897 7.63574 20.0445 7.63574 21.0988C7.63574 22.1532 8.49051 23.0079 9.54486 23.0079Z" fill="#0E9347"/>
<path d="M32.4545 23.0079C33.509 23.0079 34.3636 22.1532 34.3636 21.0988C34.3636 20.0445 33.509 19.1897 32.4545 19.1897C31.4002 19.1897 30.5454 20.0445 30.5454 21.0988C30.5454 22.1532 31.4002 23.0079 32.4545 23.0079Z" fill="#0E9347"/>
<path d="M21.9549 20.1442H20.0458C19.473 20.1442 19.0912 19.7624 19.0912 19.1898C19.0912 18.617 19.4732 18.2352 20.0458 18.2352H22.9093C23.4821 18.2352 23.8639 17.8533 23.8639 17.2807C23.8639 16.708 23.482 16.3263 22.9093 16.3263H21.9549C21.9549 15.7535 21.573 15.3717 21.0004 15.3717C20.4276 15.3717 20.0458 15.7535 20.0458 16.3263C18.4232 16.3263 17.1821 17.5671 17.1821 19.1898C17.1821 20.8126 18.4232 22.0535 20.0458 22.0535H21.9549C22.5277 22.0535 22.9095 22.4354 22.9095 23.008C22.9095 23.5807 22.5276 23.9624 21.9549 23.9624H19.0912C18.5186 23.9624 18.1368 24.3444 18.1368 24.917C18.1368 25.4898 18.5186 25.8716 19.0912 25.8716H20.0458C20.0458 26.4442 20.4277 26.826 21.0004 26.826C21.5732 26.826 21.9549 26.4442 21.9549 25.8716C23.5776 25.8716 24.8185 24.6307 24.8185 23.0079C24.8185 21.3851 23.5776 20.1442 21.9549 20.1442Z" fill="#89C763"/>
</g>
</svg>
