<svg width="40" height="40" viewBox="0 0 40 40" fill="none" xmlns="http://www.w3.org/2000/svg">
<path d="M27.8641 3.67938C24.8699 3.07405 21.7833 3.08916 18.7951 3.72375L18.7729 3.72875C16.8851 4.12962 15.1928 5.16811 13.9804 6.66969C13.6524 7.07586 13.4764 7.58375 13.4827 8.10578C13.489 8.62782 13.6773 9.13128 14.0151 9.52938L15.9854 11.8522L23.5101 13.375L30.9807 11.7881L32.8557 9.46688C33.1837 9.06078 33.3598 8.55294 33.3534 8.03094C33.3471 7.50895 33.1588 7.00552 32.821 6.6075C31.5448 5.10204 29.7986 4.0705 27.8641 3.67938Z" fill="#199675"/>
<path d="M15.7282 13.3394C15.5301 13.347 15.3431 13.433 15.2083 13.5784C15.0735 13.7239 15.002 13.9168 15.0095 14.115V15.0544C14.9931 15.4953 15.1522 15.9248 15.4521 16.2485C15.7519 16.5722 16.1679 16.7638 16.6088 16.7812H17.6126V13.3394H15.7282ZM31.107 13.3394C31.3051 13.347 31.4921 13.433 31.6268 13.5784C31.7616 13.7239 31.8331 13.9168 31.8257 14.115V15.0544C31.8421 15.4953 31.6829 15.9248 31.3831 16.2485C31.0832 16.5722 30.6672 16.7638 30.2263 16.7812H29.2226V13.3394H31.107Z" fill="#F49D8C"/>
<path d="M33.9428 31.7203C33.8338 29.8221 33.003 28.0374 31.6205 26.732C30.238 25.4266 28.4086 24.6994 26.5072 24.6994H20.3278C18.4265 24.6994 16.5971 25.4266 15.2146 26.732C13.8322 28.0374 13.0014 29.8221 12.8925 31.7203L12.5625 36.7469H34.2741L33.9428 31.7203Z" fill="#199675"/>
<path d="M23.4175 26.6284L21.9178 27.6209L22.816 29.2265H24.0191L24.9172 27.6209L23.4175 26.6284Z" fill="#EA5B57"/>
<path d="M25.0006 36.7637L24.0191 29.2266H22.8159L21.8381 36.73L25.0006 36.7637Z" fill="#F77066"/>
<path d="M21.1654 19.8197V24.6994C21.1654 25.2967 21.4027 25.8696 21.8251 26.2919C22.2474 26.7143 22.8203 26.9516 23.4176 26.9516C24.0149 26.9516 24.5878 26.7143 25.0101 26.2919C25.4325 25.8696 25.6698 25.2967 25.6698 24.6994V19.8197H21.1654Z" fill="#F49D8C"/>
<path d="M16.9645 13.4316V16.7813C16.9645 20.2813 19.6854 23.2603 23.1832 23.3847C24.0497 23.4162 24.9136 23.2728 25.7234 22.963C26.5332 22.6532 27.2722 22.1834 27.8964 21.5816C28.5206 20.9798 29.0171 20.2585 29.3563 19.4605C29.6956 18.6626 29.8705 17.8045 29.8707 16.9375V13.4316C29.8707 10.3197 27.3479 9.48907 24.236 9.48907H22.5992C19.4873 9.48907 16.9645 10.3197 16.9645 13.4316Z" fill="#FFB8A6"/>
<path d="M20.5125 14.3544C20.3585 14.3545 20.2108 14.4157 20.1018 14.5246C19.9929 14.6336 19.9317 14.7813 19.9316 14.9353V15.7575C19.9316 15.9116 19.9928 16.0593 20.1017 16.1683C20.2107 16.2772 20.3584 16.3384 20.5125 16.3384C20.6666 16.3384 20.8144 16.2772 20.9233 16.1683C21.0323 16.0593 21.0935 15.9116 21.0935 15.7575V14.9353C21.0935 14.7813 21.0323 14.6335 20.9233 14.5245C20.8144 14.4156 20.6666 14.3544 20.5125 14.3544ZM26.3225 14.3544C26.1684 14.3544 26.0207 14.4156 25.9117 14.5245C25.8028 14.6335 25.7416 14.7813 25.7416 14.9353V15.7575C25.7416 15.9116 25.8028 16.0593 25.9117 16.1683C26.0207 16.2772 26.1684 16.3384 26.3225 16.3384C26.4766 16.3384 26.6244 16.2772 26.7333 16.1683C26.8423 16.0593 26.9035 15.9116 26.9035 15.7575V14.9353C26.9034 14.7813 26.8421 14.6336 26.7332 14.5246C26.6243 14.4157 26.4766 14.3545 26.3225 14.3544ZM23.4166 20.7641H23.321C22.768 20.7385 22.2355 20.547 21.793 20.2144C21.3505 19.8819 21.0184 19.4237 20.84 18.8997C20.7928 18.7625 20.802 18.6121 20.8656 18.4816C20.9293 18.3511 21.0421 18.2513 21.1794 18.2041C21.3166 18.1568 21.467 18.166 21.5975 18.2297C21.7279 18.2933 21.8278 18.4062 21.875 18.5434C21.9809 18.8584 22.1792 19.1342 22.4441 19.3349C22.7089 19.5356 23.0281 19.6518 23.36 19.6684C23.714 19.677 24.0615 19.5729 24.3526 19.3713C24.6437 19.1697 24.8632 18.8809 24.9797 18.5466C25.0025 18.4785 25.0384 18.4155 25.0855 18.3612C25.1326 18.307 25.1899 18.2626 25.2542 18.2305C25.3184 18.1984 25.3884 18.1793 25.46 18.1743C25.5317 18.1692 25.6036 18.1784 25.6717 18.2011C25.7399 18.2239 25.8028 18.2598 25.8571 18.3069C25.9113 18.354 25.9557 18.4113 25.9878 18.4756C26.0199 18.5398 26.039 18.6098 26.044 18.6814C26.0491 18.7531 26.04 18.825 26.0172 18.8931C25.8327 19.4371 25.4828 19.9098 25.0166 20.2452C24.5503 20.5806 23.991 20.762 23.4166 20.7641ZM20.7822 23.74L23.4278 26.9519L21.3575 28.5334L19.3728 24.7613L20.7822 23.74ZM26.0731 23.74L23.4278 26.9519L25.4978 28.5334L27.4825 24.7613L26.0731 23.74ZM18.136 8.93439H28.6985C29.3012 8.93439 29.8792 9.17381 30.3054 9.59999C30.7315 10.0262 30.971 10.6042 30.971 11.2069H15.8638C15.8638 10.6042 16.1032 10.0262 16.5294 9.59999C16.9555 9.17381 17.5333 8.93439 18.136 8.93439Z" fill="#3A3D3E"/>
<path d="M17.6582 12.6494C17.6588 12.1351 17.8134 11.6327 18.1019 11.2069H15.9191C15.8815 11.4669 15.863 11.7292 15.8638 11.9919V13.3394H16.9935C17.7197 13.3394 17.6582 13.3757 17.6582 12.6494ZM28.7332 11.2069C29.0217 11.6327 29.1762 12.1351 29.1769 12.6494C29.1769 13.3757 29.1144 13.3394 29.8416 13.3394H30.9713V11.7866C30.9715 11.593 30.9618 11.3995 30.9422 11.2069H28.7332Z" fill="#B56A5A"/>
<path d="M23.4175 11.2069H15.8638C18.1048 12.6867 20.7321 13.4734 23.4175 13.4688C26.103 13.4734 28.7303 12.6867 30.9713 11.2069H23.4175Z" fill="#4B4D4E"/>
<path d="M26.476 33.3294H29.7072V34.9266H26.476V33.3294Z" fill="white"/>
<path d="M26.3847 7.70284C26.3129 7.70289 26.2417 7.68877 26.1754 7.6613C26.109 7.63383 26.0487 7.59355 25.9979 7.54276C25.9471 7.49197 25.9068 7.43167 25.8794 7.3653C25.8519 7.29893 25.8378 7.2278 25.8378 7.15597V6.52784C25.8378 6.3828 25.8954 6.2437 25.998 6.14115C26.1006 6.03859 26.2397 5.98097 26.3847 5.98097C26.5297 5.98097 26.6688 6.03859 26.7714 6.14115C26.8739 6.2437 26.9316 6.3828 26.9316 6.52784V7.15628C26.9315 7.30127 26.8738 7.44029 26.7713 7.54278C26.6687 7.64527 26.5297 7.70284 26.3847 7.70284ZM23.4175 7.70284C23.3457 7.70289 23.2745 7.68877 23.2082 7.6613C23.1418 7.63383 23.0815 7.59355 23.0307 7.54276C22.9799 7.49197 22.9396 7.43167 22.9122 7.3653C22.8847 7.29893 22.8706 7.2278 22.8706 7.15597V6.52784C22.8706 6.3828 22.9282 6.2437 23.0308 6.14115C23.1334 6.03859 23.2725 5.98097 23.4175 5.98097C23.5625 5.98097 23.7016 6.03859 23.8042 6.14115C23.9068 6.2437 23.9644 6.3828 23.9644 6.52784V7.15628C23.9643 7.30127 23.9066 7.44029 23.8041 7.54278C23.7015 7.64527 23.5625 7.70284 23.4175 7.70284ZM20.4503 7.70284C20.3053 7.70284 20.1662 7.64523 20.0636 7.54267C19.9611 7.44011 19.9034 7.30101 19.9034 7.15597V6.52784C19.9034 6.3828 19.9611 6.2437 20.0636 6.14115C20.1662 6.03859 20.3053 5.98097 20.4503 5.98097C20.5954 5.98097 20.7345 6.03859 20.837 6.14115C20.9396 6.2437 20.9972 6.3828 20.9972 6.52784V7.15628C20.9972 7.22808 20.983 7.29918 20.9556 7.36551C20.9281 7.43185 20.8878 7.49211 20.837 7.54287C20.7862 7.59363 20.7259 7.63388 20.6596 7.66133C20.5932 7.68878 20.5221 7.70289 20.4503 7.70284ZM24.9013 6.53597C24.8294 6.53601 24.7583 6.52189 24.6919 6.49442C24.6256 6.46696 24.5653 6.42668 24.5145 6.37589C24.4637 6.32509 24.4234 6.26479 24.3959 6.19842C24.3685 6.13205 24.3543 6.06092 24.3544 5.98909V5.36066C24.3544 5.21562 24.412 5.07652 24.5146 4.97396C24.6171 4.8714 24.7562 4.81378 24.9013 4.81378C25.0463 4.81378 25.1854 4.8714 25.288 4.97396C25.3905 5.07652 25.4481 5.21562 25.4481 5.36066V5.98909C25.4481 6.13413 25.3905 6.27323 25.288 6.37579C25.1854 6.47835 25.0463 6.53597 24.9013 6.53597ZM21.9338 6.53597C21.7887 6.53597 21.6496 6.47835 21.5471 6.37579C21.4445 6.27323 21.3869 6.13413 21.3869 5.98909V5.36066C21.3869 5.21562 21.4445 5.07652 21.5471 4.97396C21.6496 4.8714 21.7887 4.81378 21.9338 4.81378C22.0788 4.81378 22.2179 4.8714 22.3205 4.97396C22.423 5.07652 22.4806 5.21562 22.4806 5.36066V5.98909C22.4807 6.06092 22.4666 6.13205 22.4391 6.19842C22.4116 6.26479 22.3713 6.32509 22.3205 6.37589C22.2698 6.42668 22.2095 6.46696 22.1431 6.49442C22.0767 6.52189 22.0056 6.53601 21.9338 6.53597Z" fill="#3A3D3E"/>
<path d="M17.6595 28.9031V30.9206H7.46387V28.9031H17.6595Z" fill="#4B4D4E"/>
<path d="M11.5532 30.1828H13.5707V35.2694H11.5532V30.1828Z" fill="#4B4D4E"/>
<path d="M12.5626 23.0769C11.2107 23.0768 9.88916 23.4775 8.76506 24.2285C7.64097 24.9795 6.76482 26.0469 6.24739 27.2958C5.72997 28.5448 5.59453 29.9191 5.85819 31.245C6.12185 32.5709 6.77277 33.7888 7.72864 34.7448C8.6845 35.7007 9.90238 36.3517 11.2283 36.6155C12.5541 36.8793 13.9285 36.744 15.1774 36.2267C16.4264 35.7094 17.4939 34.8333 18.245 33.7093C18.9961 32.5853 19.3969 31.2638 19.3969 29.9119C19.3969 28.0993 18.6769 26.3608 17.3952 25.0791C16.1136 23.7973 14.3752 23.0771 12.5626 23.0769ZM12.5626 34.6366C11.6281 34.6365 10.7147 34.3594 9.93775 33.8402C9.16082 33.321 8.55529 32.5831 8.19774 31.7197C7.84018 30.8564 7.74666 29.9065 7.929 28.99C8.11134 28.0735 8.56135 27.2317 9.22212 26.5709C9.88289 25.9102 10.7248 25.4603 11.6412 25.278C12.5577 25.0957 13.5077 25.1893 14.371 25.5469C15.2343 25.9045 15.9722 26.5101 16.4913 27.287C17.0105 28.064 17.2876 28.9775 17.2876 29.9119C17.2876 30.5324 17.1653 31.1468 16.9279 31.72C16.6904 32.2933 16.3424 32.8141 15.9036 33.2529C15.4649 33.6916 14.944 34.0396 14.3707 34.277C13.7975 34.5145 13.183 34.6366 12.5626 34.6366Z" fill="#3A3D3E"/>
<path d="M12.5619 31.9266C13.6746 31.9266 14.5766 31.0246 14.5766 29.9119C14.5766 28.7992 13.6746 27.8972 12.5619 27.8972C11.4492 27.8972 10.5472 28.7992 10.5472 29.9119C10.5472 31.0246 11.4492 31.9266 12.5619 31.9266Z" fill="#A6A4BD"/>
</svg>
