<svg width="36" height="35" viewBox="0 0 36 35" fill="none" xmlns="http://www.w3.org/2000/svg">
<path d="M18.0002 3.64581C14.3258 3.64581 10.8019 5.10544 8.20379 7.7036C5.60563 10.3018 4.146 13.8256 4.146 17.5C4.146 21.1743 5.60563 24.6982 8.20379 27.2963C10.8019 29.8945 14.3258 31.3541 18.0002 31.3541C21.6745 31.3541 25.1984 29.8945 27.7965 27.2963C30.3947 24.6982 31.8543 21.1743 31.8543 17.5C31.8543 13.8256 30.3947 10.3018 27.7965 7.7036C25.1984 5.10544 21.6745 3.64581 18.0002 3.64581Z" fill="#039BE5"/>
<path d="M19.8755 21.1721H23.4608L24.0237 17.5299H19.8748V15.5393C19.8748 14.0262 20.3692 12.6846 21.7845 12.6846H24.0587V9.50613C23.6592 9.45217 22.8141 9.33405 21.2172 9.33405C17.8827 9.33405 15.9278 11.095 15.9278 15.1069V17.5299H12.5V21.1721H15.9278V31.1828C16.6067 31.2849 17.2943 31.3542 18.0001 31.3542C18.6381 31.3542 19.2608 31.2958 19.8755 31.2127V21.1721Z" fill="white"/>
</svg>
