<svg width="64" height="28" viewBox="0 0 64 28" fill="none" xmlns="http://www.w3.org/2000/svg">
<ellipse cx="31.5" cy="26.5" rx="31.5" ry="1.5" fill="#D9D9D9"/>
<path d="M44.3685 20.1641H2.76953V21.3633H44.3685V20.1641Z" fill="#476B9E"/>
<path d="M29.5697 22.8196H18.3079C17.9567 22.8196 17.6719 22.5348 17.6719 22.1836V19.4786C17.6719 19.1273 17.9567 18.8425 18.3079 18.8425H29.5697C29.921 18.8425 30.2058 19.1273 30.2058 19.4786V22.1836C30.2058 22.535 29.921 22.8196 29.5697 22.8196Z" fill="#162E4C"/>
<path d="M17.6734 21.9517H16.8717C16.4669 21.9517 16.1377 21.6225 16.1377 21.2177V20.4641H16.3099V21.2177C16.3099 21.5275 16.562 21.7795 16.8717 21.7795H17.6734V21.9517Z" fill="#162E4C"/>
<path d="M30.207 21.9793V21.8071C30.452 21.8071 30.6514 21.6078 30.6514 21.3627V20.4641H30.8236V21.3627C30.8236 21.7026 30.5469 21.9793 30.207 21.9793Z" fill="#162E4C"/>
<path d="M45.2388 20.4641H1.6667C1.30339 20.4641 1.00879 20.1694 1.00879 19.8061V0.845165C1.00879 0.481858 1.30339 0.187256 1.6667 0.187256H45.2388C45.6022 0.187256 45.8968 0.481858 45.8968 0.845165V19.8063C45.8968 20.1695 45.6022 20.4641 45.2388 20.4641Z" fill="#2F4A7F"/>
<path d="M45.3909 17.7251H1.57617V17.8973H45.3909V17.7251Z" fill="#486C9E"/>
<path d="M1.66046 0.75396H1.48828V17.8109H1.66046V0.75396Z" fill="#486C9E"/>
<path d="M2.81183 0.75396H2.63965V17.8109H2.81183V0.75396Z" fill="#486C9E"/>
<path d="M3.96613 0.753998H3.79395V17.811H3.96613V0.753998Z" fill="#486C9E"/>
<path d="M5.11847 0.75396H4.94629V17.8109H5.11847V0.75396Z" fill="#486C9E"/>
<path d="M6.27082 0.753998H6.09863V17.811H6.27082V0.753998Z" fill="#486C9E"/>
<path d="M7.42609 0.753998H7.25391V17.811H7.42609V0.753998Z" fill="#486C9E"/>
<path d="M8.57843 0.75396H8.40625V17.8109H8.57843V0.75396Z" fill="#486C9E"/>
<path d="M9.73078 0.753998H9.55859V17.811H9.73078V0.753998Z" fill="#486C9E"/>
<path d="M10.8841 0.754013H10.7119V17.811H10.8841V0.754013Z" fill="#486C9E"/>
<path d="M12.0364 0.75396H11.8643V17.8109H12.0364V0.75396Z" fill="#486C9E"/>
<path d="M13.1907 0.753998H13.0186V17.811H13.1907V0.753998Z" fill="#486C9E"/>
<path d="M14.3441 0.75396H14.1719V17.8109H14.3441V0.75396Z" fill="#486C9E"/>
<path d="M15.4954 0.75396H15.3232V17.8109H15.4954V0.75396Z" fill="#486C9E"/>
<path d="M16.6497 0.753998H16.4775V17.811H16.6497V0.753998Z" fill="#486C9E"/>
<path d="M17.8021 0.75396H17.6299V17.8109H17.8021V0.75396Z" fill="#486C9E"/>
<path d="M18.9544 0.753998H18.7822V17.811H18.9544V0.753998Z" fill="#486C9E"/>
<path d="M20.1077 0.754013H19.9355V17.811H20.1077V0.754013Z" fill="#486C9E"/>
<path d="M21.2611 0.75396H21.0889V17.8109H21.2611V0.75396Z" fill="#486C9E"/>
<path d="M22.4144 0.753998H22.2422V17.811H22.4144V0.753998Z" fill="#486C9E"/>
<path d="M23.5677 0.75396H23.3955V17.8109H23.5677V0.75396Z" fill="#486C9E"/>
<path d="M24.7191 0.753998H24.5469V17.811H24.7191V0.753998Z" fill="#486C9E"/>
<path d="M25.8734 0.753998H25.7012V17.811H25.8734V0.753998Z" fill="#486C9E"/>
<path d="M27.0277 0.75396H26.8555V17.8109H27.0277V0.75396Z" fill="#486C9E"/>
<path d="M28.178 0.753998H28.0059V17.811H28.178V0.753998Z" fill="#486C9E"/>
<path d="M29.3333 0.753998H29.1611V17.811H29.3333V0.753998Z" fill="#486C9E"/>
<path d="M30.4847 0.75396H30.3125V17.8109H30.4847V0.75396Z" fill="#486C9E"/>
<path d="M31.639 0.753998H31.4668V17.811H31.639V0.753998Z" fill="#486C9E"/>
<path d="M32.7913 0.75396H32.6191V17.8109H32.7913V0.75396Z" fill="#486C9E"/>
<path d="M33.9437 0.75396H33.7715V17.8109H33.9437V0.75396Z" fill="#486C9E"/>
<path d="M35.098 0.753998H34.9258V17.811H35.098V0.753998Z" fill="#486C9E"/>
<path d="M36.2513 0.75396H36.0791V17.8109H36.2513V0.75396Z" fill="#486C9E"/>
<path d="M37.4036 0.75396H37.2314V17.8109H37.4036V0.75396Z" fill="#486C9E"/>
<path d="M38.5569 0.753998H38.3848V17.811H38.5569V0.753998Z" fill="#486C9E"/>
<path d="M39.7083 0.75396H39.5361V17.8109H39.7083V0.75396Z" fill="#486C9E"/>
<path d="M40.8626 0.753998H40.6904V17.811H40.8626V0.753998Z" fill="#486C9E"/>
<path d="M42.0159 0.75396H41.8438V17.8109H42.0159V0.75396Z" fill="#486C9E"/>
<path d="M43.1683 0.75396H42.9961V17.8109H43.1683V0.75396Z" fill="#486C9E"/>
<path d="M44.3216 0.753998H44.1494V17.811H44.3216V0.753998Z" fill="#486C9E"/>
<path d="M45.4749 0.75396H45.3027V17.8109H45.4749V0.75396Z" fill="#486C9E"/>
<path d="M44.245 0.667778H2.71582V0.839961H44.245V0.667778Z" fill="#486C9E"/>
<path d="M44.245 19.8616H2.71582V20.0338H44.245V19.8616Z" fill="#486C9E"/>
<path d="M1.66046 1.8961H1.48828V18.8083H1.66046V1.8961Z" fill="#486C9E"/>
<path d="M45.4749 1.89605H45.3027V18.8082H45.4749V1.89605Z" fill="#486C9E"/>
<path d="M0.908203 0.653493V1.89614H1.5761V0.844272C1.5761 0.794511 1.61674 0.753877 1.6665 0.753877H2.71836V0.0858059H1.47572C1.16269 0.0859781 0.908203 0.340464 0.908203 0.653493Z" fill="#EFAC37"/>
<path d="M1.66252 1.98231H0.822266V0.653569C0.822266 0.29319 1.11549 -3.62396e-05 1.47587 -3.62396e-05H2.80478V0.840045H1.66682L1.66252 1.98231ZM0.994449 1.81013H1.49034V0.844522C1.49034 0.747238 1.56954 0.668035 1.66665 0.668035H2.63243V0.17232H1.4757C1.21019 0.17232 0.994277 0.388236 0.994277 0.653743L0.994449 1.81013Z" fill="#EEAC42"/>
<path d="M45.4907 0.0859814H44.248V0.754053H45.2999C45.3498 0.754053 45.3903 0.794687 45.3903 0.844448V1.89632H46.0582V0.653669C46.0582 0.340468 45.8036 0.0859814 45.4907 0.0859814Z" fill="#EFAC37"/>
<path d="M46.1445 1.9823H45.3044V0.844516L44.1621 0.840213V0.000131607H45.4908C45.8512 0.000131607 46.1445 0.293358 46.1445 0.653737V1.9823ZM45.4766 1.81012H45.9723V0.653564C45.9723 0.388057 45.7564 0.172141 45.4908 0.172141H44.3343V0.667856H45.2999C45.3972 0.667856 45.4764 0.747059 45.4764 0.844343L45.4766 1.81012Z" fill="#EEAC42"/>
<path d="M1.5761 19.8604V18.8085H0.908203V20.0512C0.908203 20.3642 1.16286 20.6187 1.47572 20.6187H2.71836V19.9508H1.6665C1.61674 19.9508 1.5761 19.9102 1.5761 19.8604Z" fill="#EFAC37"/>
<path d="M2.80381 20.7047H1.4749C1.11452 20.7047 0.821289 20.4115 0.821289 20.0511V18.7224H1.66154V19.8603C1.66154 19.8626 1.66361 19.8646 1.66568 19.8646H2.80363L2.80381 20.7047ZM0.993644 18.8945V20.0511C0.993644 20.3166 1.20956 20.5325 1.47507 20.5325H2.63179V20.0366H1.66602C1.56874 20.0366 1.4897 19.9574 1.4897 19.8601V18.8944H0.993644V18.8945Z" fill="#EEAC42"/>
<path d="M45.3903 19.8604C45.3903 19.9101 45.3498 19.9508 45.2999 19.9508H44.248V20.6187H45.4907C45.8036 20.6187 46.0582 20.364 46.0582 20.0512V18.8085H45.3903V19.8604Z" fill="#EFAC37"/>
<path d="M45.4908 20.7047H44.1621V19.8645L45.3044 19.8602V18.7222H46.1445V20.051C46.1445 20.4115 45.8511 20.7047 45.4908 20.7047ZM44.3343 20.5326H45.4908C45.7564 20.5326 45.9723 20.3166 45.9723 20.0511V18.8946H45.4766V19.8604C45.4766 19.9576 45.3974 20.0368 45.3001 20.0368H44.3345V20.5326H44.3343Z" fill="#EEAC42"/>
<path d="M3.11233 19.2856H1.9043V19.609H3.11233V19.2856Z" fill="#E8615B"/>
<path d="M4.49319 19.2856H3.28516V19.609H4.49319V19.2856Z" fill="#E8615B"/>
<path d="M3.28483 19.2856H3.1123V19.609H3.28483V19.2856Z" fill="white"/>
<path d="M13.2481 19.2857H12.04V19.6091H13.2481V19.2857Z" fill="#E8615B"/>
<path d="M14.6289 19.2856H13.4209V19.609H14.6289V19.2856Z" fill="#E8615B"/>
<path d="M13.4216 19.2857H13.249V19.6091H13.4216V19.2857Z" fill="white"/>
<path d="M23.3838 19.2856H22.1758V19.609H23.3838V19.2856Z" fill="#E8615B"/>
<path d="M24.7657 19.2856H23.5576V19.609H24.7657V19.2856Z" fill="#E8615B"/>
<path d="M23.5573 19.2856H23.3848V19.609H23.5573V19.2856Z" fill="white"/>
<path d="M33.5166 19.2856H32.3086V19.6089H33.5166V19.2856Z" fill="#E8615B"/>
<path d="M34.8975 19.2856H33.6895V19.6089H34.8975V19.2856Z" fill="#E8615B"/>
<path d="M33.6901 19.2856H33.5176V19.6089H33.6901V19.2856Z" fill="white"/>
<path d="M43.6485 19.2856H42.4404V19.609H43.6485V19.2856Z" fill="#E8615B"/>
<path d="M45.0284 19.2856H43.8203V19.609H45.0284V19.2856Z" fill="#E8615B"/>
<path d="M43.8219 19.2856H43.6494V19.609H43.8219V19.2856Z" fill="white"/>
<path d="M60.5055 10.3618H54.5259C54.154 10.3618 53.8525 10.6633 53.8525 11.0352V14.0889C53.8525 14.4608 54.154 14.7623 54.5259 14.7623H58.4949C58.6735 14.7623 58.8448 14.8332 58.9712 14.9596L59.367 15.3555C59.4934 15.4818 59.6646 15.5528 59.8433 15.5528H61.4233C61.8585 15.5528 62.1795 15.1463 62.0784 14.7229L61.1607 10.8789C61.0882 10.5757 60.8172 10.3618 60.5055 10.3618Z" fill="white"/>
<path d="M55.8369 9.73328L58.5509 15.7933H60.5628L57.8487 9.73328H55.8369Z" fill="#D9EBFF"/>
<path d="M59.476 9.73328H58.9355L61.6497 15.7933H62.19L59.476 9.73328Z" fill="#D9EBFF"/>
<path d="M62.9022 14.2865L61.5767 9.23913C61.2623 8.05365 60.4092 7.5507 59.1159 7.50576L47.9178 7.11611C47.549 7.1032 47.2432 7.39866 47.2432 7.76765V24.2012H62.6544V18.5028H63.0046V15.081C63.0046 14.8129 62.9702 14.5458 62.9022 14.2865ZM61.424 15.5527H59.844C59.6655 15.5527 59.4942 15.4818 59.3678 15.3554L58.9719 14.9596C58.8457 14.8332 58.6744 14.7622 58.4957 14.7622H54.5267C54.1548 14.7622 53.8533 14.4608 53.8533 14.0888V11.0352C53.8533 10.6633 54.1548 10.3618 54.5267 10.3618H60.5063C60.8179 10.3618 61.0889 10.5756 61.1614 10.8788L62.0792 14.7228C62.1802 15.1462 61.8593 15.5527 61.424 15.5527Z" fill="#EFAC37"/>
<path d="M47.2436 8.55091H45.8965V19.0553H47.2436V8.55091Z" fill="#162E4C"/>
<path d="M61.4246 16.0205H59.8445C59.5396 16.0205 59.2531 15.9017 59.0375 15.6863L58.6416 15.2905C58.6029 15.2516 58.5512 15.2302 58.4961 15.2302H54.527C53.8978 15.2302 53.3857 14.7183 53.3857 14.089V11.0353C53.3857 10.406 53.8978 9.89393 54.527 9.89393H60.5065C61.0369 9.89393 61.4933 10.2543 61.6164 10.7702L62.5342 14.6142C62.616 14.9561 62.5378 15.3105 62.32 15.5863C62.1025 15.8623 61.7761 16.0205 61.4246 16.0205ZM54.5271 10.0663C53.9927 10.0663 53.5581 10.501 53.5581 11.0355V14.0892C53.5581 14.6235 53.9927 15.0582 54.5271 15.0582H58.4963C58.5972 15.0582 58.6921 15.0975 58.7635 15.1689L59.1594 15.5648C59.3426 15.7478 59.5859 15.8485 59.8447 15.8485H61.4248C61.7232 15.8485 62.0006 15.7142 62.1853 15.4799C62.3703 15.2457 62.4365 14.9448 62.3673 14.6544L61.4496 10.8105C61.3451 10.3724 60.9575 10.0665 60.5071 10.0665L54.5271 10.0663Z" fill="#CE7602"/>
<path d="M56.1463 10.3618H55.5312V14.7625H56.1463V10.3618Z" fill="#162E4C"/>
<path d="M48.9863 7.15349V6.55154C48.9863 6.33459 49.1621 6.15879 49.3791 6.15879H56.6688C57.3909 6.15879 57.9762 6.74421 57.9762 7.46618L48.9863 7.15349Z" fill="#EFAC37"/>
<path d="M48.9913 7.06826L48.9854 7.24034L57.9753 7.55338L57.9813 7.3813L48.9913 7.06826Z" fill="#CE7602"/>
<path d="M62.812 24.2012H59.1338V20.3669H62.812C62.963 20.3669 63.0854 20.4893 63.0854 20.6403V23.9276C63.0854 24.0788 62.963 24.2012 62.812 24.2012Z" fill="#162E4C"/>
<path d="M62.655 18.4169H58.0703V18.589H62.655V18.4169Z" fill="#CE7602"/>
<path d="M48.0042 7.11642H47.832V24.2016H48.0042V7.11642Z" fill="#CE7602"/>
<path d="M62.3421 19.8771C62.2799 19.8771 62.2295 19.8267 62.2295 19.7645V19.1679C62.2295 19.1057 62.2799 19.0553 62.3421 19.0553C62.4043 19.0553 62.4547 19.1057 62.4547 19.1679V19.7645C62.4547 19.8267 62.4043 19.8771 62.3421 19.8771Z" fill="white"/>
<path d="M50.8328 6.33323H49.7686V6.50542H50.8328V6.33323Z" fill="#CE7602"/>
<path d="M50.8328 6.58577H49.7686V6.75795H50.8328V6.58577Z" fill="#CE7602"/>
<path d="M50.8328 6.83844H49.7686V7.01062H50.8328V6.83844Z" fill="#CE7602"/>
<path d="M52.8391 11.5332H47.918V11.7054H52.8391V11.5332Z" fill="#CE7602"/>
<path d="M52.8391 13.4191H47.918V13.5913H52.8391V13.4191Z" fill="#CE7602"/>
<path d="M61.6356 9.37783H47.918V9.55001H61.6356V9.37783Z" fill="#CE7602"/>
<path d="M52.3632 18.5674H49.2323C48.9222 18.5674 48.6699 18.3151 48.6699 18.005V16.3961C48.6699 16.086 48.9222 15.8338 49.2323 15.8338H52.3632C52.6733 15.8338 52.9256 16.086 52.9256 16.3961V18.005C52.9254 18.3151 52.6732 18.5674 52.3632 18.5674ZM49.2323 16.0061C49.0172 16.0061 48.8421 16.1813 48.8421 16.3963V18.0052C48.8421 18.2202 49.0172 18.3954 49.2323 18.3954H52.3632C52.5783 18.3954 52.7534 18.2202 52.7534 18.0052V16.3963C52.7534 16.1813 52.5783 16.0061 52.3632 16.0061H49.2323Z" fill="#CE7602"/>
<path d="M49.1804 18.3385C49.027 18.3385 48.9023 18.2137 48.9023 18.0605C48.9023 17.9071 49.0272 17.7824 49.1804 17.7824C49.3337 17.7824 49.4585 17.9072 49.4585 18.0605C49.4585 18.2139 49.3338 18.3385 49.1804 18.3385ZM49.1804 17.9546C49.122 17.9546 49.0745 18.0021 49.0745 18.0605C49.0745 18.1188 49.122 18.1664 49.1804 18.1664C49.2388 18.1664 49.2863 18.1188 49.2863 18.0605C49.2863 18.0021 49.2388 17.9546 49.1804 17.9546Z" fill="#CE7602"/>
<path d="M56.8656 18.2347H56.6872C56.6233 18.2347 56.5713 18.1828 56.5713 18.1188V17.5848C56.5713 17.521 56.6231 17.469 56.6872 17.469H56.8656C56.9296 17.469 56.9814 17.5208 56.9814 17.5848V18.1188C56.9814 18.1828 56.9294 18.2347 56.8656 18.2347Z" fill="#162E4C"/>
<path d="M56.8862 18.5891H56.6662C56.4366 18.5891 56.25 18.4023 56.25 18.173V17.5309C56.25 17.3014 56.4366 17.1147 56.6662 17.1147H56.8862C57.1157 17.1147 57.3024 17.3014 57.3024 17.5309V18.173C57.3024 18.4025 57.1157 18.5891 56.8862 18.5891ZM56.6662 17.2869C56.5317 17.2869 56.4222 17.3964 56.4222 17.5309V18.173C56.4222 18.3074 56.5317 18.4169 56.6662 18.4169H56.8862C57.0207 18.4169 57.1302 18.3074 57.1302 18.173V17.5309C57.1302 17.3964 57.0207 17.2869 56.8862 17.2869H56.6662Z" fill="#CE7602"/>
<path d="M56.6241 24.2014C56.6792 23.9693 56.7093 23.7275 56.7093 23.4786C56.7093 21.748 55.3064 20.3452 53.5759 20.3452C51.8453 20.3452 50.4424 21.7481 50.4424 23.4786C50.4424 23.7275 50.4725 23.9693 50.5276 24.2014H56.6241Z" fill="#CE7602"/>
<path d="M57.3124 24.2192L57.1438 24.1841C57.1947 23.9399 57.2206 23.6908 57.2206 23.4437C57.2206 21.4345 55.5859 19.7998 53.5767 19.7998C51.5675 19.7998 49.9328 21.4345 49.9328 23.4437C49.9328 23.686 49.9579 23.9308 50.0071 24.1715L49.8384 24.206C49.7869 23.9539 49.7607 23.6975 49.7607 23.4437C49.7607 21.3395 51.4726 19.6276 53.5768 19.6276C55.6811 19.6276 57.3929 21.3395 57.3929 23.4437C57.3928 23.7025 57.3657 23.9634 57.3124 24.2192Z" fill="#CE7602"/>
<path d="M55.9251 15.144H55.7529V20.4776H55.9251V15.144Z" fill="#CE7602"/>
<path d="M55.512 25.4811C56.5822 24.4108 56.5822 22.6755 55.512 21.6052C54.4417 20.535 52.7064 20.535 51.6361 21.6052C50.5659 22.6755 50.5659 24.4108 51.6361 25.4811C52.7064 26.5513 54.4417 26.5513 55.512 25.4811Z" fill="#162E4C"/>
<path d="M53.5772 26.3636L53.5708 26.3634C53.5701 26.3634 53.5693 26.3634 53.5686 26.3634C53.4916 26.3634 53.4109 26.3599 53.3317 26.3532L53.3453 26.1945C53.4209 26.201 53.4978 26.2043 53.5743 26.2043L53.5772 26.3636ZM53.8229 26.3527L53.8091 26.1939C53.8859 26.1872 53.9634 26.1771 54.0392 26.1636L54.0669 26.3205C53.9863 26.335 53.9042 26.3456 53.8229 26.3527ZM53.0879 26.3217C53.0071 26.3076 52.9262 26.2899 52.8475 26.269L52.8886 26.1151C52.9627 26.1349 53.039 26.1516 53.1151 26.1649L53.0879 26.3217ZM54.3067 26.2675L54.2654 26.1135C54.34 26.0936 54.4144 26.07 54.4867 26.0436L54.5412 26.1933C54.4646 26.2213 54.3858 26.2463 54.3067 26.2675ZM52.6128 26.1955C52.536 26.1678 52.4594 26.1361 52.3853 26.1015L52.4525 25.957C52.5224 25.9896 52.5945 26.0194 52.667 26.0457L52.6128 26.1955ZM54.7682 26.0991L54.7007 25.9548C54.7706 25.9221 54.8396 25.8859 54.9063 25.8473L54.9862 25.9853C54.9156 26.0261 54.8422 26.0645 54.7682 26.0991ZM52.1672 25.988C52.0964 25.9472 52.0265 25.9028 51.9597 25.856L52.051 25.7254C52.114 25.7695 52.1799 25.8114 52.2467 25.8501L52.1672 25.988ZM55.1931 25.8529L55.1017 25.7225C55.1646 25.6783 55.2265 25.6307 55.2856 25.581L55.388 25.7029C55.3255 25.7556 55.2599 25.806 55.1931 25.8529ZM51.7645 25.7065C51.7016 25.6538 51.6405 25.598 51.583 25.5405L51.6954 25.4277C51.7498 25.482 51.8075 25.5347 51.8667 25.5843L51.7645 25.7065ZM55.5692 25.5367L55.4566 25.4239C55.5106 25.3699 55.5635 25.3122 55.6134 25.2528L55.7353 25.3552C55.6825 25.4183 55.6267 25.4792 55.5692 25.5367ZM51.4165 25.3596C51.3638 25.297 51.3133 25.2316 51.2663 25.1648L51.3965 25.073C51.4409 25.1361 51.4886 25.1979 51.5382 25.2569L51.4165 25.3596ZM55.8851 25.1603L55.7546 25.0689C55.799 25.0055 55.8411 24.9398 55.8796 24.8731L56.0175 24.9529C55.9767 25.0235 55.9321 25.0932 55.8851 25.1603ZM51.1339 24.9578C51.0928 24.8869 51.0544 24.8137 51.0198 24.74L51.164 24.6724C51.1966 24.7418 51.2328 24.811 51.2717 24.8778L51.1339 24.9578ZM56.1312 24.7347L55.9867 24.6674C56.0194 24.5973 56.0492 24.5251 56.0756 24.4528L56.2252 24.5074C56.1975 24.5839 56.1658 24.6603 56.1312 24.7347ZM50.9251 24.5131C50.897 24.4366 50.8719 24.3578 50.8507 24.2786L51.0046 24.2371C51.0248 24.3118 51.0483 24.3862 51.0747 24.4582L50.9251 24.5131ZM56.2992 24.2727L56.1453 24.2317C56.1651 24.1574 56.1818 24.0811 56.1952 24.0052L56.3523 24.0327C56.338 24.1131 56.3202 24.1939 56.2992 24.2727ZM50.7973 24.0386C50.783 23.9583 50.7722 23.8762 50.7649 23.7947L50.9237 23.7808C50.9304 23.8576 50.9407 23.9351 50.9542 24.0108L50.7973 24.0386ZM56.384 23.7889L56.2252 23.7753C56.2317 23.6983 56.2352 23.6203 56.2352 23.5434V23.5317H56.3945V23.5418C56.3945 23.6248 56.3908 23.7073 56.384 23.7889ZM50.7539 23.549L50.7541 23.5401C50.7541 23.4633 50.7574 23.3827 50.7641 23.3037L50.9228 23.3171C50.9166 23.3917 50.9134 23.4678 50.9134 23.5434L50.7539 23.549ZM56.2242 23.3001C56.2171 23.2229 56.2068 23.1456 56.1932 23.0702L56.35 23.042C56.3645 23.122 56.3755 23.204 56.3829 23.2856L56.2242 23.3001ZM50.9523 23.0871L50.7952 23.0599C50.8092 22.9791 50.8269 22.8982 50.8477 22.8197L51.0019 22.8605C50.982 22.9345 50.9653 23.0108 50.9523 23.0871ZM56.1424 22.8438C56.1221 22.7692 56.0983 22.6948 56.0718 22.6229L56.2212 22.5678C56.2493 22.644 56.2746 22.7229 56.2961 22.8021L56.1424 22.8438ZM51.0707 22.6391L50.9209 22.5848C50.9486 22.508 50.9803 22.4314 51.0146 22.3574L51.1591 22.4243C51.1267 22.4944 51.0969 22.5666 51.0707 22.6391ZM55.9821 22.409C55.9494 22.3396 55.913 22.2706 55.8741 22.2038L56.0117 22.1234C56.053 22.1941 56.0916 22.2673 56.1262 22.341L55.9821 22.409ZM51.266 22.2184L51.1279 22.139C51.1685 22.0684 51.2129 21.9985 51.2598 21.9314L51.3905 22.0225C51.3462 22.0858 51.3042 22.1518 51.266 22.2184ZM55.7484 22.0087C55.704 21.9458 55.6563 21.8842 55.6062 21.8251L55.7279 21.7222C55.7808 21.7847 55.8314 21.8501 55.8784 21.9166L55.7484 22.0087ZM51.5315 21.8379L51.4092 21.7358C51.4618 21.6731 51.5174 21.612 51.575 21.5541L51.688 21.6666C51.6334 21.7212 51.5809 21.7788 51.5315 21.8379ZM55.449 21.6549C55.3941 21.6004 55.3362 21.5478 55.2773 21.4985L55.3794 21.3761C55.4419 21.4283 55.5031 21.4839 55.5613 21.5416L55.449 21.6549ZM51.8583 21.5092L51.7557 21.3875C51.8182 21.3346 51.8838 21.284 51.9502 21.2371L52.042 21.3673C51.9792 21.4117 51.9173 21.4594 51.8583 21.5092ZM55.0928 21.3578C55.0294 21.3138 54.9633 21.2719 54.8966 21.2337L54.976 21.0956C55.0466 21.1362 55.1165 21.1805 55.1838 21.2272L55.0928 21.3578ZM52.2373 21.242L52.1572 21.1042C52.2276 21.0632 52.301 21.0247 52.3748 20.9899L52.4427 21.134C52.3728 21.1671 52.3037 21.2034 52.2373 21.242ZM54.6905 21.1271C54.6203 21.0946 54.548 21.065 54.4758 21.039L54.5297 20.889C54.6062 20.9165 54.6828 20.9479 54.7573 20.9825L54.6905 21.1271ZM52.6565 21.0446L52.6016 20.8952C52.6782 20.8669 52.7571 20.842 52.8359 20.8206L52.8776 20.9744C52.8031 20.9945 52.7289 21.0181 52.6565 21.0446ZM54.2544 20.9701C54.1798 20.9505 54.1036 20.9339 54.0278 20.9208L54.0547 20.7638C54.1351 20.7776 54.216 20.7951 54.295 20.816L54.2544 20.9701ZM53.1039 20.9238L53.0758 20.7669C53.156 20.7526 53.238 20.7416 53.3194 20.7344L53.3336 20.8931C53.2569 20.8998 53.1795 20.9102 53.1039 20.9238ZM53.7974 20.8916C53.7236 20.8854 53.6485 20.8823 53.5741 20.8823H53.5653V20.723H53.5741C53.6528 20.723 53.7323 20.7263 53.8105 20.7328L53.7974 20.8916Z" fill="#162E4C"/>
<path d="M53.5734 24.7095C54.2175 24.7095 54.7396 24.1873 54.7396 23.5433C54.7396 22.8992 54.2175 22.3771 53.5734 22.3771C52.9293 22.3771 52.4072 22.8992 52.4072 23.5433C52.4072 24.1873 52.9293 24.7095 53.5734 24.7095Z" fill="white"/>
<path d="M53.5734 24.683C52.945 24.683 52.4336 24.1716 52.4336 23.5432C52.4336 22.9147 52.945 22.4033 53.5734 22.4033C54.2019 22.4033 54.7133 22.9147 54.7133 23.5432C54.7135 24.1718 54.2021 24.683 53.5734 24.683ZM53.5734 22.5755C53.0398 22.5755 52.6058 23.0096 52.6058 23.5432C52.6058 24.0768 53.0398 24.5108 53.5734 24.5108C54.107 24.5108 54.5411 24.0768 54.5411 23.5432C54.5413 23.0096 54.107 22.5755 53.5734 22.5755Z" fill="#486C9E"/>
<path d="M53.5739 26.205C52.1062 26.205 50.9121 25.0109 50.9121 23.5432C50.9121 22.0755 52.1062 20.8814 53.5739 20.8814C55.0416 20.8814 56.2357 22.0755 56.2357 23.5432C56.2357 25.0109 55.0417 26.205 53.5739 26.205ZM53.5739 21.0536C52.2011 21.0536 51.0843 22.1704 51.0843 23.5432C51.0843 24.916 52.2011 26.0328 53.5739 26.0328C54.9467 26.0328 56.0635 24.916 56.0635 23.5432C56.0635 22.1705 54.9467 21.0536 53.5739 21.0536Z" fill="#486C9E"/>
<path d="M53.8955 23.5432C53.8955 23.7205 53.7517 23.8645 53.5742 23.8645C53.3969 23.8645 53.2529 23.7207 53.2529 23.5432C53.2529 23.3657 53.3967 23.2219 53.5742 23.2219C53.7517 23.2221 53.8955 23.3658 53.8955 23.5432Z" fill="#162E4C"/>
<path d="M53.5744 22.992C53.6571 22.992 53.7241 22.925 53.7241 22.8424C53.7241 22.7597 53.6571 22.6927 53.5744 22.6927C53.4918 22.6927 53.4248 22.7597 53.4248 22.8424C53.4248 22.925 53.4918 22.992 53.5744 22.992Z" fill="#476B9E"/>
<path d="M53.5744 24.3943C53.6571 24.3943 53.7241 24.3273 53.7241 24.2447C53.7241 24.1621 53.6571 24.0951 53.5744 24.0951C53.4918 24.0951 53.4248 24.1621 53.4248 24.2447C53.4248 24.3273 53.4918 24.3943 53.5744 24.3943Z" fill="#476B9E"/>
<path d="M54.2746 23.6932C54.192 23.6932 54.125 23.6262 54.125 23.5435C54.125 23.4609 54.192 23.3939 54.2746 23.3939C54.3573 23.3939 54.4243 23.4609 54.4243 23.5435C54.4243 23.6262 54.3573 23.6932 54.2746 23.6932Z" fill="#476B9E"/>
<path d="M52.8733 23.6932C52.7906 23.6932 52.7236 23.6262 52.7236 23.5435C52.7236 23.4609 52.7906 23.3939 52.8733 23.3939C52.9559 23.3939 53.0229 23.4609 53.0229 23.5435C53.0229 23.6262 52.9561 23.6932 52.8733 23.6932Z" fill="#476B9E"/>
<path d="M54.0686 23.1974C54.1512 23.1974 54.2182 23.1304 54.2182 23.0477C54.2182 22.9651 54.1512 22.8981 54.0686 22.8981C53.9859 22.8981 53.9189 22.9651 53.9189 23.0477C53.9189 23.1304 53.9859 23.1974 54.0686 23.1974Z" fill="#476B9E"/>
<path d="M53.1831 24.1447C53.1246 24.2033 53.0299 24.2033 52.9715 24.1447C52.9131 24.0864 52.9131 23.9915 52.9715 23.9331C53.0301 23.8746 53.1248 23.8746 53.1831 23.9331C53.2417 23.9915 53.2417 24.0862 53.1831 24.1447Z" fill="#476B9E"/>
<path d="M53.9629 24.145C53.9043 24.0866 53.9043 23.9918 53.9629 23.9334C54.0212 23.8748 54.1161 23.8748 54.1745 23.9334C54.2328 23.9918 54.2328 24.0866 54.1745 24.145C54.1159 24.2034 54.0212 24.2034 53.9629 24.145Z" fill="#476B9E"/>
<path d="M52.9715 23.1534C52.9131 23.0951 52.9131 23.0002 52.9715 22.9418C53.0301 22.8835 53.1248 22.8835 53.1831 22.9418C53.2417 23.0004 53.2417 23.0951 53.1831 23.1534C53.1248 23.212 53.0301 23.212 52.9715 23.1534Z" fill="#476B9E"/>
<path d="M62.0589 13.245C61.9799 13.245 61.916 13.1809 61.916 13.1019V10.7748C61.916 10.6958 61.9801 10.6319 62.0589 10.6319H62.0891C62.3446 10.6319 62.5517 10.8391 62.5517 11.0946V12.7524C62.5515 13.0243 62.331 13.245 62.0589 13.245Z" fill="#162E4C"/>
<path d="M62.1848 10.728H62.0126V10.4516C62.0126 10.2393 61.8398 10.0665 61.6275 10.0665H61.2344V9.89427H61.6275C61.9348 9.89427 62.1848 10.1443 62.1848 10.4516V10.728Z" fill="#162E4C"/>
<path d="M61.3188 10.0533H61.2434C61.2098 10.0533 61.1826 10.0261 61.1826 9.99249V9.96752C61.1826 9.93395 61.2098 9.90674 61.2434 9.90674H61.3188C61.3524 9.90674 61.3796 9.93395 61.3796 9.96752V9.99249C61.3796 10.0261 61.3524 10.0533 61.3188 10.0533Z" fill="#162E4C"/>
<path d="M13.9983 25.4806C15.0686 24.4104 15.0686 22.6751 13.9983 21.6048C12.928 20.5346 11.1928 20.5346 10.1225 21.6048C9.0522 22.6751 9.0522 24.4104 10.1225 25.4806C11.1928 26.5509 12.928 26.5509 13.9983 25.4806Z" fill="#162E4C"/>
<path d="M12.0635 26.3634L12.0572 26.3632C12.0565 26.3632 12.0556 26.3632 12.0549 26.3632C11.9779 26.3632 11.8972 26.3598 11.818 26.3531L11.8316 26.1943C11.9072 26.2008 11.9841 26.2041 12.0606 26.2041L12.0635 26.3634ZM12.3092 26.3525L12.2955 26.1938C12.3722 26.1871 12.4497 26.1769 12.5253 26.1635L12.553 26.3203C12.4728 26.3348 12.3907 26.3455 12.3092 26.3525ZM11.5744 26.3215C11.4936 26.3074 11.4127 26.2897 11.334 26.2689L11.3751 26.1149C11.4492 26.1347 11.5254 26.1514 11.6016 26.1647L11.5744 26.3215ZM12.7932 26.2673L12.7519 26.1134C12.8265 26.0934 12.9008 26.0698 12.9732 26.0435L13.0277 26.1931C12.951 26.2212 12.8721 26.2461 12.7932 26.2673ZM11.0993 26.1953C11.0225 26.1676 10.9459 26.1359 10.8718 26.1013L10.939 25.9569C11.0089 25.9894 11.081 26.0192 11.1535 26.0455L11.0993 26.1953ZM13.2547 26.0989L13.1872 25.9546C13.2571 25.9219 13.3261 25.8857 13.3928 25.8472L13.4727 25.9851C13.4019 26.0259 13.3287 26.0643 13.2547 26.0989ZM10.6535 25.9879C10.5827 25.947 10.5128 25.9026 10.446 25.8558L10.5373 25.7253C10.6003 25.7694 10.6663 25.8112 10.7331 25.8499L10.6535 25.9879ZM13.6796 25.8527L13.5882 25.7224C13.6512 25.6781 13.713 25.6306 13.7721 25.5808L13.8745 25.7027C13.8119 25.7554 13.7463 25.8059 13.6796 25.8527ZM10.2509 25.7063C10.1881 25.6536 10.127 25.5979 10.0693 25.5404L10.1817 25.4276C10.2361 25.4818 10.2938 25.5345 10.3531 25.5841L10.2509 25.7063ZM14.0557 25.5366L13.9431 25.4238C13.9971 25.3697 14.05 25.312 14.0999 25.2526L14.2218 25.3551C14.169 25.4181 14.113 25.4791 14.0557 25.5366ZM9.9028 25.3594C9.85011 25.2969 9.79966 25.2315 9.75265 25.1646L9.88282 25.0729C9.92707 25.1359 9.97477 25.1977 10.0245 25.2568L9.9028 25.3594ZM14.3716 25.1602L14.2411 25.0687C14.2855 25.0054 14.3276 24.9396 14.3661 24.873L14.504 24.9527C14.4631 25.0233 14.4186 25.093 14.3716 25.1602ZM9.62024 24.9577C9.57909 24.8867 9.54069 24.8136 9.50608 24.7399L9.65038 24.6722C9.68292 24.7416 9.71908 24.8108 9.75799 24.8776L9.62024 24.9577ZM14.6177 24.7345L14.4732 24.6672C14.5059 24.5971 14.5357 24.525 14.5621 24.4527L14.7117 24.5073C14.684 24.5837 14.6523 24.6602 14.6177 24.7345ZM9.41156 24.5129C9.38349 24.4365 9.35835 24.3576 9.33717 24.2784L9.49111 24.2369C9.51125 24.3117 9.53484 24.386 9.56118 24.458L9.41156 24.5129ZM14.7856 24.2726L14.6316 24.2316C14.6514 24.1572 14.6681 24.0809 14.6816 24.005L14.8386 24.0325C14.8245 24.113 14.8066 24.1937 14.7856 24.2726ZM9.2838 24.0384C9.26951 23.9582 9.25866 23.876 9.25143 23.7946L9.41018 23.7806C9.41689 23.8574 9.42723 23.9349 9.44066 24.0107L9.2838 24.0384ZM14.8703 23.7887L14.7115 23.7751C14.7181 23.6982 14.7215 23.6202 14.7215 23.5432V23.5315H14.8808L14.881 23.5416C14.881 23.6246 14.8773 23.7071 14.8703 23.7887ZM9.24023 23.5489L9.24041 23.5399C9.24023 23.4631 9.24368 23.3826 9.25039 23.3035L9.40915 23.317C9.40295 23.3915 9.39968 23.4676 9.39968 23.5432L9.24023 23.5489ZM14.7107 23.2999C14.7036 23.2228 14.6933 23.1455 14.6797 23.07L14.8365 23.0418C14.851 23.1219 14.862 23.2038 14.8694 23.2854L14.7107 23.2999ZM9.43859 23.0869L9.28156 23.0597C9.29551 22.979 9.31324 22.898 9.33408 22.8195L9.48801 22.8603C9.46855 22.9344 9.45185 23.0106 9.43859 23.0869ZM14.6289 22.8436C14.6086 22.7691 14.5848 22.6947 14.5583 22.6227L14.7077 22.5676C14.736 22.6439 14.7611 22.7227 14.7826 22.802L14.6289 22.8436ZM9.55722 22.6389L9.40742 22.5847C9.43515 22.5079 9.46683 22.4312 9.50109 22.3572L9.64555 22.4242C9.61301 22.4943 9.5834 22.5664 9.55722 22.6389ZM14.4686 22.4089C14.4359 22.3395 14.3995 22.2704 14.3604 22.2036L14.498 22.1232C14.5393 22.194 14.5779 22.2672 14.6125 22.3408L14.4686 22.4089ZM9.75248 22.2182L9.61439 22.1389C9.65502 22.0683 9.69945 21.9984 9.74628 21.9312L9.87697 22.0223C9.83255 22.0857 9.7907 22.1516 9.75248 22.2182ZM14.2349 22.0085C14.1905 21.9457 14.1428 21.884 14.0929 21.825L14.2146 21.722C14.2675 21.7845 14.3181 21.85 14.3651 21.9164L14.2349 22.0085ZM10.0178 21.8377L9.89556 21.7356C9.94791 21.6729 10.0039 21.6118 10.0614 21.554L10.1743 21.6664C10.1199 21.721 10.0672 21.7787 10.0178 21.8377ZM13.9355 21.6547C13.8806 21.6003 13.8227 21.5476 13.7637 21.4984L13.8658 21.3759C13.9283 21.4281 13.9894 21.4837 14.0476 21.5414L13.9355 21.6547ZM10.3446 21.509L10.242 21.3873C10.3045 21.3344 10.3701 21.2838 10.4366 21.237L10.5283 21.3671C10.4657 21.4116 10.4038 21.4593 10.3446 21.509ZM13.5791 21.3577C13.5157 21.3136 13.4496 21.2718 13.383 21.2335L13.4623 21.0954C13.5329 21.1361 13.6028 21.1803 13.6702 21.227L13.5791 21.3577ZM10.7236 21.2418L10.6435 21.1041C10.714 21.0631 10.7871 21.0245 10.8612 20.9897L10.929 21.1338C10.8593 21.1669 10.7901 21.2032 10.7236 21.2418ZM13.1769 21.127C13.1064 21.0944 13.0343 21.0648 12.9621 21.0388L13.0162 20.8888C13.0927 20.9164 13.1693 20.9477 13.2438 20.9823L13.1769 21.127ZM11.1429 21.0445L11.0879 20.895C11.1646 20.8668 11.2434 20.8418 11.3223 20.8205L11.3639 20.9742C11.2896 20.9944 11.2152 21.018 11.1429 21.0445ZM12.7407 20.9699C12.6662 20.9503 12.5899 20.9338 12.5141 20.9207L12.541 20.7636C12.6214 20.7774 12.7023 20.795 12.7814 20.8158L12.7407 20.9699ZM11.5904 20.9236L11.5623 20.7667C11.6425 20.7525 11.7245 20.7414 11.8061 20.7342L11.8202 20.893C11.7433 20.8997 11.666 20.91 11.5904 20.9236ZM12.2839 20.8914C12.2101 20.8852 12.135 20.8821 12.0606 20.8821H12.0518V20.7228H12.0606C12.1393 20.7228 12.2188 20.7261 12.297 20.7327L12.2839 20.8914Z" fill="#162E4C"/>
<path d="M12.0617 24.7093C12.7058 24.7093 13.2279 24.1872 13.2279 23.5431C13.2279 22.899 12.7058 22.3769 12.0617 22.3769C11.4176 22.3769 10.8955 22.899 10.8955 23.5431C10.8955 24.1872 11.4176 24.7093 12.0617 24.7093Z" fill="white"/>
<path d="M12.0617 24.6829C11.4333 24.6829 10.9219 24.1715 10.9219 23.543C10.9219 22.9146 11.4333 22.4032 12.0617 22.4032C12.6902 22.4032 13.2016 22.9146 13.2016 23.543C13.2016 24.1717 12.6902 24.6829 12.0617 24.6829ZM12.0617 22.5754C11.5281 22.5754 11.0941 23.0094 11.0941 23.543C11.0941 24.0766 11.5281 24.5107 12.0617 24.5107C12.5953 24.5107 13.0294 24.0766 13.0294 23.543C13.0294 23.0094 12.5953 22.5754 12.0617 22.5754Z" fill="#486C9E"/>
<path d="M12.0612 26.2047C10.5935 26.2047 9.39941 25.0106 9.39941 23.5429C9.39941 22.0752 10.5935 20.8811 12.0612 20.8811C13.5289 20.8811 14.723 22.0752 14.723 23.5429C14.723 25.0106 13.5291 26.2047 12.0612 26.2047ZM12.0612 21.0533C10.6884 21.0533 9.5716 22.1701 9.5716 23.5429C9.5716 24.9157 10.6884 26.0325 12.0612 26.0325C13.434 26.0325 14.5508 24.9157 14.5508 23.5429C14.5508 22.1703 13.434 21.0533 12.0612 21.0533Z" fill="#486C9E"/>
<path d="M12.0615 23.8644C12.239 23.8644 12.3828 23.7205 12.3828 23.5431C12.3828 23.3656 12.239 23.2218 12.0615 23.2218C11.8841 23.2218 11.7402 23.3656 11.7402 23.5431C11.7402 23.7205 11.8841 23.8644 12.0615 23.8644Z" fill="#162E4C"/>
<path d="M12.0608 22.9919C12.1434 22.9919 12.2104 22.9249 12.2104 22.8422C12.2104 22.7596 12.1434 22.6926 12.0608 22.6926C11.9781 22.6926 11.9111 22.7596 11.9111 22.8422C11.9111 22.9249 11.9781 22.9919 12.0608 22.9919Z" fill="#476B9E"/>
<path d="M12.0608 24.3938C12.1434 24.3938 12.2104 24.3268 12.2104 24.2441C12.2104 24.1615 12.1434 24.0945 12.0608 24.0945C11.9781 24.0945 11.9111 24.1615 11.9111 24.2441C11.9111 24.3268 11.9781 24.3938 12.0608 24.3938Z" fill="#476B9E"/>
<path d="M12.76 23.6926C12.8426 23.6926 12.9096 23.6256 12.9096 23.543C12.9096 23.4604 12.8426 23.3934 12.76 23.3934C12.6773 23.3934 12.6104 23.4604 12.6104 23.543C12.6104 23.6256 12.6773 23.6926 12.76 23.6926Z" fill="#476B9E"/>
<path d="M11.3586 23.6926C11.4412 23.6926 11.5082 23.6256 11.5082 23.543C11.5082 23.4604 11.4412 23.3934 11.3586 23.3934C11.276 23.3934 11.209 23.4604 11.209 23.543C11.209 23.6256 11.276 23.6926 11.3586 23.6926Z" fill="#476B9E"/>
<path d="M12.5569 23.1971C12.6395 23.1971 12.7065 23.1301 12.7065 23.0474C12.7065 22.9648 12.6395 22.8978 12.5569 22.8978C12.4742 22.8978 12.4072 22.9648 12.4072 23.0474C12.4072 23.1301 12.4742 23.1971 12.5569 23.1971Z" fill="#476B9E"/>
<path d="M11.6715 24.1445C11.613 24.203 11.5183 24.203 11.4599 24.1445C11.4014 24.0861 11.4014 23.9912 11.4599 23.9328C11.5183 23.8743 11.6132 23.8743 11.6715 23.9328C11.7299 23.9912 11.7299 24.0859 11.6715 24.1445Z" fill="#476B9E"/>
<path d="M12.451 24.1445C12.3926 24.0861 12.3926 23.9912 12.451 23.9329C12.5095 23.8743 12.6042 23.8743 12.6626 23.9329C12.7212 23.9912 12.7212 24.0861 12.6626 24.1445C12.6042 24.2028 12.5095 24.2028 12.451 24.1445Z" fill="#476B9E"/>
<path d="M11.4599 23.153C11.4014 23.0946 11.4014 22.9997 11.4599 22.9414C11.5183 22.883 11.6132 22.883 11.6715 22.9414C11.7299 22.9999 11.7299 23.0946 11.6715 23.153C11.613 23.2115 11.5183 23.2115 11.4599 23.153Z" fill="#476B9E"/>
<path d="M8.57917 24.1691C8.92458 22.6954 8.00995 21.2208 6.5363 20.8754C5.06265 20.53 3.58801 21.4446 3.2426 22.9183C2.89719 24.3919 3.81182 25.8666 5.28547 26.212C6.75913 26.5574 8.23376 25.6428 8.57917 24.1691Z" fill="#162E4C"/>
<path d="M5.91411 26.3634L5.90774 26.3632C5.90705 26.3632 5.90619 26.3632 5.9055 26.3632C5.82853 26.3632 5.74778 26.3598 5.66857 26.3531L5.68218 26.1943C5.75776 26.2009 5.83473 26.2041 5.91118 26.2041L5.91411 26.3634ZM6.15981 26.3526L6.14604 26.1938C6.22283 26.1871 6.30031 26.1769 6.3759 26.1635L6.40362 26.3204C6.32339 26.3348 6.24125 26.3455 6.15981 26.3526ZM5.42493 26.3216C5.34418 26.3075 5.26325 26.2897 5.18457 26.2689L5.22572 26.115C5.29993 26.1348 5.37603 26.1515 5.45214 26.1647L5.42493 26.3216ZM6.64382 26.2673L6.60249 26.1134C6.67705 26.0934 6.75143 26.0698 6.82375 26.0435L6.87833 26.1931C6.80154 26.2212 6.72268 26.2462 6.64382 26.2673ZM4.94988 26.1954C4.87309 26.1676 4.79664 26.136 4.72243 26.1014L4.78958 25.9569C4.85949 25.9894 4.93163 26.0192 5.00412 26.0456L4.94988 26.1954ZM7.10527 26.0989L7.03777 25.9547C7.10768 25.9219 7.17673 25.8858 7.24336 25.8472L7.32308 25.9851C7.25249 26.0259 7.17931 26.0643 7.10527 26.0989ZM4.5041 25.9879C4.43333 25.9471 4.36343 25.9027 4.29662 25.8558L4.38788 25.7253C4.45089 25.7694 4.51684 25.8112 4.58365 25.85L4.5041 25.9879ZM7.53022 25.8527L7.43879 25.7224C7.50181 25.6781 7.56362 25.6306 7.62268 25.5808L7.7253 25.7028C7.66246 25.7554 7.59685 25.8059 7.53022 25.8527ZM4.10154 25.7064C4.03869 25.6537 3.97756 25.5979 3.92005 25.5404L4.03249 25.4276C4.0869 25.4818 4.14458 25.5345 4.20381 25.5841L4.10154 25.7064ZM7.90627 25.5366L7.79366 25.4238C7.84772 25.3697 7.90058 25.3121 7.95052 25.2527L8.07242 25.3551C8.01956 25.4181 7.9636 25.4791 7.90627 25.5366ZM3.75338 25.3594C3.70069 25.2969 3.65024 25.2315 3.60324 25.1647L3.73341 25.0729C3.77766 25.1359 3.82535 25.1977 3.87511 25.2568L3.75338 25.3594ZM8.22222 25.1602L8.09171 25.0688C8.13613 25.0054 8.17814 24.9396 8.21671 24.873L8.35463 24.9527C8.31365 25.0233 8.26923 25.093 8.22222 25.1602ZM3.47083 24.9577C3.42968 24.8868 3.39128 24.8136 3.35667 24.7399L3.50096 24.6722C3.5335 24.7416 3.56966 24.8108 3.60857 24.8776L3.47083 24.9577ZM8.46827 24.7346L8.32381 24.6672C8.35652 24.5972 8.38631 24.525 8.41266 24.4527L8.56228 24.5073C8.53456 24.5837 8.50288 24.6602 8.46827 24.7346ZM3.26214 24.513C3.23408 24.4365 3.20911 24.3577 3.18776 24.2785L3.34169 24.237C3.36184 24.3117 3.38543 24.3861 3.41177 24.458L3.26214 24.513ZM8.63615 24.2726L8.48222 24.2316C8.50202 24.1572 8.51872 24.081 8.53215 24.005L8.68918 24.0326C8.67506 24.113 8.65716 24.1937 8.63615 24.2726ZM3.13438 24.0384C3.12009 23.9582 3.10924 23.8761 3.10201 23.7946L3.26076 23.7807C3.26748 23.8575 3.27781 23.9349 3.29124 24.0107L3.13438 24.0384ZM8.72086 23.7888L8.56211 23.7752C8.56866 23.6982 8.5721 23.6202 8.5721 23.5432V23.5315H8.73137V23.5417C8.73154 23.6247 8.72792 23.7071 8.72086 23.7888ZM3.09082 23.5489L3.09099 23.54C3.09099 23.4632 3.09426 23.3826 3.10098 23.3036L3.25973 23.317C3.25353 23.3915 3.25026 23.4676 3.25026 23.5432L3.09082 23.5489ZM8.56125 23.2999C8.55419 23.2228 8.54386 23.1455 8.53026 23.0701L8.68712 23.0418C8.70141 23.1219 8.7126 23.2039 8.72 23.2855L8.56125 23.2999ZM3.28918 23.0869L3.13214 23.0597C3.14609 22.979 3.16383 22.8981 3.18466 22.8195L3.33876 22.8604C3.31914 22.9344 3.30243 23.0107 3.28918 23.0869ZM8.47946 22.8436C8.45915 22.7691 8.43539 22.6947 8.40887 22.6227L8.55832 22.5676C8.58656 22.6439 8.6117 22.7228 8.63322 22.802L8.47946 22.8436ZM3.40781 22.6389L3.25801 22.5847C3.28573 22.5079 3.31741 22.4313 3.35168 22.3572L3.49631 22.4242C3.46377 22.4943 3.43398 22.5664 3.40781 22.6389ZM8.31916 22.4089C8.28645 22.3395 8.25012 22.2705 8.21103 22.2036L8.3486 22.1232C8.38993 22.194 8.4285 22.2672 8.46328 22.3409L8.31916 22.4089ZM3.60306 22.2183L3.46497 22.1389C3.50561 22.0683 3.55003 21.9984 3.59687 21.9313L3.72755 22.0223C3.6833 22.0857 3.64129 22.1516 3.60306 22.2183ZM8.08551 22.0086C8.04108 21.9457 7.99339 21.8841 7.94346 21.825L8.06519 21.7221C8.11805 21.7846 8.16867 21.85 8.21568 21.9164L8.08551 22.0086ZM3.8684 21.8378L3.74615 21.7356C3.79849 21.673 3.85428 21.6119 3.91196 21.554L4.02491 21.6664C3.9705 21.721 3.91799 21.7787 3.8684 21.8378ZM7.78608 21.6547C7.73116 21.6003 7.6733 21.5476 7.61424 21.4984L7.71635 21.376C7.77885 21.4281 7.83998 21.4837 7.89817 21.5414L7.78608 21.6547ZM4.19538 21.5091L4.09275 21.3873C4.15526 21.3345 4.22086 21.2838 4.28732 21.237L4.37909 21.3672C4.31625 21.4116 4.25443 21.4593 4.19538 21.5091ZM7.42983 21.3577C7.36647 21.3136 7.30035 21.2718 7.23372 21.2336L7.31309 21.0955C7.38369 21.1361 7.4536 21.1804 7.52092 21.227L7.42983 21.3577ZM4.57418 21.2418L4.49411 21.1041C4.56454 21.0631 4.63789 21.0245 4.71175 20.9898L4.77959 21.1339C4.70986 21.1669 4.64081 21.2033 4.57418 21.2418ZM7.02744 21.127C6.95719 21.0944 6.88488 21.0648 6.81273 21.0388L6.8668 20.8889C6.94325 20.9164 7.01987 20.9477 7.09442 20.9823L7.02744 21.127ZM4.99344 21.0445L4.93852 20.8951C5.01514 20.8668 5.094 20.8418 5.17286 20.8205L5.21453 20.9743C5.14014 20.9944 5.06576 21.018 4.99344 21.0445ZM6.5913 20.97C6.51675 20.9503 6.44064 20.9338 6.36471 20.9207L6.39157 20.7637C6.47198 20.7775 6.55291 20.795 6.63194 20.8159L6.5913 20.97ZM5.44095 20.9236L5.41288 20.7668C5.49312 20.7525 5.57508 20.7415 5.65652 20.7342L5.67064 20.893C5.59385 20.8997 5.51654 20.91 5.44095 20.9236ZM6.1345 20.8914C6.06064 20.8852 5.98556 20.8821 5.91118 20.8821H5.9024V20.7229H5.91118C5.98987 20.7229 6.06942 20.7261 6.14776 20.7327L6.1345 20.8914Z" fill="#162E4C"/>
<path d="M5.91327 24.7092C6.55734 24.7092 7.07946 24.1871 7.07946 23.543C7.07946 22.8989 6.55734 22.3768 5.91327 22.3768C5.26919 22.3768 4.74707 22.8989 4.74707 23.543C4.74707 24.1871 5.26919 24.7092 5.91327 24.7092Z" fill="white"/>
<path d="M5.91231 24.6829C5.28384 24.6829 4.77246 24.1715 4.77246 23.543C4.77246 22.9146 5.28384 22.4032 5.91231 22.4032C6.54078 22.4032 7.05217 22.9146 7.05217 23.543C7.05217 24.1717 6.54095 24.6829 5.91231 24.6829ZM5.91231 22.5754C5.37872 22.5754 4.94464 23.0094 4.94464 23.543C4.94464 24.0766 5.37872 24.5107 5.91231 24.5107C6.44591 24.5107 6.87998 24.0766 6.87998 23.543C6.87998 23.0094 6.44591 22.5754 5.91231 22.5754Z" fill="#486C9E"/>
<path d="M5.91178 26.2048C4.44409 26.2048 3.25 25.0107 3.25 23.543C3.25 22.0753 4.44409 20.8812 5.91178 20.8812C7.37947 20.8812 8.57356 22.0753 8.57356 23.543C8.57356 25.0107 7.37964 26.2048 5.91178 26.2048ZM5.91178 21.0534C4.53896 21.0534 3.42218 22.1702 3.42218 23.543C3.42218 24.9158 4.53896 26.0326 5.91178 26.0326C7.2846 26.0326 8.40138 24.9158 8.40138 23.543C8.40138 22.1704 7.2846 21.0534 5.91178 21.0534Z" fill="#486C9E"/>
<path d="M6.23324 23.543C6.23324 23.7204 6.08946 23.8643 5.91194 23.8643C5.73459 23.8643 5.59082 23.7205 5.59082 23.543C5.59082 23.3655 5.73459 23.2217 5.91194 23.2217C6.08946 23.2219 6.23324 23.3657 6.23324 23.543Z" fill="#162E4C"/>
<path d="M5.91232 22.9919C5.99496 22.9919 6.06195 22.9249 6.06195 22.8422C6.06195 22.7596 5.99496 22.6926 5.91232 22.6926C5.82968 22.6926 5.7627 22.7596 5.7627 22.8422C5.7627 22.9249 5.82968 22.9919 5.91232 22.9919Z" fill="#476B9E"/>
<path d="M5.91232 24.3939C5.99496 24.3939 6.06195 24.3269 6.06195 24.2443C6.06195 24.1616 5.99496 24.0947 5.91232 24.0947C5.82968 24.0947 5.7627 24.1616 5.7627 24.2443C5.7627 24.3269 5.82968 24.3939 5.91232 24.3939Z" fill="#476B9E"/>
<path d="M6.61252 23.6925C6.69515 23.6925 6.76214 23.6255 6.76214 23.5429C6.76214 23.4603 6.69515 23.3933 6.61252 23.3933C6.52988 23.3933 6.46289 23.4603 6.46289 23.5429C6.46289 23.6255 6.52988 23.6925 6.61252 23.6925Z" fill="#476B9E"/>
<path d="M5.21115 23.6925C5.29379 23.6925 5.36078 23.6255 5.36078 23.5429C5.36078 23.4603 5.29379 23.3933 5.21115 23.3933C5.12851 23.3933 5.06152 23.4603 5.06152 23.5429C5.06152 23.6255 5.12851 23.6925 5.21115 23.6925Z" fill="#476B9E"/>
<path d="M6.51333 23.153C6.45479 23.2115 6.36009 23.2115 6.30172 23.153C6.24318 23.0946 6.24318 22.9997 6.30172 22.9413C6.36026 22.883 6.45496 22.883 6.51333 22.9413C6.5717 22.9997 6.5717 23.0946 6.51333 23.153Z" fill="#476B9E"/>
<path d="M5.52212 24.1443C5.46375 24.2029 5.36888 24.2029 5.31051 24.1443C5.25197 24.086 5.25197 23.9911 5.31051 23.9327C5.36905 23.8742 5.46375 23.8742 5.52212 23.9327C5.58066 23.9911 5.58066 24.0858 5.52212 24.1443Z" fill="#476B9E"/>
<path d="M6.30172 24.1443C6.24318 24.086 6.24318 23.9911 6.30172 23.9327C6.36026 23.8742 6.45496 23.8742 6.51333 23.9327C6.5717 23.9911 6.5717 24.086 6.51333 24.1443C6.45496 24.2027 6.36026 24.2027 6.30172 24.1443Z" fill="#476B9E"/>
<path d="M5.31051 23.153C5.25197 23.0946 5.25197 22.9997 5.31051 22.9413C5.36905 22.883 5.46375 22.883 5.52212 22.9413C5.58066 22.9999 5.58066 23.0946 5.52212 23.153C5.46375 23.2115 5.36888 23.2115 5.31051 23.153Z" fill="#476B9E"/>
<path d="M15.143 23.4839H14.9709C14.9709 21.9085 13.6891 20.6267 12.1136 20.6267H5.82724C4.25194 20.6267 2.97003 21.9085 2.97003 23.4839H2.79785C2.79785 21.8134 4.15689 20.4545 5.82724 20.4545H12.1138C13.7842 20.4545 15.143 21.8134 15.143 23.4839Z" fill="#162E4C"/>
<path d="M43.2366 25.481C44.3068 24.4107 44.3068 22.6754 43.2366 21.6051C42.1663 20.5349 40.431 20.5349 39.3608 21.6052C38.2905 22.6754 38.2905 24.4107 39.3608 25.481C40.431 26.5512 42.1663 26.5512 43.2366 25.481Z" fill="#162E4C"/>
<path d="M41.3018 26.3634L41.2956 26.3632C41.2949 26.3632 41.2941 26.3632 41.2934 26.3632C41.2164 26.3632 41.1356 26.3598 41.0564 26.3531L41.07 26.1943C41.1456 26.2008 41.2226 26.2041 41.299 26.2041L41.3018 26.3634ZM41.5475 26.3525L41.5337 26.1938C41.6105 26.1871 41.688 26.1769 41.7638 26.1635L41.7915 26.3203C41.7109 26.3348 41.6289 26.3455 41.5475 26.3525ZM40.8125 26.3215C40.7317 26.3074 40.6508 26.2897 40.5721 26.2689L40.6132 26.1149C40.6873 26.1347 40.7636 26.1514 40.8397 26.1647L40.8125 26.3215ZM42.0313 26.2673L41.99 26.1134C42.0646 26.0934 42.139 26.0698 42.2113 26.0435L42.2659 26.1931C42.1892 26.2212 42.1104 26.2461 42.0313 26.2673ZM40.3376 26.1953C40.2608 26.1676 40.1842 26.1359 40.1101 26.1013L40.1773 25.9569C40.2472 25.9894 40.3193 26.0192 40.3918 26.0455L40.3376 26.1953ZM42.4928 26.0989L42.4253 25.9546C42.4952 25.9219 42.5642 25.8857 42.6309 25.8472L42.7108 25.9851C42.6402 26.0259 42.5668 26.0643 42.4928 26.0989ZM39.8918 25.9879C39.821 25.947 39.7511 25.9026 39.6843 25.8558L39.7756 25.7253C39.8386 25.7694 39.9045 25.8112 39.9713 25.8499L39.8918 25.9879ZM42.9177 25.8527L42.8263 25.7224C42.8893 25.6781 42.9511 25.6306 43.0102 25.5808L43.1128 25.7027C43.0501 25.7554 42.9845 25.8059 42.9177 25.8527ZM39.4891 25.7063C39.4262 25.6536 39.3651 25.5979 39.3074 25.5404L39.4198 25.4276C39.4742 25.4818 39.5319 25.5345 39.5912 25.5841L39.4891 25.7063ZM43.2938 25.5366L43.1812 25.4238C43.2352 25.3697 43.2881 25.312 43.338 25.2526L43.4599 25.3551C43.4073 25.4181 43.3513 25.4791 43.2938 25.5366ZM39.1411 25.3594C39.0884 25.2969 39.0379 25.2315 38.9909 25.1646L39.1211 25.0729C39.1655 25.1359 39.213 25.1977 39.2628 25.2568L39.1411 25.3594ZM43.6099 25.1602L43.4794 25.0687C43.5238 25.0054 43.5658 24.9396 43.6044 24.873L43.7423 24.9527C43.7013 25.0233 43.6569 25.093 43.6099 25.1602ZM38.8585 24.9577C38.8174 24.8867 38.779 24.8136 38.7444 24.7399L38.8887 24.6722C38.9212 24.7416 38.9574 24.8108 38.9963 24.8776L38.8585 24.9577ZM43.856 24.7345L43.7115 24.6672C43.7442 24.5971 43.774 24.525 43.8004 24.4527L43.95 24.5073C43.9221 24.5837 43.8906 24.6602 43.856 24.7345ZM38.6498 24.5129C38.6218 24.4365 38.5966 24.3576 38.5755 24.2784L38.7294 24.2369C38.7495 24.3117 38.7731 24.386 38.7995 24.458L38.6498 24.5129ZM44.0238 24.2726L43.8699 24.2316C43.8897 24.1572 43.9064 24.0809 43.9198 24.005L44.0769 24.0325C44.0628 24.113 44.0449 24.1937 44.0238 24.2726ZM38.5219 24.0384C38.5076 23.9582 38.4968 23.876 38.4895 23.7946L38.6483 23.7806C38.655 23.8574 38.6653 23.9349 38.6788 24.0107L38.5219 24.0384ZM44.1086 23.7887L43.9498 23.7751C43.9564 23.6982 43.9598 23.6202 43.9598 23.5432V23.5315H44.1191L44.1192 23.5416C44.1192 23.6246 44.1156 23.7071 44.1086 23.7887ZM38.4785 23.5489L38.4787 23.5399C38.4787 23.4631 38.482 23.3826 38.4887 23.3035L38.6474 23.317C38.6412 23.3915 38.638 23.4676 38.638 23.5432L38.4785 23.5489ZM43.9488 23.2999C43.9417 23.2228 43.9314 23.1455 43.9178 23.07L44.0746 23.0418C44.0891 23.1219 44.1001 23.2038 44.1075 23.2854L43.9488 23.2999ZM38.6769 23.0869L38.5198 23.0597C38.5338 22.979 38.5515 22.898 38.5724 22.8195L38.7265 22.8603C38.7067 22.9344 38.6901 23.0106 38.6769 23.0869ZM43.8672 22.8436C43.8468 22.7691 43.8231 22.6947 43.7966 22.6227L43.946 22.5676C43.9741 22.6439 43.9994 22.7227 44.0209 22.802L43.8672 22.8436ZM38.7953 22.6389L38.6455 22.5847C38.6733 22.5079 38.7049 22.4312 38.7392 22.3572L38.8837 22.4242C38.8513 22.4943 38.8217 22.5664 38.7953 22.6389ZM43.7067 22.4089C43.674 22.3395 43.6376 22.2704 43.5986 22.2036L43.7361 22.1232C43.7774 22.194 43.816 22.2672 43.8508 22.3408L43.7067 22.4089ZM38.9906 22.2182L38.8525 22.1389C38.8931 22.0683 38.9376 21.9984 38.9844 21.9312L39.1151 22.0223C39.0708 22.0857 39.029 22.1516 38.9906 22.2182ZM43.473 22.0085C43.4286 21.9457 43.3809 21.884 43.3308 21.825L43.4525 21.722C43.5054 21.7845 43.556 21.85 43.603 21.9164L43.473 22.0085ZM39.2561 21.8377L39.1338 21.7356C39.1862 21.6729 39.242 21.6118 39.2997 21.554L39.4126 21.6664C39.3582 21.721 39.3055 21.7787 39.2561 21.8377ZM43.1736 21.6547C43.1187 21.6003 43.0608 21.5476 43.0019 21.4984L43.104 21.3759C43.1665 21.4281 43.2277 21.4837 43.2859 21.5414L43.1736 21.6547ZM39.5829 21.509L39.4803 21.3873C39.5428 21.3344 39.6084 21.2838 39.6748 21.237L39.7666 21.3671C39.7038 21.4116 39.6421 21.4593 39.5829 21.509ZM42.8174 21.3577C42.754 21.3136 42.6879 21.2718 42.6212 21.2335L42.7006 21.0954C42.7712 21.1361 42.8411 21.1803 42.9084 21.227L42.8174 21.3577ZM39.9619 21.2418L39.8818 21.1041C39.9522 21.0631 40.0256 21.0245 40.0994 20.9897L40.1673 21.1338C40.0974 21.1669 40.0283 21.2032 39.9619 21.2418ZM42.4151 21.127C42.3449 21.0944 42.2726 21.0648 42.2004 21.0388L42.2543 20.8888C42.3308 20.9164 42.4074 20.9477 42.4819 20.9823L42.4151 21.127ZM40.3811 21.0445L40.3262 20.895C40.4028 20.8668 40.4817 20.8418 40.5606 20.8205L40.6022 20.9742C40.5278 20.9944 40.4535 21.018 40.3811 21.0445ZM41.979 20.9699C41.9044 20.9503 41.8282 20.9338 41.7524 20.9207L41.7793 20.7636C41.8597 20.7774 41.9406 20.795 42.0196 20.8158L41.979 20.9699ZM40.8285 20.9236L40.8004 20.7667C40.8806 20.7525 40.9626 20.7414 41.044 20.7342L41.0582 20.893C40.9815 20.8997 40.9042 20.91 40.8285 20.9236ZM41.522 20.8914C41.4482 20.8852 41.3731 20.8821 41.2987 20.8821H41.2899V20.7228H41.2987C41.3774 20.7228 41.4569 20.7261 41.5351 20.7327L41.522 20.8914Z" fill="#162E4C"/>
<path d="M41.299 24.7094C41.9431 24.7094 42.4652 24.1872 42.4652 23.5432C42.4652 22.8991 41.9431 22.377 41.299 22.377C40.6549 22.377 40.1328 22.8991 40.1328 23.5432C40.1328 24.1872 40.6549 24.7094 41.299 24.7094Z" fill="white"/>
<path d="M41.2981 24.6829C40.6696 24.6829 40.1582 24.1715 40.1582 23.5431C40.1582 22.9146 40.6696 22.4032 41.2981 22.4032C41.9265 22.4032 42.4379 22.9146 42.4379 23.5431C42.4379 24.1717 41.9265 24.6829 41.2981 24.6829ZM41.2981 22.5754C40.7645 22.5754 40.3304 23.0095 40.3304 23.5431C40.3304 24.0767 40.7645 24.5107 41.2981 24.5107C41.8317 24.5107 42.2657 24.0767 42.2657 23.5431C42.2657 23.0095 41.8315 22.5754 41.2981 22.5754Z" fill="#486C9E"/>
<path d="M41.2985 26.205C39.8306 26.205 38.6367 25.0109 38.6367 23.5432C38.6367 22.0755 39.8308 20.8814 41.2985 20.8814C42.7662 20.8814 43.9603 22.0755 43.9603 23.5432C43.9603 25.0109 42.7662 26.205 41.2985 26.205ZM41.2985 21.0536C39.9257 21.0536 38.8089 22.1704 38.8089 23.5432C38.8089 24.916 39.9257 26.0328 41.2985 26.0328C42.6713 26.0328 43.7881 24.916 43.7881 23.5432C43.7881 22.1706 42.6711 21.0536 41.2985 21.0536Z" fill="#486C9E"/>
<path d="M41.6201 23.5432C41.6201 23.7205 41.4764 23.8644 41.2988 23.8644C41.1215 23.8644 40.9775 23.7207 40.9775 23.5432C40.9775 23.3656 41.1213 23.2219 41.2988 23.2219C41.4764 23.222 41.6201 23.3658 41.6201 23.5432Z" fill="#162E4C"/>
<path d="M41.301 22.9918C41.3836 22.9918 41.4506 22.9248 41.4506 22.8421C41.4506 22.7595 41.3836 22.6925 41.301 22.6925C41.2184 22.6925 41.1514 22.7595 41.1514 22.8421C41.1514 22.9248 41.2184 22.9918 41.301 22.9918Z" fill="#476B9E"/>
<path d="M41.301 24.3939C41.3836 24.3939 41.4506 24.3269 41.4506 24.2443C41.4506 24.1617 41.3836 24.0947 41.301 24.0947C41.2184 24.0947 41.1514 24.1617 41.1514 24.2443C41.1514 24.3269 41.2184 24.3939 41.301 24.3939Z" fill="#476B9E"/>
<path d="M41.9963 23.6929C41.9137 23.6929 41.8467 23.6259 41.8467 23.5432C41.8467 23.4606 41.9137 23.3936 41.9963 23.3936C42.079 23.3936 42.1459 23.4606 42.1459 23.5432C42.1459 23.6259 42.079 23.6929 41.9963 23.6929Z" fill="#476B9E"/>
<path d="M40.5959 23.6929C40.5133 23.6929 40.4463 23.6259 40.4463 23.5432C40.4463 23.4606 40.5133 23.3936 40.5959 23.3936C40.6786 23.3936 40.7455 23.4606 40.7455 23.5432C40.7455 23.6259 40.6786 23.6929 40.5959 23.6929Z" fill="#476B9E"/>
<path d="M41.7942 23.1972C41.8768 23.1972 41.9438 23.1302 41.9438 23.0476C41.9438 22.9649 41.8768 22.8979 41.7942 22.8979C41.7115 22.8979 41.6445 22.9649 41.6445 23.0476C41.6445 23.1302 41.7115 23.1972 41.7942 23.1972Z" fill="#476B9E"/>
<path d="M40.9087 24.1446C40.8502 24.2031 40.7555 24.2031 40.6971 24.1446C40.6387 24.0862 40.6387 23.9913 40.6971 23.933C40.7556 23.8744 40.8503 23.8744 40.9087 23.933C40.9671 23.9913 40.9671 24.086 40.9087 24.1446Z" fill="#476B9E"/>
<path d="M41.6884 24.1447C41.6299 24.0863 41.6299 23.9915 41.6884 23.9331C41.7468 23.8746 41.8417 23.8746 41.9001 23.9331C41.9584 23.9915 41.9584 24.0863 41.9001 24.1447C41.8417 24.2031 41.7468 24.2031 41.6884 24.1447Z" fill="#476B9E"/>
<path d="M40.6971 23.1533C40.6387 23.095 40.6387 23.0001 40.6971 22.9417C40.7556 22.8833 40.8503 22.8833 40.9087 22.9417C40.9673 23.0003 40.9673 23.095 40.9087 23.1533C40.8503 23.2119 40.7556 23.2119 40.6971 23.1533Z" fill="#476B9E"/>
<path d="M37.8175 24.1696C38.1629 22.6959 37.2482 21.2213 35.7746 20.8759C34.3009 20.5305 32.8263 21.4451 32.4809 22.9187C32.1355 24.3924 33.0501 25.867 34.5238 26.2124C35.9974 26.5579 37.472 25.6432 37.8175 24.1696Z" fill="#162E4C"/>
<path d="M35.1524 26.3635L35.146 26.3633C35.1453 26.3633 35.1445 26.3633 35.1438 26.3633C35.0668 26.3633 34.9861 26.3599 34.9069 26.3532L34.9205 26.1944C34.996 26.201 35.073 26.2042 35.1495 26.2042L35.1524 26.3635ZM35.3981 26.3526L35.3843 26.1939C35.4611 26.1872 35.5386 26.177 35.6144 26.1636L35.6421 26.3205C35.5617 26.3349 35.4795 26.3456 35.3981 26.3526ZM34.663 26.3217C34.5823 26.3075 34.5014 26.2898 34.4228 26.269L34.4638 26.115C34.538 26.1348 34.6141 26.1515 34.6903 26.1648L34.663 26.3217ZM35.8819 26.2674L35.8406 26.1135C35.9152 26.0935 35.9895 26.0699 36.0619 26.0436L36.1164 26.1932C36.0398 26.2213 35.961 26.2462 35.8819 26.2674ZM34.1882 26.1954C34.1114 26.1677 34.0347 26.136 33.9607 26.1014L34.0279 25.957C34.0978 25.9895 34.1701 26.0193 34.2424 26.0456L34.1882 26.1954ZM36.3436 26.099L36.2761 25.9547C36.346 25.922 36.415 25.8859 36.4816 25.8473L36.5615 25.9852C36.4908 26.026 36.4176 26.0644 36.3436 26.099ZM33.7424 25.988C33.6716 25.9472 33.6017 25.9027 33.5349 25.8559L33.6262 25.7254C33.6892 25.7695 33.7551 25.8113 33.8219 25.85L33.7424 25.988ZM36.7685 25.8528L36.6771 25.7225C36.7399 25.6782 36.8019 25.6307 36.861 25.5809L36.9634 25.7028C36.9007 25.7555 36.8351 25.806 36.7685 25.8528ZM33.3398 25.7064C33.277 25.6538 33.2158 25.598 33.1582 25.5405L33.2706 25.4277C33.325 25.4819 33.3827 25.5346 33.4419 25.5842L33.3398 25.7064ZM37.1445 25.5367L37.0319 25.4239C37.086 25.3698 37.1389 25.3121 37.1888 25.2527L37.3107 25.3552C37.2578 25.4182 37.2019 25.4792 37.1445 25.5367ZM32.9917 25.3595C32.939 25.297 32.8885 25.2316 32.8415 25.1648L32.9717 25.073C33.0159 25.136 33.0636 25.1978 33.1134 25.2569L32.9917 25.3595ZM37.4605 25.1603L37.33 25.0689C37.3744 25.0055 37.4164 24.9397 37.4548 24.8731L37.5927 24.9528C37.5519 25.0234 37.5075 25.0931 37.4605 25.1603ZM32.7091 24.9578C32.6678 24.8869 32.6296 24.8137 32.595 24.74L32.7392 24.6723C32.7718 24.7417 32.8079 24.8109 32.8469 24.8777L32.7091 24.9578ZM37.7066 24.7346L37.5621 24.6673C37.5948 24.5972 37.6246 24.5251 37.6509 24.4528L37.8006 24.5074C37.7728 24.5838 37.7412 24.6603 37.7066 24.7346ZM32.5004 24.513C32.4724 24.4366 32.4472 24.3577 32.426 24.2785L32.58 24.237C32.6001 24.3118 32.6237 24.3861 32.6501 24.4581L32.5004 24.513ZM37.8744 24.2727L37.7205 24.2317C37.7403 24.1573 37.757 24.081 37.7704 24.0051L37.9275 24.0327C37.9133 24.1131 37.8954 24.1938 37.8744 24.2727ZM32.3725 24.0385C32.3582 23.9583 32.3475 23.8761 32.3401 23.7947L32.4989 23.7808C32.5056 23.8575 32.5159 23.935 32.5294 24.0108L32.3725 24.0385ZM37.9591 23.7888L37.8004 23.7752C37.8069 23.6983 37.8104 23.6203 37.8104 23.5433L37.8102 23.5316H37.9695V23.5418C37.9698 23.6248 37.9662 23.7072 37.9591 23.7888ZM32.3291 23.549L32.3293 23.54C32.3291 23.4632 32.3325 23.3827 32.3393 23.3036L32.498 23.3171C32.4918 23.3916 32.4885 23.4677 32.4885 23.5433L32.3291 23.549ZM37.7995 23.3C37.7925 23.2229 37.7821 23.1456 37.7685 23.0701L37.9254 23.0419C37.9399 23.122 37.9509 23.2039 37.9583 23.2856L37.7995 23.3ZM32.5275 23.087L32.3704 23.0598C32.3844 22.9791 32.4021 22.8981 32.4229 22.8196L32.577 22.8604C32.5572 22.9345 32.5407 23.0107 32.5275 23.087ZM37.7177 22.8437C37.6974 22.7692 37.6737 22.6948 37.6472 22.6228L37.7966 22.5677C37.8248 22.644 37.85 22.7229 37.8715 22.8021L37.7177 22.8437ZM32.6461 22.639L32.4963 22.5848C32.524 22.508 32.5557 22.4314 32.59 22.3573L32.7344 22.4243C32.7019 22.4944 32.6723 22.5665 32.6461 22.639ZM37.5574 22.409C37.5247 22.3396 37.4884 22.2705 37.4493 22.2037L37.5869 22.1233C37.6282 22.1941 37.6668 22.2673 37.7014 22.341L37.5574 22.409ZM32.8413 22.2184L32.7033 22.139C32.7439 22.0684 32.7883 21.9985 32.8351 21.9313L32.9658 22.0224C32.9214 22.0858 32.8796 22.1517 32.8413 22.2184ZM37.3236 22.0086C37.2792 21.9458 37.2315 21.8842 37.1816 21.8251L37.3033 21.7221C37.3562 21.7846 37.4068 21.8501 37.4538 21.9165L37.3236 22.0086ZM33.1067 21.8378L32.9844 21.7357C33.0369 21.6731 33.0927 21.6119 33.1502 21.5541L33.2632 21.6665C33.2088 21.7211 33.1561 21.7788 33.1067 21.8378ZM37.0244 21.6548C36.9694 21.6004 36.9116 21.5477 36.8525 21.4985L36.9546 21.376C37.0171 21.4282 37.0783 21.4838 37.1365 21.5415L37.0244 21.6548ZM33.4335 21.5091L33.3309 21.3874C33.3934 21.3345 33.459 21.2839 33.5254 21.2371L33.6172 21.3673C33.5545 21.4117 33.4927 21.4594 33.4335 21.5091ZM36.6679 21.3578C36.6046 21.3137 36.5385 21.2719 36.4718 21.2336L36.5512 21.0956C36.6218 21.1362 36.6917 21.1804 36.759 21.2271L36.6679 21.3578ZM33.8125 21.2419L33.7324 21.1042C33.8028 21.0632 33.876 21.0246 33.95 20.9898L34.0179 21.1339C33.9481 21.167 33.8789 21.2033 33.8125 21.2419ZM36.2657 21.1271C36.1955 21.0945 36.1232 21.0649 36.051 21.0389L36.1051 20.8889C36.1815 20.9165 36.2582 20.9478 36.3327 20.9824L36.2657 21.1271ZM34.2317 21.0446L34.1768 20.8951C34.2534 20.8669 34.3323 20.8419 34.4111 20.8206L34.4528 20.9743C34.3784 20.9945 34.304 21.0181 34.2317 21.0446ZM35.8296 20.97C35.755 20.9504 35.6788 20.9339 35.603 20.9208L35.6299 20.7638C35.7103 20.7775 35.7912 20.7951 35.8702 20.8159L35.8296 20.97ZM34.6791 20.9237L34.651 20.7669C34.7312 20.7526 34.8132 20.7415 34.8946 20.7343L34.9087 20.8931C34.8321 20.8998 34.7548 20.9101 34.6791 20.9237ZM35.3728 20.8915C35.2989 20.8853 35.2238 20.8822 35.1495 20.8822H35.1407V20.7229H35.1495C35.2281 20.7229 35.3077 20.7262 35.386 20.7328L35.3728 20.8915Z" fill="#162E4C"/>
<path d="M35.1506 24.7095C35.7946 24.7095 36.3168 24.1873 36.3168 23.5433C36.3168 22.8992 35.7946 22.3771 35.1506 22.3771C34.5065 22.3771 33.9844 22.8992 33.9844 23.5433C33.9844 24.1873 34.5065 24.7095 35.1506 24.7095Z" fill="white"/>
<path d="M35.1496 24.6829C34.5211 24.6829 34.0098 24.1715 34.0098 23.543C34.0098 22.9146 34.5211 22.4032 35.1496 22.4032C35.7781 22.4032 36.2895 22.9146 36.2895 23.543C36.2895 24.1717 35.7781 24.6829 35.1496 24.6829ZM35.1496 22.5754C34.616 22.5754 34.1819 23.0094 34.1819 23.543C34.1819 24.0766 34.6162 24.5107 35.1496 24.5107C35.683 24.5107 36.1173 24.0766 36.1173 23.543C36.1173 23.0094 35.6832 22.5754 35.1496 22.5754Z" fill="#486C9E"/>
<path d="M35.1501 26.2049C33.6824 26.2049 32.4883 25.0108 32.4883 23.5431C32.4883 22.0754 33.6824 20.8813 35.1501 20.8813C36.6177 20.8813 37.8118 22.0754 37.8118 23.5431C37.8118 25.0108 36.6177 26.2049 35.1501 26.2049ZM35.1501 21.0535C33.7772 21.0535 32.6605 22.1703 32.6605 23.5431C32.6605 24.9159 33.7772 26.0327 35.1501 26.0327C36.5229 26.0327 37.6397 24.9159 37.6397 23.5431C37.6397 22.1705 36.5229 21.0535 35.1501 21.0535Z" fill="#486C9E"/>
<path d="M35.1504 23.8644C35.3278 23.8644 35.4717 23.7205 35.4717 23.5431C35.4717 23.3656 35.3278 23.2218 35.1504 23.2218C34.9729 23.2218 34.8291 23.3656 34.8291 23.5431C34.8291 23.7205 34.9729 23.8644 35.1504 23.8644Z" fill="#162E4C"/>
<path d="M35.3002 22.842C35.3002 22.9246 35.2332 22.9916 35.1506 22.9916C35.068 22.9916 35.001 22.9246 35.001 22.842C35.001 22.7593 35.068 22.6924 35.1506 22.6924C35.2332 22.6924 35.3002 22.7593 35.3002 22.842Z" fill="#476B9E"/>
<path d="M35.3002 24.2441C35.3002 24.3267 35.2332 24.3937 35.1506 24.3937C35.068 24.3937 35.001 24.3267 35.001 24.2441C35.001 24.1614 35.068 24.0944 35.1506 24.0944C35.2332 24.0944 35.3002 24.1613 35.3002 24.2441Z" fill="#476B9E"/>
<path d="M35.8518 23.6927C35.9344 23.6927 36.0014 23.6257 36.0014 23.5431C36.0014 23.4605 35.9344 23.3935 35.8518 23.3935C35.7691 23.3935 35.7021 23.4605 35.7021 23.5431C35.7021 23.6257 35.7691 23.6927 35.8518 23.6927Z" fill="#476B9E"/>
<path d="M34.4494 23.6927C34.5321 23.6927 34.5991 23.6257 34.5991 23.5431C34.5991 23.4605 34.5321 23.3935 34.4494 23.3935C34.3668 23.3935 34.2998 23.4605 34.2998 23.5431C34.2998 23.6257 34.3668 23.6927 34.4494 23.6927Z" fill="#476B9E"/>
<path d="M35.7506 23.1532C35.6923 23.2117 35.5974 23.2117 35.539 23.1532C35.4805 23.0948 35.4805 22.9999 35.539 22.9416C35.5974 22.8832 35.6923 22.8832 35.7506 22.9416C35.8092 22.9999 35.8092 23.0948 35.7506 23.1532Z" fill="#476B9E"/>
<path d="M34.7604 24.1448C34.7019 24.2033 34.6072 24.2033 34.5488 24.1448C34.4902 24.0864 34.4902 23.9915 34.5488 23.9332C34.6073 23.8746 34.702 23.8746 34.7604 23.9332C34.8188 23.9915 34.8188 24.0862 34.7604 24.1448Z" fill="#476B9E"/>
<path d="M35.539 24.1448C35.4805 24.0864 35.4805 23.9915 35.539 23.9332C35.5974 23.8746 35.6923 23.8746 35.7506 23.9332C35.809 23.9915 35.809 24.0864 35.7506 24.1448C35.6923 24.2031 35.5974 24.2031 35.539 24.1448Z" fill="#476B9E"/>
<path d="M34.5488 23.1531C34.4902 23.0948 34.4902 22.9999 34.5488 22.9415C34.6073 22.8832 34.702 22.8832 34.7604 22.9415C34.8188 23.0001 34.8188 23.0948 34.7604 23.1531C34.7019 23.2117 34.6072 23.2117 34.5488 23.1531Z" fill="#476B9E"/>
<path d="M44.3826 23.4842H44.2105C44.2105 21.9088 42.9287 20.627 41.3531 20.627H35.0665C33.4912 20.627 32.2093 21.9088 32.2093 23.4842H32.0371C32.0371 21.8137 33.3961 20.4548 35.0665 20.4548H41.3531C43.0236 20.4548 44.3826 21.8137 44.3826 23.4842Z" fill="#162E4C"/>
</svg>
