<svg width="36" height="35" viewBox="0 0 36 35" fill="none" xmlns="http://www.w3.org/2000/svg">
<path d="M33.3127 11.8125L29.6668 13.8177L26.021 17.2812V29.1667H31.1252C32.3334 29.1667 33.3127 28.1874 33.3127 26.9792V11.8125Z" fill="#4CAF50"/>
<path d="M2.6875 11.8125L5.32271 13.0594L9.97917 17.2812V29.1667H4.875C3.66677 29.1667 2.6875 28.1874 2.6875 26.9792V11.8125Z" fill="#1E88E5"/>
<path d="M26.0208 8.16669L18 14.1823L9.97917 8.16669L9.25 12.3959L9.97917 17.2813L18 23.2969L26.0208 17.2813L26.75 12.3959L26.0208 8.16669Z" fill="#E53935"/>
<path d="M2.6875 8.96727V11.8125L9.97917 17.2812V8.16665L7.70125 6.45967C7.15875 6.05279 6.49958 5.83331 5.82146 5.83331C4.09042 5.83331 2.6875 7.23623 2.6875 8.96727Z" fill="#C62828"/>
<path d="M33.3127 8.96727V11.8125L26.021 17.2812V8.16665L28.2989 6.45967C28.8414 6.05279 29.5006 5.83331 30.1787 5.83331C31.9097 5.83331 33.3127 7.23623 33.3127 8.96727Z" fill="#FBC02D"/>
</svg>
