<svg width="42" height="36" viewBox="0 0 42 36" fill="none" xmlns="http://www.w3.org/2000/svg">
<mask id="mask0_147_2731" style="mask-type:luminance" maskUnits="userSpaceOnUse" x="0" y="0" width="42" height="36">
<path d="M42 0H0V36H42V0Z" fill="white"/>
</mask>
<g mask="url(#mask0_147_2731)">
<path d="M38.1467 6.9637C34.004 4.55666 28.7068 5.98692 26.3128 10.1568L20.2783 20.6789C18.5322 23.7174 20.7802 24.779 23.2867 26.2919L29.0934 29.6652C31.0598 30.8069 33.5714 30.1292 34.7056 28.1525L40.9093 17.3389C42.9932 13.7053 41.7566 9.06145 38.1467 6.9637Z" fill="#EA4335"/>
<path d="M31.3185 11.3187L25.5118 7.94522C22.3064 6.15414 20.491 6.03558 19.1751 8.14107L10.6108 23.0702C8.21946 27.2373 9.64287 32.5668 13.783 34.9686C17.393 37.0663 22.0068 35.8216 24.0909 32.1879L32.819 16.9701C33.9583 14.991 33.285 12.4603 31.3185 11.3187Z" fill="#FBBC04"/>
<path d="M32.438 3.64457L28.3594 1.27336C23.8482 -1.34738 18.0798 0.206561 15.4759 4.74736L7.71047 18.2846C6.56351 20.282 7.24452 22.8385 9.22886 23.9904L13.7964 26.6448C16.0519 27.9566 18.9348 27.1782 20.2381 24.9078L29.1094 9.4427C30.9478 6.23953 35.0162 5.1417 38.1985 6.99206L32.438 3.64457Z" fill="#34A853"/>
<path d="M16.5758 8.62053L12.167 6.06404C10.2007 4.92492 7.6891 5.6 6.55493 7.57422L1.26506 16.7743C-1.33861 21.3023 0.205218 27.0954 4.71644 29.7088L8.073 31.6545L12.144 34.0149L13.9106 35.038C10.7743 32.9248 9.77826 28.6907 11.6958 25.3559L13.0657 22.9746L18.0814 14.2512C19.213 12.2823 18.5396 9.75966 16.5758 8.62053Z" fill="#4285F4"/>
</g>
</svg>
