<svg width="22" height="22" viewBox="0 0 22 22" fill="none" xmlns="http://www.w3.org/2000/svg">
<path d="M11 7.33325V10.9999L13.2917 13.2916" stroke="#797D83" stroke-width="1.5" stroke-linecap="round" stroke-linejoin="round"/>
<path d="M5.13725 5.13713L4.60692 4.6068L4.60692 4.6068L5.13725 5.13713ZM3.9764 6.29798L3.22641 6.30175C3.22848 6.71301 3.56137 7.0459 3.97263 7.04797L3.9764 6.29798ZM6.30606 7.05969C6.72026 7.06178 7.05773 6.72768 7.05982 6.31347C7.0619 5.89926 6.7278 5.56179 6.31359 5.55971L6.30606 7.05969ZM4.71467 3.96079C4.71259 3.54658 4.37512 3.21248 3.96091 3.21456C3.5467 3.21665 3.2126 3.55412 3.21469 3.96832L4.71467 3.96079ZM3.56977 9.89466C3.62602 9.48429 3.33894 9.10601 2.92856 9.04976C2.51819 8.99351 2.13991 9.28059 2.08366 9.69096L3.56977 9.89466ZM17.3347 4.66543C13.8089 1.1396 8.11042 1.1033 4.60692 4.6068L5.66758 5.66746C8.57527 2.75977 13.3239 2.77597 16.274 5.72609L17.3347 4.66543ZM4.66555 17.3346C8.19138 20.8604 13.8898 20.8967 17.3933 17.3932L16.3327 16.3325C13.425 19.2402 8.67633 19.224 5.72621 16.2739L4.66555 17.3346ZM17.3933 17.3932C20.8968 13.8897 20.8605 8.19126 17.3347 4.66543L16.274 5.72609C19.2242 8.67621 19.2404 13.4249 16.3327 16.3325L17.3933 17.3932ZM4.60692 4.6068L3.44607 5.76765L4.50673 6.82831L5.66758 5.66746L4.60692 4.6068ZM3.97263 7.04797L6.30606 7.05969L6.31359 5.55971L3.98017 5.54799L3.97263 7.04797ZM4.72639 6.29421L4.71467 3.96079L3.21469 3.96832L3.22641 6.30175L4.72639 6.29421ZM2.08366 9.69096C1.71312 12.3943 2.57605 15.2451 4.66555 17.3346L5.72621 16.2739C3.97999 14.5277 3.26068 12.1496 3.56977 9.89466L2.08366 9.69096Z" fill="#797D83"/>
</svg>
