<svg width="36" height="35" viewBox="0 0 36 35" fill="none" xmlns="http://www.w3.org/2000/svg">
<path d="M30.8845 9.82917C30.5929 10.0188 30.1772 10.1938 30.0022 10.3906C29.9366 10.4563 29.9002 10.5292 29.9148 10.6021V11.3531L29.696 12.0896L29.4773 12.8188L29.2366 13.6208L28.7408 15.2615L28.2595 16.8802L27.895 18.0979C27.895 18.2875 27.8877 18.4771 27.8731 18.6594C27.822 19.3594 27.6762 20.0302 27.4429 20.6573C27.3043 21.0438 27.1366 21.4156 26.9325 21.7656C26.8595 21.9042 26.772 22.0427 26.6845 22.174C26.3929 22.6333 26.0429 23.0563 25.6564 23.4281C25.3575 23.7271 25.0293 24.0042 24.672 24.2375C24.672 24.2375 24.672 24.2375 24.6647 24.2375C24.6064 24.2885 24.5408 24.3323 24.4679 24.3688C24.2418 24.5219 24.0012 24.6531 23.7533 24.7698C23.5856 24.8573 23.4179 24.9302 23.2429 24.9958C23.2064 25.0177 23.1627 25.0323 23.1262 25.0469C22.7106 25.2438 22.2293 25.375 21.7481 25.4406C21.7189 25.4479 21.697 25.4479 21.6679 25.4552C21.3762 25.5063 21.0918 25.55 20.8002 25.5719C20.6689 25.5865 20.5304 25.5938 20.3991 25.5938L19.8814 25.5646L17.3877 25.4333C17.3877 25.426 17.3804 25.4333 17.3804 25.4333L16.1262 25.3677C16.0314 25.3677 15.9293 25.3677 15.8345 25.3604C15.4408 25.3458 15.0616 25.3021 14.6825 25.2219C14.6752 25.2219 14.6752 25.2219 14.6752 25.2219C13.9825 25.0906 13.3189 24.8573 12.6991 24.5438C12.3564 24.3688 12.021 24.1719 11.7075 23.9458C11.5762 23.851 11.4522 23.749 11.3283 23.6396C10.9783 23.3479 10.6647 23.0344 10.3731 22.7135C10.3293 22.6698 10.2929 22.626 10.2564 22.5823C10.2127 22.5385 10.1689 22.4875 10.1325 22.4438C9.85537 22.0938 9.62204 21.7365 9.43245 21.3573C9.25745 21.0219 9.11891 20.6646 9.00954 20.2708C8.96579 20.1323 8.92933 20.001 8.90016 19.8552C8.89287 19.8479 8.88558 19.8333 8.88558 19.8188C8.81266 19.5198 8.74704 19.2063 8.71058 18.8927C8.66683 18.6521 8.64495 18.4115 8.64495 18.1635C8.63037 18.0688 8.63037 17.9667 8.63037 17.8719L10.0231 15.7208L11.3866 13.6208L12.0064 12.6656L12.5679 11.8052L12.7575 11.5063V10.7552C12.772 10.5875 12.7793 10.4125 12.772 10.2521C12.7647 9.74167 12.6627 9.24583 12.495 8.77188C12.3345 8.26875 12.1085 7.79479 11.8752 7.35729C11.5981 6.85417 11.3064 6.40208 11.0658 5.99375C10.7085 5.39583 10.4606 4.90729 10.5262 4.56458C11.0512 4.44063 11.6054 4.375 12.1668 4.375H23.8335C26.8814 4.375 29.5064 6.27083 30.5929 8.93959C30.7095 9.22396 30.8116 9.52292 30.8845 9.82917Z" fill="#304FFE"/>
<path d="M31.1252 11.6667V11.8635L30.119 12.4469L29.4773 12.8187L28.77 13.2271L27.3554 14.051L25.97 14.8531L24.5554 15.6698L23.994 15.9979C23.994 16.3479 23.9065 16.6687 23.7461 16.9604C23.52 17.3833 23.1409 17.7333 22.6596 18.0323C22.1711 18.3312 21.5731 18.5719 20.9023 18.7469C20.9023 18.7469 20.9023 18.7396 20.895 18.7469C18.2992 19.4177 14.7554 19.1115 13.0346 17.8281C12.5534 17.4708 12.2179 17.0333 12.0721 16.5302C12.0284 16.3625 12.0065 16.1802 12.0065 15.9979V10.7552C12.0138 10.6458 11.9409 10.5365 11.8096 10.4271C11.4159 10.1135 10.4898 9.81458 9.4544 9.51562C8.64502 9.28958 7.77731 9.06354 7.04814 8.84479C6.4721 8.66979 5.98356 8.49479 5.69189 8.32708C5.82314 8.07187 5.97627 7.81667 6.13669 7.57604C7.15752 6.08125 8.71794 4.98021 10.5263 4.56458C11.0513 4.44063 11.6054 4.375 12.1669 4.375H20.0419C23.9575 5.06042 27.5669 6.65729 30.5929 8.93958C30.7096 9.22396 30.8117 9.52292 30.8846 9.82917C31.0159 10.3104 31.0961 10.8062 31.1179 11.324C31.1252 11.4333 31.1252 11.55 31.1252 11.6667Z" fill="#4928F4"/>
<path d="M31.1251 11.6667V14.8823L30.9646 15.3781L30.4178 17.0771L29.849 18.8271L29.5501 19.7604L29.273 20.6281L29.0032 21.4521L28.7407 22.2688L28.6021 22.699L28.4199 23.2677C28.4199 23.8219 28.4053 24.3104 28.3688 24.726C28.3615 24.7698 28.3542 24.8135 28.3542 24.8573C28.3105 25.2438 28.2521 25.5719 28.1574 25.849C28.1501 25.8927 28.1355 25.9365 28.1209 25.9729C27.9313 26.4979 27.6469 26.8333 27.224 27.0521C27.1219 27.1104 27.0053 27.1542 26.8813 27.1979C26.4949 27.3292 26.0063 27.3948 25.4084 27.4313C24.9709 27.4604 24.4678 27.4677 23.899 27.4677H23.3959L22.5282 27.4313L22.3751 27.424L20.7928 27.3583L19.1886 27.2927L13.9021 27.074L12.5313 27.0156H12.3417C11.773 27.0083 11.2844 26.9719 10.8615 26.9135C10.249 26.8188 9.77506 26.6583 9.41777 26.4177C8.90736 26.0896 8.6084 25.6083 8.4334 24.9375C8.38965 24.7771 8.35319 24.6094 8.33131 24.4271C8.2584 24.0042 8.22194 23.5156 8.20006 22.9688C8.20006 22.8594 8.20006 22.75 8.19277 22.6333C8.18548 22.626 8.19277 22.626 8.19277 22.626V22.2031C8.18548 21.9917 8.18548 21.7729 8.18548 21.5469L8.22194 20.3729L8.24381 19.5344L8.27298 18.5573V18.4188L8.32402 16.625L8.37506 14.8313L8.42611 13.1469L8.46986 11.4917L8.48444 11.0542C8.48444 10.8281 7.71881 10.6969 6.86569 10.5875C6.18756 10.5 5.44382 10.4198 4.99902 10.3177C5.03548 10.15 5.07194 9.9823 5.11569 9.82189C5.24694 9.29689 5.44381 8.80105 5.69173 8.32709C5.82298 8.07189 5.97611 7.81668 6.13652 7.57605C7.71152 6.88335 9.35215 6.34376 11.0657 5.99376C12.5678 5.68022 14.1355 5.51251 15.7542 5.51251C21.1209 5.51251 26.0792 7.32814 30.0021 10.3906C30.3813 10.6823 30.7532 10.9958 31.1178 11.324C31.1251 11.4333 31.1251 11.55 31.1251 11.6667Z" fill="#6200EA"/>
<path d="M31.125 13.3948V16.7052L30.724 17.4781L29.9583 18.9729L29.55 19.7604L29.1781 20.4823L29.0177 20.7958C29.0177 21.0218 29.0177 21.2406 29.0031 21.452C29.0031 21.7656 28.9885 22.0645 28.9667 22.3416C28.9375 22.6698 28.8938 22.9687 28.85 23.2458C28.7406 23.8218 28.5875 24.3177 28.3688 24.726C28.3396 24.777 28.3104 24.8281 28.2812 24.8718C28.201 25.0031 28.1063 25.127 28.0042 25.2437C27.8729 25.4041 27.7271 25.5427 27.5594 25.6593C27.3115 25.8489 27.0198 26.002 26.6844 26.1187C26.2688 26.2718 25.7875 26.3739 25.2188 26.4323C24.8469 26.4687 24.4385 26.4906 23.9938 26.4906L23.6875 26.5052L22.1708 26.5927H22.1635L20.5521 26.6875L18.9115 26.7823L16.651 26.9135L13.9021 27.0739L13.501 27.0958C13.1292 27.0958 12.7792 27.0739 12.4437 27.0302C12.4073 27.0229 12.3781 27.0156 12.3417 27.0156C11.8458 26.9354 11.3938 26.8041 10.9854 26.6218C10.4896 26.4031 10.0594 26.1114 9.69479 25.7614C9.37396 25.4479 9.09687 25.0906 8.87083 24.6895C8.81979 24.5948 8.76875 24.5073 8.725 24.4052C8.50625 23.975 8.33125 23.4937 8.2 22.9687C8.17813 22.8812 8.15625 22.7864 8.14167 22.6916C8.09792 22.5239 8.06146 22.3489 8.03958 22.1666C7.95938 21.7 7.91563 21.2041 7.89375 20.6864V20.6791C7.88646 20.4677 7.87917 20.2635 7.87917 20.0448L7.52188 19.1916L7.47083 19.0604L7.42708 18.951L6.88021 17.6458L6.79271 17.4343L6.26771 16.1729L5.68438 14.7656C5.68438 14.7656 5.68437 14.7656 5.67708 14.7656L5.08646 13.3437L4.875 12.826V11.6666C4.875 11.2073 4.91875 10.7552 4.99896 10.3177C5.03542 10.15 5.07187 9.98226 5.11562 9.82185C5.73542 9.46455 6.38437 9.13643 7.04792 8.84476C8.56458 8.16664 10.1906 7.66351 11.875 7.35726C13.1292 7.13122 14.4344 7.00726 15.7542 7.00726C21.0844 7.00726 25.9188 8.93955 29.6958 12.0896C29.8417 12.2062 29.9802 12.3229 30.1187 12.4468C30.4615 12.7458 30.7969 13.0593 31.125 13.3948Z" fill="#673AB7"/>
<path d="M31.125 15.5677V19.3156L30.7094 20.1834L29.9219 21.824L29.9146 21.8459C29.9146 22.1594 29.9 22.4438 29.8781 22.699C29.8052 23.5375 29.601 24.0698 29.2656 24.3979C29.025 24.6459 28.726 24.7844 28.3542 24.8573C28.3323 24.8646 28.3031 24.8646 28.2812 24.8719C28.1646 24.8938 28.0406 24.9084 27.9094 24.9084C27.4573 24.9521 26.925 24.9229 26.3125 24.8792C26.2469 24.8792 26.174 24.8719 26.101 24.8646C25.6563 24.8354 25.1823 24.8063 24.6573 24.7844C24.3729 24.7771 24.074 24.7698 23.7677 24.7698H23.7531L23.0167 24.8281H23.0094L21.3542 24.9448L19.4656 25.0906L19.1885 25.1125L16.9792 25.2729L15.8344 25.3604L14.7042 25.4406C14.5073 25.4406 14.3177 25.4406 14.1281 25.4334C14.1281 25.4334 14.1208 25.4261 14.1208 25.4334C13.2969 25.4188 12.5604 25.3677 11.9042 25.2438C11.299 25.1417 10.7667 24.9813 10.3146 24.7406C9.84792 24.5146 9.46146 24.1938 9.14792 23.7854C8.84896 23.3844 8.63021 22.8813 8.49167 22.2761C8.49167 22.2688 8.49167 22.2688 8.49167 22.2688C8.38958 21.7802 8.33125 21.2115 8.33125 20.5698L8.22188 20.3729L7.57292 19.2136L7.47812 19.0531L7.42708 18.9511L6.74896 17.7479L6.41354 17.1427L5.99063 16.3917L5.26146 15.0865L4.875 14.4011V11.7177C5.51667 11.2948 6.18021 10.9229 6.86562 10.5875C7.69687 10.1646 8.55729 9.80732 9.45417 9.51565C10.4312 9.19482 11.4521 8.93961 12.4948 8.7719C13.5521 8.5969 14.6385 8.5094 15.7542 8.5094C20.7125 8.5094 25.2625 10.2813 28.7698 13.2271C28.9302 13.3511 29.0833 13.4896 29.2365 13.6209C29.849 14.1677 30.4323 14.7584 30.9646 15.3781C31.0229 15.4438 31.0813 15.5021 31.125 15.5677Z" fill="#8E24AA"/>
<path d="M31.125 18.0177V23.2896C30.95 23.1875 30.7094 23.0635 30.4104 22.9323C30.25 22.8521 30.0677 22.7719 29.8781 22.6989C29.601 22.575 29.3021 22.4583 28.9667 22.3416C28.8938 22.3125 28.8208 22.2906 28.7406 22.2687C28.6094 22.2177 28.4708 22.1739 28.3323 22.1302C27.9021 21.9989 27.4281 21.875 26.9323 21.7656C26.7427 21.7292 26.5458 21.6927 26.349 21.6635C25.7146 21.5541 25.0365 21.4885 24.3292 21.4812C24.2708 21.4739 24.2052 21.4739 24.1469 21.4739L22.2729 21.4885L19.7208 21.5031H19.7135L14.2521 21.5469C12.5167 21.5469 11.4521 21.9625 10.8104 22.1302C10.8104 22.1302 10.8031 22.1302 10.8031 22.1375C10.125 22.3125 9.91354 22.2031 9.85521 21.0146C9.84063 20.6864 9.83333 20.2635 9.83333 19.7458L9.425 19.4323L8.71042 18.8927L8.27292 18.5573L8.18542 18.4917L6.975 17.5729L6.79271 17.4344L6.41354 17.1427L5.71354 16.6177L4.875 15.976V13.4969C4.94792 13.4385 5.01354 13.3875 5.08646 13.3437C6.14375 12.6146 7.27396 11.9948 8.46979 11.4917C9.53438 11.0396 10.6573 10.6823 11.8094 10.4271C12.1229 10.3614 12.4438 10.2958 12.7719 10.2521C13.7417 10.0844 14.7406 10.0042 15.7542 10.0042C20.1365 10.0042 24.1615 11.5281 27.3552 14.051C27.8365 14.4302 28.3031 14.8312 28.7406 15.2614C29.3385 15.8302 29.9 16.4354 30.4177 17.0771C30.5198 17.2083 30.6219 17.3396 30.724 17.4781C30.8625 17.6531 30.9938 17.8354 31.125 18.0177Z" fill="#C2185B"/>
<path d="M31.125 20.9416V23.3333C31.125 23.8073 31.0813 24.2739 30.9938 24.726C30.8625 25.3968 30.6365 26.0385 30.3302 26.6364C30.1698 26.6729 29.9875 26.6729 29.7833 26.6437C29.324 26.5635 28.7844 26.3229 28.201 26.0093C28.1719 26.0021 28.1427 25.9875 28.1208 25.9729C27.9385 25.8781 27.749 25.776 27.5594 25.6593C27.1729 25.4479 26.7646 25.2146 26.3562 24.9958C26.2687 24.9521 26.1813 24.9083 26.101 24.8646C25.6344 24.6239 25.1531 24.4052 24.6719 24.2375C24.6719 24.2375 24.6719 24.2375 24.6646 24.2375C24.5625 24.201 24.4531 24.1646 24.3438 24.1354C23.9281 24.0187 23.5052 23.9458 23.0969 23.9458L22.2948 23.7125L18.7438 22.6843C18.7438 22.6843 18.7438 22.6843 18.7365 22.6843L16.5563 22.05H16.549L15.601 21.7729C12.8594 21.7729 11.175 22.9396 10.3583 22.4948C10.0375 22.3271 9.84792 21.9041 9.78229 21.0729C9.76042 20.8396 9.75312 20.5771 9.75312 20.2708L8.9 19.8552L8.86354 19.8406H8.85625L8.24375 19.5344L7.57292 19.2135L7.52188 19.1916L7.39792 19.126L5.96875 18.4333L4.875 17.901V15.4C4.99896 15.2906 5.13021 15.1885 5.26146 15.0864C5.4 14.9771 5.53854 14.875 5.67708 14.7656C5.68437 14.7656 5.68438 14.7656 5.68438 14.7656C6.54479 14.1458 7.45625 13.5989 8.42604 13.1469C9.55625 12.6073 10.7594 12.1916 12.0062 11.9219C12.1885 11.8781 12.3781 11.8344 12.5677 11.8052C13.6031 11.6083 14.6677 11.5062 15.7542 11.5062C19.5969 11.5062 23.126 12.7531 25.9698 14.8531C26.7938 15.4656 27.5594 16.1437 28.2594 16.8802C28.8354 17.4854 29.3677 18.1416 29.849 18.8271C29.8854 18.8781 29.9219 18.9291 29.9583 18.9729C30.2281 19.3666 30.476 19.7677 30.7094 20.1833C30.8625 20.4312 30.9938 20.6864 31.125 20.9416Z" fill="#D81B60"/>
<path d="M30.9938 24.726C30.8625 25.3969 30.6365 26.0385 30.3302 26.6365C30.1917 26.9062 30.0385 27.1615 29.8708 27.4094C29.7687 27.5625 29.6594 27.7083 29.55 27.8469C29.2875 27.7448 28.901 27.599 28.4271 27.4385C28.4271 27.4385 28.4271 27.4385 28.4271 27.4312C28.0698 27.3073 27.6615 27.176 27.224 27.0521C27.1 27.0156 26.976 26.9792 26.8448 26.9427C26.3271 26.8042 25.7875 26.6802 25.2625 26.6073C24.825 26.5344 24.3948 26.4906 23.9938 26.4906L23.6583 26.3958H23.651L21.8865 25.8854L20.8 25.5719L19.5896 25.2219H19.5823L19.1885 25.1125L14.4271 23.7417L13.0562 23.3479L12.0354 23.1073L10.3729 22.7135L10.1688 22.6625C10.1688 22.6625 10.1688 22.6625 10.1615 22.6625L8.49167 22.276C8.49167 22.2687 8.49167 22.2687 8.49167 22.2687L8.19271 22.2031L8.03958 22.1667L6.82188 21.8823L6.68333 21.8458L5.64792 20.9927L4.875 20.3437V17.3687C5.14479 17.1062 5.42188 16.8583 5.71354 16.6177C5.80104 16.5375 5.89583 16.4646 5.99063 16.3917C6.07813 16.3187 6.17292 16.2458 6.26771 16.1729C6.93125 15.6698 7.63125 15.2177 8.375 14.8312C9.32292 14.3208 10.3292 13.9125 11.3865 13.6208C11.5906 13.5552 11.7948 13.4969 12.0062 13.4531C13.2021 13.1542 14.4563 13.001 15.7542 13.001C19.0135 13.001 22.0469 13.9854 24.5552 15.6698C25.8021 16.5083 26.925 17.5146 27.8729 18.6594C28.3542 19.2354 28.7917 19.8406 29.1781 20.4823C29.2146 20.5333 29.2437 20.5771 29.2729 20.6281C29.5062 21.0146 29.725 21.4156 29.9219 21.824C30.1042 22.1885 30.2646 22.5531 30.4104 22.9323C30.6438 23.5156 30.8333 24.1135 30.9938 24.726Z" fill="#F50057"/>
<path d="M29.8708 27.4094C29.7687 27.5625 29.6594 27.7083 29.55 27.8469C29.2292 28.2479 28.8792 28.6125 28.4854 28.9333C28.1427 29.2177 27.7781 29.4729 27.3917 29.6917C27.2458 29.6552 27.1 29.6114 26.9469 29.5531C26.4656 29.3854 25.9625 29.1083 25.4958 28.8167C24.7958 28.3719 24.1906 27.8906 23.9208 27.6719C23.8187 27.5844 23.7677 27.5406 23.7677 27.5406L22.5281 27.4312L22.375 27.4167L20.7708 27.2781L19.1083 27.1323L16.651 26.9135L12.7573 26.5708L12.7427 26.5635L11.3719 25.9L9.98646 25.2292L8.87083 24.6896L8.63021 24.5729L8.33125 24.4271L7.29583 23.9239L5.91771 23.2604L5.4875 23.0489L4.875 22.8594V19.6C5.21771 19.1917 5.58229 18.8052 5.96875 18.4333C6.21667 18.2 6.47917 17.9667 6.74896 17.7479C6.79271 17.7114 6.83646 17.675 6.88021 17.6458C6.90938 17.6094 6.94583 17.5875 6.975 17.5729C7.40521 17.2229 7.85729 16.9094 8.32396 16.625C8.86354 16.2823 9.43229 15.976 10.0229 15.7208C10.6573 15.4364 11.3208 15.1958 12.0062 15.0135C13.1948 14.6781 14.4563 14.5031 15.7542 14.5031C18.7292 14.5031 21.4781 15.4073 23.7458 16.9604C25.1969 17.9521 26.451 19.2062 27.4427 20.6573C27.7708 21.1239 28.0625 21.6198 28.3323 22.1302C28.4271 22.3198 28.5219 22.5094 28.6021 22.6989C28.6896 22.8812 28.7698 23.0635 28.85 23.2458C29.0031 23.625 29.1417 24.0042 29.2656 24.3979C29.499 25.1271 29.674 25.8708 29.7833 26.6437C29.8198 26.8989 29.849 27.1542 29.8708 27.4094Z" fill="#FF1744"/>
<path d="M28.4927 28.7438C28.4927 28.8021 28.4927 28.8677 28.4854 28.9333C28.1427 29.2177 27.7781 29.4729 27.3917 29.6917C27.2312 29.7792 27.0708 29.8667 26.9031 29.9396C26.7354 30.0198 26.5677 30.0927 26.3927 30.1583C26.1448 30.0271 25.8094 29.8667 25.4521 29.7135C24.949 29.4875 24.4021 29.2833 23.9792 29.2177C23.8771 29.1958 23.7823 29.1885 23.6948 29.1885L22.499 29.0354H22.4844L20.9969 28.8385L19.4948 28.6417L18.7948 28.5542L13.2823 27.8396C12.925 27.8396 12.5458 27.8177 12.1521 27.7667C11.6708 27.7229 11.1677 27.65 10.6646 27.5479C10.1687 27.4604 9.66562 27.3438 9.18437 27.2198C8.68125 27.1031 8.18542 26.9646 7.72604 26.8333C7.19375 26.6729 6.69792 26.5198 6.28229 26.3813C5.93958 26.2719 5.64792 26.1698 5.42187 26.0896C5.29062 25.776 5.18125 25.4479 5.10104 25.1125C4.94792 24.5438 4.875 23.9458 4.875 23.3333V22.1156C5.10833 21.7292 5.36354 21.35 5.64792 20.9927C6.16562 20.3073 6.75625 19.6802 7.39792 19.126C7.41979 19.0969 7.44896 19.075 7.47083 19.0604L7.47812 19.0531C7.70417 18.849 7.9375 18.6667 8.18542 18.4917C8.21458 18.4625 8.24375 18.4406 8.27292 18.4188C8.38958 18.3313 8.51354 18.2438 8.64479 18.1635C9.6875 17.4563 10.8396 16.9021 12.0719 16.5302C13.2385 16.1802 14.4708 15.9979 15.7542 15.9979C18.299 15.9979 20.676 16.749 22.6594 18.0323C24.125 18.9729 25.3865 20.2125 26.349 21.6635C26.4656 21.8313 26.575 21.999 26.6844 22.174C27.1875 23.0271 27.6031 23.9458 27.9094 24.9083C27.9458 25.0177 27.975 25.1271 28.0042 25.2438C28.0625 25.4406 28.1135 25.6448 28.1573 25.849C28.1719 25.9 28.1865 25.951 28.201 26.0094C28.3031 26.4688 28.376 26.95 28.4271 27.4313C28.4271 27.4385 28.4271 27.4385 28.4271 27.4385C28.4708 27.8688 28.4927 28.3063 28.4927 28.7438Z" fill="#FF5722"/>
<path d="M26.9907 28.7437C26.9907 28.999 26.9761 29.276 26.9469 29.5531C26.9323 29.6844 26.9177 29.8156 26.9031 29.9396C26.7354 30.0198 26.5677 30.0927 26.3927 30.1583C26.0646 30.2823 25.7292 30.3844 25.3865 30.4573C25.1532 30.5083 24.9125 30.5521 24.6719 30.574H24.6646C24.4386 30.4354 24.1761 30.2677 23.9063 30.0781C23.4177 29.7354 22.9073 29.349 22.499 29.0354C22.4917 29.0281 22.4917 29.0281 22.4844 29.0208C22.0542 28.6927 21.7479 28.4448 21.7479 28.4448L20.975 28.474L19.4875 28.525L18.7948 28.5542L16.0094 28.6562L13.6542 28.7437C13.5011 28.751 13.3188 28.751 13.0927 28.7437H13.0854C12.7792 28.7365 12.4146 28.7146 12.0136 28.6781C11.5469 28.6417 11.0365 28.5979 10.5188 28.5469C10.0157 28.4885 9.50524 28.4302 9.0167 28.3719C8.47711 28.3135 7.9667 28.2479 7.5292 28.1896C7.18649 28.1458 6.88753 28.1094 6.64691 28.0802C6.44274 27.8469 6.26045 27.6063 6.08545 27.3438C5.82295 26.95 5.59691 26.5344 5.42191 26.0896C5.29066 25.776 5.18128 25.4479 5.10107 25.1125C5.31253 24.4635 5.58962 23.851 5.91774 23.2604C6.18024 22.7792 6.48649 22.3198 6.82191 21.8823C7.15003 21.4521 7.50732 21.051 7.89378 20.6865V20.6792C8.00316 20.5698 8.11253 20.4677 8.22191 20.3729C8.42607 20.1833 8.63753 20.0083 8.85628 19.8406H8.86357C8.87086 19.826 8.87816 19.826 8.88545 19.8188C9.06045 19.6802 9.24274 19.5562 9.42503 19.4323C10.5042 18.6958 11.7219 18.149 13.0344 17.8281C13.9021 17.6167 14.8136 17.5 15.7542 17.5C17.6063 17.5 19.3563 17.9448 20.8948 18.7469H20.9021C22.2219 19.425 23.3886 20.3583 24.3292 21.4812C24.8469 22.0792 25.2917 22.7354 25.6563 23.4281C25.9115 23.8948 26.1302 24.3833 26.3125 24.8792C26.3271 24.9229 26.3417 24.9594 26.3563 24.9958C26.4802 25.3604 26.5896 25.7396 26.6844 26.1188C26.75 26.3885 26.8011 26.6656 26.8448 26.9427C26.8594 27.0302 26.874 27.1104 26.8813 27.1979C26.9542 27.701 26.9907 28.2187 26.9907 28.7437Z" fill="#FF6F00"/>
<path d="M25.4959 28.7437V28.8167C25.4959 29.0646 25.474 29.3781 25.4521 29.7135C25.4302 29.9615 25.4084 30.2167 25.3865 30.4573C25.1532 30.5083 24.9125 30.5521 24.6719 30.574H24.6646C24.3875 30.6104 24.1177 30.625 23.8334 30.625H22.5573L22.2802 30.5448L20.8438 30.1073L19.3854 29.6698L16.0094 28.6562L14.5511 28.2187C14.5511 28.2187 13.9459 28.4594 13.0927 28.7437H13.0854C12.7573 28.8531 12.4 28.9698 12.0209 29.0865C11.5469 29.225 11.0438 29.3635 10.5479 29.4729C10.0375 29.5896 9.53441 29.6771 9.08232 29.7135C8.94378 29.7281 8.80524 29.7354 8.68128 29.7354C8.27295 29.5094 7.8792 29.2396 7.52191 28.9406C7.20837 28.6781 6.9167 28.3937 6.64691 28.0802C6.44274 27.8469 6.26045 27.6062 6.08545 27.3437C6.13649 27.0156 6.19482 26.6948 6.28232 26.3812C6.50107 25.5135 6.84378 24.6823 7.29587 23.924C7.54378 23.4937 7.82087 23.0781 8.1417 22.6917C8.14899 22.6698 8.17087 22.6479 8.19274 22.6333C8.18545 22.626 8.19274 22.626 8.19274 22.626C8.28753 22.5021 8.38962 22.3854 8.4917 22.276C8.4917 22.2687 8.4917 22.2687 8.4917 22.2687C8.79066 21.9479 9.09691 21.6417 9.43232 21.3573C9.54899 21.2625 9.65836 21.1677 9.78232 21.0729C9.8042 21.051 9.82607 21.0365 9.85524 21.0146C11.4959 19.7604 13.5448 19.0021 15.7542 19.0021C18.2625 19.0021 20.5448 19.9427 22.2729 21.4885C23.1042 22.2396 23.8115 23.1365 24.3438 24.1354C24.3875 24.2083 24.4313 24.2885 24.4677 24.3687C24.5334 24.5 24.599 24.6385 24.6573 24.7844C24.8979 25.3094 25.0875 25.8635 25.2188 26.4323C25.2334 26.4906 25.2479 26.549 25.2625 26.6073C25.3209 26.8771 25.3719 27.1542 25.4084 27.4312C25.4667 27.8615 25.4959 28.299 25.4959 28.7437Z" fill="#FF9800"/>
<path d="M23.9938 28.7438C23.9938 28.8896 23.9865 29.05 23.9792 29.2177C23.9646 29.4875 23.9427 29.7792 23.9063 30.0781C23.8917 30.2604 23.8625 30.4427 23.8334 30.625H19.8375L19.0646 30.5011L16.0459 30.0198L15.6157 29.9542L14.6313 29.7938C14.2011 29.7938 13.2677 29.9833 12.2834 30.1656C11.7657 30.2604 11.2407 30.3625 10.7667 30.4281C10.7084 30.4354 10.65 30.4427 10.599 30.45H10.5917C10.0813 30.3406 9.58545 30.1729 9.11878 29.9542C8.97295 29.8886 8.82712 29.8156 8.68128 29.7354C8.27295 29.5094 7.8792 29.2396 7.52191 28.9406C7.51462 28.8531 7.50732 28.7802 7.50732 28.7438C7.50732 28.5542 7.51462 28.3719 7.5292 28.1896C7.55837 27.7229 7.62399 27.2708 7.72607 26.8333C7.88649 26.1698 8.11982 25.5281 8.43337 24.9375C8.4917 24.8136 8.55732 24.6896 8.63024 24.5729C8.65941 24.5146 8.69587 24.4636 8.72503 24.4052C8.85628 24.1938 9.00212 23.9896 9.14795 23.7854C9.4542 23.3844 9.79691 23.0052 10.1615 22.6625C10.1688 22.6625 10.1688 22.6625 10.1688 22.6625C10.1979 22.6333 10.2271 22.6042 10.2563 22.5823C10.2927 22.5531 10.3219 22.5167 10.3584 22.4948C10.5042 22.3636 10.65 22.2469 10.8032 22.1375C10.8032 22.1302 10.8104 22.1302 10.8104 22.1302C12.1886 21.1021 13.8948 20.4969 15.7542 20.4969C17.1979 20.4969 18.5396 20.8615 19.7136 21.5031H19.7209C20.7271 22.0573 21.6021 22.8083 22.2948 23.7125C22.5646 24.0625 22.8052 24.4344 23.0094 24.8281H23.0167C23.0532 24.9011 23.0896 24.974 23.1261 25.0469C23.3448 25.4771 23.5198 25.9292 23.6511 26.3958H23.6584C23.6657 26.4323 23.6802 26.4688 23.6875 26.5052C23.775 26.8188 23.8479 27.1396 23.899 27.4677C23.9063 27.5333 23.9136 27.6063 23.9209 27.6719C23.9719 28.0219 23.9938 28.3792 23.9938 28.7438Z" fill="#FFC107"/>
<path d="M22.4989 28.6635C22.4989 28.7802 22.4989 28.9042 22.4843 29.0208V29.0281C22.4843 29.0354 22.4843 29.0354 22.4843 29.0354C22.4697 29.5604 22.3968 30.0781 22.2801 30.5448C22.2801 30.574 22.2728 30.5958 22.2582 30.625H18.853L16.0457 30.0198L15.6739 29.9396L15.6155 29.9542L12.502 30.5958L12.3634 30.625H12.1666C11.6999 30.625 11.2405 30.5813 10.7957 30.4938C10.7301 30.4792 10.6645 30.4646 10.5989 30.45H10.5916C10.0812 30.3406 9.58532 30.1729 9.11865 29.9542C9.10407 29.874 9.08949 29.7938 9.08219 29.7135C9.03115 29.4 9.00928 29.0719 9.00928 28.7438C9.00928 28.6198 9.00928 28.4958 9.01657 28.3719C9.03844 27.9781 9.09678 27.5917 9.18428 27.2198C9.24261 26.9427 9.32282 26.6729 9.41761 26.4177C9.49782 26.1917 9.59261 25.9729 9.69469 25.7615C9.78219 25.5792 9.88428 25.4042 9.98636 25.2292C10.0884 25.0615 10.1978 24.901 10.3145 24.7406C10.6062 24.3396 10.9489 23.9677 11.328 23.6396C11.5468 23.45 11.7874 23.2677 12.0353 23.1073C13.0999 22.4073 14.3759 21.999 15.7541 21.999C16.0239 21.999 16.2864 22.0135 16.5416 22.05H16.5562C17.3364 22.1375 18.0655 22.3563 18.7364 22.6844C18.7437 22.6844 18.7437 22.6844 18.7437 22.6844C19.8009 23.2021 20.6978 23.9823 21.3541 24.9448C21.4634 25.1052 21.5728 25.2802 21.6676 25.4552C21.7478 25.5938 21.8207 25.7396 21.8864 25.8854C21.9884 26.1115 22.0832 26.3521 22.1634 26.5927H22.1707C22.2509 26.8625 22.3239 27.1323 22.3749 27.4167V27.424C22.4551 27.825 22.4989 28.2406 22.4989 28.6635Z" fill="#FFD54F"/>
<path d="M20.9971 28.8167V28.8385C20.9971 29.2687 20.9461 29.6917 20.844 30.1073C20.8075 30.2823 20.7565 30.4573 20.6909 30.625H17.4242L15.7544 30.1656L14.0846 30.625H12.1669C11.7002 30.625 11.2409 30.5812 10.7961 30.4937C10.7815 30.4719 10.7742 30.45 10.7669 30.4281C10.6648 30.1146 10.5846 29.801 10.5481 29.4729C10.519 29.2614 10.5044 29.0427 10.5044 28.8167C10.5044 28.7292 10.5044 28.6344 10.519 28.5469C10.5263 28.2042 10.5773 27.8687 10.6648 27.5479C10.7086 27.3292 10.7742 27.1177 10.8617 26.9135C10.8909 26.8114 10.9346 26.7166 10.9856 26.6219C11.095 26.3739 11.2263 26.1333 11.3721 25.9C11.5325 25.6667 11.7075 25.4479 11.9044 25.2437C12.1377 24.9812 12.4002 24.7406 12.6992 24.5437C13.2096 24.1719 13.7929 23.8948 14.4273 23.7417C14.8502 23.625 15.295 23.5667 15.7544 23.5667C17.2127 23.5667 18.5179 24.15 19.4659 25.0906C19.5023 25.1271 19.5461 25.1708 19.5825 25.2219H19.5898C19.6919 25.3312 19.7867 25.4406 19.8815 25.5646C20.1513 25.9073 20.3773 26.2791 20.5523 26.6875C20.6398 26.8771 20.7127 27.0739 20.7711 27.2781C20.7783 27.3073 20.7856 27.3292 20.7929 27.3583C20.895 27.7156 20.9606 28.0875 20.9752 28.4739C20.9898 28.5833 20.9971 28.7 20.9971 28.8167Z" fill="#FFE082"/>
<path d="M19.5022 28.8166C19.5022 29.1156 19.4657 29.4 19.3855 29.6698C19.3126 29.9614 19.2032 30.2385 19.0647 30.501C19.0428 30.5448 18.9918 30.625 18.9918 30.625H12.5168C12.5095 30.6177 12.5022 30.6031 12.5022 30.5958C12.4147 30.4573 12.3418 30.3187 12.2834 30.1656C12.1376 29.8302 12.0501 29.4656 12.0209 29.0864C12.0063 28.9989 12.0063 28.9041 12.0063 28.8166C12.0063 28.7729 12.0063 28.7219 12.0136 28.6781C12.0209 28.3573 12.0647 28.051 12.1522 27.7666C12.2251 27.5041 12.3199 27.2635 12.4438 27.0302C12.4438 27.0302 12.4511 27.0229 12.4511 27.0156C12.5386 26.8625 12.6334 26.7094 12.7428 26.5635C13.1001 26.0823 13.5741 25.6885 14.1209 25.4333C14.1282 25.4333 14.1282 25.4333 14.1282 25.4333C14.3032 25.3458 14.4855 25.2729 14.6751 25.2218C14.6751 25.2218 14.6751 25.2218 14.6824 25.2218C15.0178 25.1198 15.3824 25.0687 15.7543 25.0687C16.1845 25.0687 16.6001 25.1343 16.9793 25.2729C17.1178 25.3093 17.2491 25.3677 17.3803 25.4333C17.3803 25.4333 17.3803 25.4333 17.3876 25.4333C18.0147 25.7323 18.547 26.1989 18.9116 26.7823C18.9845 26.8916 19.0501 27.0083 19.1084 27.1323C19.1376 27.1833 19.1668 27.2416 19.1886 27.2927C19.3563 27.6719 19.4584 28.0875 19.4876 28.525C19.4949 28.5614 19.4949 28.5979 19.4949 28.6416C19.5022 28.7 19.5022 28.7583 19.5022 28.8166Z" fill="#FFECB3"/>
<path d="M22.3752 8.02081H13.6252C10.7814 8.02081 8.521 10.2812 8.521 13.125V21.875C8.521 24.7187 10.7814 26.9791 13.6252 26.9791H22.3752C25.2189 26.9791 27.4793 24.7187 27.4793 21.875V13.125C27.4793 10.2812 25.2189 8.02081 22.3752 8.02081Z" stroke="white" stroke-width="1.04167" stroke-miterlimit="10" stroke-linecap="round" stroke-linejoin="round"/>
<path d="M23.1042 12.3958C23.5069 12.3958 23.8333 12.0694 23.8333 11.6667C23.8333 11.264 23.5069 10.9375 23.1042 10.9375C22.7015 10.9375 22.375 11.264 22.375 11.6667C22.375 12.0694 22.7015 12.3958 23.1042 12.3958Z" fill="white"/>
<path d="M18 21.875C20.4162 21.875 22.375 19.9162 22.375 17.5C22.375 15.0838 20.4162 13.125 18 13.125C15.5838 13.125 13.625 15.0838 13.625 17.5C13.625 19.9162 15.5838 21.875 18 21.875Z" stroke="white" stroke-width="1.04167" stroke-miterlimit="10" stroke-linecap="round" stroke-linejoin="round"/>
</svg>
