<svg width="16" height="16" viewBox="0 0 16 16" fill="none" xmlns="http://www.w3.org/2000/svg">
<path d="M13.3872 5.78119C12.7309 2.89369 10.2122 1.59369 7.99969 1.59369C7.99969 1.59369 7.99969 1.59369 7.99344 1.59369C5.78719 1.59369 3.26219 2.88744 2.60594 5.77494C1.87469 8.99994 3.84969 11.7312 5.63719 13.4499C6.29969 14.0874 7.14969 14.4062 7.99969 14.4062C8.84969 14.4062 9.69969 14.0874 10.3559 13.4499C12.1434 11.7312 14.1184 9.00619 13.3872 5.78119ZM7.99969 8.91244C6.91219 8.91244 6.03094 8.03119 6.03094 6.94369C6.03094 5.85619 6.91219 4.97494 7.99969 4.97494C9.08719 4.97494 9.96844 5.85619 9.96844 6.94369C9.96844 8.03119 9.08719 8.91244 7.99969 8.91244Z" fill="#199675"/>
</svg>
