<svg width="41" height="38" viewBox="0 0 41 38" fill="none" xmlns="http://www.w3.org/2000/svg">
<g clip-path="url(#clip0_8738_9437)">
<mask id="mask0_8738_9437" style="mask-type:luminance" maskUnits="userSpaceOnUse" x="0" y="0" width="41" height="37">
<path d="M40.4936 0H0.5V37H40.4936V0Z" fill="white"/>
</mask>
<g mask="url(#mask0_8738_9437)">
<path d="M1.40594 2.12364V2.09631H1.43375C2.02078 1.52344 2.81392 1.20254 3.64015 1.20362H8.55651C3.94073 3.04539 4.25791 2.91486 4.10588 2.98901H3.63999C2.90763 2.98901 2.3118 3.57631 2.3118 4.29768V32.7017C2.3118 33.4233 2.90786 34.0104 3.63999 34.0104H4.10532C4.25807 34.0846 3.94518 33.9555 8.55596 35.7958H3.63999C2.81377 35.7968 2.02064 35.4759 1.4336 34.9031H1.40578V34.8757C0.824395 34.2973 0.498712 33.5159 0.499758 32.7018V4.2976C0.498742 3.4835 0.824484 2.70203 1.40594 2.12364Z" fill="#199675"/>
<path d="M3.67098 5.83339C3.67113 5.4683 3.78185 5.11156 3.98898 4.80885C4.1961 4.50613 4.4902 4.2712 4.83362 4.13413C4.87638 4.11706 17.5568 0.180176 17.8329 0.0699985C18.4628 -0.181366 19.1507 0.275241 19.1507 0.945004V36.0548C19.1507 36.7244 18.4629 37.1812 17.8329 36.9298C17.7698 36.9046 7.76612 34.0358 7.70262 34.0105L4.83355 32.8658C4.49003 32.7287 4.19587 32.4936 3.98874 32.1908C3.78161 31.8879 3.67094 31.531 3.6709 31.1658L3.67098 5.83339Z" fill="#199675"/>
<path d="M22.9784 13.9002C22.6947 14.0184 22.4528 14.2162 22.2826 14.4692C22.1125 14.7221 22.0219 15.0187 22.0219 15.3222V21.6774C22.0219 21.8801 22.0623 22.0808 22.141 22.2682C22.2197 22.4555 22.3351 22.6256 22.4806 22.769C22.626 22.9124 22.7987 23.0261 22.9888 23.1037C23.1789 23.1813 23.3826 23.2212 23.5883 23.2212H24.9651V31.6212C24.9651 31.8997 24.8528 32.1668 24.6529 32.3639C24.453 32.5608 24.1818 32.6715 23.8992 32.6715H20.5098V4.32812H23.8995C24.1822 4.32812 24.4533 4.43878 24.6532 4.63574C24.8531 4.8327 24.9654 5.09983 24.9654 5.37838V13.7784H23.5883C23.3788 13.7782 23.1713 13.8196 22.9784 13.9002Z" fill="#199675"/>
<path d="M24.9962 2.98901H20.5098V1.20362H24.9962C25.8225 1.20256 26.6155 1.52345 27.2026 2.09631H27.2304V2.12364C27.8118 2.70205 28.1374 3.48352 28.1364 4.2976V13.7782H26.3244V4.29768C26.3244 3.57608 25.7286 2.98901 24.9962 2.98901Z" fill="#199675"/>
<path d="M28.1364 32.7018C28.1375 33.5159 27.8118 34.2974 27.2304 34.8758V34.9032H27.2026C26.6155 35.476 25.8225 35.7969 24.9962 35.7959H20.5098V34.0105H24.9962C25.7286 34.0105 26.3244 33.4232 26.3244 32.7018V23.2212H28.1364V32.7018Z" fill="#199675"/>
<path d="M23.5884 15.1173H31.3937C31.421 15.1173 31.448 15.112 31.4732 15.1017C31.4985 15.0914 31.5214 15.0763 31.5407 15.0573C31.5599 15.0383 31.5753 15.0157 31.5857 14.9909C31.5962 14.966 31.6015 14.9394 31.6015 14.9125V11.7168C31.6015 11.5445 31.8045 11.4492 31.9403 11.5579L40.4168 18.3407C40.4408 18.3599 40.4601 18.3842 40.4734 18.4116C40.4867 18.4391 40.4936 18.4692 40.4936 18.4997C40.4936 18.5301 40.4867 18.5602 40.4734 18.5877C40.4601 18.6152 40.4408 18.6394 40.4168 18.6586L31.9406 25.4414C31.8049 25.5501 31.6018 25.4549 31.6018 25.2825V22.0868C31.6018 22.06 31.5965 22.0333 31.586 22.0084C31.5756 21.9836 31.5602 21.9611 31.541 21.942C31.5217 21.923 31.4988 21.908 31.4735 21.8976C31.4483 21.8874 31.4213 21.8821 31.394 21.8821H23.5884C23.5333 21.8821 23.4804 21.8605 23.4415 21.8221C23.4025 21.7837 23.3806 21.7316 23.3806 21.6773V15.322C23.3806 15.2678 23.4025 15.2156 23.4415 15.1773C23.4804 15.1389 23.5333 15.1173 23.5884 15.1173Z" fill="#199675"/>
</g>
</g>
<defs>
<clipPath id="clip0_8738_9437">
<rect width="40" height="38" fill="white" transform="translate(0.5)"/>
</clipPath>
</defs>
</svg>
