<svg width="42" height="42" viewBox="0 0 42 42" fill="none" xmlns="http://www.w3.org/2000/svg">
<mask id="mask0_147_2713" style="mask-type:luminance" maskUnits="userSpaceOnUse" x="0" y="0" width="42" height="42">
<path d="M42 0H0V42H42V0Z" fill="white"/>
</mask>
<g mask="url(#mask0_147_2713)">
<path d="M41.9998 20.9999C41.9998 27.9333 36.3998 33.5999 29.3998 33.5999C22.4664 33.5999 16.7998 27.9333 16.7998 20.9999C16.7998 14.0665 22.3998 8.3999 29.3332 8.3999C36.3998 8.3999 41.9998 14.0665 41.9998 20.9999Z" fill="#FFB600"/>
<path d="M29.3998 8.3999C36.3332 8.3999 41.9998 14.0665 41.9998 20.9999C41.9998 27.9333 36.3998 33.5999 29.3998 33.5999C22.4664 33.5999 16.7998 27.9333 16.7998 20.9999" fill="#F7981D"/>
<path d="M29.4004 8.3999C36.3338 8.3999 42.0004 14.0665 42.0004 20.9999C42.0004 27.9333 36.4004 33.5999 29.4004 33.5999" fill="#FF8500"/>
<path d="M12.4667 8.3999C5.6 8.46654 0 14.0665 0 20.9999C0 27.9333 5.6 33.5999 12.6 33.5999C15.8666 33.5999 18.8 32.3332 21.0666 30.3333C21.5334 29.9333 21.9334 29.4665 22.3334 28.9999H19.7333C19.3999 28.5999 19.0666 28.1332 18.8 27.7332H23.2666C23.5333 27.3332 23.8 26.8666 24.0001 26.3998H18.0667C17.8667 25.9999 17.6666 25.5332 17.5333 25.0666H24.4667C24.8667 23.7999 25.1334 22.4665 25.1334 21.0665C25.1334 20.1333 24.9999 19.2666 24.8667 18.4H17.1333C17.2 17.9332 17.3334 17.5332 17.4667 17.0666H24.4C24.2666 16.5998 24.0667 16.1332 23.8666 15.7332H17.9999C18.2 15.2666 18.4667 14.8665 18.7334 14.3999H23.2C22.9334 13.9333 22.6001 13.4665 22.1999 13.0665H19.7333C20.1334 12.5999 20.5334 12.1999 21 11.7999C18.8 9.73326 15.8 8.53318 12.5334 8.53318C12.5334 8.3999 12.5334 8.3999 12.4667 8.3999Z" fill="#FF5050"/>
<path d="M0 20.9999C0 27.9333 5.6 33.5999 12.6 33.5999C15.8666 33.5999 18.8 32.3332 21.0666 30.3332C21.5334 29.9332 21.9334 29.4666 22.3334 28.9999H19.7333C19.3999 28.6 19.0666 28.1332 18.8 27.7332H23.2666C23.5333 27.3332 23.8 26.8666 24.0001 26.3999H18.0667C17.8667 25.9999 17.6666 25.5333 17.5333 25.0665H24.4667C24.8667 23.7999 25.1334 22.4666 25.1334 21.0666C25.1334 20.1332 24.9999 19.2666 24.8667 18.3998H17.1333C17.2 17.9332 17.3334 17.5332 17.4667 17.0666H24.4C24.2666 16.5999 24.0667 16.1332 23.8666 15.7333H17.9999C18.2 15.2665 18.4667 14.8665 18.7334 14.3999H23.2C22.9334 13.9333 22.6001 13.4665 22.1999 13.0665H19.7333C20.1334 12.5999 20.5334 12.1999 21 11.7998C18.8 9.73328 15.8 8.5332 12.5334 8.5332H12.4667" fill="#E52836"/>
<path d="M12.6011 33.5999C15.8678 33.5999 18.8011 32.3332 21.0677 30.3332C21.5345 29.9332 21.9344 29.4666 22.3344 28.9999H19.7345C19.4011 28.6 19.0678 28.1332 18.8011 27.7332H23.2678C23.5344 27.3332 23.8011 26.8666 24.0011 26.3999H18.0678C17.8677 25.9999 17.6678 25.5333 17.5344 25.0665H24.4677C24.8677 23.7999 25.1344 22.4666 25.1344 21.0666C25.1344 20.1332 25.0011 19.2666 24.8677 18.3998H17.1344C17.201 17.9332 17.3345 17.5332 17.4677 17.0666H24.4011C24.2678 16.5999 24.0678 16.1332 23.8677 15.7333H18.0011C18.2011 15.2665 18.4678 14.8665 18.7345 14.3999H23.2012C22.9345 13.9333 22.6011 13.4665 22.2011 13.0665H19.7345C20.1345 12.5999 20.5344 12.1999 21.0011 11.7998C18.8011 9.73328 15.801 8.5332 12.5344 8.5332H12.4678" fill="#CB2026"/>
<path d="M17.0672 24.2L17.2672 23.0666C17.2005 23.0666 17.0672 23.1333 16.9339 23.1333C16.4671 23.1333 16.4005 22.8666 16.4671 22.7333L16.8671 20.3999H17.6006L17.8005 19.1334H17.1338L17.2672 18.3333H15.9339C15.9339 18.3333 15.1338 22.7333 15.1338 23.2666C15.1338 24.0667 15.6005 24.4 16.2006 24.4C16.6006 24.4 16.9339 24.2666 17.0672 24.2Z" fill="white"/>
<path d="M17.5332 22.067C17.5332 23.9337 18.7998 24.4003 19.8666 24.4003C20.8665 24.4003 21.2666 24.2004 21.2666 24.2004L21.5331 22.9337C21.5331 22.9337 20.7998 23.267 20.1331 23.267C18.6665 23.267 18.9332 22.2004 18.9332 22.2004H21.6666C21.6666 22.2004 21.8665 21.3336 21.8665 21.0003C21.8665 20.1337 21.3999 19.067 19.9332 19.067C18.5332 18.9336 17.5332 20.4004 17.5332 22.067ZM19.8666 20.1337C20.5999 20.1337 20.4665 21.0003 20.4665 21.0671H18.9998C18.9998 21.0003 19.1331 20.1337 19.8666 20.1337Z" fill="white"/>
<path d="M28.3337 24.2001L28.6003 22.7335C28.6003 22.7335 27.9338 23.0668 27.467 23.0668C26.5338 23.0668 26.1336 22.3335 26.1336 21.5334C26.1336 19.9335 26.9337 19.0668 27.867 19.0668C28.5337 19.0668 29.0671 19.4667 29.0671 19.4667L29.267 18.0667C29.267 18.0667 28.467 17.7334 27.7337 17.7334C26.2004 17.7334 24.667 19.0668 24.667 21.6001C24.667 23.2668 25.467 24.4001 27.067 24.4001C27.6004 24.4001 28.3337 24.2001 28.3337 24.2001Z" fill="white"/>
<path d="M9.73252 18.9331C8.79928 18.9331 8.1326 19.1998 8.1326 19.1998L7.93254 20.3331C7.93254 20.3331 8.53258 20.0664 9.39932 20.0664C9.86594 20.0664 10.2659 20.133 10.2659 20.5332C10.2659 20.7997 10.1993 20.8665 10.1993 20.8665C10.1993 20.8665 9.7993 20.8665 9.59924 20.8665C8.46594 20.8665 7.19922 21.3331 7.19922 22.8664C7.19922 24.0665 7.99932 24.333 8.46594 24.333C9.39918 24.333 9.7993 23.7331 9.86594 23.7331L9.7993 24.2664H10.9992L11.5326 20.5998C11.5326 18.9997 10.1993 18.9331 9.73252 18.9331ZM9.99922 21.9332C9.99922 22.1331 9.86594 23.1997 9.06598 23.1997C8.66586 23.1997 8.53258 22.8664 8.53258 22.6665C8.53258 22.3331 8.73264 21.8664 9.73252 21.8664C9.93258 21.9332 9.99922 21.9332 9.99922 21.9332Z" fill="white"/>
<path d="M12.7999 24.3337C13.1332 24.3337 14.7999 24.4003 14.7999 22.6003C14.7999 20.9336 13.1999 21.267 13.1999 20.6003C13.1999 20.2669 13.4666 20.1337 13.9332 20.1337C14.1332 20.1337 14.8666 20.2003 14.8666 20.2003L15.0666 19.0002C15.0666 19.0002 14.5999 18.8669 13.7999 18.8669C12.7999 18.8669 11.7999 19.2669 11.7999 20.6003C11.7999 22.1336 13.4666 22.0003 13.4666 22.6003C13.4666 23.0003 12.9999 23.0669 12.6666 23.0669C12.0666 23.0669 11.4665 22.8669 11.4665 22.8669L11.2666 24.067C11.3332 24.2002 11.6666 24.3337 12.7999 24.3337Z" fill="white"/>
<path d="M39.4005 17.8667L39.1339 19.6667C39.1339 19.6667 38.6005 19 37.8672 19C36.6672 19 35.6006 20.4666 35.6006 22.2C35.6006 23.2666 36.1338 24.3999 37.2671 24.3999C38.0672 24.3999 38.5339 23.8667 38.5339 23.8667L38.4672 24.3333H39.8006L40.8005 17.9333L39.4005 17.8667ZM38.8006 21.4C38.8006 22.1333 38.4672 23.0666 37.7339 23.0666C37.2671 23.0666 37.0006 22.6666 37.0006 21.9999C37.0006 20.9333 37.4672 20.2666 38.0672 20.2666C38.5339 20.2666 38.8006 20.5999 38.8006 21.4Z" fill="white"/>
<path d="M2.46686 24.2667L3.26686 19.4666L3.40018 24.2667H4.33352L6.06679 19.4666L5.33353 24.2667H6.73347L7.80013 17.8667H5.60019L4.26685 21.8L4.20019 17.8667H2.26686L1.2002 24.2667H2.46686Z" fill="white"/>
<path d="M23.1336 24.2669C23.5336 22.067 23.6003 20.267 24.5336 20.6003C24.6669 19.7336 24.867 19.4002 25.0003 19.0669C25.0003 19.0669 24.9336 19.0669 24.7336 19.0669C24.1337 19.0669 23.6669 19.867 23.6669 19.867L23.8003 19.1337H22.5336L21.667 24.3336H23.1336V24.2669Z" fill="white"/>
<path d="M31.4005 18.9331C30.4672 18.9331 29.8006 19.1998 29.8006 19.1998L29.6005 20.3331C29.6005 20.3331 30.2005 20.0664 31.0671 20.0664C31.5339 20.0664 31.9339 20.133 31.9339 20.5332C31.9339 20.7997 31.8672 20.8665 31.8672 20.8665C31.8672 20.8665 31.4671 20.8665 31.2672 20.8665C30.1339 20.8665 28.8672 21.3331 28.8672 22.8664C28.8672 24.0665 29.6671 24.333 30.1339 24.333C31.0671 24.333 31.4671 23.7331 31.5339 23.7331L31.4671 24.2664H32.6672L33.2005 20.5998C33.2672 18.9997 31.8672 18.9331 31.4005 18.9331ZM31.7338 21.9332C31.7338 22.1331 31.6005 23.1997 30.8006 23.1997C30.4005 23.1997 30.2672 22.8664 30.2672 22.6665C30.2672 22.3331 30.4672 21.8664 31.4671 21.8664C31.6672 21.9332 31.6672 21.9332 31.7338 21.9332Z" fill="white"/>
<path d="M34.3338 24.2669C34.7338 22.067 34.8004 20.267 35.7338 20.6003C35.8671 19.7336 36.0672 19.4002 36.2004 19.0669C36.2004 19.0669 36.1338 19.0669 35.9337 19.0669C35.3338 19.0669 34.8671 19.867 34.8671 19.867L35.0005 19.1337H33.7338L32.8672 24.3336H34.3338V24.2669Z" fill="white"/>
<path d="M14.999 23.2666C14.999 24.0667 15.4658 24.4 16.0657 24.4C16.5324 24.4 16.9324 24.2666 17.0657 24.2L17.2658 23.0666C17.1991 23.0666 17.0657 23.1333 16.9324 23.1333C16.4658 23.1333 16.399 22.8666 16.4658 22.7333L16.8658 20.3999H17.5991L17.799 19.1334H17.1323L17.2658 18.3333" fill="#DCE5E5"/>
<path d="M18.2002 22.067C18.2002 23.9337 18.8002 24.4003 19.8669 24.4003C20.8669 24.4003 21.2669 24.2004 21.2669 24.2004L21.5335 22.9337C21.5335 22.9337 20.8001 23.267 20.1335 23.267C18.6668 23.267 18.9335 22.2004 18.9335 22.2004H21.6669C21.6669 22.2004 21.8668 21.3336 21.8668 21.0003C21.8668 20.1337 21.4002 19.067 19.9335 19.067C18.5335 18.9336 18.2002 20.4004 18.2002 22.067ZM19.8669 20.1337C20.6002 20.1337 20.7335 21.0003 20.7335 21.0671H19.0002C19.0002 21.0003 19.1336 20.1337 19.8669 20.1337Z" fill="#DCE5E5"/>
<path d="M28.3329 24.2001L28.5996 22.7335C28.5996 22.7335 27.9329 23.0668 27.4663 23.0668C26.5329 23.0668 26.133 22.3335 26.133 21.5334C26.133 19.9335 26.9329 19.0668 27.8663 19.0668C28.533 19.0668 29.0664 19.4667 29.0664 19.4667L29.2663 18.0667C29.2663 18.0667 28.4663 17.7334 27.733 17.7334C26.1996 17.7334 25.333 19.0668 25.333 21.6001C25.333 23.2668 25.4663 24.4001 27.0663 24.4001C27.5996 24.4001 28.3329 24.2001 28.3329 24.2001Z" fill="#DCE5E5"/>
<path d="M7.93254 20.4003C7.93254 20.4003 8.53258 20.1336 9.39932 20.1336C9.86594 20.1336 10.2659 20.2003 10.2659 20.6003C10.2659 20.867 10.1993 20.9337 10.1993 20.9337C10.1993 20.9337 9.7993 20.9337 9.59924 20.9337C8.46594 20.9337 7.19922 21.4003 7.19922 22.9336C7.19922 24.1336 7.99932 24.4003 8.46594 24.4003C9.39918 24.4003 9.7993 23.8003 9.86594 23.8003L9.7993 24.3336H10.9992L11.5326 20.667C11.5326 19.1337 10.1993 19.0669 9.66588 19.0669L7.93254 20.4003ZM10.6659 21.9337C10.6659 22.1336 9.86594 23.2003 9.06598 23.2003C8.66586 23.2003 8.53258 22.8669 8.53258 22.667C8.53258 22.3337 8.73264 21.8669 9.73252 21.8669C9.93258 21.9337 10.6659 21.9337 10.6659 21.9337Z" fill="#DCE5E5"/>
<path d="M11.333 24.2002C11.333 24.2002 11.733 24.3337 12.8664 24.3337C13.1996 24.3337 14.8663 24.4003 14.8663 22.6003C14.8663 20.9336 13.2664 21.267 13.2664 20.6003C13.2664 20.2669 13.533 20.1337 13.9997 20.1337C14.1996 20.1337 14.933 20.2003 14.933 20.2003L15.133 19.0002C15.133 19.0002 14.6664 18.8669 13.8663 18.8669C12.8664 18.8669 12.5331 19.2669 12.5331 20.6003C12.5331 22.1336 13.533 22.0003 13.533 22.6003C13.533 23.0003 13.0663 23.0669 12.733 23.0669" fill="#DCE5E5"/>
<path d="M39.1332 19.6667C39.1332 19.6667 38.5999 19 37.8666 19C36.6665 19 36.2666 20.4666 36.2666 22.2C36.2666 23.2666 36.1333 24.3999 37.2666 24.3999C38.0665 24.3999 38.5333 23.8667 38.5333 23.8667L38.4665 24.3333H39.7999L40.7999 17.9333L39.1332 19.6667ZM39.0666 21.4C39.0666 22.1334 38.4665 23.0666 37.7332 23.0666C37.2666 23.0666 36.9999 22.6666 36.9999 21.9999C36.9999 20.9333 37.4665 20.2666 38.0665 20.2666C38.5333 20.2666 39.0666 20.5999 39.0666 21.4Z" fill="#DCE5E5"/>
<path d="M2.46686 24.2667L3.26686 19.4666L3.40018 24.2667H4.33352L6.06679 19.4666L5.33353 24.2667H6.73347L7.80013 17.8667H6.13357L4.26685 21.8L4.20019 17.8667H3.46685L1.2002 24.2667H2.46686Z" fill="#DCE5E5"/>
<path d="M21.7324 24.2669H23.1324C23.5324 22.067 23.599 20.267 24.5324 20.6003C24.6657 19.7336 24.8658 19.4002 24.999 19.0669C24.999 19.0669 24.9324 19.0669 24.7325 19.0669C24.1324 19.0669 23.6658 19.867 23.6658 19.867L23.7991 19.1337" fill="#DCE5E5"/>
<path d="M29.6005 20.4003C29.6005 20.4003 30.2005 20.1336 31.0671 20.1336C31.5339 20.1336 31.9339 20.2003 31.9339 20.6003C31.9339 20.867 31.8672 20.9337 31.8672 20.9337C31.8672 20.9337 31.4671 20.9337 31.2672 20.9337C30.1339 20.9337 28.8672 21.4003 28.8672 22.9336C28.8672 24.1336 29.6671 24.4003 30.1339 24.4003C31.0671 24.4003 31.4671 23.8003 31.5339 23.8003L31.4671 24.3336H32.6672L33.2005 20.667C33.2005 19.1337 31.8672 19.0669 31.3338 19.0669L29.6005 20.4003ZM32.3339 21.9337C32.3339 22.1336 31.5339 23.2003 30.7338 23.2003C30.3338 23.2003 30.2005 22.8669 30.2005 22.667C30.2005 22.3337 30.4005 21.8669 31.4005 21.8669C31.6672 21.9337 32.3339 21.9337 32.3339 21.9337Z" fill="#DCE5E5"/>
<path d="M32.9326 24.2669H34.3326C34.7326 22.067 34.7992 20.267 35.7326 20.6003C35.8659 19.7336 36.066 19.4002 36.1992 19.0669C36.1992 19.0669 36.1326 19.0669 35.9325 19.0669C35.3326 19.0669 34.8659 19.867 34.8659 19.867L34.9993 19.1337" fill="#DCE5E5"/>
</g>
</svg>
