<svg width="20" height="20" viewBox="0 0 20 20" fill="none" xmlns="http://www.w3.org/2000/svg">
<path d="M15.3918 14.025L15.7168 16.6583C15.8002 17.35 15.0585 17.8333 14.4668 17.475L11.5835 15.7583C11.3835 15.6416 11.3335 15.3916 11.4418 15.1916C11.8585 14.425 12.0835 13.5583 12.0835 12.6916C12.0835 9.64163 9.46682 7.15829 6.25016 7.15829C5.59182 7.15829 4.95016 7.25829 4.35016 7.45829C4.04182 7.55829 3.74182 7.27496 3.81682 6.95829C4.57516 3.92496 7.49182 1.66663 10.9752 1.66663C15.0418 1.66663 18.3335 4.74163 18.3335 8.53329C18.3335 10.7833 17.1752 12.775 15.3918 14.025Z" fill="#199675"/>
<path d="M10.8332 12.6917C10.8332 13.6833 10.4665 14.6 9.84984 15.325C9.02484 16.325 7.7165 16.9667 6.24984 16.9667L4.07484 18.2583C3.70817 18.4833 3.2415 18.175 3.2915 17.75L3.49984 16.1083C2.38317 15.3333 1.6665 14.0917 1.6665 12.6917C1.6665 11.225 2.44984 9.93332 3.64984 9.16666C4.3915 8.68333 5.28317 8.40833 6.24984 8.40833C8.78317 8.40833 10.8332 10.325 10.8332 12.6917Z" fill="#199675"/>
</svg>
