<svg width="32" height="32" viewBox="0 0 32 32" fill="none" xmlns="http://www.w3.org/2000/svg">
<path d="M25.0668 10.5869L27.311 8.50695C27.5636 8.26578 27.7112 7.93498 27.7219 7.58595C27.7327 7.23692 27.6058 6.89766 27.3685 6.6414C27.1313 6.38515 26.8029 6.23245 26.454 6.21627C26.1052 6.2001 25.764 6.32174 25.5041 6.55495L25.0668 6.96028L24.5334 7.46695V10.1336L25.0668 10.5869Z" fill="#27AF4D"/>
<path d="M17.0666 29.3329L15.3552 31.0455C15.0864 31.3143 14.722 31.4656 14.3418 31.4663H4.73489C4.64893 31.4667 4.56456 31.4432 4.49115 31.3985C4.41774 31.3537 4.35818 31.2895 4.3191 31.213C4.28002 31.1364 4.26295 31.0505 4.26978 30.9648C4.27662 30.8791 4.3071 30.797 4.35782 30.7276C5.27354 29.5648 5.80293 28.1448 5.87196 26.6663C5.87196 23.9996 5.33329 23.4663 5.33329 21.3329C5.33329 19.1996 6.40529 17.5996 6.40529 14.9329V10.6663C6.40529 10.3834 6.51767 10.1121 6.71771 9.91203C6.91775 9.71199 7.18906 9.59961 7.47196 9.59961C7.68176 9.59982 7.88947 9.64139 8.08319 9.72193C8.27692 9.80248 8.45287 9.92043 8.60098 10.069C8.74908 10.2176 8.86644 10.394 8.94634 10.588C9.02624 10.782 9.06712 10.9898 9.06663 11.1996L17.0666 29.3329Z" fill="#27AF4D"/>
<path d="M11.2 1.2832H22.9333C23.6973 1.2832 24.3167 1.90254 24.3167 2.66654V27.1999C24.3167 27.9639 23.6973 28.5832 22.9333 28.5832H11.2C10.436 28.5832 9.81665 27.9639 9.81665 27.1999V2.66654C9.81665 1.90254 10.436 1.2832 11.2 1.2832Z" fill="white" stroke="#27AF4D" stroke-width="1.5"/>
<path d="M25.0667 21.4668L27.3109 19.3868C27.5635 19.1457 27.711 18.8149 27.7218 18.4658C27.7326 18.1168 27.6056 17.7775 27.3684 17.5213C27.1312 17.265 26.8027 17.1123 26.4539 17.0962C26.1051 17.08 25.7639 17.2016 25.504 17.4348L25.0667 17.8402V21.4668Z" fill="#27AF4D" fill-opacity="0.7"/>
<path d="M25.0667 17.8399L27.3109 15.7599C27.5635 15.5187 27.711 15.1879 27.7218 14.8389C27.7326 14.4899 27.6056 14.1506 27.3684 13.8943C27.1312 13.6381 26.8027 13.4854 26.4539 13.4692C26.1051 13.453 25.7639 13.5747 25.504 13.8079L25.0667 14.2132V17.8399Z" fill="#27AF4D"/>
<path d="M25.0667 14.2129L27.3109 12.1329C27.5635 11.8918 27.711 11.561 27.7218 11.2119C27.7326 10.8629 27.6056 10.5236 27.3684 10.2674C27.1312 10.0111 26.8027 9.85842 26.4539 9.84225C26.1051 9.82607 25.7639 9.94772 25.504 10.1809L25.0667 10.5863V14.2129Z" fill="#27AF4D" fill-opacity="0.7"/>
<path d="M17.0667 19.7331C20.0123 19.7331 22.4001 17.3453 22.4001 14.3997C22.4001 11.4542 20.0123 9.06641 17.0667 9.06641C14.1212 9.06641 11.7334 11.4542 11.7334 14.3997C11.7334 17.3453 14.1212 19.7331 17.0667 19.7331Z" fill="#27AF4D"/>
<path d="M15.881 17.0662C15.7396 17.0662 15.6039 17.01 15.5039 16.91L14.5562 15.9622C14.4591 15.8616 14.4053 15.7269 14.4065 15.5871C14.4077 15.4472 14.4638 15.3135 14.5627 15.2146C14.6616 15.1157 14.7954 15.0596 14.9352 15.0584C15.075 15.0572 15.2098 15.1109 15.3103 15.2081L15.8314 15.7286L18.7791 11.9387C18.8215 11.8818 18.8749 11.8338 18.936 11.7977C18.9972 11.7616 19.0649 11.7381 19.1353 11.7285C19.2057 11.7189 19.2773 11.7235 19.3459 11.742C19.4144 11.7605 19.4786 11.7924 19.5347 11.8361C19.5907 11.8797 19.6375 11.9341 19.6723 11.996C19.707 12.0579 19.729 12.1262 19.7371 12.1968C19.7451 12.2673 19.7389 12.3388 19.7189 12.407C19.699 12.4751 19.6656 12.5386 19.6207 12.5937L16.3018 16.8603C16.2557 16.9203 16.1973 16.9697 16.1305 17.0052C16.0637 17.0407 15.9901 17.0615 15.9146 17.0662H15.881Z" fill="white"/>
<path d="M20.2666 27.7337H13.8666C13.7251 27.7337 13.5895 27.6775 13.4895 27.5774C13.3894 27.4774 13.3333 27.3418 13.3333 27.2003C13.3333 27.0589 13.3894 26.9232 13.4895 26.8232C13.5895 26.7232 13.7251 26.667 13.8666 26.667H20.2666C20.408 26.667 20.5437 26.7232 20.6437 26.8232C20.7437 26.9232 20.7999 27.0589 20.7999 27.2003C20.7999 27.3418 20.7437 27.4774 20.6437 27.5774C20.5437 27.6775 20.408 27.7337 20.2666 27.7337Z" fill="white"/>
</svg>
