<svg width="42" height="42" viewBox="0 0 42 42" fill="none" xmlns="http://www.w3.org/2000/svg">
<g clip-path="url(#clip0_147_2732)">
<mask id="mask0_147_2732" style="mask-type:luminance" maskUnits="userSpaceOnUse" x="0" y="0" width="42" height="42">
<path d="M42 0H0V42H42V0Z" fill="white"/>
</mask>
<g mask="url(#mask0_147_2732)">
<mask id="mask1_147_2732" style="mask-type:luminance" maskUnits="userSpaceOnUse" x="6" y="6" width="30" height="30">
<path d="M36 6H6V36H36V6Z" fill="white"/>
</mask>
<g mask="url(#mask1_147_2732)">
<path d="M30.9294 12.8987C30.8394 12.8457 30.7376 12.8161 30.6332 12.8126C30.5289 12.8091 30.4253 12.8318 30.332 12.8787C30.2388 12.9257 30.1588 12.9953 30.0994 13.0811C30.0401 13.1669 30.0031 13.2662 29.9919 13.37C29.9694 13.575 29.9345 13.7799 29.8907 13.995C28.667 19.5487 26.2094 22.25 22.3757 22.25H16.7507C16.6068 22.2502 16.4674 22.3001 16.3561 22.3912C16.2447 22.4823 16.1682 22.609 16.1394 22.7499L14.2644 31.5387L13.9295 33.7762C13.7369 34.7937 14.4055 35.7747 15.4229 35.9673C15.5352 35.9885 15.649 35.9994 15.7632 36H19.5257C20.3881 36.0026 21.1399 35.414 21.3444 34.5762L22.8644 28.5H26.1257C29.9744 28.5 32.6345 25.4312 33.6157 19.8587C34.2634 17.2053 33.1918 14.429 30.9294 12.8987Z" fill="#03A9F4"/>
<path d="M29.7505 8.22755C29.1398 7.53484 28.3901 6.97849 27.5502 6.59471C26.7102 6.21092 25.7989 6.00831 24.8755 6.00005H14.5255C12.9766 5.99173 11.6579 7.12499 11.433 8.65751L8.21933 30.0963C8.0654 31.1203 8.77069 32.0752 9.79474 32.2292C9.88767 32.2432 9.98159 32.2501 10.0755 32.25H14.8755C15.0194 32.2498 15.1588 32.1999 15.2701 32.1088C15.3815 32.0177 15.458 31.891 15.4868 31.7501L17.2556 23.5001H22.3806C26.8281 23.5001 29.7668 20.3913 31.1168 14.25C31.1711 14.0052 31.2128 13.7579 31.2418 13.5088C31.3966 12.573 31.3432 11.6146 31.0854 10.7018C30.8277 9.78894 30.3719 8.94416 29.7505 8.22755Z" fill="#283593"/>
</g>
</g>
</g>
<defs>
<clipPath id="clip0_147_2732">
<rect width="42" height="42" fill="white"/>
</clipPath>
</defs>
</svg>
