<svg width="24" height="24" viewBox="0 0 24 24" fill="none" xmlns="http://www.w3.org/2000/svg">
<path d="M12 8.25C10.21 8.25 8.75 9.71 8.75 11.5C8.75 13.29 10.21 14.75 12 14.75C13.79 14.75 15.25 13.29 15.25 11.5C15.25 9.71 13.79 8.25 12 8.25ZM13 11.18C13 11.79 12.67 12.37 12.15 12.68L11.38 13.14C11.26 13.21 11.13 13.25 10.99 13.25C10.74 13.25 10.49 13.12 10.35 12.89C10.14 12.53 10.25 12.07 10.61 11.86L11.37 11.4C11.45 11.35 11.49 11.27 11.49 11.19V10.26C11.49 9.85 11.83 9.51 12.24 9.51C12.65 9.51 13 9.84 13 10.25V11.18Z" fill="#199675"/>
<path d="M18.5398 4.17063L13.0398 2.11062C12.4698 1.90063 11.5398 1.90063 10.9698 2.11062L5.4698 4.17063C4.4098 4.57063 3.5498 5.81063 3.5498 6.94063V15.0406C3.5498 15.8506 4.0798 16.9206 4.7298 17.4006L10.2298 21.5106C11.1998 22.2406 12.7898 22.2406 13.7598 21.5106L19.2598 17.4006C19.9098 16.9106 20.4398 15.8506 20.4398 15.0406V6.94063C20.4498 5.81063 19.5898 4.57063 18.5398 4.17063ZM11.9998 16.2506C9.3798 16.2506 7.2498 14.1206 7.2498 11.5006C7.2498 8.88062 9.3798 6.75063 11.9998 6.75063C14.6198 6.75063 16.7498 8.88062 16.7498 11.5006C16.7498 14.1206 14.6198 16.2506 11.9998 16.2506Z" fill="#199675"/>
</svg>
