<svg width="26" height="26" viewBox="0 0 26 26" fill="none" xmlns="http://www.w3.org/2000/svg">
<path d="M13.8123 2.16663C13.8123 1.71789 13.4486 1.35413 12.9998 1.35413C12.5511 1.35413 12.1873 1.71789 12.1873 2.16663V5.41663C12.1873 5.86536 12.5511 6.22913 12.9998 6.22913C13.4486 6.22913 13.8123 5.86536 13.8123 5.41663V2.16663Z" fill="#F33737"/>
<path fill-rule="evenodd" clip-rule="evenodd" d="M2.1665 23.0208H4.33317V17.3333C4.33317 12.5468 8.21337 8.66663 12.9998 8.66663C17.7863 8.66663 21.6665 12.5468 21.6665 17.3333V23.0208H23.8332C24.2819 23.0208 24.6457 23.3846 24.6457 23.8333C24.6457 24.282 24.2819 24.6458 23.8332 24.6458H2.1665C1.71777 24.6458 1.354 24.282 1.354 23.8333C1.354 23.3846 1.71777 23.0208 2.1665 23.0208ZM13.8123 20.3659C14.2981 20.0849 14.6248 19.5598 14.6248 18.9583C14.6248 18.0608 13.8973 17.3333 12.9998 17.3333C12.1024 17.3333 11.3748 18.0608 11.3748 18.9583C11.3748 19.5598 11.7016 20.0849 12.1873 20.3659V23.0208H13.8123V20.3659ZM14.7281 12.1534C14.8965 11.7375 15.3702 11.5368 15.7861 11.7052C17.0763 12.2274 18.1055 13.2566 18.6277 14.5468C18.7961 14.9627 18.5954 15.4364 18.1794 15.6048C17.7635 15.7731 17.2898 15.5724 17.1215 15.1565C16.7643 14.2742 16.0587 13.5686 15.1764 13.2114C14.7604 13.0431 14.5597 12.5694 14.7281 12.1534Z" fill="#F33737"/>
<path d="M23.3244 5.92544C23.6417 6.24274 23.6417 6.75718 23.3244 7.07448L21.6994 8.69948C21.3821 9.01678 20.8676 9.01678 20.5503 8.69948C20.233 8.38218 20.233 7.86774 20.5503 7.55044L22.1753 5.92544C22.4926 5.60813 23.0071 5.60813 23.3244 5.92544Z" fill="#F33737"/>
<path d="M3.82436 5.92544C3.50706 5.60813 2.99261 5.60813 2.67531 5.92544C2.35801 6.24274 2.35801 6.75718 2.67531 7.07448L4.30031 8.69948C4.61761 9.01678 5.13206 9.01678 5.44936 8.69948C5.76666 8.38218 5.76666 7.86774 5.44936 7.55044L3.82436 5.92544Z" fill="#F33737"/>
</svg>
