<svg width="24" height="24" viewBox="0 0 24 24" fill="none" xmlns="http://www.w3.org/2000/svg">
<path d="M20.1 9.22018C18.29 9.22018 17.55 7.94018 18.45 6.37018C18.97 5.46018 18.66 4.30018 17.75 3.78018L16.02 2.79018C15.23 2.32018 14.21 2.60018 13.74 3.39018L13.63 3.58018C12.73 5.15018 11.25 5.15018 10.34 3.58018L10.23 3.39018C9.78 2.60018 8.76 2.32018 7.97 2.79018L6.24 3.78018C5.33 4.30018 5.02 5.47018 5.54 6.38018C6.45 7.94018 5.71 9.22018 3.9 9.22018C2.86 9.22018 2 10.0702 2 11.1202V12.8802C2 13.9202 2.85 14.7802 3.9 14.7802C5.71 14.7802 6.45 16.0602 5.54 17.6302C5.02 18.5402 5.33 19.7002 6.24 20.2202L7.97 21.2102C8.76 21.6802 9.78 21.4002 10.25 20.6102L10.36 20.4202C11.26 18.8502 12.74 18.8502 13.65 20.4202L13.76 20.6102C14.23 21.4002 15.25 21.6802 16.04 21.2102L17.77 20.2202C18.68 19.7002 18.99 18.5302 18.47 17.6302C17.56 16.0602 18.3 14.7802 20.11 14.7802C21.15 14.7802 22.01 13.9302 22.01 12.8802V11.1202C22 10.0802 21.15 9.22018 20.1 9.22018ZM12 15.2502C10.21 15.2502 8.75 13.7902 8.75 12.0002C8.75 10.2102 10.21 8.75018 12 8.75018C13.79 8.75018 15.25 10.2102 15.25 12.0002C15.25 13.7902 13.79 15.2502 12 15.2502Z" fill="#199675"/>
</svg>
