<svg width="29" height="28" viewBox="0 0 29 28" fill="none" xmlns="http://www.w3.org/2000/svg">
<path d="M10.9259 6.19623C12.4961 2.67367 13.2812 0.912385 14.5794 0.912385C15.8776 0.912385 16.6627 2.67367 18.2329 6.19623L18.4526 6.68919C18.911 7.71762 19.1403 8.23184 19.5734 8.54656C20.0066 8.86128 20.5665 8.92037 21.6862 9.03855L22.223 9.0952C26.0583 9.5 27.976 9.7024 28.3772 10.9371C28.7784 12.1717 27.3459 13.4627 24.4809 16.0445L24.08 16.4058C23.2436 17.1596 22.8254 17.5365 22.6599 18.0457C22.4944 18.555 22.6113 19.1057 22.8449 20.2072L22.9569 20.7351C23.7571 24.5079 24.1572 26.3943 23.1069 27.1573C22.0566 27.9204 20.3862 26.9569 17.0454 25.0301L16.5779 24.7604C15.6025 24.1978 15.1148 23.9166 14.5794 23.9166C14.044 23.9166 13.5563 24.1978 12.5809 24.7604L12.1134 25.0301C8.77258 26.9569 7.10218 27.9204 6.05191 27.1573C5.00165 26.3943 5.40175 24.5079 6.20196 20.7351L6.31394 20.2072C6.54757 19.1057 6.66438 18.555 6.49892 18.0457C6.33346 17.5365 5.91525 17.1596 5.07881 16.4058L4.67788 16.0445C1.81294 13.4627 0.380466 12.1717 0.781631 10.9371C1.1828 9.7024 3.10048 9.5 6.93585 9.0952L7.47258 9.03855C8.59234 8.92037 9.15222 8.86128 9.58539 8.54656C10.0186 8.23184 10.2478 7.71762 10.7062 6.68918L10.9259 6.19623Z" fill="#E8E8E9"/>
</svg>
