<svg width="28" height="28" viewBox="0 0 28 28" fill="none" xmlns="http://www.w3.org/2000/svg">
<path d="M10.3468 6.19623C11.917 2.67367 12.7021 0.912385 14.0003 0.912385C15.2985 0.912385 16.0836 2.67367 17.6538 6.19623L17.8735 6.68919C18.3319 7.71762 18.5612 8.23184 18.9943 8.54656C19.4275 8.86128 19.9874 8.92037 21.1071 9.03855L21.6439 9.0952C25.4792 9.5 27.3969 9.7024 27.7981 10.9371C28.1993 12.1717 26.7668 13.4627 23.9018 16.0445L23.5009 16.4058C22.6645 17.1596 22.2463 17.5365 22.0808 18.0457C21.9153 18.555 22.0322 19.1057 22.2658 20.2072L22.3778 20.7351C23.178 24.5079 23.5781 26.3943 22.5278 27.1573C21.4775 27.9204 19.8071 26.9569 16.4663 25.0301L15.9988 24.7604C15.0234 24.1978 14.5357 23.9166 14.0003 23.9166C13.4649 23.9166 12.9772 24.1978 12.0018 24.7604L11.5343 25.0301C8.19348 26.9569 6.52308 27.9204 5.47281 27.1573C4.42255 26.3943 4.82265 24.5079 5.62286 20.7351L5.73484 20.2072C5.96847 19.1057 6.08528 18.555 5.91982 18.0457C5.75436 17.5365 5.33614 17.1596 4.4997 16.4058L4.09878 16.0445C1.23384 13.4627 -0.198636 12.1717 0.202529 10.9371C0.603693 9.7024 2.52138 9.5 6.35675 9.0952L6.89348 9.03855C8.01324 8.92037 8.57312 8.86128 9.00629 8.54656C9.43947 8.23184 9.66868 7.71762 10.1271 6.68918L10.3468 6.19623Z" fill="#FFB400"/>
</svg>
