<svg width="36" height="35" viewBox="0 0 36 35" fill="none" xmlns="http://www.w3.org/2000/svg">
<path d="M17.9998 2.91669C14.1321 2.91669 10.4228 4.45314 7.68786 7.18805C4.95296 9.92295 3.4165 13.6323 3.4165 17.5C3.4165 21.3678 4.95296 25.0771 7.68786 27.812C10.4228 30.5469 14.1321 32.0834 17.9998 32.0834C21.8676 32.0834 25.5769 30.5469 28.3118 27.812C31.0467 25.0771 32.5832 21.3678 32.5832 17.5C32.5832 13.6323 31.0467 9.92295 28.3118 7.18805C25.5769 4.45314 21.8676 2.91669 17.9998 2.91669Z" fill="#29B6F6"/>
<path d="M25.255 10.9375L22.5236 24.8835C22.5236 24.8835 22.4062 25.5208 21.6158 25.5208C21.1958 25.5208 20.9792 25.321 20.9792 25.321L15.0628 20.4115L12.168 18.9525L8.45286 17.9645C8.45286 17.9645 7.7915 17.7734 7.7915 17.2265C7.7915 16.7708 8.47182 16.5535 8.47182 16.5535L24.0147 10.3789C24.0147 10.3789 24.4894 10.2076 24.8358 10.2083C25.0487 10.2083 25.2915 10.2995 25.2915 10.5729C25.2915 10.7552 25.255 10.9375 25.255 10.9375Z" fill="white"/>
<path d="M17.2709 22.2432L14.7728 24.7034C14.7728 24.7034 14.6642 24.7873 14.5191 24.7909C14.4687 24.7924 14.4148 24.7844 14.3594 24.7596L15.0623 20.4101L17.2709 22.2432Z" fill="#B0BEC5"/>
<path d="M22.2997 13.2679C22.1765 13.1075 21.949 13.0783 21.7886 13.2001L12.1665 18.9583C12.1665 18.9583 13.7021 23.2546 13.9362 23.9983C14.171 24.7428 14.3591 24.7603 14.3591 24.7603L15.062 20.4108L22.2312 13.7783C22.3916 13.6565 22.4215 13.4283 22.2997 13.2679Z" fill="#CFD8DC"/>
</svg>
