<svg width="36" height="35" viewBox="0 0 36 35" fill="none" xmlns="http://www.w3.org/2000/svg">
<path d="M31.1252 9.06281C30.1605 9.4901 29.1229 9.77521 28.0285 9.9101C29.1412 9.24948 29.9972 8.19583 30.399 6.95115C29.3577 7.56146 28.2042 8.0099 26.977 8.24615C25.997 7.20708 24.5992 6.5625 23.0504 6.5625C20.0754 6.5625 17.6641 8.95271 17.6641 11.9C17.6641 12.3171 17.7129 12.7232 17.8048 13.1177C13.3292 12.8931 9.35961 10.7654 6.70398 7.53667C6.23732 8.32562 5.97482 9.24948 5.97482 10.2244C5.97482 12.0772 6.92346 13.7083 8.37013 14.6694C7.48711 14.6424 6.65586 14.3967 5.92815 14.0029C5.92815 14.019 5.92815 14.043 5.92815 14.0656C5.92815 16.6549 7.78534 18.811 10.247 19.3018C9.79711 19.425 9.32169 19.4935 8.83169 19.4935C8.48388 19.4935 8.14482 19.4542 7.81669 19.3951C8.50211 21.5111 10.4905 23.0577 12.8465 23.1036C11.0032 24.5328 8.68148 25.3888 6.15711 25.3888C5.72107 25.3888 5.29451 25.3641 4.87305 25.313C7.25815 26.8231 10.0902 27.7083 13.1301 27.7083C23.0359 27.7083 28.455 19.5737 28.455 12.5169C28.455 12.2857 28.4477 12.0553 28.4368 11.8278C29.4941 11.0811 30.4055 10.1391 31.1252 9.06281Z" fill="#03A9F4"/>
</svg>
