<svg width="20" height="20" viewBox="0 0 20 20" fill="none" xmlns="http://www.w3.org/2000/svg">
<path d="M16.2586 4.87508L11.3086 2.01675C10.5003 1.55008 9.50026 1.55008 8.68359 2.01675L3.74193 4.87508C2.93359 5.34175 2.43359 6.20842 2.43359 7.15008V12.8501C2.43359 13.7834 2.93359 14.6501 3.74193 15.1251L8.69193 17.9834C9.50026 18.4501 10.5003 18.4501 11.3169 17.9834L16.2669 15.1251C17.0753 14.6584 17.5753 13.7917 17.5753 12.8501V7.15008C17.5669 6.20842 17.0669 5.35008 16.2586 4.87508ZM10.0003 6.11675C11.0753 6.11675 11.9419 6.98342 11.9419 8.05841C11.9419 9.13342 11.0753 10.0001 10.0003 10.0001C8.92526 10.0001 8.05859 9.13342 8.05859 8.05841C8.05859 6.99175 8.92526 6.11675 10.0003 6.11675ZM12.2336 13.8834H7.76693C7.09193 13.8834 6.70026 13.1334 7.07526 12.5751C7.64193 11.7334 8.74193 11.1667 10.0003 11.1667C11.2586 11.1667 12.3586 11.7334 12.9253 12.5751C13.3003 13.1251 12.9003 13.8834 12.2336 13.8834Z" fill="#199675"/>
</svg>
