<svg width="42" height="15" viewBox="0 0 42 15" fill="none" xmlns="http://www.w3.org/2000/svg">
<path d="M15.9471 0.263794L10.4493 14.7706H6.86098L4.15734 3.1945C3.9909 2.48067 3.84866 2.2209 3.34958 1.91763C2.53205 1.42889 1.18733 0.970502 0 0.685033L0.083104 0.263951H5.85634C6.59274 0.263951 7.25466 0.807023 7.42112 1.74316L8.85066 10.1394L12.3816 0.263951L15.9471 0.263794ZM30.0028 10.0321C30.0188 6.2054 25.2144 5.99718 25.249 4.28514C25.2584 3.76266 25.7062 3.20967 26.6871 3.07003C27.1743 2.99836 28.5148 2.94588 30.0341 3.71714L30.6295 0.642306C29.812 0.314264 28.7613 0 27.4554 0C24.1011 0 21.7399 1.9729 21.72 4.7957C21.698 6.883 23.4046 8.04795 24.6919 8.74305C26.0138 9.4544 26.4558 9.90861 26.4512 10.5466C26.4425 11.5202 25.3964 11.9458 24.4208 11.965C22.7142 11.9944 21.7242 11.455 20.9338 11.0479L20.3193 14.2284C21.1112 14.6303 22.5772 14.9794 24.0944 15C27.6595 14.9998 29.9916 13.048 30.0028 10.0321ZM38.8605 14.7706H42L39.2606 0.263951H36.3623C35.7111 0.263951 35.162 0.683949 34.9174 1.32734L29.828 14.7706H33.3903L34.0974 12.6042H38.4517L38.8605 14.7706ZM35.0736 9.63072L36.8607 4.18374L37.8889 9.63072H35.0736ZM20.797 0.263794L17.989 14.7706H14.5947L17.4033 0.263794H20.797Z" fill="#1A2ADF"/>
</svg>
