<svg width="36" height="35" viewBox="0 0 36 35" fill="none" xmlns="http://www.w3.org/2000/svg">
<path d="M4.0498 31.5751L6.01418 24.4037C4.8023 22.3052 4.16501 19.9237 4.16574 17.4847C4.16939 9.85394 10.379 3.64581 18.0104 3.64581C21.7139 3.64727 25.1891 5.08883 27.8031 7.70435C30.4165 10.3206 31.8558 13.7973 31.8544 17.4956C31.8515 25.1263 25.6404 31.3352 18.0104 31.3352H18.0046C15.688 31.3345 13.4108 30.7533 11.3889 29.6501L4.0498 31.5751Z" fill="white"/>
<path d="M4.04981 31.9397C3.95356 31.9397 3.86023 31.9018 3.79096 31.8318C3.69981 31.7392 3.66408 31.6043 3.69835 31.4796L5.62262 24.4533C4.42971 22.3344 3.80044 19.9281 3.80189 17.4854C3.80481 9.65271 10.1785 3.28125 18.0104 3.28125C21.8094 3.28271 25.3787 4.76219 28.0613 7.44698C30.7439 10.1325 32.2204 13.701 32.219 17.4956C32.2161 25.3276 25.8417 31.6998 18.0104 31.6998C15.6851 31.6991 13.3846 31.1252 11.3429 30.0395L4.14242 31.9273C4.11179 31.936 4.08117 31.9397 4.04981 31.9397Z" fill="white"/>
<path d="M18.0104 3.64585C21.7138 3.64731 25.1891 5.08887 27.8031 7.7044C30.4164 10.3206 31.8558 13.7973 31.8544 17.4956C31.8514 25.1264 25.6404 31.3352 18.0104 31.3352H18.0046C15.688 31.3345 13.4108 30.7534 11.3888 29.6501L4.04978 31.5751L6.01415 24.4038C4.80228 22.3052 4.16499 19.9238 4.16572 17.4847C4.16936 9.85398 10.3789 3.64585 18.0104 3.64585ZM18.0104 2.91669C9.9779 2.91669 3.4402 9.45148 3.43655 17.4847C3.43582 19.9398 4.05561 22.3592 5.23103 24.5008L3.34613 31.3834C3.27759 31.6349 3.34759 31.9033 3.53134 32.0885C3.66988 32.2285 3.85728 32.305 4.04978 32.305C4.11176 32.305 4.17374 32.297 4.23499 32.281L11.2984 30.4289C13.3605 31.4993 15.672 32.0644 18.0046 32.0651C26.0429 32.0651 32.5806 25.5296 32.5843 17.4964C32.5857 13.6034 31.0712 9.94294 28.3201 7.1896C25.5675 4.43554 21.9063 2.91815 18.0104 2.91669Z" fill="#CFD8DC"/>
<path d="M26.1491 9.35664C23.9762 7.18227 21.088 5.98425 18.0138 5.98352C11.6671 5.98352 6.50536 11.1431 6.50244 17.4854C6.50171 19.659 7.10984 21.7751 8.26192 23.6075L8.53609 24.0428L7.37307 28.2873L11.7284 27.1454L12.1491 27.3948C13.9151 28.4433 15.9408 28.9975 18.0058 28.9982H18.0101C24.3524 28.9982 29.5142 23.8379 29.5164 17.4949C29.5171 14.4214 28.322 11.531 26.1491 9.35664Z" fill="#40C351"/>
<path fill-rule="evenodd" clip-rule="evenodd" d="M14.5497 11.6995C14.2909 11.1234 14.0182 11.1118 13.771 11.1015C13.569 11.0928 13.3386 11.0935 13.1082 11.0935C12.8777 11.0935 12.5029 11.1803 12.1858 11.5266C11.8686 11.873 10.9746 12.7094 10.9746 14.4112C10.9746 16.1131 12.2142 17.7581 12.387 17.9885C12.5598 18.2189 14.7801 21.8232 18.2962 23.2101C21.2179 24.3622 21.8129 24.1332 22.4473 24.0756C23.0817 24.018 24.4941 23.2392 24.7821 22.4313C25.0701 21.6234 25.0701 20.9314 24.9841 20.7871C24.8973 20.6427 24.6669 20.5566 24.3213 20.3831C23.9756 20.2096 22.2745 19.3732 21.9573 19.258C21.6401 19.1428 21.4097 19.0852 21.1786 19.4315C20.9481 19.7772 20.2853 20.5566 20.0834 20.7871C19.8814 21.0182 19.6794 21.0474 19.3338 20.8738C18.9881 20.7003 17.874 20.3357 16.552 19.1574C15.5239 18.2408 14.8297 17.1084 14.6277 16.7621C14.4258 16.4164 14.6059 16.229 14.7794 16.0562C14.9347 15.9009 15.125 15.6523 15.2986 15.4503C15.4714 15.2483 15.529 15.1039 15.6442 14.8735C15.7594 14.6424 15.7018 14.4404 15.615 14.2676C15.5297 14.094 14.8574 12.3834 14.5497 11.6995Z" fill="white"/>
</svg>
