<svg width="14" height="14" viewBox="0 0 14 14" fill="none" xmlns="http://www.w3.org/2000/svg">
<path d="M12.8337 12.3958H1.16699C0.927826 12.3958 0.729492 12.5941 0.729492 12.8333C0.729492 13.0724 0.927826 13.2708 1.16699 13.2708H12.8337C13.0728 13.2708 13.2712 13.0724 13.2712 12.8333C13.2712 12.5941 13.0728 12.3958 12.8337 12.3958Z" fill="#199675"/>
<path d="M9.91667 1.16675H4.08333C2.33333 1.16675 1.75 2.21091 1.75 3.50008V12.8334H12.25V3.50008C12.25 2.21091 11.6667 1.16675 9.91667 1.16675ZM5.83333 10.0626H4.08333C3.84417 10.0626 3.64583 9.86425 3.64583 9.62508C3.64583 9.38591 3.84417 9.18758 4.08333 9.18758H5.83333C6.0725 9.18758 6.27083 9.38591 6.27083 9.62508C6.27083 9.86425 6.0725 10.0626 5.83333 10.0626ZM5.83333 7.43758H4.08333C3.84417 7.43758 3.64583 7.23925 3.64583 7.00008C3.64583 6.76091 3.84417 6.56258 4.08333 6.56258H5.83333C6.0725 6.56258 6.27083 6.76091 6.27083 7.00008C6.27083 7.23925 6.0725 7.43758 5.83333 7.43758ZM5.83333 4.81258H4.08333C3.84417 4.81258 3.64583 4.61425 3.64583 4.37508C3.64583 4.13591 3.84417 3.93758 4.08333 3.93758H5.83333C6.0725 3.93758 6.27083 4.13591 6.27083 4.37508C6.27083 4.61425 6.0725 4.81258 5.83333 4.81258ZM9.91667 10.0626H8.16667C7.9275 10.0626 7.72917 9.86425 7.72917 9.62508C7.72917 9.38591 7.9275 9.18758 8.16667 9.18758H9.91667C10.1558 9.18758 10.3542 9.38591 10.3542 9.62508C10.3542 9.86425 10.1558 10.0626 9.91667 10.0626ZM9.91667 7.43758H8.16667C7.9275 7.43758 7.72917 7.23925 7.72917 7.00008C7.72917 6.76091 7.9275 6.56258 8.16667 6.56258H9.91667C10.1558 6.56258 10.3542 6.76091 10.3542 7.00008C10.3542 7.23925 10.1558 7.43758 9.91667 7.43758ZM9.91667 4.81258H8.16667C7.9275 4.81258 7.72917 4.61425 7.72917 4.37508C7.72917 4.13591 7.9275 3.93758 8.16667 3.93758H9.91667C10.1558 3.93758 10.3542 4.13591 10.3542 4.37508C10.3542 4.61425 10.1558 4.81258 9.91667 4.81258Z" fill="#199675"/>
</svg>
