<svg width="236" height="222" viewBox="0 0 236 222" fill="none" xmlns="http://www.w3.org/2000/svg">
<path fill-rule="evenodd" clip-rule="evenodd" d="M2.72439 160.102C3.63814 159.777 4.59969 159.344 5.34119 158.718C6.22185 157.974 6.58001 157.015 6.82052 156.006C7.1293 154.71 7.25269 153.33 7.62711 152.032C7.76575 151.549 8.03255 151.367 8.14703 151.286C8.43638 151.082 8.72886 151.027 9.00404 151.048C9.33015 151.072 9.77812 151.195 10.0727 151.742C10.1147 151.82 10.1693 151.939 10.2061 152.102C10.2329 152.222 10.2502 152.597 10.2786 152.751C10.3495 153.131 10.4088 153.511 10.4645 153.894C10.6498 155.166 10.7565 156.247 11.342 157.416C12.1365 159.003 12.9326 159.974 14.0123 160.404C15.0563 160.82 16.3046 160.742 17.8994 160.415C18.0512 160.379 18.2014 160.347 18.35 160.321C19.0531 160.199 19.7253 160.66 19.8635 161.361C20.0016 162.061 19.5547 162.743 18.8578 162.897C18.7124 162.929 18.569 162.959 18.4272 162.987C16.272 163.521 13.7771 165.425 12.3271 167.092C11.8802 167.606 11.2259 169.044 10.5585 169.96C10.0659 170.637 9.51238 171.083 9.04763 171.24C8.73622 171.346 8.47366 171.33 8.25678 171.276C7.94169 171.199 7.68018 171.028 7.47958 170.757C7.37035 170.608 7.26897 170.409 7.22066 170.155C7.19755 170.032 7.19494 169.721 7.19547 169.581C7.05945 169.113 6.89298 168.656 6.77167 168.184C6.48232 167.057 5.91463 166.344 5.24035 165.402C4.60966 164.52 3.93225 163.966 2.9392 163.524C2.81002 163.493 1.76761 163.238 1.39948 163.091C0.861739 162.876 0.605456 162.517 0.512506 162.323C0.354438 161.994 0.338173 161.707 0.369682 161.467C0.416419 161.114 0.575013 160.811 0.856489 160.567C1.03084 160.415 1.29131 160.268 1.64 160.196C1.9094 160.14 2.62409 160.107 2.72439 160.102ZM8.83967 158.267C8.88799 158.374 8.93946 158.482 8.99407 158.592C10.1578 160.916 11.4591 162.214 13.0408 162.843L13.0939 162.864C12.0357 163.649 11.0778 164.527 10.3458 165.369C10.0443 165.716 9.64525 166.436 9.21411 167.174C8.82235 165.901 8.18168 165 7.37611 163.874C6.76065 163.014 6.11577 162.367 5.32333 161.84C5.93828 161.525 6.52485 161.155 7.03581 160.723C7.88654 160.004 8.44897 159.171 8.83967 158.267Z" fill="#E9E9E9"/>
<circle cx="25.957" cy="5.12013" r="5.12013" fill="#E9E9E9"/>
<circle cx="229.909" cy="111.79" r="5.12013" fill="#E9E9E9"/>
<path d="M110.5 185C158.825 185 198 145.825 198 97.5C198 49.1751 158.825 10 110.5 10C62.1751 10 23 49.1751 23 97.5C23 145.825 62.1751 185 110.5 185Z" fill="#199675" fill-opacity="0.07"/>
<path fill-rule="evenodd" clip-rule="evenodd" d="M110.012 38.401C120.616 38.401 129.213 29.8046 129.213 19.2005C129.213 8.59635 120.616 0 110.012 0C99.4079 0 90.8115 8.59635 90.8115 19.2005C90.8115 29.8046 99.4079 38.401 110.012 38.401ZM109.585 29.8674C115.24 29.8674 119.825 25.2827 119.825 19.6272C119.825 13.9716 115.24 9.3869 109.585 9.3869C103.929 9.3869 99.3447 13.9716 99.3447 19.6272C99.3447 25.2827 103.929 29.8674 109.585 29.8674Z" fill="#1F1F1F"/>
<path d="M109.627 173.316C130.388 173.316 147.218 156.487 147.218 135.726C147.218 114.966 130.388 98.136 109.627 98.136C88.8668 98.136 72.0371 114.966 72.0371 135.726C72.0371 156.487 88.8668 173.316 109.627 173.316Z" fill="url(#paint0_linear_1_9728)"/>
<path d="M169.121 107.778V78.9387C169.121 63.2083 162.872 48.1222 151.749 36.9991C140.626 25.8761 125.54 19.6272 109.809 19.6272C94.079 19.6272 78.9929 25.8761 67.8699 36.9991C56.7468 48.1222 50.498 63.2083 50.498 78.9387V107.778C50.4986 114.403 48.6243 120.894 45.0917 126.499C41.559 132.104 36.5123 136.596 30.5347 139.453C29.1609 140.108 28.0011 141.139 27.1905 142.427C26.3799 143.714 25.9518 145.206 25.9561 146.728V146.884C25.9551 147.434 26.0624 147.978 26.272 148.486C26.4817 148.994 26.7894 149.456 27.1777 149.845C27.5659 150.234 28.0271 150.542 28.5348 150.753C29.0424 150.964 29.5866 151.072 30.1363 151.072H189.475C190.024 151.072 190.569 150.964 191.076 150.753C191.584 150.542 192.045 150.234 192.433 149.845C192.822 149.456 193.129 148.994 193.339 148.486C193.549 147.978 193.656 147.434 193.655 146.884V146.728C193.655 145.211 193.226 143.725 192.418 142.442C191.609 141.158 190.453 140.131 189.084 139.477C183.103 136.617 178.054 132.123 174.521 126.513C170.988 120.903 169.116 114.407 169.121 107.778Z" fill="url(#paint1_radial_1_9728)"/>
<path fill-rule="evenodd" clip-rule="evenodd" d="M194.067 151.044H25.9561V145.924H194.067V151.044Z" fill="#1F1F1F"/>
<path d="M157.372 74.242C170.569 74.242 181.266 63.5443 181.266 50.3481C181.266 37.1518 170.569 26.4541 157.372 26.4541C144.176 26.4541 133.479 37.1518 133.479 50.3481C133.479 63.5443 144.176 74.242 157.372 74.242Z" fill="#F5F5F5"/>
<path d="M151.399 50.3389C151.399 48.2195 151.884 46.5533 152.853 45.3405C153.835 44.1277 155.342 43.5212 157.373 43.5212C159.391 43.5212 160.891 44.1338 161.873 45.3589C162.855 46.5717 163.346 48.2317 163.346 50.3389C163.346 52.4583 162.855 54.1306 161.873 55.3557C160.891 56.5685 159.391 57.1749 157.373 57.1749C155.342 57.1749 153.835 56.5685 152.853 55.3557C151.884 54.1306 151.399 52.4583 151.399 50.3389ZM158.986 50.3389C158.986 49.3588 158.88 48.6238 158.667 48.1337C158.455 47.6314 158.023 47.3803 157.373 47.3803C156.709 47.3803 156.271 47.6314 156.059 48.1337C155.846 48.6238 155.74 49.3588 155.74 50.3389C155.74 51.3312 155.846 52.0785 156.059 52.5808C156.271 53.0709 156.709 53.3159 157.373 53.3159C158.023 53.3159 158.455 53.0709 158.667 52.5808C158.88 52.0785 158.986 51.3312 158.986 50.3389Z" fill="#1F1F1F"/>
<path fill-rule="evenodd" clip-rule="evenodd" d="M63.5974 164.102C59.5094 167.799 55.4329 171.421 51.4544 175.236C50.5955 176.053 50.5631 177.401 51.3757 178.25C52.1909 179.108 53.5463 179.135 54.3971 178.32C58.3564 174.53 62.3974 170.937 66.4582 167.267C67.3331 166.471 67.4008 165.12 66.6181 164.252C65.8247 163.379 64.4723 163.306 63.5974 164.102Z" fill="#1F1F1F"/>
<path fill-rule="evenodd" clip-rule="evenodd" d="M155.943 164.103C160.009 167.802 164.062 171.424 168.017 175.239C168.871 176.057 168.897 177.404 168.081 178.252C167.262 179.107 165.908 179.133 165.062 178.318C161.126 174.527 157.108 170.934 153.07 167.263C152.2 166.467 152.139 165.117 152.925 164.251C153.722 163.379 155.074 163.307 155.943 164.103Z" fill="#1F1F1F"/>
<path fill-rule="evenodd" clip-rule="evenodd" d="M107.155 187.991C107.09 193.491 106.978 198.931 107.073 204.43C107.09 205.613 108.056 206.548 109.23 206.526C110.412 206.508 111.351 205.532 111.332 204.356C111.241 198.888 111.351 193.493 111.416 188.031C111.427 186.851 110.483 185.888 109.315 185.875C108.137 185.867 107.166 186.81 107.155 187.991Z" fill="#1F1F1F"/>
<defs>
<linearGradient id="paint0_linear_1_9728" x1="72.0371" y1="98.0153" x2="147.76" y2="158.597" gradientUnits="userSpaceOnUse">
<stop stop-color="#53DBB7"/>
<stop offset="1" stop-color="#199675"/>
</linearGradient>
<radialGradient id="paint1_radial_1_9728" cx="0" cy="0" r="1" gradientUnits="userSpaceOnUse" gradientTransform="translate(89.8721 56.1972) rotate(65.8841) scale(241.626 308.27)">
<stop stop-color="#199675"/>
<stop offset="1" stop-color="#0A7055"/>
</radialGradient>
</defs>
</svg>
