<svg width="216" height="222" viewBox="0 0 216 222" fill="none" xmlns="http://www.w3.org/2000/svg">
<path d="M199.652 43.439C201.973 42.4827 203.638 40.067 203.638 37.2487C203.638 33.5748 200.863 30.5552 197.382 30.5552C193.901 30.5552 191.075 33.5245 191.075 37.1984C191.075 40.067 192.74 42.4827 195.061 43.439C185.374 44.8984 185.828 55.3665 185.828 55.3665L208.684 55.4672C208.734 55.5175 209.239 44.8984 199.652 43.439Z" fill="#F5F5F5"/>
<path d="M64.5326 4.28436L49.5977 -1L34.7638 4.18371C32.897 5.03927 31.2319 5.59287 31.2319 7.304V15.91C31.2319 21.8989 32.8465 27.8375 36.1261 33.0212C38.9012 37.3997 43.1394 41.9795 49.7491 44.8481C55.8038 42.9357 60.2943 37.752 63.0694 33.3735C66.349 28.1395 67.9635 22.2009 67.9635 16.2622V8.51185C67.9131 6.04581 66.6012 4.88829 64.5326 4.28436Z" fill="#F5F5F5"/>
<path d="M54.5424 18.1747C54.5424 15.91 52.6756 14.0479 50.4051 14.0479C48.1346 14.0479 46.2677 15.91 46.2677 18.1747C46.2677 20.0368 47.5291 21.6473 49.295 22.1505V28.3408H51.5655V22.1002C53.281 21.6473 54.5424 20.0368 54.5424 18.1747Z" fill="#DDDDDD"/>
<path d="M191.63 84.1034L194.203 85.4622L193.043 87.3746L190.47 85.8648L190.52 88.6832H188.3V85.8145L185.727 87.3746L184.617 85.4622L187.19 84.1034L184.617 82.6942L185.727 80.7818L188.3 82.3419V79.4733H190.52L190.47 82.3419L193.043 80.7818L194.203 82.6942L191.63 84.1034Z" fill="#CCCCCC"/>
<path d="M202.276 84.1034L204.849 85.4622L203.689 87.3746L201.116 85.8648L201.166 88.6832H198.946V85.8145L196.373 87.3746L195.263 85.4622L197.836 84.1034L195.263 82.6942L196.373 80.7818L198.946 82.3419V79.4733H201.166L201.116 82.3419L203.689 80.7818L204.849 82.6942L202.276 84.1034Z" fill="#CCCCCC"/>
<path d="M212.872 84.1034L215.445 85.4622L214.285 87.3746L211.711 85.8648L211.762 88.6832H209.542V85.8145L206.968 87.3746L205.858 85.4622L208.432 84.1034L205.858 82.6942L206.968 80.7818L209.542 82.3419V79.4733H211.762L211.711 82.3419L214.285 80.7818L215.445 82.6942L212.872 84.1034Z" fill="#CCCCCC"/>
<path d="M104.847 204.536V220.188H127.753H153.032V204.536H104.847Z" fill="#F5F5F5"/>
<path d="M102.828 200.158V204.536H154.747V200.158H127.753H102.828Z" fill="#DDDDDD"/>
<path d="M128.762 220.188H153.031V204.536H154.747V200.158H127.753V204.134L128.762 220.188Z" fill="#DDDDDD"/>
<path d="M121.396 207.053H111.608V209.418H121.396V207.053Z" fill="#CCCCCC"/>
<path d="M122.91 212.337H110.346V217.32H122.91V212.337Z" fill="white"/>
<path d="M112.263 184.557V200.208H135.17H160.448V184.557H112.263Z" fill="#F5F5F5"/>
<path d="M110.245 180.178V184.557H162.164V180.178H135.17H110.245Z" fill="#DDDDDD"/>
<path d="M136.179 200.208H160.448V184.557H162.164V180.178H135.17V184.154L136.179 200.208Z" fill="#DDDDDD"/>
<path d="M128.813 187.073H119.024V189.438H128.813V187.073Z" fill="#CCCCCC"/>
<path d="M130.327 192.357H117.763V197.34H130.327V192.357Z" fill="white"/>
<path d="M216 220.289C216 220.339 167.664 220.44 107.975 220.44C48.3364 220.44 0 220.39 0 220.289C0 220.188 48.3364 220.138 108.025 220.138C167.664 220.188 216 220.239 216 220.289Z" fill="#1F1F1F"/>
<path d="M183.103 75.3952H107.924C106.158 75.3952 104.695 73.9357 104.695 72.1742V33.3719C104.695 31.6105 106.158 30.151 107.924 30.151H183.103C184.869 30.151 186.332 31.6105 186.332 33.3719V72.1742C186.282 73.9357 184.869 75.3952 183.103 75.3952Z" fill="white"/>
<path d="M183.103 75.3952C183.103 75.3952 183.305 75.3952 183.759 75.2945C184.163 75.1939 184.768 74.9925 185.373 74.4389C185.676 74.137 185.928 73.7847 186.08 73.2814C186.181 73.0298 186.231 72.7781 186.282 72.5265C186.282 72.2749 186.282 71.9729 186.282 71.6709C186.282 70.4631 186.282 69.0539 186.282 67.4938C186.282 61.2029 186.282 52.144 186.231 40.921C186.231 39.5118 186.231 38.1027 186.231 36.5929C186.231 35.838 186.231 35.1334 186.231 34.3785C186.231 33.6236 186.332 32.8687 185.979 32.1641C185.676 31.4595 185.172 30.9059 184.465 30.5536C184.112 30.4026 183.759 30.2516 183.355 30.2516C183.002 30.2013 182.548 30.2516 182.195 30.2516C180.58 30.2516 178.966 30.2516 177.301 30.2516C170.691 30.2516 163.627 30.2516 156.21 30.2516C141.326 30.2516 125.029 30.2516 107.874 30.2516C107.369 30.2516 106.865 30.4026 106.411 30.6039C105.957 30.8556 105.553 31.2079 105.301 31.6105C105.048 32.0634 104.847 32.5164 104.796 33.0196C104.796 33.5229 104.796 34.0765 104.796 34.5798C104.796 36.6935 104.796 38.8073 104.796 40.8707C104.796 45.0478 104.796 49.1243 104.796 53.1505C104.796 57.1767 104.796 61.1526 104.796 65.0278C104.796 66.9905 104.796 68.903 104.796 70.7651C104.796 71.218 104.796 71.7213 104.796 72.1742C104.796 72.6272 104.947 73.0801 105.149 73.4827C105.553 74.288 106.36 74.8919 107.218 75.0429C107.672 75.1435 108.126 75.0932 108.58 75.0932C109.034 75.0932 109.488 75.0932 109.943 75.0932C110.851 75.0932 111.759 75.0932 112.667 75.0932C114.484 75.0932 116.249 75.0932 118.015 75.0932C121.547 75.0932 124.978 75.0932 128.258 75.0932C134.868 75.0932 141.023 75.0932 146.624 75.0932C157.875 75.0932 166.957 75.1435 173.264 75.1435C176.392 75.1435 178.865 75.1435 180.479 75.1435C181.287 75.1435 181.943 75.1435 182.346 75.1435C182.851 75.3952 183.103 75.3952 183.103 75.3952C183.103 75.3952 182.901 75.3952 182.447 75.3952C181.993 75.3952 181.388 75.3952 180.58 75.3952C178.915 75.3952 176.493 75.3952 173.365 75.3952C167.058 75.3952 157.976 75.3952 146.725 75.4455C141.124 75.4455 134.968 75.4455 128.359 75.4455C125.079 75.4455 121.648 75.4455 118.116 75.4455C116.35 75.4455 114.584 75.4455 112.768 75.4455C111.86 75.4455 110.952 75.4455 110.043 75.4455C109.589 75.4455 109.135 75.4455 108.681 75.4455C108.227 75.4455 107.773 75.4958 107.268 75.3952C106.31 75.1939 105.452 74.5899 104.998 73.684C104.746 73.2311 104.645 72.7781 104.594 72.2749C104.594 71.7716 104.594 71.3187 104.594 70.8657C104.594 68.9533 104.594 67.0408 104.594 65.1284C104.594 61.2532 104.594 57.2774 104.594 53.2512C104.594 49.225 104.594 45.0982 104.594 40.9713C104.594 38.9079 104.594 36.7942 104.594 34.6804C104.594 34.1268 104.594 33.6236 104.594 33.07C104.645 32.5164 104.847 31.9628 105.099 31.5098C105.402 31.0569 105.805 30.6543 106.31 30.4026C106.814 30.151 107.369 30 107.924 30C125.079 30 141.427 30 156.261 30C163.678 30 170.741 30 177.351 30C179.016 30 180.631 30 182.245 30C182.649 30 183.053 30 183.456 30C183.86 30.0503 184.263 30.151 184.617 30.3523C185.323 30.7046 185.928 31.3588 186.181 32.0634C186.332 32.4157 186.433 32.8183 186.433 33.2209C186.433 33.6236 186.433 33.9759 186.433 34.3785C186.433 35.1334 186.433 35.8883 186.433 36.5929C186.433 38.0524 186.433 39.5118 186.433 40.921C186.433 52.144 186.383 61.2029 186.383 67.4938C186.383 69.0539 186.383 70.4631 186.383 71.6709C186.383 71.9729 186.383 72.2749 186.383 72.5265C186.332 72.8285 186.282 73.0801 186.181 73.3318C185.979 73.835 185.727 74.1873 185.424 74.4893C184.818 75.0932 184.163 75.2945 183.759 75.3448C183.557 75.3952 183.406 75.3952 183.305 75.3952C183.153 75.3952 183.103 75.3952 183.103 75.3952Z" fill="#1F1F1F"/>
<path d="M133.102 46.1047V46.6583H130.73V43.6387H133.051V44.1923H131.437V44.8465H132.849V45.4001H131.437V46.1047H133.102Z" fill="#1F1F1F"/>
<path d="M136.482 43.6387V46.6583H135.927L134.413 44.7962V46.6583H133.707V43.6387H134.313L135.826 45.5008V43.6387H136.482Z" fill="#1F1F1F"/>
<path d="M137.844 44.2426H136.886V43.689H139.56V44.2426H138.601V46.7086H137.895V44.2426H137.844Z" fill="#1F1F1F"/>
<path d="M142.234 46.1047V46.6583H139.863V43.6387H142.184V44.1923H140.569V44.8465H141.982V45.4001H140.569V46.1047H142.234Z" fill="#1F1F1F"/>
<path d="M144.757 46.7086L144.151 45.8531H144.101H143.495V46.7086H142.789V43.689H144.101C144.908 43.689 145.413 44.0916 145.413 44.7962C145.413 45.2491 145.16 45.6014 144.807 45.7524L145.514 46.7086H144.757ZM144.101 44.2426H143.546V45.2995H144.101C144.555 45.2995 144.757 45.0982 144.757 44.7459C144.757 44.4439 144.555 44.2426 144.101 44.2426Z" fill="#1F1F1F"/>
<path d="M147.078 45.1485C147.078 44.2426 147.784 43.5883 148.743 43.5883C149.247 43.5883 149.701 43.7897 150.004 44.142L149.55 44.5446C149.348 44.2929 149.096 44.1923 148.793 44.1923C148.238 44.1923 147.835 44.5949 147.835 45.1485C147.835 45.7021 148.238 46.1047 148.793 46.1047C149.096 46.1047 149.348 46.0041 149.55 45.7524L150.004 46.155C149.701 46.5073 149.298 46.7086 148.743 46.7086C147.784 46.759 147.078 46.1047 147.078 45.1485Z" fill="#1F1F1F"/>
<path d="M150.206 45.1485C150.206 44.2426 150.912 43.5883 151.871 43.5883C152.83 43.5883 153.536 44.2426 153.536 45.1485C153.536 46.0544 152.83 46.7086 151.871 46.7086C150.912 46.759 150.206 46.0544 150.206 45.1485ZM152.83 45.1485C152.83 44.5949 152.426 44.1923 151.871 44.1923C151.316 44.1923 150.912 44.5949 150.912 45.1485C150.912 45.7021 151.316 46.1047 151.871 46.1047C152.426 46.155 152.83 45.7524 152.83 45.1485Z" fill="#1F1F1F"/>
<path d="M154.041 43.6387H155.403C156.412 43.6387 157.068 44.2426 157.068 45.1485C157.068 46.0544 156.362 46.6583 155.403 46.6583H154.041V43.6387ZM155.403 46.1047C156.008 46.1047 156.412 45.7524 156.412 45.1485C156.412 44.5446 156.008 44.1923 155.403 44.1923H154.747V46.0544H155.403V46.1047Z" fill="#1F1F1F"/>
<path d="M160.045 46.1047V46.6583H157.673V43.6387H159.994V44.1923H158.38V44.8465H159.793V45.4001H158.38V46.1047H160.045Z" fill="#1F1F1F"/>
<path d="M121.547 67.0409H114.13C113.02 67.0409 112.112 66.135 112.112 65.0278V53.5028C112.112 52.3956 113.02 51.4897 114.13 51.4897H121.547C122.657 51.4897 123.566 52.3956 123.566 53.5028V65.0278C123.515 66.135 122.657 67.0409 121.547 67.0409Z" fill="#DDDDDD"/>
<path d="M135.776 67.0409H128.359C127.249 67.0409 126.341 66.135 126.341 65.0278V53.5028C126.341 52.3956 127.249 51.4897 128.359 51.4897H135.776C136.886 51.4897 137.794 52.3956 137.794 53.5028V65.0278C137.744 66.135 136.886 67.0409 135.776 67.0409Z" fill="#DDDDDD"/>
<path d="M150.004 67.0409H142.587C141.477 67.0409 140.569 66.135 140.569 65.0278V53.5028C140.569 52.3956 141.477 51.4897 142.587 51.4897H150.004C151.114 51.4897 152.022 52.3956 152.022 53.5028V65.0278C152.022 66.135 151.114 67.0409 150.004 67.0409Z" fill="#DDDDDD"/>
<path d="M164.233 67.0409H156.816C155.706 67.0409 154.797 66.135 154.797 65.0278V53.5028C154.797 52.3956 155.706 51.4897 156.816 51.4897H164.233C165.343 51.4897 166.251 52.3956 166.251 53.5028V65.0278C166.251 66.135 165.343 67.0409 164.233 67.0409Z" fill="#DDDDDD"/>
<path d="M178.461 67.0409H171.044C169.934 67.0409 169.026 66.135 169.026 65.0278V53.5028C169.026 52.3956 169.934 51.4897 171.044 51.4897H178.461C179.571 51.4897 180.479 52.3956 180.479 53.5028V65.0278C180.479 66.135 179.571 67.0409 178.461 67.0409Z" fill="#DDDDDD"/>
<path d="M120.336 60.4983C120.336 61.6055 119.479 62.3101 118.318 62.3101C116.704 62.3101 115.896 61.1526 115.896 59.2905C115.896 57.227 117.006 56.1702 118.57 56.1702C119.075 56.1702 119.579 56.2708 119.933 56.4721L119.731 56.8244C119.428 56.6231 118.974 56.5728 118.52 56.5728C117.158 56.5728 116.249 57.4787 116.249 59.2401C116.249 59.4414 116.249 59.6931 116.3 59.9447C116.552 59.1395 117.309 58.6865 118.217 58.6865C119.529 58.6865 120.336 59.3911 120.336 60.4983ZM119.882 60.4983C119.882 59.6427 119.277 59.0891 118.217 59.0891C117.208 59.0891 116.552 59.7434 116.552 60.5486C116.552 61.2532 117.158 61.9578 118.268 61.9578C119.226 61.9578 119.882 61.3539 119.882 60.4983Z" fill="#199675"/>
<path d="M134.413 60.5989H133.152V62.2598H132.698V60.5989H129.267V60.297L132.547 56.2205H133.051L129.822 60.1963H132.748V58.7369H133.152V60.1963H134.413V60.5989Z" fill="#199675"/>
<path d="M149.096 63.1153C149.096 63.1656 147.936 63.2663 146.472 63.2663C145.009 63.2663 143.849 63.216 143.849 63.1153C143.849 63.065 145.009 62.9643 146.472 62.9643C147.885 63.0147 149.096 63.065 149.096 63.1153Z" fill="#199675"/>
<path d="M109.842 35.8885C110.51 35.8885 111.053 35.3477 111.053 34.6807C111.053 34.0136 110.51 33.4728 109.842 33.4728C109.173 33.4728 108.631 34.0136 108.631 34.6807C108.631 35.3477 109.173 35.8885 109.842 35.8885Z" fill="#1F1F1F"/>
<path d="M114.635 34.6804C114.635 35.385 114.08 35.8883 113.424 35.8883C112.718 35.8883 112.213 35.3347 112.213 34.6804C112.213 33.9758 112.768 33.4726 113.424 33.4726C114.08 33.4222 114.635 33.9758 114.635 34.6804Z" fill="#1F1F1F"/>
<path d="M116.905 35.8883C117.574 35.8883 118.116 35.3475 118.116 34.6804C118.116 34.0133 117.574 33.4726 116.905 33.4726C116.237 33.4726 115.694 34.0133 115.694 34.6804C115.694 35.3475 116.237 35.8883 116.905 35.8883Z" fill="#1F1F1F"/>
<path d="M186.433 38.153C186.433 38.2033 168.168 38.304 145.615 38.304C123.061 38.304 104.796 38.2537 104.796 38.153C104.796 38.1027 123.061 38.002 145.615 38.002C168.168 38.002 186.433 38.0523 186.433 38.153Z" fill="#1F1F1F"/>
<path d="M94.7554 52.2966H55.4506C54.3406 52.2966 53.3819 53.2025 53.3819 54.36V72.2262C53.3819 73.3334 54.2901 74.2896 55.4506 74.2896H71.9495L75.4309 78.7687L78.3574 74.2896H94.7554C95.8654 74.2896 96.8241 73.3837 96.8241 72.2262V54.36C96.7736 53.2025 95.8654 52.2966 94.7554 52.2966Z" fill="white"/>
<path d="M94.7554 52.2966C94.7554 52.2966 94.8059 52.2966 94.9572 52.2966C95.1086 52.2966 95.26 52.3469 95.5123 52.3972C95.7645 52.4979 96.0168 52.6488 96.2691 52.9005C96.5214 53.1521 96.7232 53.5547 96.8241 54.058C96.8746 56.0208 96.8746 58.8391 96.8746 62.4123C96.8746 64.2241 96.8746 66.1869 96.8746 68.3509C96.8746 69.4078 96.8746 70.515 96.8746 71.6725C96.8746 71.9745 96.8746 72.2765 96.8241 72.5784C96.7736 72.8804 96.6223 73.1824 96.4709 73.434C96.1177 73.9373 95.5123 74.2896 94.8563 74.2896C89.9117 74.2896 84.3616 74.2896 78.3574 74.2896L78.4583 74.2392C77.5501 75.6484 76.541 77.1582 75.5319 78.7184L75.431 78.8693L75.3301 78.7184C74.22 77.3092 73.0596 75.7994 71.8486 74.2392L71.9495 74.2896C67.4085 74.2896 62.6657 74.2896 57.7715 74.2896C57.2165 74.2896 56.6111 74.2896 56.0561 74.2896C55.7533 74.2896 55.501 74.2896 55.1983 74.2896C54.8956 74.2392 54.5928 74.1386 54.3406 73.9876C53.836 73.6856 53.4324 73.1824 53.3315 72.5784C53.281 72.2765 53.281 71.9745 53.281 71.7229V70.8673C53.281 68.6529 53.281 66.4888 53.281 64.3248C53.281 62.1607 53.281 60.0973 53.281 58.0339C53.281 57.0273 53.281 55.9704 53.281 54.9639V54.209C53.281 53.9574 53.3315 53.6554 53.4324 53.4541C53.6342 52.9508 53.9874 52.5482 54.4415 52.2966C54.6938 52.1959 54.946 52.0952 55.1983 52.0952C55.4506 52.0952 55.7029 52.0952 55.9551 52.0952C56.4597 52.0952 56.9138 52.0952 57.4184 52.0952C58.377 52.0952 59.3357 52.0952 60.2439 52.0952C62.1107 52.0952 63.9271 52.0952 65.6931 52.0952C69.2249 52.0952 72.4541 52.0952 75.431 52.0952C81.3847 52.0952 86.2284 52.1456 89.5585 52.1456C91.2235 52.1456 92.5354 52.1456 93.3931 52.1456C93.8472 52.1456 94.15 52.1456 94.4022 52.1456C94.6041 52.2966 94.7554 52.2966 94.7554 52.2966C94.7554 52.2966 94.6545 52.2966 94.4022 52.2966C94.15 52.2966 93.8472 52.2966 93.3931 52.2966C92.4849 52.2966 91.2235 52.2966 89.5585 52.2966C86.2284 52.2966 81.3847 52.2966 75.431 52.3469C72.4541 52.3469 69.1745 52.3469 65.6931 52.3469C63.9271 52.3469 62.1107 52.3469 60.2439 52.3469C59.2852 52.3469 58.377 52.3469 57.4184 52.3469C56.9138 52.3469 56.4597 52.3469 55.9551 52.3469C55.7029 52.3469 55.4506 52.3469 55.2488 52.3469C54.9965 52.3469 54.7947 52.4475 54.5928 52.5482C54.1892 52.7495 53.836 53.1521 53.6847 53.5547C53.5837 53.756 53.5333 54.0077 53.5333 54.2593V55.0142C53.5333 56.0208 53.5333 57.0273 53.5333 58.0842C53.5333 60.1476 53.5333 62.2613 53.5333 64.3751C53.5333 66.5392 53.5333 68.7032 53.5333 70.9176V71.7732C53.5333 72.0752 53.5333 72.3268 53.5837 72.5784C53.6846 73.0817 54.0378 73.5347 54.4919 73.7863C54.6938 73.9373 54.9965 73.9876 55.2488 74.0379C55.501 74.0379 55.8038 74.0379 56.0561 74.0379C56.6111 74.0379 57.1661 74.0379 57.7715 74.0379C62.6657 74.0379 67.4085 74.0379 71.9495 74.0379H72L72.0505 74.0882C73.2614 75.6484 74.4219 77.1582 75.5319 78.5674H75.3301C76.3392 77.0072 77.3483 75.4974 78.2565 74.0882L78.3069 74.0379H78.3574C84.3616 74.0379 89.9117 74.0379 94.8563 74.0379C95.4618 74.0379 96.0168 73.736 96.3195 73.2327C96.4709 72.9811 96.6223 72.7294 96.6727 72.4778C96.7232 72.2261 96.7232 71.9242 96.7232 71.6222C96.7232 70.4647 96.7232 69.3575 96.7232 68.3006C96.7232 66.1365 96.7232 64.1738 96.7232 62.362C96.7232 58.7888 96.7232 55.9704 96.7232 54.0077C96.6727 53.5547 96.4709 53.1521 96.2186 52.8502C95.9664 52.5985 95.7141 52.3972 95.4618 52.3469C95.0077 52.2966 94.7554 52.3469 94.7554 52.2966Z" fill="#1F1F1F"/>
<path d="M67.7113 57.3293V57.9835H67.2572V57.3293L66.5508 56.1214H67.0049L67.5094 56.9267L68.014 56.1214H68.4176L67.7113 57.3293Z" fill="#1F1F1F"/>
<path d="M68.4177 57.0776C68.4177 56.524 68.8718 56.1214 69.4268 56.1214C70.0322 56.1214 70.4359 56.524 70.4359 57.0776C70.4359 57.6312 69.9818 58.0339 69.4268 58.0339C68.8718 58.0339 68.4177 57.6312 68.4177 57.0776ZM70.0322 57.0776C70.0322 56.7254 69.78 56.4737 69.4268 56.4737C69.0736 56.4737 68.8213 56.7254 68.8213 57.0776C68.8213 57.4299 69.0736 57.6816 69.4268 57.6816C69.78 57.6816 70.0322 57.4299 70.0322 57.0776Z" fill="#1F1F1F"/>
<path d="M70.7891 57.1783V56.1214H71.2432V57.128C71.2432 57.4803 71.3945 57.6312 71.6468 57.6312C71.8991 57.6312 72.0505 57.4803 72.0505 57.128V56.1214H72.4541V57.1783C72.4541 57.7319 72.1514 58.0339 71.5963 58.0339C71.0918 58.0339 70.7891 57.7319 70.7891 57.1783Z" fill="#1F1F1F"/>
<path d="M74.1191 57.9835L73.7659 57.4803H73.4127V57.9835H72.9586V56.1214H73.7659C74.2705 56.1214 74.5732 56.3731 74.5732 56.7757C74.5732 57.0776 74.4218 57.279 74.1695 57.3796L74.5732 57.9835H74.1191ZM73.7155 56.4737H73.3623V57.128H73.7155C73.9677 57.128 74.1191 57.0273 74.1191 56.826C74.1191 56.6247 73.9677 56.4737 73.7155 56.4737Z" fill="#1F1F1F"/>
<path d="M75.5319 57.0776C75.5319 56.524 75.986 56.1214 76.541 56.1214C76.8437 56.1214 77.1464 56.2221 77.2978 56.4737L76.9951 56.7254C76.8942 56.5744 76.6923 56.524 76.541 56.524C76.1878 56.524 75.9355 56.7757 75.9355 57.128C75.9355 57.4803 76.1878 57.7319 76.541 57.7319C76.7428 57.7319 76.8942 57.6816 76.9951 57.5306L77.2978 57.7822C77.1464 57.9835 76.8437 58.1345 76.541 58.1345C75.9355 58.0339 75.5319 57.6312 75.5319 57.0776Z" fill="#1F1F1F"/>
<path d="M77.4492 57.0776C77.4492 56.524 77.9033 56.1214 78.4583 56.1214C79.0637 56.1214 79.4674 56.524 79.4674 57.0776C79.4674 57.6312 79.0133 58.0339 78.4583 58.0339C77.9033 58.0339 77.4492 57.6312 77.4492 57.0776ZM79.0637 57.0776C79.0637 56.7254 78.8115 56.4737 78.4583 56.4737C78.1051 56.4737 77.8528 56.7254 77.8528 57.0776C77.8528 57.4299 78.1051 57.6816 78.4583 57.6816C78.8115 57.6816 79.0637 57.4299 79.0637 57.0776Z" fill="#1F1F1F"/>
<path d="M79.8206 56.1214H80.6783C81.2838 56.1214 81.6874 56.4737 81.6874 57.0776C81.6874 57.6312 81.2838 58.0339 80.6783 58.0339H79.8206V56.1214ZM80.6278 57.6312C80.981 57.6312 81.2333 57.4299 81.2333 57.0776C81.2333 56.7254 80.981 56.524 80.6278 56.524H80.2242V57.6816H80.6278V57.6312Z" fill="#1F1F1F"/>
<path d="M83.4534 57.6312V57.9835H81.9902V56.1214H83.4029V56.4737H82.4443V56.8763H83.302V57.2286H82.4443V57.6816H83.4534V57.6312Z" fill="#1F1F1F"/>
<path d="M90.9208 70.213H59.2852C58.2761 70.213 57.5193 69.4078 57.5193 68.4516V61.8084C57.5193 60.8018 58.3266 60.0469 59.2852 60.0469H90.9208C91.9299 60.0469 92.6868 60.8522 92.6868 61.8084V68.4516C92.6868 69.4078 91.8795 70.213 90.9208 70.213Z" fill="#F5F5F5"/>
<path d="M64.6335 65.6836C64.6335 66.5895 63.9271 67.1934 62.9685 67.1934C61.6566 67.1934 60.9503 66.2372 60.9503 64.7274C60.9503 63.0666 61.8585 62.211 63.1703 62.211C63.5739 62.211 63.9776 62.2614 64.2803 62.4627L64.129 62.7646C63.8767 62.6136 63.5235 62.513 63.1703 62.513C62.0603 62.513 61.3034 63.2176 61.3034 64.6771C61.3034 64.828 61.3034 65.0294 61.3539 65.281C61.5557 64.6267 62.1612 64.2744 62.918 64.2744C63.9776 64.2241 64.6335 64.828 64.6335 65.6836ZM64.2803 65.7339C64.2803 65.0294 63.7758 64.5764 62.918 64.5764C62.1107 64.5764 61.5557 65.0797 61.5557 65.7339C61.5557 66.3379 62.0603 66.8915 62.9685 66.8915C63.7253 66.8915 64.2803 66.4385 64.2803 65.7339Z" fill="#199675"/>
<path d="M71.2432 65.7843H70.1836V67.1431H69.8304V65.7843H67.0049V65.5326L69.6791 62.211H70.0827L67.459 65.4823H69.8304V64.2744H70.1836V65.4823H71.2432V65.7843Z" fill="#199675"/>
<path d="M76.7428 65.7843C76.7428 66.5895 76.1374 67.1934 75.0274 67.1934C74.321 67.1934 73.6146 66.9418 73.2614 66.5392L73.4632 66.2875C73.766 66.6398 74.3714 66.8915 75.0274 66.8915C75.9356 66.8915 76.3897 66.4888 76.3897 65.7843C76.3897 65.13 75.9356 64.6771 74.9264 64.6771H74.6237V64.4254L76.0869 62.5633H73.4632V62.2614H76.5915V62.513L75.0778 64.4254C76.1878 64.3751 76.7428 64.979 76.7428 65.7843Z" fill="#199675"/>
<path d="M82.747 62.211V62.4627L80.6279 67.1431H80.2243L82.3434 62.513H79.5683V63.4692H79.2151V62.211H82.747Z" fill="#199675"/>
<path d="M85.2698 64.6771C85.2698 63.1169 86.0771 62.1607 87.2376 62.1607C88.3981 62.1607 89.2054 63.1169 89.2054 64.6771C89.2054 66.2372 88.3981 67.1934 87.2376 67.1934C86.0771 67.1934 85.2698 66.2372 85.2698 64.6771ZM88.8017 64.6771C88.8017 63.3182 88.1458 62.513 87.2376 62.513C86.2789 62.513 85.6735 63.3182 85.6735 64.6771C85.6735 66.0359 86.3294 66.8411 87.2376 66.8411C88.1963 66.8915 88.8017 66.0862 88.8017 64.6771Z" fill="#199675"/>
<path d="M193.497 194.32C200.106 191.502 207.725 186.016 211.156 179.272C204.042 182.141 197.735 187.476 193.497 194.32Z" fill="#1F1F1F"/>
<path d="M194.91 183.852C201.519 181.034 209.138 175.548 212.569 168.804C205.404 171.673 199.148 177.007 194.91 183.852Z" fill="#1F1F1F"/>
<path d="M196.776 173.636C203.386 170.817 211.005 165.332 214.436 158.588C207.322 161.456 201.065 166.841 196.776 173.636Z" fill="#1F1F1F"/>
<path d="M199.198 163.016C205.455 159.343 212.367 152.8 214.94 145.654C208.23 149.478 202.629 155.618 199.198 163.016Z" fill="#1F1F1F"/>
<path d="M201.771 154.813C206.312 148.875 210.551 140.067 210.5 132.418C205.505 138.708 202.377 146.66 201.771 154.813Z" fill="#1F1F1F"/>
<path d="M200.51 158.739C199.602 150.737 196.474 140.671 191.176 134.632C191.983 143.188 195.313 151.793 200.51 158.739Z" fill="#1F1F1F"/>
<path d="M198.341 167.496C196.726 159.242 192.639 149.026 186.635 143.238C188.199 152.095 192.387 160.701 198.341 167.496Z" fill="#1F1F1F"/>
<path d="M195.919 178.165C194.304 169.911 190.217 159.695 184.213 153.907C185.777 162.765 189.914 171.371 195.919 178.165Z" fill="#1F1F1F"/>
<path d="M193.951 191.3C192.336 183.047 188.249 172.83 182.245 167.043C183.809 175.9 187.947 184.506 193.951 191.3Z" fill="#1F1F1F"/>
<path d="M202.074 153.253C202.074 153.253 202.074 153.303 202.024 153.354C201.973 153.454 201.973 153.555 201.923 153.706C201.822 154.058 201.671 154.511 201.469 155.115C201.065 156.373 200.51 158.185 199.905 160.399C199.249 162.664 198.593 165.332 197.836 168.301C197.13 171.32 196.423 174.592 195.767 178.115C195.111 181.587 194.556 184.959 194.153 188.029C193.749 191.099 193.396 193.817 193.194 196.132C192.942 198.447 192.79 200.309 192.74 201.617C192.689 202.272 192.689 202.775 192.639 203.127C192.639 203.278 192.639 203.429 192.639 203.53C192.639 203.429 192.689 203.278 192.689 203.127C192.74 202.775 192.79 202.272 192.841 201.617C192.942 200.309 193.144 198.447 193.396 196.132C193.648 193.817 194.001 191.049 194.405 188.029C194.859 184.959 195.414 181.638 196.07 178.165C196.726 174.692 197.432 171.371 198.139 168.351C198.845 165.332 199.501 162.664 200.106 160.399C200.712 158.135 201.216 156.323 201.57 155.065C201.721 154.461 201.872 153.958 201.973 153.605C202.024 153.454 202.024 153.303 202.074 153.253Z" fill="#1F1F1F"/>
<path d="M190.268 198.648C193.093 192.81 195.111 184.557 193.749 178.165C190.621 184.355 189.41 191.653 190.268 198.648Z" fill="#455A64"/>
<path d="M185.626 191.099C188.451 185.261 190.47 177.007 189.107 170.616C185.979 176.806 184.718 184.104 185.626 191.099Z" fill="#455A64"/>
<path d="M181.438 183.399C184.264 177.561 186.282 169.307 184.919 162.916C181.791 169.106 180.53 176.404 181.438 183.399Z" fill="#455A64"/>
<path d="M177.301 175.095C179.369 168.905 180.429 160.45 178.31 154.26C175.989 160.852 175.585 168.251 177.301 175.095Z" fill="#455A64"/>
<path d="M174.626 168.251C174.425 161.658 172.457 153.404 168.37 148.522C168.471 155.618 170.691 162.664 174.626 168.251Z" fill="#455A64"/>
<path d="M175.888 171.522C171.044 166.942 163.627 162.413 157.018 161.809C162.114 166.841 168.824 170.264 175.888 171.522Z" fill="#455A64"/>
<path d="M179.167 178.467C173.718 174.139 165.645 170.113 158.632 170.113C164.384 174.843 171.65 177.813 179.167 178.467Z" fill="#455A64"/>
<path d="M183.254 186.821C177.805 182.493 169.732 178.467 162.719 178.467C168.471 183.198 175.737 186.167 183.254 186.821Z" fill="#455A64"/>
<path d="M188.956 196.434C183.507 192.106 175.434 188.079 168.42 188.079C174.172 192.81 181.488 195.779 188.956 196.434Z" fill="#455A64"/>
<path d="M173.971 167.093C173.971 167.093 173.971 167.143 174.021 167.194C174.071 167.294 174.072 167.395 174.122 167.496C174.223 167.798 174.374 168.2 174.576 168.703C174.98 169.71 175.585 171.22 176.342 173.032C177.906 176.655 180.177 181.587 183.053 186.872C184.465 189.539 185.929 192.005 187.291 194.219C188.653 196.434 189.915 198.447 191.025 200.057C192.135 201.718 193.043 203.027 193.648 203.882C193.951 204.335 194.203 204.637 194.405 204.889C194.506 204.989 194.556 205.09 194.607 205.14C194.556 205.09 194.506 204.989 194.405 204.838C194.254 204.587 194.001 204.234 193.699 203.782C193.093 202.876 192.185 201.567 191.125 199.906C190.066 198.246 188.805 196.283 187.442 194.018C186.13 191.804 184.667 189.287 183.254 186.67C180.378 181.386 178.057 176.454 176.493 172.881C175.686 171.069 175.081 169.609 174.627 168.603C174.425 168.1 174.273 167.697 174.122 167.445C174.072 167.345 174.021 167.244 173.971 167.143C174.021 167.093 174.021 167.093 173.971 167.093Z" fill="#1F1F1F"/>
<path d="M176.947 199.353H204.748V204.738H201.872L199.501 219.987H182.296L179.823 204.738H176.947V199.353Z" fill="#199675"/>
<path d="M176.947 204.637C176.947 204.587 183.153 204.486 190.772 204.486C198.391 204.486 204.597 204.536 204.597 204.637C204.597 204.687 198.391 204.788 190.772 204.788C183.103 204.738 176.947 204.687 176.947 204.637Z" fill="#1F1F1F"/>
<path d="M17.5081 219.987H12.9671L11.3021 199.705H16.6503L17.5081 219.987Z" fill="#1F1F1F"/>
<path d="M56.6616 219.987H61.1521L62.8171 199.705H57.5193L56.6616 219.987Z" fill="#1F1F1F"/>
<path d="M65.9454 202.272L7.82063 203.631L6.05469 166.187C5.90332 162.513 8.82974 159.443 12.513 159.443H62.0603C65.794 159.443 68.7709 162.614 68.5186 166.338L65.9454 202.272Z" fill="#199675"/>
<path d="M68.9222 166.036C68.9222 166.036 68.8718 166.036 68.7709 166.036C68.67 166.036 68.4681 166.036 68.3168 166.036C67.8627 166.036 67.2572 166.036 66.5004 166.086C64.8858 166.086 62.6153 166.086 59.7393 166.086C54.0379 166.086 46.1668 166.036 37.4885 166.237C28.8101 166.539 20.9391 166.489 15.2376 166.388C12.4121 166.338 10.0911 166.288 8.47655 166.237C7.71972 166.187 7.0638 166.187 6.66015 166.187C6.45833 166.187 6.30697 166.187 6.20605 166.187C6.30697 166.187 6.50879 166.187 6.66015 166.187C7.11425 166.187 7.71972 166.187 8.47655 166.187C10.0911 166.187 12.3616 166.237 15.2376 166.237C20.9391 166.288 28.8101 166.288 37.4885 165.986C46.1668 165.784 54.0379 165.885 59.7393 165.935C62.5648 165.935 64.8858 165.986 66.5004 165.986C67.3077 165.986 67.9131 165.986 68.3168 165.986C68.5186 165.986 68.67 165.986 68.7709 165.986C68.8718 166.036 68.9222 166.036 68.9222 166.036Z" fill="#1F1F1F"/>
<path d="M27.246 160.047C27.246 160.148 25.4296 160.148 23.4619 161.154C21.4941 162.161 20.3841 163.62 20.3336 163.52C20.3336 163.52 20.5354 163.117 21.04 162.564C21.5446 162.01 22.3518 161.406 23.3105 160.852C24.3196 160.349 25.2783 160.097 26.0351 159.997C26.7919 159.947 27.246 159.997 27.246 160.047Z" fill="#1F1F1F"/>
<path d="M51.1619 91.9041L58.2761 104.838L68.6699 99.0506L73.7155 100.711C73.7155 100.711 60.9503 114.551 58.8816 115.206C56.8129 115.91 52.8774 116.061 50.6573 113.243C48.6391 110.676 42.6854 97.2891 42.6854 97.2891L51.1619 91.9041Z" fill="#FFBE9D"/>
<path d="M80.4261 83.4491C80.2243 83.1975 79.972 83.0968 79.6693 83.1472L74.7246 83.8014C74.2705 83.8517 73.9173 84.1034 73.6651 84.506L63.3721 100.258L64.1794 100.711L69.6791 100.56L80.6279 83.6504L80.4261 83.4491Z" fill="#1F1F1F"/>
<path d="M76.8942 85.5125C76.9951 85.6132 77.1969 85.5629 77.2978 85.4119C77.3987 85.2609 77.4492 85.0596 77.3483 85.0093C77.2474 84.9086 77.0455 84.959 76.9446 85.1099C76.8437 85.2106 76.7933 85.4119 76.8942 85.5125Z" fill="white"/>
<path d="M80.5774 83.6504C80.5774 83.6504 80.2243 83.7511 79.6188 83.8517C78.9629 83.9524 78.0547 84.1034 76.9951 84.2543C76.4401 84.355 75.8346 84.4053 75.1787 84.506C74.876 84.5563 74.5732 84.7073 74.4219 84.9589C74.22 85.2609 74.0182 85.5629 73.8164 85.8648C73.0091 87.123 72.1009 88.4818 71.1927 89.891C69.3259 92.7597 67.6104 95.3263 66.349 97.1885C65.7435 98.0943 65.239 98.7989 64.8353 99.4028C64.4821 99.9061 64.2803 100.208 64.2299 100.208C64.2299 100.208 64.3812 99.9061 64.7344 99.3525C65.0876 98.7989 65.5922 98.044 66.1472 97.0878C67.3581 95.1754 69.0231 92.6087 70.89 89.74C71.8486 88.3309 72.7064 86.972 73.5137 85.7138C73.7155 85.4119 73.9173 85.1099 74.1191 84.8079C74.321 84.506 74.7246 84.3047 75.0778 84.2543C75.7337 84.1537 76.3392 84.1034 76.8942 84.0027C77.9538 83.8517 78.862 83.7511 79.5179 83.7008C80.2243 83.6504 80.5774 83.6504 80.5774 83.6504Z" fill="#455A64"/>
<path d="M75.0778 89.2871C75.0778 89.2871 74.6237 89.1864 74.3714 90.3943C74.1191 91.6021 73.3623 95.0747 73.3623 95.0747L71.0414 93.8669L68.1654 94.2191C68.1654 94.2191 67.5095 94.8231 68.014 95.125C68.4681 95.427 70.2845 95.7793 70.2845 95.7793L71.6468 97.6917L67.7617 95.8296C67.7617 95.8296 66.4499 96.1819 66.8535 96.9368C67.2067 97.7421 69.8304 100.158 69.8304 100.158L67.9131 100.007L65.5922 98.6479C65.5922 98.6479 64.8858 98.6983 65.1381 99.3022C65.3903 99.9061 67.8122 102.07 67.8122 102.07L70.7386 103.479C70.7386 103.479 72.3027 103.379 72.4541 102.875C72.6055 102.422 72.6559 101.768 72.6559 101.768C72.6559 101.768 73.5137 101.567 73.665 101.114C73.8164 100.711 73.7155 100.057 73.7155 100.057C73.7155 100.057 75.0273 100.309 75.1787 99.5538C75.3301 98.7989 75.2292 97.3898 75.0778 96.7858C74.9264 96.2322 75.6328 90.9479 75.5823 90.7969C75.5319 90.6962 75.8851 88.9348 75.0778 89.2871Z" fill="#FFBE9D"/>
<path d="M72.555 102.875C72.555 102.926 72.3027 103.026 71.7982 103.127C71.2936 103.228 70.6377 103.228 69.8809 103.026C69.1241 102.875 68.5186 102.523 68.1149 102.221C67.7113 101.919 67.5095 101.718 67.5599 101.668C67.6104 101.617 68.5186 102.372 69.9313 102.724C71.3946 103.127 72.555 102.825 72.555 102.875Z" fill="#EB996E"/>
<path d="M71.8991 101.869C71.8487 101.919 71.3441 101.668 70.7891 101.215C70.2341 100.762 69.8809 100.309 69.9314 100.258C69.9818 100.208 70.4359 100.56 70.9909 100.963C71.4955 101.416 71.9496 101.768 71.8991 101.869Z" fill="#EB996E"/>
<path d="M73.4127 99.3525C73.3623 99.4029 72.8577 99.1512 72.3532 98.6983C71.8486 98.2453 71.5459 97.7421 71.5963 97.6917C71.6468 97.6414 72.0504 98.044 72.555 98.497C73.0596 98.8996 73.4632 99.3022 73.4127 99.3525Z" fill="#EB996E"/>
<path d="M75.0273 97.3394C74.9264 97.3898 74.6742 96.8362 74.2201 96.2322C73.766 95.6283 73.3119 95.2257 73.3623 95.1251C73.4128 95.0747 73.9678 95.3767 74.4723 96.0309C74.9264 96.6852 75.0778 97.2891 75.0273 97.3394Z" fill="#EB996E"/>
<path d="M76.9951 190.696C76.9951 190.696 77.0456 190.545 76.9951 190.244C76.9446 189.942 76.8437 189.489 76.4905 189.036C76.3896 188.935 76.3392 188.784 76.1878 188.683C76.0869 188.583 75.8346 188.482 75.6328 188.583C75.5319 188.633 75.431 188.683 75.3805 188.834C75.3301 188.935 75.3805 189.086 75.3805 189.136C75.431 189.338 75.5319 189.489 75.6328 189.64C75.8346 189.942 75.986 190.244 76.2383 190.646C76.3392 190.847 76.6419 190.998 76.8942 190.948C77.1465 190.898 77.3483 190.797 77.4997 190.696C77.8528 190.445 78.1556 190.143 78.4078 189.841C78.5592 189.69 78.6601 189.539 78.761 189.388C78.862 189.237 78.9629 189.086 79.0133 188.834C79.0638 188.633 78.9629 188.331 78.761 188.23C78.5088 188.13 78.3069 188.281 78.206 188.381C77.9538 188.633 77.7519 188.834 77.6006 189.086C77.2978 189.539 77.096 189.942 76.9951 190.244C76.8942 190.545 76.8942 190.696 76.8942 190.696C76.9446 190.696 77.096 190.042 77.7519 189.187C77.9033 188.985 78.1051 188.734 78.3574 188.583C78.4583 188.482 78.6097 188.432 78.7106 188.482C78.8115 188.532 78.8619 188.633 78.8115 188.784C78.761 188.935 78.6601 189.086 78.5592 189.237C78.4583 189.388 78.3574 189.539 78.206 189.69C77.9538 189.992 77.651 190.244 77.3483 190.495C77.1969 190.596 77.0456 190.696 76.8437 190.696C76.6924 190.696 76.541 190.646 76.4401 190.495C76.2383 190.193 76.0364 189.841 75.8851 189.539C75.7842 189.388 75.6833 189.237 75.6328 189.086C75.5823 188.935 75.6328 188.885 75.6833 188.834C75.8851 188.734 76.1374 188.985 76.2383 189.187C76.9446 189.992 76.9446 190.696 76.9951 190.696Z" fill="#1F1F1F"/>
<path d="M64.5831 191.099L58.4275 204.385L48.4878 199.806L54.8452 183.349L64.5831 191.099Z" fill="#FFBE9D"/>
<path d="M59.588 203.53L56.0056 210.374C56.0056 210.374 65.1885 219.886 64.3308 222L42.6854 211.633L48.6391 197.893L59.588 203.53Z" fill="#455A64"/>
<path d="M49.7491 206.248C49.295 206.147 48.74 206.499 48.6391 206.952C48.5382 207.405 48.8914 207.959 49.3455 208.059C49.7996 208.16 50.4555 207.757 50.506 207.304C50.5564 206.851 50.1528 206.248 49.6482 206.248" fill="#CCCCCC"/>
<g opacity="0.6">
<path d="M42.6854 211.633L43.5936 209.921L64.028 220.49C64.028 220.49 64.7849 221.346 64.3812 222L42.6854 211.633Z" fill="white"/>
</g>
<path d="M56.4093 210.425C56.3588 210.525 55.8038 210.324 55.0974 210.425C54.391 210.475 53.9369 210.827 53.836 210.727C53.7351 210.676 54.1892 210.123 55.047 210.022C55.9047 209.921 56.4597 210.324 56.4093 210.425Z" fill="#1F1F1F"/>
<path d="M58.2257 212.438C58.2257 212.538 57.6707 212.488 57.0652 212.79C56.4597 213.042 56.157 213.495 56.0561 213.444C55.9552 213.394 56.157 212.74 56.9138 212.438C57.6202 212.086 58.2761 212.337 58.2257 212.438Z" fill="#1F1F1F"/>
<path d="M58.2257 215.759C58.1247 215.759 58.2256 215.155 58.7807 214.703C59.3357 214.25 59.9411 214.25 59.9411 214.35C59.9411 214.451 59.487 214.602 59.0329 215.005C58.5788 215.357 58.3266 215.81 58.2257 215.759Z" fill="#1F1F1F"/>
<path d="M57.4184 207.808C57.3175 207.858 56.9138 207.506 56.3084 207.254C55.7029 207.002 55.1479 206.952 55.1479 206.851C55.1479 206.751 55.7534 206.55 56.5102 206.851C57.1661 207.153 57.5193 207.707 57.4184 207.808Z" fill="#1F1F1F"/>
<path d="M61.6062 201.768L77.8529 161.255C77.8529 161.255 77.4997 154.36 76.1878 152.146C74.9264 149.982 36.2271 137.249 36.2271 137.249C36.2271 137.249 26.3882 134.884 19.829 137.249C13.2698 139.614 8.32517 147.818 9.23337 152.347C10.1416 156.877 13.9762 160.248 13.9762 160.248L42.3826 161.104L57.8725 166.741L47.4282 196.585L61.6062 201.768Z" fill="#1F1F1F"/>
<path d="M76.0364 174.038L76.4401 188.734L65.4912 188.985L63.9271 171.421L76.0364 174.038Z" fill="#FFBE9D"/>
<path d="M77.096 187.425L76.8942 195.125C76.8942 195.125 89.3567 199.604 89.5081 201.869L65.4913 202.121L64.7344 187.174L77.096 187.425Z" fill="#455A64"/>
<path d="M69.4268 194.169C68.9727 194.32 68.6699 194.823 68.7708 195.276C68.8718 195.729 69.4268 196.081 69.8809 195.93C70.335 195.83 70.7386 195.176 70.5872 194.723C70.4359 194.27 69.78 193.917 69.3763 194.169" fill="#CCCCCC"/>
<g opacity="0.6">
<path d="M65.4913 202.121L65.5417 200.158L88.5494 200.661C88.5494 200.661 89.609 201.114 89.5081 201.869L65.4913 202.121Z" fill="white"/>
</g>
<path d="M77.2474 195.025C77.2474 195.125 76.6419 195.176 76.0869 195.578C75.4814 195.93 75.2292 196.434 75.1282 196.434C75.0273 196.434 75.1787 195.729 75.8851 195.276C76.5915 194.773 77.2978 194.874 77.2474 195.025Z" fill="#1F1F1F"/>
<path d="M79.7702 196.031C79.8206 196.132 79.316 196.333 78.9124 196.836C78.5088 197.34 78.4079 197.843 78.3069 197.843C78.206 197.843 78.1051 197.189 78.6097 196.585C79.1142 195.981 79.7702 195.88 79.7702 196.031Z" fill="#1F1F1F"/>
<path d="M81.2334 199C81.1325 199.051 80.9811 198.447 81.2334 197.793C81.5361 197.138 82.0911 196.887 82.1416 196.987C82.1921 197.088 81.8389 197.44 81.637 197.944C81.3848 198.497 81.3848 199 81.2334 199Z" fill="#1F1F1F"/>
<path d="M77.0456 192.206C76.9951 192.307 76.4401 192.156 75.7842 192.206C75.1283 192.257 74.6237 192.458 74.5228 192.357C74.4724 192.257 74.9769 191.854 75.7338 191.804C76.541 191.703 77.096 192.106 77.0456 192.206Z" fill="#1F1F1F"/>
<path d="M69.6791 133.374C69.6791 133.374 76.2383 132.87 76.9447 139.967C77.651 147.063 78.4079 180.178 78.4079 180.178L63.0694 181.436L60.698 147.616L36.2775 137.249C36.2775 137.199 65.2894 132.468 69.6791 133.374Z" fill="#1F1F1F"/>
<path d="M42.6349 123.812C42.6349 123.812 46.6209 134.934 45.8641 136.192C45.1073 137.45 34.8648 142.533 34.8648 142.533L9.28384 152.347C9.28384 152.347 6.66016 148.17 6.66016 141.778C6.66016 135.387 15.5403 123.812 15.5403 123.812H42.6349Z" fill="#1F1F1F"/>
<path d="M35.0666 136.645C35.0666 136.645 35.117 136.695 35.1675 136.695C35.2684 136.746 35.3693 136.796 35.5207 136.846C35.8739 136.997 36.328 137.199 36.9334 137.45C38.1948 138.004 40.0112 138.759 42.2313 139.765C46.7723 141.728 53.1801 144.496 60.5971 147.667L60.4962 147.566C60.7484 150.888 61.0007 154.511 61.253 158.235C61.8585 166.942 62.4639 174.994 62.918 181.386V181.487H63.0189C67.6608 181.084 71.4955 180.732 74.1696 180.53C75.4814 180.43 76.541 180.329 77.2474 180.228C77.6006 180.178 77.8529 180.178 78.0547 180.128C78.2565 180.128 78.307 180.077 78.307 180.077C78.307 180.077 78.206 180.077 78.0547 180.077C77.8529 180.077 77.6006 180.128 77.2474 180.128C76.541 180.178 75.4814 180.279 74.1696 180.329C71.4955 180.53 67.6608 180.832 63.0189 181.185L63.1198 181.285C62.6658 174.894 62.1107 166.892 61.5053 158.135C61.253 154.411 61.0007 150.787 60.7484 147.465V147.365L60.6475 147.314C53.2306 144.194 46.8227 141.476 42.2313 139.514C39.9608 138.557 38.1444 137.803 36.883 137.299C36.2775 137.048 35.773 136.846 35.4702 136.695C35.3189 136.645 35.218 136.595 35.117 136.544C35.117 136.645 35.0666 136.645 35.0666 136.645Z" fill="#455A64"/>
<path d="M14.6826 137.752C14.6826 137.752 14.9348 137.702 15.3889 137.551C15.8935 137.4 16.5494 137.199 17.3062 136.947C18.9208 136.444 21.1913 135.739 23.7645 135.336C26.3378 134.934 28.7092 135.085 30.3742 135.437C32.0392 135.789 32.9979 136.242 32.9979 136.192C32.9979 136.192 32.7961 136.041 32.342 135.84C31.8879 135.638 31.232 135.437 30.4247 135.236C28.7596 134.833 26.3378 134.682 23.7141 135.085C21.0904 135.487 18.8704 136.242 17.2558 136.796C16.4485 137.098 15.7926 137.35 15.3385 137.501C14.9348 137.652 14.6826 137.752 14.6826 137.752Z" fill="#455A64"/>
<path d="M18.3154 131.914C18.3154 131.965 19.1731 131.814 20.5354 131.914C21.2418 131.965 22.0491 132.065 22.9573 132.166C23.8655 132.267 24.8746 132.418 25.8837 132.568C27.9524 132.921 29.7688 133.676 30.8788 134.431C32.0393 135.186 32.5943 135.89 32.5943 135.84C32.5943 135.84 32.4934 135.638 32.2411 135.336C31.9888 135.035 31.5852 134.632 30.9797 134.229C29.8192 133.424 28.0028 132.619 25.8837 132.267C24.8241 132.065 23.815 131.965 22.9068 131.864C21.9986 131.763 21.1409 131.663 20.485 131.663C19.7786 131.663 19.2236 131.663 18.8199 131.713C18.5172 131.814 18.3154 131.864 18.3154 131.914Z" fill="#455A64"/>
<path d="M29.6174 42.4827C26.691 41.9795 24.0673 43.137 21.595 44.7475C19.1226 46.4083 17.2558 48.9246 16.1458 51.6926C14.9853 54.6116 14.733 57.9332 15.5908 60.9025C16.4485 63.9221 18.5172 66.6398 21.3427 68.049C25.1773 70.0117 30.0715 69.3072 33.5025 66.7405C36.9334 64.1738 38.9012 59.896 39.0526 55.6181C39.1535 52.6488 38.4471 49.6292 36.7821 47.2135C35.218 44.7475 32.5438 42.9357 29.6174 42.4827Z" fill="#1F1F1F"/>
<path d="M21.2418 52.4979C21.6959 51.3907 21.494 50.1325 21.6959 48.9246C22.0491 46.3076 24.1682 44.1939 26.6405 43.1873C28.911 42.2311 31.6861 42.4324 34.4611 43.3383C36.328 43.9422 38.0939 44.9991 39.3553 46.5089C41.0203 48.522 41.6258 51.3907 40.869 53.907L27.3973 51.9443C26.136 53.0011 24.8241 54.058 23.3104 54.6116C22.8563 54.7626 22.4022 54.9136 21.8977 54.8129C21.4436 54.7626 20.939 54.4103 20.8381 53.9573C20.7877 53.4541 21.0904 53.0011 21.2418 52.4979Z" fill="#1F1F1F"/>
<path d="M34.7134 47.0122L22.9573 49.4782C21.7968 49.5789 20.9391 50.4848 20.8886 51.6423L21.04 77.0072C21.04 78.7184 21.6454 80.4295 22.705 81.7883L23.815 83.2478C26.3883 86.5191 31.5347 86.2171 33.5025 82.5432C33.6539 82.2916 33.7548 82.04 33.7548 81.889C33.8052 81.6373 33.8557 81.4864 33.8557 81.3354L34.0575 78.8693C34.1584 76.6046 34.2089 74.3399 34.2089 74.3399C34.2089 74.3399 39.0021 73.736 40.2635 67.5457C40.869 64.4757 40.9194 59.3927 40.8185 55.2659C40.7681 51.441 38.4471 46.7606 34.7134 47.0122Z" fill="#FFBE9D"/>
<path d="M39.0526 59.9463C39.0526 60.3489 38.6994 60.7012 38.2453 60.7012C37.7912 60.7012 37.438 60.3489 37.438 59.9463C37.438 59.5437 37.7912 59.1914 38.2453 59.1914C38.6994 59.1914 39.0526 59.4934 39.0526 59.9463Z" fill="#1F1F1F"/>
<path d="M39.6581 57.7822C39.5572 57.8829 38.9517 57.4299 38.0939 57.3796C37.2362 57.3293 36.5803 57.7319 36.4794 57.6313C36.4289 57.5809 36.5298 57.3796 36.8326 57.2286C37.1353 57.0273 37.5894 56.8763 38.0939 56.8763C38.649 56.8763 39.0526 57.128 39.3049 57.3293C39.6076 57.5306 39.7085 57.7319 39.6581 57.7822Z" fill="#1F1F1F"/>
<path d="M31.3833 59.745C31.3833 60.1476 31.0301 60.4999 30.576 60.4999C30.1219 60.4999 29.7687 60.1476 29.7687 59.745C29.7687 59.3424 30.1219 58.9901 30.576 58.9901C31.0301 58.9901 31.3833 59.3424 31.3833 59.745Z" fill="#1F1F1F"/>
<path d="M31.4842 57.5809C31.3833 57.6816 30.7779 57.2286 29.9201 57.1783C29.0624 57.128 28.4065 57.5306 28.3055 57.4299C28.2551 57.3796 28.356 57.1783 28.6587 57.0273C28.9615 56.826 29.4156 56.675 29.9201 56.675C30.4751 56.675 30.8788 56.9267 31.1311 57.128C31.4338 57.3293 31.5347 57.5306 31.4842 57.5809Z" fill="#1F1F1F"/>
<path d="M34.0575 64.0731C34.0575 64.0228 34.6125 63.9725 35.4703 63.8718C35.6721 63.8718 35.9244 63.8215 35.9244 63.6705C35.9748 63.5195 35.9244 63.2679 35.8234 63.0162C35.6216 62.4626 35.4198 61.909 35.218 61.3051C34.4107 58.8894 33.8557 56.9266 33.9061 56.8763C34.007 56.826 34.7639 58.7887 35.5712 61.2045C35.773 61.8084 35.9748 62.362 36.1262 62.9156C36.1766 63.1672 36.328 63.4692 36.2271 63.7711C36.1766 63.9221 35.9748 64.0228 35.8739 64.0731C35.7225 64.1234 35.6216 64.1234 35.5207 64.1234C34.6125 64.1738 34.0575 64.1234 34.0575 64.0731Z" fill="#1F1F1F"/>
<path d="M34.2593 74.2392C34.2593 74.2392 30.0715 74.3399 25.9846 71.6725C25.9846 71.6725 27.9019 76.051 34.1584 75.6987L34.2593 74.2392Z" fill="#EB996E"/>
<path d="M33.6034 66.1366C33.3006 65.7339 32.7961 65.4823 32.2411 65.5326C31.8879 65.583 31.4843 65.7339 31.232 66.0359C30.9797 66.3379 30.9292 66.7405 31.1311 67.0424C31.3329 67.3947 31.8374 67.4954 32.2411 67.3947C32.6447 67.2941 32.9979 67.0424 33.3511 66.7908C33.452 66.7405 33.5529 66.6398 33.6034 66.5392C33.7043 66.3882 33.7043 66.2372 33.6034 66.1366Z" fill="#EB996E"/>
<path d="M31.5347 64.5764C31.6861 64.5764 31.6356 65.4823 32.3925 66.1869C33.1493 66.8914 34.1584 66.7908 34.1584 66.9418C34.1584 66.9921 33.9061 67.0927 33.5025 67.0927C33.0988 67.0927 32.4934 66.9418 32.0393 66.4888C31.5852 66.0862 31.3834 65.5326 31.3834 65.13C31.3329 64.828 31.4338 64.5764 31.5347 64.5764Z" fill="#1F1F1F"/>
<path d="M31.4338 55.0142C31.3328 55.2659 30.4751 55.1149 29.466 55.1652C28.4569 55.2155 27.6496 55.4672 27.4982 55.2659C27.4478 55.1652 27.5991 54.9639 27.9523 54.7123C28.3055 54.5109 28.8101 54.3096 29.4155 54.2593C30.021 54.209 30.576 54.3096 30.9292 54.511C31.2824 54.7123 31.4842 54.9136 31.4338 55.0142Z" fill="#1F1F1F"/>
<path d="M39.5571 54.0077C39.4058 54.209 38.8003 53.9574 38.0939 53.9574C37.3876 53.907 36.7821 54.058 36.6307 53.8064C36.5803 53.7057 36.6812 53.5044 36.9334 53.3534C37.1857 53.2024 37.6398 53.0515 38.1444 53.1018C38.6489 53.1521 39.0526 53.3534 39.3049 53.5547C39.5571 53.7057 39.6076 53.907 39.5571 54.0077Z" fill="#1F1F1F"/>
<path d="M19.1227 50.6861C20.3336 47.1129 25.6819 42.2814 29.4156 42.5834L35.3693 46.3076C34.9657 48.371 33.3511 50.0822 31.3329 50.6861C30.2733 50.9881 28.9615 51.0384 28.3056 51.9443C27.6496 52.8502 28.0028 54.209 27.3469 55.1652C26.4892 56.4737 24.2187 56.3731 23.5627 57.7822C23.26 58.3862 23.4114 59.1411 23.1086 59.7953C22.705 60.6006 20.5859 61.6574 19.7281 61.3555C18.8704 61.0535 18.8704 59.594 18.6181 58.7888C18.164 57.4299 18.3658 56.7757 18.5677 56.0208C18.9713 54.2593 18.5172 52.3972 19.1227 50.6861Z" fill="#1F1F1F"/>
<path d="M22.3013 62.1104C22.3013 61.6574 21.8472 60.5502 21.3931 60.4496C20.1822 60.1979 17.9622 60.2483 17.8108 63.3182C17.609 67.5457 21.8977 66.8915 21.9482 66.7405C21.9482 66.6902 22.2509 63.7208 22.3013 62.1104Z" fill="#FFBE9D"/>
<path d="M20.6868 65.13C20.6868 65.13 20.5858 65.1803 20.4849 65.2306C20.384 65.281 20.1317 65.3313 19.9299 65.2306C19.4758 65.0293 19.1226 64.3248 19.1731 63.5698C19.1731 63.1672 19.274 62.8149 19.4254 62.513C19.5767 62.211 19.7786 62.0097 20.0308 61.9594C20.2327 61.909 20.4345 62.06 20.4345 62.1607C20.4849 62.2613 20.4345 62.362 20.4849 62.362C20.4849 62.362 20.5858 62.3117 20.5354 62.1104C20.5354 62.0097 20.4849 61.909 20.384 61.8587C20.2831 61.7581 20.1317 61.7077 19.9804 61.7077C19.6272 61.7077 19.3245 62.0097 19.1731 62.3117C18.9713 62.664 18.8704 63.0666 18.8704 63.4692C18.8704 64.3248 19.274 65.13 19.8795 65.3313C20.1822 65.432 20.4345 65.3313 20.5858 65.2306C20.6868 65.2306 20.6868 65.13 20.6868 65.13Z" fill="#EB996E"/>
<path d="M18.164 49.5789C18.164 48.2704 16.499 47.3645 15.2376 47.0625C13.9257 46.7606 12.5634 47.1632 11.403 47.7671C10.6966 48.1194 10.0407 48.673 9.88931 49.4279C9.73794 50.1828 10.4948 51.0887 11.2012 50.8371C9.7884 51.29 9.08202 53.1521 9.83885 54.4606C10.5452 55.7188 12.513 56.0711 13.6735 55.1652C13.3203 56.3731 12.513 57.4803 11.4534 58.1848C13.623 58.4868 15.944 57.5809 17.3063 55.8195C18.6686 54.1083 19.0218 51.6423 18.164 49.5789Z" fill="#1F1F1F"/>
<path d="M15.2376 56.3227C15.1872 56.3227 15.0862 55.8698 15.0862 55.0646C15.0862 54.2593 15.1872 53.1521 15.5908 51.9946C15.9944 50.8371 16.5495 49.8808 17.054 49.2769C17.5586 48.673 17.9118 48.3207 17.9622 48.371C18.0631 48.4214 16.5999 49.8305 15.8431 52.0952C15.0358 54.36 15.3385 56.3227 15.2376 56.3227Z" fill="#199675"/>
<path d="M34.108 45.0494C34.5116 46.7605 37.1353 48.9749 38.2958 50.3338C40.5158 52.9005 40.9195 53.756 40.9195 59.4933C41.979 57.5306 42.7359 55.5678 42.6854 53.3534C42.5845 51.139 41.7772 48.8743 40.2131 47.2638C38.649 45.603 36.328 44.6971 34.108 45.0494Z" fill="#1F1F1F"/>
<path d="M52.1205 92.1557C52.1205 92.1557 47.5291 84.5563 46.2677 82.9962C45.0568 81.5367 43.5431 80.6811 42.534 80.2282C41.979 79.9765 41.3735 79.8255 40.7681 79.7249L34.1584 78.2654C34.1584 78.2654 34.1584 82.7445 29.4156 83.0465C24.7232 83.3485 20.7372 76.7556 20.7372 76.7556C20.7372 76.7556 13.1184 77.9131 11.302 78.8693C9.48565 79.8255 6.60969 80.9831 5.04557 88.8341L3.93555 96.5342L17.054 97.742L18.3154 117.168L24.8241 121.698C24.8241 121.698 42.8367 126.378 43.9972 126.68C45.1577 126.982 45.5109 97.742 45.5109 97.742C45.5109 97.742 50.2032 94.7727 52.1205 92.1557Z" fill="#199675"/>
<path d="M43.4927 88.8845C43.4927 88.8845 43.5936 89.0858 43.745 89.4381C43.8963 89.7903 44.0981 90.3439 44.3 90.9982C44.7036 92.357 45.2082 94.2695 45.4604 96.3832C45.7127 98.5473 45.7127 100.51 45.6623 101.919C45.6118 102.624 45.5614 103.177 45.5109 103.58C45.4604 103.983 45.41 104.184 45.41 104.184C45.41 104.184 45.41 103.983 45.41 103.58C45.4604 103.177 45.4604 102.624 45.4604 101.919C45.5109 100.51 45.4604 98.5473 45.2082 96.4335C44.9559 94.3198 44.5018 92.4074 44.1486 91.0485C43.9468 90.3943 43.7954 89.8407 43.6945 89.4381C43.5431 89.1361 43.4927 88.9348 43.4927 88.8845Z" fill="#455A64"/>
<path d="M42.9377 120.742L18.2145 115.357L17.054 97.742L6.05469 96.7355C6.05469 96.7355 6.45833 108.764 6.86198 112.337C7.46744 117.47 10.4948 124.516 12.3112 125.925C14.0771 127.334 43.9972 126.68 43.9972 126.68L42.9377 120.742Z" fill="#FFBE9D"/>
<path d="M56.9643 123.963C56.8129 124.315 56.4093 124.516 56.0561 124.516C55.9552 124.516 55.9047 124.516 55.8038 124.466C55.2488 124.315 55.2993 123.157 55.2993 123.157L52.6756 122.755C52.6756 122.755 49.2951 124.969 48.0841 126.378C46.8732 127.838 43.7954 126.63 43.7954 126.63L42.7358 121.044L47.5291 116.715C47.5291 116.715 47.2264 116.967 47.5796 116.162C47.9328 115.357 49.4464 115.659 49.4464 115.659C49.6987 115.256 50.6574 115.105 50.6574 115.105L54.8956 115.608C55.7534 115.709 56.5606 116.212 57.0147 116.917L58.7807 119.735C58.7807 119.735 59.7393 121.748 59.588 122.251C59.3357 122.956 58.5789 122.805 58.5789 122.805C58.5789 122.805 58.377 124.164 58.0239 124.164C57.6707 124.265 56.9643 123.963 56.9643 123.963Z" fill="#FFBE9D"/>
<path d="M47.9832 119.936C47.9832 119.987 48.5382 119.936 49.4464 119.987C50.3546 120.037 51.616 120.188 52.8774 120.641C53.5333 120.842 54.1388 121.144 54.6433 121.396C55.1479 121.698 55.7029 121.899 55.8543 122.302C55.9552 122.503 55.9047 122.654 55.8038 122.805C55.7029 122.956 55.602 123.006 55.5011 123.057C55.2993 123.157 55.1479 123.107 55.1479 123.107C55.1479 123.107 55.2993 123.208 55.5515 123.157C55.7029 123.107 55.8543 123.057 55.9552 122.855C56.0561 122.704 56.157 122.453 56.0561 122.201C55.9552 121.949 55.7534 121.748 55.5515 121.597C55.2993 121.446 55.0974 121.295 54.7947 121.144C54.2397 120.842 53.6342 120.591 52.9783 120.339C51.6665 119.886 50.3546 119.735 49.4464 119.735C48.5382 119.785 47.9328 119.936 47.9832 119.936Z" fill="#EB996E"/>
<path d="M47.6805 122.654C47.6805 122.755 49.396 122.654 51.5151 122.805C53.6342 122.906 55.3497 123.208 55.3497 123.107C55.3497 123.057 54.9461 122.956 54.2397 122.855C53.5333 122.755 52.5747 122.604 51.5151 122.553C50.4555 122.503 49.4969 122.503 48.7905 122.553C48.0841 122.553 47.6805 122.604 47.6805 122.654Z" fill="#EB996E"/>
<path d="M56.9139 123.862C56.9139 123.862 56.9643 123.711 56.9643 123.409C56.9643 123.107 57.0148 122.704 56.9643 122.151C56.9643 121.899 56.9139 121.597 56.8634 121.295C56.813 120.993 56.6616 120.641 56.4598 120.389C56.0561 119.836 55.5516 119.232 54.8956 118.779C54.2397 118.326 53.5333 117.974 52.8774 117.772C52.2215 117.571 51.5656 117.521 51.061 117.47C50.5565 117.47 50.1024 117.47 49.8501 117.47C49.5474 117.47 49.396 117.521 49.396 117.521C49.396 117.571 50.0519 117.571 51.061 117.672C51.5656 117.722 52.171 117.772 52.827 117.974C53.4829 118.175 54.1388 118.527 54.7443 118.98C55.4002 119.433 55.9048 119.936 56.2579 120.54C56.6616 121.094 56.7625 121.698 56.813 122.201C56.9139 123.208 56.8634 123.862 56.9139 123.862Z" fill="#EB996E"/>
<path d="M50.8087 116.212C50.8087 116.262 51.4646 116.262 52.4737 116.363C53.4324 116.514 54.9965 116.564 55.9047 117.923C56.8634 119.131 57.6707 120.289 58.0239 121.245C58.377 122.201 58.377 122.805 58.4275 122.805C58.4275 122.805 58.478 122.654 58.4275 122.352C58.4275 122.05 58.377 121.647 58.1752 121.144C57.8725 120.138 57.0147 118.98 56.0561 117.722C55.8038 117.42 55.5515 117.118 55.2488 116.917C54.9461 116.665 54.5929 116.564 54.2397 116.464C53.5838 116.262 52.9783 116.212 52.4233 116.162C51.4646 116.111 50.8087 116.162 50.8087 116.212Z" fill="#EB996E"/>
<path d="M48.9923 125.472C48.9923 125.472 49.0932 125.422 49.2446 125.271C49.4464 125.12 49.6482 124.919 49.951 124.717C50.5564 124.214 51.5151 123.56 52.726 122.805H52.6756C53.4324 122.956 54.3406 123.107 55.2992 123.258L55.1983 123.157C55.1983 123.359 55.1983 123.56 55.2488 123.812C55.2992 124.013 55.3497 124.265 55.5515 124.415C55.6524 124.516 55.8038 124.566 55.9047 124.566C56.0056 124.617 56.157 124.617 56.2579 124.566C56.5102 124.516 56.7625 124.415 56.9138 124.214C56.9643 124.164 57.0147 124.114 57.0147 124.063V124.013C57.0652 124.013 56.712 124.114 56.8634 124.063L56.9643 124.114C57.0652 124.164 57.1661 124.214 57.3175 124.214C57.4184 124.265 57.5697 124.265 57.6707 124.315C57.7211 124.315 57.822 124.315 57.8725 124.315C57.9229 124.315 58.0238 124.315 58.1247 124.265C58.2761 124.164 58.3266 124.013 58.377 123.912C58.4275 123.812 58.4779 123.661 58.5284 123.56C58.5788 123.308 58.6293 123.057 58.6798 122.805L58.5284 122.906C58.8816 122.956 59.2852 122.906 59.487 122.553C59.588 122.402 59.6889 122.251 59.6889 122.05C59.6889 121.849 59.6384 121.698 59.588 121.547C59.3861 120.893 59.1339 120.289 58.8816 119.685C58.5788 119.181 58.2761 118.678 57.9229 118.175C57.7211 117.873 57.5193 117.521 57.3175 117.219C57.1156 116.917 56.9138 116.564 56.6615 116.313C56.4093 116.061 56.0561 115.81 55.7029 115.709C55.3497 115.558 54.9461 115.508 54.6433 115.508C53.2306 115.357 51.9187 115.206 50.6573 115.055C50.4051 115.105 50.2032 115.155 49.951 115.256C49.7491 115.357 49.4969 115.457 49.3455 115.659L49.4969 115.608C49.0428 115.407 48.5382 115.407 48.1346 115.709C47.7309 115.961 47.5795 116.363 47.4786 116.766L47.5291 116.715C46.1668 117.974 45.0063 118.98 44.199 119.685C43.8458 120.037 43.5431 120.289 43.2908 120.49C43.089 120.691 42.9881 120.792 42.9881 120.792C42.9881 120.792 43.089 120.691 43.3413 120.54C43.5936 120.339 43.8963 120.087 44.2495 119.735C45.0568 119.03 46.2173 118.024 47.63 116.816V116.766C47.7309 116.413 47.8823 116.061 48.2355 115.86C48.5382 115.659 48.9923 115.659 49.3959 115.81L49.4969 115.86L49.5473 115.759C49.6482 115.608 49.85 115.508 50.0519 115.457C50.2537 115.407 50.506 115.306 50.7078 115.306H50.6573C51.9187 115.457 53.2306 115.608 54.6433 115.759C54.9965 115.81 55.3497 115.81 55.6524 115.961C55.9552 116.111 56.2579 116.262 56.5102 116.514C56.7625 116.766 56.9138 117.068 57.1156 117.37C57.3175 117.672 57.5193 118.024 57.7211 118.326C58.0238 118.829 58.377 119.332 58.6798 119.836C58.932 120.44 59.2348 121.044 59.3861 121.647C59.4366 121.798 59.487 121.949 59.487 122.1C59.487 122.201 59.4366 122.352 59.3861 122.453C59.2348 122.654 58.932 122.755 58.6798 122.704H58.5284V122.855C58.4779 123.107 58.4275 123.359 58.377 123.56C58.3266 123.761 58.2257 124.013 58.1247 124.114C58.1247 124.114 58.0743 124.114 58.0238 124.114C57.9734 124.114 57.9229 124.114 57.8725 124.114C57.7716 124.114 57.6706 124.063 57.5193 124.013C57.4184 123.963 57.3175 123.963 57.2166 123.912L57.1156 123.862C57.267 123.812 56.9138 123.912 56.9643 123.912V123.963C56.9138 124.013 56.9138 124.063 56.8634 124.063C56.712 124.214 56.5606 124.315 56.3588 124.365C56.2579 124.365 56.157 124.365 56.0561 124.365C55.9552 124.365 55.9047 124.315 55.8038 124.265C55.5515 124.013 55.5011 123.56 55.5011 123.157V123.057H55.4002C54.4415 122.906 53.5838 122.755 52.7765 122.654H52.726H52.6756C51.4646 123.409 50.5564 124.114 49.951 124.617C49.6482 124.868 49.3959 125.07 49.295 125.221C49.0428 125.372 48.9923 125.472 48.9923 125.472Z" fill="#EB996E"/>
<path d="M89.0035 107.757L56.4597 108.009C55.4002 108.009 54.3911 108.512 54.2397 109.569L50.7078 133.223H33.9566C33.4016 133.223 32.9979 133.676 32.9979 134.179C32.9979 134.733 33.452 135.135 33.9566 135.135H50.4051H53.5333H87.4394L91.0722 110.173C91.3245 108.915 90.3154 107.757 89.0035 107.757Z" fill="#CCCCCC"/>
<path d="M89.0035 107.757C89.0035 107.757 89.2053 107.757 89.5081 107.808C89.8108 107.908 90.3658 108.059 90.7695 108.613C90.9713 108.864 91.1226 109.217 91.1731 109.67C91.2236 110.072 91.1226 110.525 91.0722 111.028C90.9208 111.985 90.7695 113.092 90.6181 114.3C89.9117 119.282 88.8521 126.429 87.5908 135.186V135.286H87.4898C73.665 135.286 55.4506 135.286 35.5711 135.337C35.117 135.337 34.6629 135.337 34.1584 135.337C33.9566 135.337 33.6538 135.337 33.4016 135.186C33.1493 135.035 32.9979 134.833 32.897 134.582C32.6952 134.078 32.9475 133.474 33.4016 133.223C33.6034 133.072 33.9061 133.072 34.1584 133.072H34.8648C36.6812 133.072 38.4976 133.072 40.314 133.072C43.8963 133.072 47.3777 133.072 50.7582 133.072L50.6573 133.172C51.9187 124.717 53.1297 116.816 54.1892 109.72C54.2397 109.267 54.4415 108.764 54.7947 108.462C55.1479 108.16 55.602 107.958 56.0561 107.908C56.5102 107.858 56.9643 107.858 57.3679 107.858C57.822 107.858 58.2257 107.858 58.6293 107.858C60.2943 107.858 61.9594 107.858 63.5235 107.808C66.6517 107.808 69.5781 107.757 72.2523 107.757C77.5501 107.707 81.7379 107.707 84.6643 107.707C86.1276 107.707 87.2376 107.707 87.9944 107.707C88.3476 107.707 88.6503 107.707 88.8521 107.707C88.9026 107.757 89.0035 107.757 89.0035 107.757C89.0035 107.757 88.9026 107.757 88.7008 107.757C88.499 107.757 88.1962 107.757 87.843 107.757C87.0862 107.757 85.9762 107.808 84.513 107.808C81.637 107.858 77.3987 107.908 72.1009 107.958C69.4772 108.009 66.5508 108.009 63.3721 108.059C61.808 108.059 60.143 108.109 58.4779 108.109C58.0743 108.109 57.6202 108.109 57.2165 108.109C56.8129 108.109 56.3588 108.109 55.9552 108.16C55.5515 108.21 55.1479 108.361 54.8451 108.663C54.5424 108.965 54.3406 109.317 54.3406 109.77C53.281 116.866 52.1205 124.768 50.8087 133.223V133.323H50.7078C47.3273 133.323 43.8458 133.323 40.2635 133.323C38.4976 133.323 36.6812 133.323 34.8143 133.323H34.1079C33.8557 133.323 33.7043 133.323 33.5025 133.424C33.1493 133.625 32.9475 134.078 33.0988 134.431C33.1493 134.632 33.3006 134.783 33.5025 134.884C33.7043 134.984 33.8557 134.984 34.1079 134.984C34.562 134.984 35.0161 134.984 35.5207 134.984C55.4002 134.984 73.6146 134.984 87.4394 135.035L87.3385 135.135C88.6503 126.378 89.7099 119.232 90.4667 114.249C90.6685 112.991 90.8199 111.934 90.9713 110.978C91.0217 110.525 91.1731 110.072 91.1226 109.67C91.0722 109.267 90.9208 108.915 90.7695 108.663C90.3658 108.109 89.8613 107.908 89.5585 107.858C89.1549 107.757 89.0035 107.757 89.0035 107.757Z" fill="#1F1F1F"/>
<path d="M71.3441 123.157C72.4587 123.157 73.3623 122.256 73.3623 121.144C73.3623 120.032 72.4587 119.131 71.3441 119.131C70.2295 119.131 69.3259 120.032 69.3259 121.144C69.3259 122.256 70.2295 123.157 71.3441 123.157Z" fill="white"/>
<path d="M52.0196 134.934C52.0701 134.934 53.0792 128.895 54.3406 121.497C55.5515 114.048 56.5101 108.009 56.5101 108.009C56.4597 108.009 55.4506 113.998 54.1892 121.446C52.9278 128.895 51.9691 134.934 52.0196 134.934Z" fill="#1F1F1F"/>
</svg>
