<svg width="58" height="38" viewBox="0 0 58 38" fill="none" xmlns="http://www.w3.org/2000/svg">
<path d="M57.9981 37.1617C57.9981 37.6265 57.7865 38.0037 57.5303 38.0018L0.465833 37.8579C0.207684 37.8579 0 37.4787 0 37.0139C0 36.5491 0.211565 36.1719 0.469714 36.1719L57.5342 36.3177C57.7923 36.3177 58 36.7066 57.9981 37.1617Z" fill="#E6E6E6"/>
<path d="M8.58108 8.88281H7.02637V9.26396H8.58108V8.88281Z" fill="#919191"/>
<path d="M2.0322 8.69471C2.04383 8.73063 2.06378 8.76328 2.09043 8.79C2.32529 9.04085 3.15408 9.2042 3.81789 9.24115C4.70491 9.28782 7.40674 9.27032 7.40674 9.27032V8.21438C7.40674 8.08215 7.10201 7.96742 6.64976 7.97714C5.67928 7.99853 4.07604 8.04715 3.37535 8.14049C2.67466 8.23383 2.30005 8.33495 2.13119 8.4633C2.08097 8.49492 2.0443 8.54414 2.02832 8.60136C2.02202 8.63233 2.02336 8.66437 2.0322 8.69471Z" fill="#E6E6E6"/>
<path d="M2.02832 8.5955H7.40674V8.20657C7.40674 8.07433 7.10007 7.9596 6.64976 7.96933C5.67928 7.99072 4.07604 8.03933 3.37535 8.13267C2.43786 8.2513 2.06908 8.40881 2.02832 8.5955Z" fill="#868686"/>
<path d="M2.0322 8.69235C2.04383 8.72827 2.06378 8.76093 2.09043 8.78764L4.26043 8.71568L4.71656 8.55234L2.13119 8.46094C2.08097 8.49256 2.0443 8.54178 2.02832 8.59901C2.02202 8.62997 2.02336 8.66201 2.0322 8.69235Z" fill="#B3BACF"/>
<path d="M50.9678 8.88281H49.4131V9.26396H50.9678V8.88281Z" fill="#919191"/>
<path d="M55.9639 8.69471C55.9523 8.73063 55.9323 8.76328 55.9057 8.79C55.6708 9.04085 54.842 9.2042 54.1782 9.24115C53.2931 9.28782 50.5894 9.27032 50.5894 9.27032V8.21438C50.5894 8.08215 50.896 7.96742 51.3483 7.97714C52.3071 7.99853 53.9201 8.04715 54.6207 8.14049C55.3214 8.23383 55.696 8.33495 55.8649 8.4633C55.9157 8.49434 55.9525 8.54379 55.9678 8.60136C55.9753 8.63223 55.9739 8.66458 55.9639 8.69471Z" fill="#E6E6E6"/>
<path d="M55.9639 8.5955H50.5894V8.20657C50.5894 8.07433 50.896 7.9596 51.3483 7.96933C52.3071 7.99072 53.9201 8.03933 54.6207 8.13267C55.5602 8.2513 55.927 8.40881 55.9639 8.5955Z" fill="#868686"/>
<path d="M55.9639 8.69235C55.9523 8.72827 55.9323 8.76093 55.9057 8.78764L53.7357 8.71568L53.2795 8.55234L55.8649 8.46094C55.9157 8.49198 55.9525 8.54143 55.9678 8.59901C55.9753 8.62987 55.9739 8.66222 55.9639 8.69235Z" fill="#B3BACF"/>
<path opacity="0.87" d="M15.6035 0.940887L19.6116 0.476015H25.2249L30.5335 0.34375L35.3141 0.388487L39.3843 0.60439L42.7266 0.643291L44.227 1.36297L45.7099 3.11353L46.6008 4.22611L47.7712 6.1459L48.7184 7.70196L49.751 9.88822L49.456 10.1936L29.5533 9.54394L8.20264 10.073L9.72824 7.10287L10.724 5.22977L12.104 3.30804L13.6179 1.61388L15.6035 0.940887Z" fill="#0B6950"/>
<path d="M38.2429 7.46094H19.7513C18.8573 7.46094 18.1326 8.18722 18.1326 9.08313V10.3902C18.1326 11.2861 18.8573 12.0124 19.7513 12.0124H38.2429C39.137 12.0124 39.8617 11.2861 39.8617 10.3902V9.08313C39.8617 8.18722 39.137 7.46094 38.2429 7.46094Z" fill="#094349"/>
<path d="M49.2638 8.83587L48.006 6.42398L46.6027 4.31358L45.2285 2.43853L43.503 1.14895L37.42 0.47206L28.0141 0.328125L20.6656 0.47206L14.4933 1.147L12.7988 2.55329L11.3955 4.25328L10.2833 6.00384L9.26044 7.82054L8.35401 9.62167L8.15991 10.2966H8.96735L16.1179 10.1021C16.0255 9.99387 15.9758 9.85551 15.9781 9.71309C15.9781 9.71309 18.1928 4.086 18.4897 4.086H39.5065C39.8035 4.086 42.0182 9.71309 42.0182 9.71309C42.0182 9.828 41.9859 9.94058 41.925 10.0379L47.3034 10.141L49.8927 10.2888L49.2638 8.83587Z" fill="#062629"/>
<path d="M44.2269 19.2643C44.2272 19.4236 44.1961 19.5813 44.1355 19.7286C44.0748 19.8758 43.9858 20.0096 43.8735 20.1224C43.7611 20.2351 43.6278 20.3245 43.4809 20.3856C43.3341 20.4466 43.1767 20.478 43.0177 20.478H35.7546C35.4334 20.478 35.1253 20.3501 34.8982 20.1225C34.6711 19.8949 34.5435 19.5862 34.5435 19.2643C34.5435 19.2643 35.085 7.14062 35.7546 7.14062H43.0177C43.6854 7.14062 44.2269 19.2643 44.2269 19.2643Z" fill="#0F3639"/>
<path d="M42.3112 5.78057C42.3107 6.15363 42.1624 6.51124 41.899 6.77485C41.6355 7.03847 41.2783 7.18653 40.906 7.18653H37.8645C37.4921 7.18653 37.135 7.03847 36.8715 6.77485C36.608 6.51124 36.4597 6.15363 36.4592 5.78057C36.4592 5.78057 37.0881 3.83594 37.8645 3.83594H40.906C41.6824 3.84566 42.3112 5.78057 42.3112 5.78057Z" fill="#0F3639"/>
<path d="M23.4547 19.2643C23.4547 19.5862 23.3271 19.8949 23.1 20.1225C22.8728 20.3501 22.5648 20.478 22.2436 20.478H14.9805C14.8214 20.478 14.6639 20.4466 14.517 20.3856C14.37 20.3246 14.2365 20.2352 14.124 20.1225C14.0116 20.0098 13.9223 19.876 13.8615 19.7287C13.8006 19.5815 13.7693 19.4236 13.7693 19.2643C13.7693 19.2643 14.3108 7.14062 14.9805 7.14062H22.2436C22.9112 7.14062 23.4547 19.2643 23.4547 19.2643Z" fill="#0F3639"/>
<path d="M21.5371 5.78057C21.5366 6.15363 21.3883 6.51124 21.1248 6.77485C20.8613 7.03847 20.5042 7.18653 20.1318 7.18653H17.0903C16.7181 7.18653 16.3612 7.03841 16.098 6.77474C15.8349 6.51107 15.687 6.15345 15.687 5.78057C15.687 5.78057 16.3139 3.83594 17.0903 3.83594H20.1318C20.9082 3.84566 21.5371 5.78057 21.5371 5.78057Z" fill="#0F3639"/>
<path d="M39.8636 7.33594C39.1195 7.33555 38.392 7.55635 37.7731 7.97041C37.1542 8.38447 36.6718 8.97317 36.3868 9.66204C36.1019 10.3509 36.0272 11.109 36.1723 11.8404C36.3174 12.5718 36.6757 13.2437 37.2018 13.771C37.728 14.2983 38.3985 14.6573 39.1283 14.8027C39.8582 14.9481 40.6147 14.8733 41.3021 14.5877C41.9895 14.3022 42.577 13.8187 42.9902 13.1985C43.4033 12.5783 43.6237 11.8493 43.6233 11.1035C43.6228 10.1045 43.2265 9.14646 42.5215 8.44001C41.8166 7.73356 40.8606 7.33645 39.8636 7.33594ZM39.8636 14.4996C39.1934 14.4996 38.5382 14.3005 37.9808 13.9273C37.4235 13.5541 36.9892 13.0237 36.7327 12.4032C36.4762 11.7826 36.4091 11.0998 36.5398 10.441C36.6706 9.78222 36.9934 9.17709 37.4673 8.70214C37.9413 8.22719 38.5451 7.90374 39.2025 7.7727C39.8599 7.64166 40.5413 7.70892 41.1605 7.96596C41.7798 8.223 42.3091 8.65829 42.6814 9.21677C43.0538 9.77526 43.2526 10.4319 43.2526 11.1035C43.2528 11.5496 43.1653 11.9913 42.9951 12.4035C42.8249 12.8156 42.5753 13.1901 42.2605 13.5055C41.9458 13.8209 41.5721 14.0711 41.1608 14.2416C40.7495 14.4122 40.3087 14.4999 39.8636 14.4996Z" fill="#182527"/>
<path d="M8.64116 9.76634L34.8753 9.36186C34.8753 9.36186 39.6132 6.85328 44.7878 9.62244L49.4558 9.8169L49.8906 12.6969L7.82983 12.5219L8.64116 9.76634Z" fill="#182527"/>
<g opacity="0.23">
<path d="M40.0481 0.94005C31.5428 3.6826 27.1834 8.38578 22.8259 11.741L13.7033 11.0894L11.5159 10.4184C12.9095 9.09768 18.8178 2.93958 25.7102 0.140625L40.0481 0.94005Z" fill="#199675"/>
</g>
<path d="M1.66333 35.9616C1.66333 36.7144 2.37761 37.3232 3.25686 37.3232H7.30767C8.18887 37.3232 8.9012 36.7144 8.9012 35.9616V29.0022C8.9012 28.2514 8.18887 27.6406 7.30767 27.6406H3.25686C2.37761 27.6406 1.66333 28.2514 1.66333 29.0022V35.9616Z" fill="#172224"/>
<path d="M7.24551 28.9141H7.03589V37.3304H7.24551V28.9141Z" fill="black"/>
<path d="M6.54312 28.9141H6.3335V37.3304H6.54312V28.9141Z" fill="black"/>
<path d="M3.52872 28.9141H3.31909V37.3304H3.52872V28.9141Z" fill="black"/>
<path d="M4.23135 28.9141H4.02173V37.3304H4.23135V28.9141Z" fill="black"/>
<path d="M56.3326 35.9616C56.3326 36.7144 55.6203 37.3232 54.7391 37.3232H50.6883C49.8071 37.3232 49.0947 36.7144 49.0947 35.9616V29.0022C49.0947 28.2514 49.8071 27.6406 50.6883 27.6406H54.7391C55.6203 27.6406 56.3326 28.2514 56.3326 29.0022V35.9616Z" fill="#172224"/>
<path d="M50.9601 28.9141H50.7505V37.3304H50.9601V28.9141Z" fill="black"/>
<path d="M51.6627 28.9141H51.4531V37.3304H51.6627V28.9141Z" fill="black"/>
<path d="M54.6772 28.9141H54.4675V37.3304H54.6772V28.9141Z" fill="black"/>
<path d="M53.9726 28.9141H53.7629V37.3304H53.9726V28.9141Z" fill="black"/>
<path d="M56.7093 21.0331C56.6976 20.7589 56.6821 20.4944 56.6608 20.2415C56.6 19.4267 56.4806 18.6174 56.3036 17.8199C56.2286 17.4775 56.1477 17.165 56.061 16.8824C55.9594 16.5421 55.8409 16.2071 55.7058 15.8787C55.6127 15.657 55.5234 15.4722 55.4477 15.3224C55.3584 15.1426 55.2559 14.9696 55.141 14.805C54.5315 13.8325 53.5358 12.8716 52.5925 12.0819C52.1403 11.6929 51.6997 11.3564 51.3192 11.0724L51.2028 10.9868C50.7622 10.662 50.4264 10.4267 50.2517 10.3158L50.1411 10.2419C47.5266 4.44168 44.7898 1.53963 44.7898 1.53963C43.6699 0.528196 42.2666 0.401766 41.3679 0.351194C34.3396 -0.0378203 28.9981 0.00108055 28.9981 0.00108055C28.9981 0.00108055 23.6566 -0.0378203 16.6283 0.351194C15.7296 0.401766 14.3263 0.528196 13.2083 1.53963C13.2083 1.53963 10.4716 4.44168 7.85514 10.2419L7.7445 10.3158C7.57758 10.4267 7.23403 10.662 6.79343 10.9868L6.67697 11.0724C6.29848 11.3564 5.85788 11.6987 5.40564 12.0819C4.46038 12.8794 3.46467 13.85 2.85714 14.805C2.73998 14.9702 2.63613 15.1445 2.54659 15.3263V15.3399C2.47089 15.4897 2.38549 15.6706 2.2962 15.8865C2.20692 16.1024 2.11569 16.3416 2.02447 16.6198V16.6373V16.6509L1.97206 16.8259L1.94877 16.8999C1.87113 17.1586 1.79544 17.4445 1.72362 17.7576C1.54151 18.5757 1.41827 19.4058 1.35484 20.2415C1.33543 20.4768 1.31796 20.718 1.30825 20.9709C1.28302 21.5019 1.27525 22.0718 1.28884 22.6806C1.28884 22.7506 1.28884 22.8226 1.28884 22.8946V23.2544C1.28884 24.4487 1.34513 28.3913 1.64016 32.2134C1.64016 32.2134 1.64016 33.0031 3.92079 33.0926C3.92079 33.0926 24.6232 33.1801 29.0097 33.0926C33.3963 33.1801 54.0987 33.0926 54.0987 33.0926C56.3813 33.0031 56.3813 32.2134 56.3813 32.2134C56.6744 28.3894 56.7229 24.4467 56.7287 23.2544C56.7287 23.021 56.7287 22.8946 56.7287 22.8946C56.7287 22.8226 56.7287 22.7506 56.7287 22.6806C56.7365 22.0958 56.73 21.5466 56.7093 21.0331ZM13.515 2.25931C14.6116 1.31984 15.9878 1.20314 16.8709 1.15645C23.7594 0.79467 28.9981 0.829681 28.9981 0.829681C28.9981 0.829681 34.2387 0.79467 41.1272 1.15645C42.0103 1.20314 43.3846 1.31984 44.4831 2.25931C44.4831 2.25931 47.0277 4.81708 49.5297 9.92872C43.0546 9.4833 36.1564 9.24211 28.9981 9.24211C21.8398 9.24211 14.9416 9.4833 8.46654 9.92872C10.9684 4.81708 13.515 2.25931 13.515 2.25931Z" fill="#E6E6E6"/>
<g style="mix-blend-mode:screen" opacity="0.25">
<path d="M56.7093 21.0326C45.9777 21.6373 36.3932 21.8376 28.3983 21.8376C23.1131 21.8376 18.5227 21.7501 14.7553 21.6335C8.88384 21.4526 4.33421 21.1862 1.29077 20.9703C1.30048 20.7175 1.31794 20.4764 1.33735 20.2411C1.40079 19.4056 1.52403 18.5757 1.70614 17.7578L2.1448 17.787C5.14165 17.9951 9.50689 18.244 15.0192 18.4132C24.3359 18.699 38.7612 18.8021 56.3036 17.8298C56.4806 18.6271 56.5999 19.4363 56.6608 20.2508C56.6821 20.4939 56.6976 20.7584 56.7093 21.0326Z" fill="#E6E6E6"/>
</g>
<path d="M19.6252 18.9187L19.6388 19.0509C17.5833 19.2551 14.2041 18.9634 12.4165 18.7787C12.399 18.732 12.3835 18.6854 12.3699 18.6406C14.1303 18.8254 17.5581 19.1248 19.6252 18.9187Z" fill="#254554"/>
<path d="M40.0014 18.823L39.9897 18.9552C42.0452 19.1594 45.4245 18.8677 47.2121 18.683L47.2587 18.5469C45.4982 18.7316 42.0705 19.0291 40.0014 18.823Z" fill="#254554"/>
<g style="mix-blend-mode:screen" opacity="0.45">
<g style="mix-blend-mode:screen" opacity="0.6">
<path d="M12.063 18.3087L5.7743 16.8868C5.54012 15.292 5.4169 13.6828 5.40552 12.0708C5.85776 11.6818 6.29642 11.3453 6.67685 11.0613L6.79331 10.9757C7.23391 10.6509 7.5697 10.4156 7.74438 10.3047C9.87169 13.1931 12.063 18.3087 12.063 18.3087Z" fill="#E6E6E6"/>
</g>
<g style="mix-blend-mode:screen" opacity="0.6">
<path d="M52.5923 12.0708C52.5802 13.6828 52.4564 15.292 52.2216 16.8868L45.9329 18.3087C45.9329 18.3087 48.1242 13.1931 50.2515 10.3047C50.4184 10.4156 50.7639 10.6509 51.2026 10.9757L51.319 11.0613C51.6937 11.3453 52.1401 11.6876 52.5923 12.0708Z" fill="#E6E6E6"/>
</g>
</g>
<path d="M31.8223 2.71184C31.8223 3.10076 31.372 3.40024 30.8207 3.40024H27.1776C26.6263 3.40024 26.1741 3.09104 26.1741 2.71184C26.1741 2.33263 26.6263 2.02344 27.1776 2.02344H30.8207C31.372 2.02344 31.8223 2.33263 31.8223 2.71184Z" fill="#0F3639"/>
<path d="M29.2076 1.70312H28.7883V2.20873H29.2076V1.70312Z" fill="#0F3639"/>
<path d="M29.3726 1.702C29.3726 1.84202 29.2076 1.95481 29.0038 1.95481C28.8 1.95481 28.637 1.84202 28.637 1.702C28.637 1.56199 28.7903 1.44531 28.998 1.44531C29.2057 1.44531 29.3726 1.56199 29.3726 1.702Z" fill="#0F3639"/>
<g style="mix-blend-mode:multiply" opacity="0.14">
<path d="M56.7189 23.2578C56.7189 24.4501 56.6626 28.3928 56.3676 32.2051C56.3676 32.2051 56.3676 32.9015 54.4887 33.061C54.3626 33.0707 54.2286 33.0804 54.0869 33.0843C54.0869 33.0843 33.3846 33.1738 28.998 33.0843C24.6114 33.1738 3.90905 33.0843 3.90905 33.0843C3.76542 33.0843 3.63343 33.0707 3.50921 33.061C1.62647 32.9015 1.62647 32.2051 1.62647 32.2051C1.33339 28.385 1.2868 24.4424 1.2771 23.2578C9.95711 23.6741 23.21 24.2595 28.998 24.2595C34.786 24.2595 48.0408 23.6741 56.7189 23.2578Z" fill="#161616"/>
</g>
<path d="M8.74222 17.9866L8.62188 18.0391C7.79891 16.1388 7.04581 12.8205 6.68091 11.0621L6.79737 10.9766C7.15451 12.7135 7.91537 16.0746 8.74222 17.9866Z" fill="#78561D"/>
<path d="M51.3191 11.0622C50.9523 12.8127 50.1972 16.1388 49.3781 18.0392L49.2559 17.9866C50.0827 16.0746 50.8436 12.7135 51.1968 10.9844L51.3191 11.0622Z" fill="#78561D"/>
<path d="M55.5757 18.0545C50.8922 18.6554 50.1566 18.6942 50.1566 18.6942C46.1931 19.0832 43.9455 19.0832 43.4233 19.0696L44.5277 18.3189C45.4793 17.7243 46.4717 17.1979 47.4974 16.7438C49.5587 16.3199 52.9515 15.7229 55.4554 15.3203C55.533 15.472 55.6204 15.6567 55.7135 15.8784C55.8486 16.2067 55.9671 16.5416 56.0687 16.8818C55.4865 17.1055 55.5641 17.3622 55.7757 17.5002C55.8027 17.5195 55.832 17.5352 55.863 17.5469C56.6743 17.9164 55.5757 18.0545 55.5757 18.0545Z" fill="#ADB5C9"/>
<path d="M53.3281 16.5194L50.5719 16.7547C50.441 16.7607 50.3136 16.7994 50.2014 16.8673C50.0892 16.9353 49.9957 17.0302 49.9295 17.1436C49.7778 17.052 49.6013 17.0105 49.4248 17.025L48.2719 17.1242C47.8953 17.1553 47.6527 17.4392 47.7284 17.7581C47.7836 17.9253 47.8946 18.0682 48.0428 18.1628C48.191 18.2574 48.3672 18.2979 48.5417 18.2773L49.6966 18.1781C49.859 18.17 50.0123 18.1005 50.1255 17.9837C50.2344 18.0759 50.3604 18.1456 50.4964 18.1886C50.6323 18.2317 50.7754 18.2473 50.9174 18.2345L53.6736 17.9992C54.155 17.9584 54.4675 17.5928 54.3724 17.1844C54.2772 16.7761 53.8095 16.4785 53.3281 16.5194Z" fill="#9399AB"/>
<g style="mix-blend-mode:screen" opacity="0.48">
<path d="M55.4475 15.3203C55.5252 15.472 55.6125 15.6567 55.7057 15.8784C54.6343 16.0729 53.1979 16.3043 52.4643 16.4618L52.0761 16.5435L51.3463 16.6952C50.9057 16.7885 50.4825 16.8896 50.073 16.9713L49.7139 17.051C49.1394 17.1807 48.594 17.3064 48.0777 17.4283L47.7419 17.508C46.5113 17.8017 45.4457 18.0778 44.5354 18.3287C45.4869 17.734 46.4793 17.2077 47.5051 16.7535C49.5586 16.3199 52.9514 15.7229 55.4475 15.3203Z" fill="#ABB3C7"/>
</g>
<path d="M14.5282 19.0696C14.0138 19.0696 11.7584 19.0813 7.79496 18.6943C7.79496 18.6943 7.05739 18.6554 2.37383 18.0545C2.37383 18.0545 1.27719 17.9164 2.09628 17.5469C2.12669 17.5353 2.15542 17.5196 2.18168 17.5003C2.38936 17.3661 2.47088 17.1114 1.93129 16.8994L1.95264 16.8255L2.00699 16.6524V16.6369V16.6194C2.10016 16.3413 2.20109 16.0982 2.27873 15.8862C2.35637 15.6743 2.45341 15.4973 2.52911 15.3398V15.3281C5.01937 15.7287 8.38695 16.3218 10.4366 16.7438C11.4622 17.1984 12.4545 17.7247 13.4063 18.319L14.5282 19.0696Z" fill="#ADB5C9"/>
<path d="M4.62142 16.5193L7.37759 16.7546C7.50877 16.7597 7.6365 16.7981 7.74886 16.8661C7.86121 16.9341 7.95452 17.0296 8.02006 17.1435C8.1718 17.0522 8.34826 17.0107 8.52471 17.0249L9.67958 17.1241C10.0542 17.1552 10.2988 17.4391 10.2231 17.758C10.1657 17.9241 10.0539 18.0658 9.90586 18.1601C9.75783 18.2544 9.58229 18.2957 9.40785 18.2772L8.25491 18.1761C8.09198 18.1679 7.93811 18.0985 7.82402 17.9817C7.71586 18.0761 7.58985 18.1479 7.45348 18.1927C7.31712 18.2374 7.17316 18.2543 7.03016 18.2422L4.27399 18.0069C3.79263 17.9661 3.48207 17.6005 3.57718 17.1921C3.67229 16.7838 4.14006 16.4785 4.62142 16.5193Z" fill="#9399AB"/>
<g style="mix-blend-mode:screen" opacity="0.48">
<path d="M13.4237 18.319C12.5134 18.0681 11.4459 17.792 10.2153 17.4983L9.88144 17.4186C9.36385 17.289 8.81844 17.1632 8.24521 17.0413L7.88419 16.9616C7.47529 16.8696 7.05087 16.7775 6.61091 16.6855L5.88111 16.5338L5.49292 16.4521C4.68353 16.2888 3.27633 16.0632 2.29614 15.8862C2.38543 15.6704 2.47083 15.4973 2.54653 15.3398V15.3281C5.03679 15.7287 8.40437 16.3218 10.454 16.7438C11.4796 17.1984 12.4719 17.7247 13.4237 18.319Z" fill="#ABB3C7"/>
</g>
<path d="M54.4888 33.0692C54.3626 33.0789 54.2287 33.0886 54.087 33.0925H52.9088C48.4582 33.11 32.7519 33.1626 28.9981 33.0925C25.2442 33.1684 9.53985 33.1159 5.08921 33.0925H3.9091C3.76547 33.0925 3.63349 33.0789 3.50732 33.0692C4.18278 32.2075 6.1121 29.7781 7.66488 28.2668C7.66488 28.2668 9.38069 26.4832 11.3974 26.5163C11.3974 26.5163 22.1096 26.7477 28.9981 26.7866C35.8866 26.7477 46.6007 26.5163 46.6007 26.5163C48.4466 26.4773 50.3312 28.2668 50.3312 28.2668C51.8879 29.7781 53.8153 32.2075 54.4888 33.0692Z" fill="#070707"/>
<path d="M42.8664 18.8812C42.8666 18.9304 42.8572 18.9791 42.8386 19.0247C42.82 19.0702 42.7925 19.1116 42.7579 19.1465C42.7233 19.1813 42.6821 19.209 42.6368 19.2279C42.5914 19.2468 42.5428 19.2565 42.4937 19.2565H15.5143C15.465 19.2568 15.4162 19.2472 15.3706 19.2285C15.325 19.2097 15.2836 19.182 15.2488 19.1471C15.214 19.1122 15.1864 19.0708 15.1676 19.0251C15.1489 18.9795 15.1394 18.9305 15.1397 18.8812C15.1397 18.832 15.1494 18.7833 15.1682 18.7379C15.1871 18.6924 15.2147 18.6512 15.2495 18.6165C15.2843 18.5818 15.3256 18.5543 15.3711 18.5357C15.4165 18.517 15.4652 18.5076 15.5143 18.5078H42.4937C42.5926 18.5078 42.6873 18.5472 42.7572 18.6172C42.8271 18.6872 42.8664 18.7822 42.8664 18.8812Z" fill="#1C292B"/>
<path d="M52.9087 33.0976C48.4581 33.1152 32.7518 33.1677 28.998 33.0976C25.2441 33.1735 9.53975 33.121 5.08911 33.0976C5.23662 32.9148 5.39578 32.7184 5.56465 32.5141C6.43266 31.444 7.35385 30.4183 8.3247 29.4409C9.02167 28.753 9.86511 28.2323 10.7917 27.9179C11.1635 27.8017 11.5513 27.7453 11.9407 27.7506C11.9407 27.7506 22.323 27.9743 28.998 28.0132C35.6729 27.9743 46.0571 27.7506 46.0571 27.7506C47.8447 27.7117 49.6731 29.4409 49.6731 29.4409C50.8165 30.6006 51.8966 31.8213 52.9087 33.0976Z" fill="#27312E"/>
<path d="M10.7917 27.9141C10.6248 28.1455 10.4656 28.3692 10.3142 28.5832C8.47227 31.1935 7.80263 32.483 7.80263 32.483C7.23587 32.5044 6.72928 32.5142 6.30033 32.5142C6.02083 32.5142 5.77432 32.5142 5.5647 32.5142C6.43271 31.444 7.35389 30.4183 8.32475 29.4409C9.02132 28.7516 9.8648 28.2296 10.7917 27.9141Z" fill="#ADB5C9"/>
<path d="M10.3142 28.5859C8.47223 31.1956 7.8026 32.4849 7.8026 32.4849C7.23584 32.5063 6.72925 32.516 6.30029 32.516C7.09221 31.5671 8.04716 30.4761 8.87984 29.6613C9.3083 29.2408 9.79065 28.8792 10.3142 28.5859Z" fill="#BBC3D9"/>
<path d="M47.1384 27.9141C47.3054 28.1455 47.4645 28.3692 47.6159 28.5832C49.4559 31.1935 50.1256 32.483 50.1256 32.483C50.6943 32.5044 51.1989 32.5142 51.6279 32.5142C51.9074 32.5142 52.1539 32.5142 52.3655 32.5142C51.5405 31.5163 50.5079 30.3201 49.6054 29.4409C48.9084 28.7521 48.0651 28.2301 47.1384 27.9141Z" fill="#ADB5C9"/>
<path d="M47.6177 28.5859C49.4577 31.1956 50.1273 32.4849 50.1273 32.4849C50.696 32.5063 51.2007 32.516 51.6297 32.516C50.8397 31.5671 49.8828 30.4761 49.0521 29.6613C48.6236 29.2408 48.1412 28.8792 47.6177 28.5859Z" fill="#BBC3D9"/>
</svg>
