<svg width="58" height="55" viewBox="0 0 58 55" fill="none" xmlns="http://www.w3.org/2000/svg">
<ellipse cx="45.6133" cy="26.6971" rx="3.01958" ry="1.30645" fill="white"/>
<path d="M50.4338 0H50.6025C50.8428 0 51.0733 0.0844362 51.2433 0.234733C51.4132 0.385031 51.5087 0.588878 51.5087 0.80143V30.4671C51.5087 30.6085 51.4452 30.744 51.3322 30.8439C51.2192 30.9439 51.066 31 50.9062 31H50.1301C49.9703 31 49.8171 30.9439 49.7041 30.8439C49.5911 30.744 49.5276 30.6085 49.5276 30.4671V0.80143C49.5276 0.588878 49.6231 0.385031 49.793 0.234733C49.963 0.0844362 50.1934 0 50.4338 0Z" fill="#171C26"/>
<g opacity="0.3">
<path d="M49.8367 7.31936L51.2888 6.00069V5.51562H49.8367V7.31936Z" fill="black"/>
</g>
<g opacity="0.3">
<path d="M49.8367 12.9714L51.2888 11.6491V11.1641H49.8367V12.9714Z" fill="black"/>
</g>
<path d="M53.7123 7.04801L53.8547 6.39406L43.7111 4.95682C43.6538 4.95427 43.5976 4.93979 43.5461 4.91429C43.4946 4.88878 43.4488 4.8528 43.4117 4.8086C43.3746 4.76441 43.347 4.71295 43.3305 4.65746C43.314 4.60197 43.3091 4.54363 43.316 4.48613L43.8464 1.77693C43.8804 1.66082 43.9563 1.56178 44.0591 1.49928C44.1618 1.43679 44.284 1.41534 44.4016 1.43917L54.5487 2.87641L54.6946 2.22966C54.7088 2.19683 54.7302 2.16773 54.7573 2.14459C54.7843 2.12146 54.8163 2.10492 54.8507 2.09623C54.8851 2.08755 54.921 2.08696 54.9556 2.09452C54.9903 2.10208 55.0228 2.11759 55.0505 2.13983L57.8694 4.83825C57.9147 4.8801 57.9485 4.93307 57.9675 4.99201C57.9866 5.05095 57.9902 5.11385 57.978 5.17461C57.9658 5.23537 57.9383 5.29193 57.898 5.33876C57.8578 5.3856 57.8062 5.42112 57.7484 5.44189L54.0148 7.23844C53.8725 7.31749 53.6803 7.19173 53.7123 7.04801Z" fill="#199675"/>
<g opacity="0.4">
<g opacity="0.76">
<path d="M55.5454 5.60938C55.8444 5.63812 56.1042 5.66328 56.2999 5.67046C56.2999 5.67046 56.0152 5.65249 55.5454 5.60938Z" fill="white"/>
<path d="M56.2998 5.69076C56.1148 5.69076 55.8585 5.65842 55.5417 5.62609V5.59375L56.2963 5.65842L56.2998 5.69076Z" fill="white"/>
</g>
<g opacity="0.76">
<path d="M51.5942 5.08594C53.1176 5.3662 54.6587 5.53148 55.5449 5.61412C54.0429 5.45603 51.5942 5.08594 51.5942 5.08594Z" fill="white"/>
<path d="M55.5416 5.62725C54.7337 5.55179 53.1463 5.38652 51.5874 5.10266V5.07031C51.6123 5.07031 54.0574 5.42963 55.538 5.59491L55.5416 5.62725Z" fill="white"/>
</g>
<g opacity="0.76">
<path d="M57.4461 5.56811L56.4851 5.45312L57.4176 5.57889L57.4461 5.56811Z" fill="white"/>
<path d="M57.4213 5.59559L56.4888 5.46984V5.4375L57.044 5.50576L57.4497 5.55607H57.5102L57.4462 5.58122H57.4248L57.4213 5.59559Z" fill="white"/>
</g>
<g opacity="0.76">
<path d="M56.4812 5.47076L55.8904 5.39171V5.35938L56.4812 5.43842V5.47076Z" fill="white"/>
</g>
<g opacity="0.76">
<path d="M48.3771 4.59399C47.0815 4.46823 44.9709 4.14844 44.9709 4.14844C46.2843 4.39277 47.6118 4.52931 48.3771 4.59399Z" fill="white"/>
<path d="M48.3734 4.61429C47.6616 4.5532 46.3091 4.41667 44.9673 4.16515V4.13281C44.9886 4.13281 47.1028 4.45619 48.3698 4.58195L48.3734 4.61429Z" fill="white"/>
</g>
<g opacity="0.76">
<path d="M48.3772 4.59375C48.6335 4.62249 48.8577 4.63686 49.0285 4.64405C49.0285 4.64405 48.7829 4.62968 48.3772 4.59375Z" fill="white"/>
<path d="M49.0284 4.6728C48.8683 4.6728 48.6476 4.65124 48.3735 4.62609V4.59375C48.7757 4.62968 49.0249 4.64406 49.0249 4.64406L49.0284 4.6728Z" fill="white"/>
</g>
<g opacity="0.76">
<path d="M50.3744 4.75076L51.2927 4.87292L53.147 5.12445L50.1431 4.70046C49.9402 4.67172 49.7018 4.63219 49.5024 4.625C49.684 4.6753 50.1502 4.71842 50.3744 4.75076Z" fill="white"/>
<path d="M53.1433 5.14053L50.3565 4.76326L50.1252 4.73452C49.9086 4.71649 49.6934 4.68407 49.481 4.6375L49.3635 4.60156H49.4881C49.6554 4.60156 49.844 4.6375 50.0326 4.66265H50.1323L53.1362 5.09023L53.1433 5.14053Z" fill="white"/>
</g>
<g opacity="0.76">
<path d="M48.8115 4.78125C49.2422 4.83515 49.6693 4.89982 50.0964 4.96091C50.0199 4.93086 49.9396 4.91151 49.8579 4.90341C49.5127 4.84952 49.1603 4.8064 48.8115 4.78125Z" fill="white"/>
<path d="M50.2104 4.99559L50.093 4.97762L49.7371 4.92372L48.8259 4.79796V4.76562C49.1498 4.79078 49.5022 4.8339 49.8937 4.89139C49.9778 4.8991 50.0604 4.91845 50.1393 4.94888L50.2104 4.99559Z" fill="white"/>
</g>
<g opacity="0.76">
<path d="M43.7894 4.12842L43.615 4.11046V4.07812H43.7894V4.12842Z" fill="white"/>
</g>
<g opacity="0.76">
<path d="M44.455 4.17045C44.2379 4.13452 44.0136 4.12734 43.793 4.10938C44.0136 4.13093 44.2343 4.15608 44.455 4.17045Z" fill="white"/>
<path d="M44.4513 4.19139C44.2555 4.19139 44.0563 4.15546 43.8641 4.1339H43.7893V4.10156H43.9744C44.1353 4.10943 44.2957 4.12622 44.4549 4.15186L44.4513 4.19139Z" fill="white"/>
</g>
<g opacity="0.76">
<path d="M45.2449 4.0089C45.1666 4.0089 45.0848 3.98375 45.0029 3.97656L45.2236 4.01968L45.2449 4.0089Z" fill="white"/>
<path d="M45.2271 4.03577L44.9993 3.98906V3.95312L45.2448 3.98906H45.2911L45.2271 4.03577Z" fill="white"/>
</g>
<g opacity="0.76">
<path d="M43.3481 4.8125C44.8715 5.08917 46.4126 5.25445 47.2988 5.33709C45.7968 5.18259 43.3481 4.8125 43.3481 4.8125Z" fill="white"/>
<path d="M47.2951 5.3574C46.4872 5.28194 44.8998 5.11307 43.3445 4.82921V4.79688C43.3658 4.79688 45.811 5.15619 47.2951 5.32506V5.3574Z" fill="white"/>
</g>
<g opacity="0.76">
<path d="M44.8284 4.54688C45.5188 4.63311 46.2093 4.72653 46.8963 4.81636C46.7859 4.79121 46.6435 4.76965 46.5083 4.75168C45.9495 4.66904 45.3729 4.60436 44.8284 4.54688Z" fill="white"/>
<path d="M46.8926 4.83667L46.2946 4.75762C45.8142 4.69294 45.3159 4.62468 44.8247 4.5636V4.53125C45.3372 4.58874 45.8924 4.65701 46.5046 4.73966C46.647 4.75762 46.7858 4.77918 46.8926 4.80433V4.83667Z" fill="white"/>
</g>
</g>
<g opacity="0.4">
<g opacity="0.76">
<path d="M46.7975 3.68967C46.5021 3.65734 46.2387 3.63578 46.043 3.625L46.7975 3.68967Z" fill="white"/>
<path d="M46.7975 3.70217C46.3313 3.65905 46.043 3.64108 46.043 3.64108V3.60156C46.228 3.60156 46.4843 3.63031 46.8011 3.66265L46.7975 3.70217Z" fill="white"/>
</g>
<g opacity="0.76">
<path d="M50.7515 4.2121C49.2246 3.93543 47.6835 3.77014 46.7937 3.6875C48.2992 3.842 50.7515 4.2121 50.7515 4.2121Z" fill="white"/>
<path d="M50.7479 4.2288C50.7266 4.2288 48.2779 3.86949 46.7937 3.70421V3.67188C47.6016 3.74733 49.1926 3.91621 50.755 4.20006L50.7479 4.2288Z" fill="white"/>
</g>
<g opacity="0.76">
<path d="M43.854 3.60625C44.5231 3.71404 45.1922 3.78231 45.8542 3.86495L43.7188 3.57031C43.7188 3.57031 43.7935 3.58109 43.854 3.60625Z" fill="white"/>
<path d="M45.8504 3.86244L45.2987 3.79777C44.8254 3.74028 44.3342 3.68278 43.8502 3.60374C43.7292 3.58577 43.7042 3.5714 43.7007 3.55702H43.7185V3.53906C43.7576 3.53906 44.9855 3.71871 45.854 3.83729L45.8504 3.86244Z" fill="white"/>
</g>
<g opacity="0.76">
<path d="M46.4416 3.93591L45.8508 3.85686V3.82812C46.0786 3.85328 46.2637 3.87842 46.4416 3.90716V3.93591Z" fill="white"/>
</g>
<g opacity="0.76">
<path d="M44.6365 3.50765L44.4158 3.46094H44.3909L44.6365 3.50765Z" fill="white"/>
<path d="M44.6329 3.52499C44.5504 3.51831 44.4684 3.5063 44.3873 3.48906H44.3411L44.4123 3.45312L44.64 3.49984L44.6329 3.52499Z" fill="white"/>
</g>
<g opacity="0.76">
<path d="M53.9763 4.70312C55.2718 4.82888 57.386 5.15226 57.386 5.15226C56.0727 4.90434 54.7415 4.7678 53.9763 4.70312Z" fill="white"/>
<path d="M57.3823 5.16476C57.361 5.16476 55.2468 4.84138 53.9727 4.71562V4.67969C54.6845 4.73718 56.0441 4.87371 57.3859 5.12883L57.3823 5.16476Z" fill="white"/>
</g>
<g opacity="0.76">
<path d="M53.9762 4.69874C53.7163 4.67358 53.4921 4.65562 53.3213 4.64844C53.3213 4.64844 53.5597 4.67718 53.9762 4.69874Z" fill="white"/>
<path d="M53.9726 4.71186L53.3213 4.66515V4.63281C53.4815 4.63281 53.7021 4.65437 53.9762 4.68311L53.9726 4.71186Z" fill="white"/>
</g>
<g opacity="0.76">
<path d="M51.9729 4.54915L51.0689 4.42339L49.2146 4.17188L52.2221 4.59945C52.4214 4.6282 52.6634 4.66772 52.8627 4.67491C52.667 4.62101 52.2007 4.58148 51.9729 4.54915Z" fill="white"/>
<path d="M52.9728 4.68928H52.8482C52.6774 4.68928 52.4923 4.65336 52.3001 4.62821H52.204L49.1965 4.20422V4.17188L51.9727 4.54916L52.2076 4.57431C52.423 4.59228 52.637 4.62468 52.8482 4.67132L52.9728 4.68928Z" fill="white"/>
</g>
<g opacity="0.76">
<path d="M53.5384 4.51559C53.1078 4.4617 52.6807 4.39702 52.25 4.33594C52.3284 4.36388 52.4095 4.38315 52.492 4.39343C52.8479 4.44373 53.2038 4.48685 53.5384 4.51559Z" fill="white"/>
<path d="M53.5383 4.52871C53.2144 4.50356 52.8621 4.46403 52.4705 4.40654C52.3868 4.39707 52.3043 4.37778 52.225 4.34905L52.136 4.32031H52.2499L52.6272 4.37421C52.9261 4.41732 53.2358 4.46404 53.5383 4.49997V4.52871Z" fill="white"/>
</g>
<g opacity="0.76">
<path d="M57.1184 5.29203C57.1967 5.29203 57.2786 5.32076 57.3604 5.32795L57.1398 5.28125L57.1184 5.29203Z" fill="white"/>
<path d="M57.3497 5.34171C57.2679 5.34171 57.186 5.34171 57.1077 5.30937H57.0579L57.129 5.27344L57.3568 5.32375L57.3497 5.34171Z" fill="white"/>
</g>
</g>
<g opacity="0.4">
<g opacity="0.76">
<path d="M52.3098 3.57031C52.6088 3.60265 52.8686 3.62421 53.0644 3.63499L52.3098 3.57031Z" fill="white"/>
<path d="M53.0643 3.6481C52.8792 3.6481 52.6229 3.61936 52.3062 3.58343V3.55469C52.7724 3.5978 53.0607 3.61576 53.0643 3.61576V3.6481Z" fill="white"/>
</g>
<g opacity="0.76">
<path d="M48.3525 3.04688C49.8794 3.32354 51.4241 3.48882 52.3103 3.57146C50.8048 3.41696 48.3525 3.04688 48.3525 3.04688Z" fill="white"/>
<path d="M52.3066 3.59599C51.4987 3.52413 49.9078 3.35525 48.3489 3.0714V3.03906C48.3738 3.03906 50.8189 3.39837 52.3031 3.56725L52.3066 3.59599Z" fill="white"/>
</g>
<g opacity="0.76">
<path d="M55.2493 3.66495C54.5801 3.55716 53.9146 3.48889 53.249 3.40625C54.0569 3.51404 55.3845 3.69729 55.3845 3.70089C55.3845 3.70448 55.3098 3.67573 55.2493 3.66495Z" fill="white"/>
<path d="M55.3777 3.7176L53.2422 3.42296V3.39062L53.7974 3.45889C54.2708 3.51638 54.7584 3.57388 55.2424 3.65293C55.3634 3.67089 55.3884 3.68525 55.3919 3.69963L55.3777 3.7176Z" fill="white"/>
</g>
<g opacity="0.76">
<path d="M53.2464 3.42389L52.6592 3.34484V3.3125L53.25 3.39155L53.2464 3.42389Z" fill="white"/>
</g>
<g opacity="0.76">
<path d="M54.4668 3.75L54.6875 3.7967H54.7124C54.6316 3.77583 54.5496 3.76023 54.4668 3.75Z" fill="white"/>
<path d="M54.6909 3.80983L54.4631 3.76311V3.73438C54.5462 3.73438 54.628 3.74515 54.7087 3.76671H54.755L54.6909 3.80983Z" fill="white"/>
</g>
<g opacity="0.76">
<path d="M43.6294 2.94531C44.7968 3.14653 45.9251 3.25791 46.6049 3.30462C45.6724 3.23635 44.3056 3.04592 43.6294 2.94531Z" fill="white"/>
<path d="M46.6012 3.34774C45.8894 3.28666 44.7683 3.17168 43.6222 2.98843H43.5938V2.94531H43.6115C44.3234 3.04951 45.6581 3.23995 46.5834 3.32978L46.6012 3.34774Z" fill="white"/>
</g>
<g opacity="0.76">
<path d="M45.1316 2.55469C45.3879 2.57984 45.6121 2.59781 45.7829 2.6014L45.1316 2.55469Z" fill="white"/>
<path d="M45.7828 2.62171C45.6227 2.62171 45.402 2.60014 45.1279 2.5714V2.53906C45.5301 2.57499 45.7793 2.58937 45.7793 2.58937L45.7828 2.62171Z" fill="white"/>
</g>
<g opacity="0.76">
<path d="M47.1314 2.70387L48.0497 2.82604L49.9075 3.07756L46.8965 2.65358C46.6972 2.62483 46.4552 2.58531 46.2559 2.57812C46.4409 2.63202 46.9036 2.67154 47.1314 2.70387Z" fill="white"/>
<path d="M49.904 3.09365L47.1279 2.71638L46.8966 2.68764C46.6788 2.66958 46.4624 2.63716 46.2488 2.59062L46.1313 2.55469H46.2559C46.4397 2.563 46.6228 2.58341 46.804 2.61578H46.9001L49.9112 3.04335L49.904 3.09365Z" fill="white"/>
</g>
<g opacity="0.76">
<path d="M44.8857 2.65625C45.5406 2.73889 46.1991 2.83231 46.8539 2.92214C46.7372 2.88931 46.6183 2.86529 46.498 2.85027C45.957 2.77122 45.4161 2.70655 44.8857 2.65625Z" fill="white"/>
<path d="M47.0247 2.964L46.8503 2.93886L46.2773 2.85981L44.8821 2.67296V2.64062C45.3732 2.68734 45.9142 2.75201 46.4837 2.83466C46.6041 2.85031 46.7231 2.87554 46.8396 2.91011L47.0247 2.964Z" fill="white"/>
</g>
<g opacity="0.76">
<path d="M47.3807 5.12717C47.1636 5.09124 46.9394 5.08406 46.7188 5.0625C46.9394 5.08765 47.153 5.1128 47.3807 5.12717Z" fill="white"/>
<path d="M47.3771 5.14092C47.1849 5.14092 46.9856 5.10858 46.7898 5.08702H46.7151V5.05469H46.9001C47.0611 5.06256 47.2215 5.07935 47.3806 5.10499L47.3771 5.14092Z" fill="white"/>
</g>
<g opacity="0.76">
<path d="M48.1745 4.96561L47.929 4.92969L48.1496 4.97639L48.1745 4.96561Z" fill="white"/>
<path d="M48.1531 4.99311L47.9253 4.9464V4.91406C48.0072 4.91406 48.089 4.93562 48.1709 4.95H48.2171L48.1531 4.99311Z" fill="white"/>
</g>
</g>
<g opacity="0.4">
<g opacity="0.76">
<path d="M43.9004 1.66406C45.4024 1.83653 47.488 2.14913 47.488 2.14913C46.1533 1.91199 44.8115 1.75389 43.9004 1.66406Z" fill="white"/>
<path d="M47.4837 2.16225C47.4624 2.16225 45.3803 1.84605 43.8961 1.67718H43.8748V1.64844C44.7717 1.73827 46.1241 1.89276 47.4624 2.13709L47.4837 2.16225Z" fill="white"/>
</g>
<g opacity="0.76">
<path d="M56.1114 6.19656L49.6836 5.35938C49.6836 5.35938 49.9755 5.41327 50.2068 5.44561C52.1857 5.7115 54.1432 5.95582 56.1007 6.20375L56.1114 6.19656Z" fill="white"/>
<path d="M56.104 6.2175L55.6947 6.1672C53.9151 5.94084 52.043 5.71088 50.203 5.44858C49.6798 5.37672 49.6691 5.36593 49.6655 5.35156H49.6833L56.1111 6.18876H56.161L56.104 6.2175Z" fill="white"/>
</g>
<g opacity="0.76">
<path d="M44.4015 2.38124L43.8142 2.30219V2.27344L44.405 2.35249L44.4015 2.38124Z" fill="white"/>
</g>
<g opacity="0.76">
<path d="M50.2496 3.65701L49.399 3.53125H49.3242C49.6445 3.59233 49.94 3.62108 50.2496 3.65701Z" fill="white"/>
<path d="M50.2456 3.67497C49.9359 3.63904 49.6263 3.59952 49.3202 3.5564L49.1565 3.53125H49.4021L50.2492 3.65701L50.2456 3.67497Z" fill="white"/>
</g>
<g opacity="0.76">
<path d="M50.7112 2.64844C52.0067 2.77779 54.1209 3.09758 54.1209 3.09758C52.804 2.84965 51.4728 2.71311 50.7112 2.64844Z" fill="white"/>
<path d="M54.114 3.1143C54.0927 3.1143 51.9785 2.79092 50.7043 2.66516V2.63281C51.4162 2.6903 52.7758 2.83043 54.1176 3.08195L54.114 3.1143Z" fill="white"/>
</g>
<g opacity="0.76">
<path d="M50.7123 2.64046C50.4524 2.61531 50.2282 2.59734 50.0574 2.59375L50.7123 2.64046Z" fill="white"/>
<path d="M50.7124 2.66077C50.3102 2.62484 50.0646 2.61046 50.061 2.61046V2.57812C50.2248 2.57812 50.4419 2.60327 50.7159 2.62842L50.7124 2.66077Z" fill="white"/>
</g>
<g opacity="0.76">
<path d="M48.7042 2.49867L47.786 2.37651L45.9316 2.125L48.9391 2.54898C49.142 2.57773 49.3805 2.61725 49.5798 2.62444C49.3982 2.57054 48.932 2.52383 48.7042 2.49867Z" fill="white"/>
<path d="M49.7042 2.64241H49.5797C49.3972 2.63356 49.2154 2.61436 49.0351 2.58492H48.9355L45.928 2.15734V2.125L48.7041 2.50228L48.939 2.53102C49.1556 2.54905 49.3708 2.58145 49.5832 2.62803L49.7042 2.64241Z" fill="white"/>
</g>
<g opacity="0.76">
<path d="M50.2706 2.45309C49.8435 2.3992 49.4128 2.33452 48.9822 2.27344C49.0606 2.30138 49.1417 2.32065 49.2242 2.33093C49.5694 2.38482 49.9218 2.42794 50.2706 2.45309Z" fill="white"/>
<path d="M50.2705 2.47214C49.9467 2.44699 49.5943 2.40387 49.2028 2.34638C49.119 2.33691 49.0366 2.31762 48.9572 2.28889L48.854 2.24219H48.9679L49.3451 2.29608L50.2563 2.42184L50.2705 2.47214Z" fill="white"/>
</g>
<g opacity="0.76">
<path d="M55.4703 3.1675L55.2959 3.14952V3.11719L55.4739 3.13516L55.4703 3.1675Z" fill="white"/>
</g>
<g opacity="0.76">
<path d="M54.627 3.0625C54.8441 3.09843 55.0718 3.10562 55.2925 3.12359C55.079 3.10203 54.8547 3.07687 54.627 3.0625Z" fill="white"/>
<path d="M55.2962 3.14513H55.1147C54.9525 3.13727 54.7909 3.12048 54.6306 3.09484V3.0625C54.8264 3.0625 55.0257 3.09843 55.2179 3.11999H55.2926L55.2962 3.14513Z" fill="white"/>
</g>
<g opacity="0.76">
<path d="M53.8435 3.23734C53.9218 3.23734 54.0037 3.26249 54.0855 3.26968L53.8649 3.22656L53.8435 3.23734Z" fill="white"/>
<path d="M54.0856 3.28702L53.84 3.25109H53.7937L53.8613 3.21875L54.0891 3.26546L54.0856 3.28702Z" fill="white"/>
</g>
</g>
<g opacity="0.4">
<path d="M52.6372 3.93562C55.3778 4.29493 57.5702 4.58597 57.5702 4.58597C55.8974 4.34523 54.2246 4.11887 52.6443 3.91406L52.6372 3.93562Z" fill="white"/>
<path d="M57.5668 4.60269C57.5454 4.60269 55.3423 4.30447 52.6373 3.95234H52.616V3.89844H52.6338C54.3706 4.1248 56.0292 4.35118 57.5561 4.57036L57.5668 4.60269Z" fill="white"/>
</g>
<g opacity="0.4">
<path d="M56.9012 3.90028L55.7729 3.74219C55.8513 3.77013 55.9325 3.7894 56.015 3.79968C56.3104 3.8428 56.6093 3.88232 56.9083 3.90747L56.9012 3.90028Z" fill="white"/>
<path d="M56.9581 3.92653H56.9048C56.62 3.89778 56.3175 3.86184 56.0114 3.81513C55.9276 3.80566 55.8452 3.78638 55.7658 3.75765L55.6626 3.71094L55.7765 3.7289L56.1324 3.77921L56.8941 3.887L56.9581 3.92653Z" fill="white"/>
</g>
<g opacity="0.4">
<path d="M56.3524 3.41841L55.217 3.28906C55.5943 3.34296 55.9787 3.38607 56.3631 3.42919L56.3524 3.41841Z" fill="white"/>
<path d="M56.4061 3.4495H56.3562C56.0003 3.40997 55.6124 3.36326 55.2102 3.30577V3.27344L56.3491 3.40638L56.4061 3.4495Z" fill="white"/>
</g>
<g opacity="0.4">
<path d="M55.7407 2.82699L54.6089 2.67969L55.7549 2.82699H55.7407Z" fill="white"/>
<path d="M55.7944 2.87372L55.5737 2.84498L54.6021 2.7228V2.67969L55.7588 2.8306L55.7944 2.87372Z" fill="white"/>
</g>
<g opacity="0.05">
<path d="M50.655 2.33027L44.4016 1.43917C44.284 1.41534 44.1618 1.43679 44.0591 1.49928C43.9563 1.56178 43.8804 1.66082 43.8464 1.77693L43.316 4.48613C43.3091 4.54363 43.314 4.60195 43.3305 4.65745C43.347 4.71294 43.3746 4.76441 43.4117 4.8086C43.4488 4.8528 43.4946 4.88878 43.5461 4.91429C43.5976 4.93979 43.6538 4.95427 43.7111 4.95682L50.655 5.93055V2.33027Z" fill="white"/>
</g>
<path d="M47.5978 12.8605L47.4555 12.2066L57.599 10.7693C57.6565 10.7667 57.7128 10.7523 57.7645 10.7268C57.8162 10.7013 57.8621 10.6654 57.8995 10.6213C57.9369 10.5771 57.9649 10.5257 57.9817 10.4702C57.9986 10.4147 58.004 10.3563 57.9977 10.2986L57.4638 7.58943C57.4297 7.47332 57.3538 7.37428 57.2511 7.31178C57.1483 7.24929 57.0262 7.22784 56.9086 7.25167L46.7614 8.68891L46.6155 8.04216C46.601 8.00962 46.5793 7.98087 46.5521 7.95811C46.5249 7.93535 46.4929 7.91919 46.4585 7.91086C46.4241 7.90254 46.3884 7.90227 46.3539 7.91008C46.3194 7.91789 46.2871 7.93358 46.2596 7.95593L43.4443 10.6543C43.3989 10.6959 43.365 10.7487 43.3457 10.8074C43.3264 10.8661 43.3225 10.9289 43.3343 10.9896C43.3461 11.0503 43.3733 11.1069 43.4131 11.154C43.453 11.201 43.5042 11.2368 43.5618 11.258L47.2953 13.0545C47.4377 13.13 47.6299 13.015 47.5978 12.8605Z" fill="#25C49A"/>
<g opacity="0.4">
<g opacity="0.76">
<path d="M45.7643 11.4297C45.4689 11.4584 45.2055 11.48 45.0098 11.4908C45.0169 11.498 45.2945 11.4728 45.7643 11.4297Z" fill="white"/>
<path d="M45.0166 11.4954V11.4631L45.7711 11.3984V11.4308C45.4508 11.4739 45.1946 11.4954 45.0166 11.4954Z" fill="white"/>
</g>
<g opacity="0.76">
<path d="M49.7184 10.9062C48.1915 11.1829 46.6504 11.3518 45.7642 11.4344C47.2661 11.2763 49.7184 10.9062 49.7184 10.9062Z" fill="white"/>
<path d="M45.7678 11.4476V11.4152C47.2484 11.2607 49.6829 10.8942 49.7185 10.8906V10.9194C48.1631 11.2032 46.5757 11.3721 45.7678 11.4476Z" fill="white"/>
</g>
<g opacity="0.76">
<path d="M43.8643 11.3842C44.1881 11.3447 44.5085 11.3087 44.8252 11.2656L43.8927 11.395L43.8643 11.3842Z" fill="white"/>
<path d="M43.8923 11.4058H43.871L43.8069 11.3806H43.871L44.2767 11.3339L44.8319 11.2656V11.298L43.8994 11.4237L43.8923 11.4058Z" fill="white"/>
</g>
<g opacity="0.76">
<path d="M44.8284 11.2833V11.2509L45.4156 11.1719V11.2042L44.8284 11.2833Z" fill="white"/>
</g>
<g opacity="0.76">
<path d="M52.9321 10.4179C54.2277 10.2921 56.3418 9.96875 56.3418 9.96875C55.0285 10.2095 53.6973 10.346 52.9321 10.4179Z" fill="white"/>
<path d="M52.9358 10.419V10.3866C54.2135 10.2609 56.3205 9.94109 56.3419 9.9375V9.96984C55.0037 10.2321 53.6334 10.3687 52.9358 10.419Z" fill="white"/>
</g>
<g opacity="0.76">
<path d="M52.9323 10.4219C52.6761 10.447 52.4518 10.465 52.281 10.4722C52.281 10.465 52.5266 10.4506 52.9323 10.4219Z" fill="white"/>
<path d="M52.281 10.4775V10.4451L52.9323 10.3984V10.42C52.6618 10.4559 52.4412 10.4739 52.281 10.4775Z" fill="white"/>
</g>
<g opacity="0.76">
<path d="M50.9361 10.5597L50.0179 10.6854L48.1636 10.9369L51.171 10.5094C51.3703 10.4806 51.6124 10.4447 51.8081 10.4375C51.5198 10.4937 51.2287 10.5345 50.9361 10.5597Z" fill="white"/>
<path d="M48.1672 10.9549V10.9262L51.1712 10.4986H51.2673C51.4452 10.4734 51.6445 10.4447 51.8118 10.4375H51.9364L51.8189 10.4734C51.6065 10.52 51.3913 10.5524 51.1747 10.5704L50.9434 10.5992L48.1672 10.9549Z" fill="white"/>
</g>
<g opacity="0.76">
<path d="M52.4914 10.6016C52.0643 10.6519 51.6336 10.7201 51.2065 10.7776C51.2832 10.7488 51.3635 10.7307 51.445 10.7237C51.7974 10.6698 52.1355 10.6267 52.4914 10.6016Z" fill="white"/>
<path d="M51.0996 10.8123L51.2028 10.7692C51.2816 10.7379 51.3642 10.7174 51.4484 10.7081C51.8043 10.6506 52.1602 10.6111 52.4984 10.5859V10.6183C52.1958 10.6542 51.8862 10.7009 51.5872 10.744L51.2135 10.7979L51.0996 10.8123Z" fill="white"/>
</g>
<g opacity="0.76">
<path d="M57.5164 9.93203L57.6943 9.91406C57.6354 9.92361 57.576 9.92961 57.5164 9.93203Z" fill="white"/>
<path d="M57.52 9.9464V9.91406H57.6944V9.9464H57.52Z" fill="white"/>
</g>
<g opacity="0.76">
<path d="M56.8584 9.99436C57.0719 9.95843 57.2962 9.95125 57.5168 9.92969C57.2962 9.95484 57.0755 9.97999 56.8584 9.99436Z" fill="white"/>
<path d="M56.8584 10.0087V9.97999C57.0187 9.95434 57.1803 9.93756 57.3424 9.92969H57.524V9.96202H57.4492C57.2535 9.9764 57.0542 9.99796 56.8584 10.0087Z" fill="white"/>
</g>
<g opacity="0.76">
<path d="M56.0505 9.825L56.2926 9.78906L56.0719 9.83577L56.0505 9.825Z" fill="white"/>
<path d="M56.0861 9.85312L56.0149 9.81718H56.0612C56.143 9.81718 56.2249 9.78844 56.3067 9.78125V9.81359L56.0861 9.85312Z" fill="white"/>
</g>
<g opacity="0.76">
<path d="M57.9647 10.625C56.4378 10.9017 54.8967 11.067 54.0105 11.1496C55.5125 10.9951 57.9647 10.625 57.9647 10.625Z" fill="white"/>
<path d="M54.0142 11.1663V11.1376C55.4948 10.9831 57.9292 10.613 57.9648 10.6094V10.6417C56.4059 10.9256 54.8221 11.0944 54.0142 11.1663Z" fill="white"/>
</g>
<g opacity="0.76">
<path d="M56.4809 10.3672L54.4131 10.6403C54.5234 10.6151 54.6658 10.5936 54.801 10.5756C55.3598 10.5001 55.9257 10.4247 56.4809 10.3672Z" fill="white"/>
<path d="M54.4167 10.657V10.6246C54.5461 10.5964 54.6768 10.5748 54.8083 10.56C55.4098 10.4773 55.9721 10.4055 56.4846 10.3516V10.3839L55.0218 10.5743L54.4167 10.657Z" fill="white"/>
</g>
</g>
<g opacity="0.4">
<g opacity="0.76">
<path d="M54.5166 9.49078C54.8156 9.46203 55.0754 9.44047 55.2711 9.42969C55.2711 9.42969 54.9828 9.44766 54.5166 9.49078Z" fill="white"/>
<path d="M54.5166 9.51107V9.47874C54.8334 9.4464 55.0896 9.42484 55.2747 9.41406V9.4464L54.5166 9.51107Z" fill="white"/>
</g>
<g opacity="0.76">
<path d="M50.5586 10.0282C52.0855 9.75152 53.6301 9.58264 54.5164 9.5C53.0108 9.6581 50.5586 10.0282 50.5586 10.0282Z" fill="white"/>
<path d="M50.5623 10.0413V10.0126C52.1212 9.72871 53.7121 9.55983 54.52 9.48438V9.51671C53.0323 9.67121 50.5872 10.0377 50.5623 10.0413Z" fill="white"/>
</g>
<g opacity="0.76">
<path d="M57.4741 9.39984C56.805 9.50404 56.1394 9.5759 55.4739 9.65854C56.2818 9.54715 57.6094 9.3675 57.6094 9.36032C57.6094 9.35313 57.5168 9.38906 57.4741 9.39984Z" fill="white"/>
<path d="M55.4595 9.67072V9.63839C56.3243 9.52341 57.5558 9.35453 57.595 9.34375C57.595 9.34375 57.5665 9.3689 57.4455 9.39046C56.9614 9.46592 56.4738 9.527 56.0004 9.5809L55.4595 9.67072Z" fill="white"/>
</g>
<g opacity="0.76">
<path d="M54.8691 9.75076V9.70405L55.4564 9.625V9.65734L54.8691 9.75076Z" fill="white"/>
</g>
<g opacity="0.76">
<path d="M56.6733 9.32015L56.894 9.27344H56.9189L56.6733 9.32015Z" fill="white"/>
<path d="M56.677 9.34467V9.31234L56.9048 9.26562L56.976 9.30156H56.9297C56.8407 9.31593 56.7624 9.34467 56.677 9.34467Z" fill="white"/>
</g>
<g opacity="0.76">
<path d="M47.3378 10.5078C46.0387 10.6336 43.9246 10.957 43.9246 10.957C45.2414 10.709 46.5726 10.5725 47.3378 10.5078Z" fill="white"/>
<path d="M43.9282 10.9737V10.9413C45.27 10.6898 46.6439 10.5533 47.3415 10.4922V10.5245C46.0566 10.6503 43.9496 10.9701 43.9282 10.9737Z" fill="white"/>
</g>
<g opacity="0.76">
<path d="M47.3379 10.5112C47.5941 10.4861 47.8184 10.4681 47.9892 10.4609C47.9892 10.4609 47.7436 10.4753 47.3379 10.5112Z" fill="white"/>
<path d="M47.3379 10.5244V10.492C47.6119 10.4669 47.8326 10.4489 47.9928 10.4453V10.4776L47.3379 10.5244Z" fill="white"/>
</g>
<g opacity="0.76">
<path d="M49.3377 10.3616L50.256 10.2359L52.1138 9.98438L49.1028 10.4191C48.9035 10.4479 48.6615 10.4838 48.4622 10.491C48.7516 10.4324 49.0438 10.3892 49.3377 10.3616Z" fill="white"/>
<path d="M48.3376 10.5054L48.4551 10.4694C48.6675 10.4231 48.8827 10.3907 49.0993 10.3724L49.3342 10.3437L52.1103 9.98438V10.0131L49.1064 10.4191H49.0103C48.8324 10.4443 48.633 10.473 48.4622 10.4802L48.3376 10.5054Z" fill="white"/>
</g>
<g opacity="0.76">
<path d="M47.7722 10.3203C48.2029 10.2664 48.63 10.1981 49.0606 10.1406C48.9837 10.1686 48.9036 10.1867 48.8222 10.1945C48.4734 10.2484 48.121 10.2915 47.7722 10.3203Z" fill="white"/>
<path d="M47.7722 10.337V10.3047C48.0783 10.2687 48.388 10.222 48.6869 10.1789L49.0606 10.125H49.1781L49.0713 10.1681C48.9928 10.2002 48.9101 10.2208 48.8257 10.2292C48.4485 10.2723 48.0961 10.3118 47.7722 10.337Z" fill="white"/>
</g>
<g opacity="0.76">
<path d="M44.2024 11.1045L43.9568 11.1405L44.1775 11.0938L44.2024 11.1045Z" fill="white"/>
<path d="M43.9502 11.1415V11.1092L44.178 11.0625L44.2492 11.0984H44.2029C44.1246 11.1416 44.0427 11.1415 43.9502 11.1415Z" fill="white"/>
</g>
</g>
<g opacity="0.4">
<g opacity="0.76">
<path d="M48.9999 9.39062C48.7045 9.41937 48.4411 9.44453 48.2454 9.45171C48.2454 9.45171 48.5301 9.43374 48.9999 9.39062Z" fill="white"/>
<path d="M48.2454 9.47201V9.43967L48.9999 9.375V9.40734C48.6867 9.43967 48.4304 9.46123 48.2454 9.47201Z" fill="white"/>
</g>
<g opacity="0.76">
<path d="M52.9578 8.86719C51.4309 9.14745 49.8898 9.31273 49 9.39537C50.5055 9.23728 52.9578 8.86719 52.9578 8.86719Z" fill="white"/>
<path d="M49.0037 9.4085V9.37616C50.4878 9.22166 52.9187 8.85516 52.9614 8.85156V8.88391C51.4025 9.16777 49.8116 9.35101 49.0037 9.4085Z" fill="white"/>
</g>
<g opacity="0.76">
<path d="M46.0603 9.49308C46.7294 9.38529 47.3985 9.31702 48.0605 9.23438C47.2526 9.34217 45.925 9.52542 45.925 9.52901C45.925 9.53261 45.9998 9.50026 46.0603 9.49308Z" fill="white"/>
<path d="M45.932 9.53979H45.9106C45.9106 9.53979 45.9391 9.51464 46.0601 9.49308C46.5442 9.41762 47.0353 9.36013 47.5087 9.30264L48.0604 9.23438V9.26671L45.932 9.53979Z" fill="white"/>
</g>
<g opacity="0.76">
<path d="M48.0645 9.2442V9.21186L48.6553 9.13281V9.16515L48.0645 9.2442Z" fill="white"/>
</g>
<g opacity="0.76">
<path d="M46.843 9.5625L46.6223 9.60563H46.5974L46.843 9.5625Z" fill="white"/>
<path d="M46.6188 9.62655L46.5476 9.59062H46.5939L46.8395 9.55469V9.58704L46.6188 9.62655Z" fill="white"/>
</g>
<g opacity="0.76">
<path d="M57.681 8.76562C56.5136 8.96325 55.3854 9.07822 54.7056 9.12494C55.6381 9.06026 56.9906 8.86623 57.681 8.76562Z" fill="white"/>
<path d="M54.7124 9.1668V9.13446C55.6378 9.04464 56.9725 8.8542 57.6843 8.75V8.79313C56.5418 8.99075 55.4385 9.10213 54.7124 9.1668Z" fill="white"/>
</g>
<g opacity="0.76">
<path d="M56.182 8.375C55.9222 8.40374 55.6979 8.41811 55.5271 8.4253C55.5271 8.4253 55.7727 8.41093 56.182 8.375Z" fill="white"/>
<path d="M55.5271 8.43842V8.40968C55.5271 8.40968 55.7762 8.40968 56.1784 8.35938V8.39171C55.9079 8.41686 55.6944 8.43483 55.5271 8.43842Z" fill="white"/>
</g>
<g opacity="0.76">
<path d="M54.1791 8.5242L53.2608 8.64636L51.4065 8.89788L54.414 8.4739C54.6133 8.44516 54.8553 8.40562 55.0546 8.39844C54.8731 8.45233 54.4068 8.49186 54.1791 8.5242Z" fill="white"/>
<path d="M51.4246 8.91943V8.88709L54.432 8.45951H54.5281C54.7061 8.43436 54.9054 8.40562 55.0762 8.39844H55.2008L55.0834 8.43437C54.871 8.48095 54.6558 8.51335 54.4391 8.53138L54.2043 8.56012L51.4246 8.91943Z" fill="white"/>
</g>
<g opacity="0.76">
<path d="M56.4245 8.47656C55.7696 8.5592 55.1112 8.65263 54.4563 8.74246C54.5725 8.70677 54.6916 8.68151 54.8122 8.667C55.339 8.59154 55.8942 8.52687 56.4245 8.47656Z" fill="white"/>
<path d="M54.271 8.78431L54.4347 8.73042C54.551 8.69492 54.6701 8.66968 54.7906 8.65497C55.3637 8.57233 55.9011 8.50765 56.3923 8.46094V8.49327C55.9296 8.55076 55.4562 8.61545 55.0006 8.68012L54.424 8.75916L54.271 8.78431Z" fill="white"/>
</g>
<g opacity="0.76">
<path d="M53.9153 10.9475C54.1324 10.908 54.3566 10.9008 54.5808 10.8828C54.3744 10.908 54.1502 10.9295 53.9153 10.9475Z" fill="white"/>
<path d="M53.9333 10.9619V10.9295C54.09 10.9044 54.2572 10.8936 54.4174 10.8828H54.5989V10.9151H54.5242L53.9333 10.9619Z" fill="white"/>
</g>
<g opacity="0.76">
<path d="M53.1384 10.7859C53.2167 10.7859 53.2986 10.7572 53.3804 10.75L53.1598 10.7967L53.1384 10.7859Z" fill="white"/>
<path d="M53.1566 10.8105L53.0854 10.7745H53.1353C53.2136 10.7745 53.2954 10.7494 53.3773 10.7422V10.7709L53.1566 10.8105Z" fill="white"/>
</g>
</g>
<g opacity="0.4">
<g opacity="0.76">
<path d="M57.4097 7.47656C55.9078 7.64903 53.8257 7.96163 53.8257 7.96163C55.1568 7.72449 56.4986 7.56639 57.4097 7.47656Z" fill="white"/>
<path d="M53.8293 7.98553V7.95319C55.1676 7.70886 56.5165 7.55077 57.4134 7.46094V7.4789H57.3921C55.9292 7.66933 53.8471 7.98193 53.8293 7.98553Z" fill="white"/>
</g>
<g opacity="0.76">
<path d="M45.1982 12.0091L51.6296 11.1719C51.4568 11.2089 51.2822 11.2365 51.1064 11.2545C49.1275 11.524 47.1664 11.7683 45.2089 12.0127L45.1982 12.0091Z" fill="white"/>
<path d="M45.2058 12.0294L45.1453 11.997H45.1987C48.3592 11.5838 51.5731 11.167 51.6051 11.1562V11.1742H51.6265C51.6265 11.1742 51.6265 11.1994 51.0855 11.2712C49.2418 11.5227 47.384 11.7527 45.5866 11.9898L45.2058 12.0294Z" fill="white"/>
</g>
<g opacity="0.76">
<path d="M56.9087 8.18951V8.15717L57.4995 8.07812V8.11046L56.9087 8.18951Z" fill="white"/>
</g>
<g opacity="0.76">
<path d="M51.0674 9.47732L51.9145 9.35156H51.9928C51.6795 9.39827 51.3735 9.44139 51.0674 9.47732Z" fill="white"/>
<path d="M51.0674 9.49403V9.46528L51.918 9.33594H52.16L51.9963 9.3575C51.6867 9.41858 51.3735 9.4581 51.0674 9.49403Z" fill="white"/>
</g>
<g opacity="0.76">
<path d="M50.6016 8.46094C49.306 8.59029 47.1919 8.91008 47.1919 8.91008C48.5052 8.66215 49.8363 8.52561 50.6016 8.46094Z" fill="white"/>
<path d="M47.1956 8.9232V8.89445C48.5374 8.63934 49.9112 8.5028 50.6088 8.44531V8.47765C49.3239 8.59981 47.2169 8.9232 47.1956 8.9232Z" fill="white"/>
</g>
<g opacity="0.76">
<path d="M50.6016 8.45296C50.8614 8.42781 51.0856 8.40984 51.2565 8.40625L50.6016 8.45296Z" fill="white"/>
<path d="M50.6052 8.47326V8.44092C50.8793 8.41218 51.0999 8.39781 51.2601 8.39062V8.42296C51.2601 8.42296 51.0074 8.43733 50.6052 8.47326Z" fill="white"/>
</g>
<g opacity="0.76">
<path d="M52.6048 8.30696L53.5231 8.1812L55.3809 7.92969L52.3699 8.35727C52.1706 8.38601 51.9286 8.42553 51.7292 8.43272C51.9108 8.37882 52.377 8.3393 52.6048 8.30696Z" fill="white"/>
<path d="M51.6047 8.45303L51.7222 8.41709C51.9349 8.37117 52.1499 8.33758 52.3664 8.31649L52.6013 8.29133L55.3774 7.91406V7.9464L52.3699 8.37038H52.2739C52.0924 8.40099 51.9094 8.42138 51.7257 8.43147L51.6047 8.45303Z" fill="white"/>
</g>
<g opacity="0.76">
<path d="M51.0396 8.26559C51.4702 8.2117 51.8973 8.14702 52.328 8.08594C52.2496 8.11388 52.1684 8.13315 52.0859 8.14343C51.7407 8.19732 51.3883 8.24044 51.0396 8.26559Z" fill="white"/>
<path d="M51.0396 8.28589V8.26793L51.9507 8.14217L52.328 8.08827L52.4419 8.07031L52.3386 8.11701C52.2593 8.14574 52.1769 8.16503 52.0931 8.1745C51.7158 8.22121 51.3634 8.26792 51.0396 8.28589Z" fill="white"/>
</g>
<g opacity="0.76">
<path d="M45.8398 8.98421V8.95547L46.0178 8.9375V8.96625L45.8398 8.98421Z" fill="white"/>
</g>
<g opacity="0.76">
<path d="M46.6761 8.875C46.4589 8.91452 46.2347 8.92171 46.0105 8.93967L46.6761 8.875Z" fill="white"/>
<path d="M46.0142 8.95765V8.92889H46.0889C46.2811 8.91093 46.4804 8.88937 46.6762 8.875V8.90734C46.5196 8.93249 46.3523 8.94327 46.1921 8.95765H46.0142Z" fill="white"/>
</g>
<g opacity="0.76">
<path d="M47.4659 9.04984C47.3876 9.04984 47.3057 9.07858 47.2239 9.08576L47.4445 9.03906L47.4659 9.04984Z" fill="white"/>
<path d="M47.2275 9.09889V9.07015L47.4553 9.02344L47.5265 9.05577H47.4767C47.3912 9.08093 47.3094 9.0917 47.2275 9.09889Z" fill="white"/>
</g>
</g>
<g opacity="0.4">
<path d="M48.6721 9.74812L43.7427 10.3949C45.4119 10.1577 47.0847 9.93137 48.665 9.72656L48.6721 9.74812Z" fill="white"/>
<path d="M43.7427 10.423V10.3907C45.2767 10.1715 46.9459 9.94512 48.665 9.71875V9.76905H48.6472C45.9672 10.1176 43.7676 10.423 43.7427 10.423Z" fill="white"/>
</g>
<g opacity="0.4">
<path d="M44.4086 9.70497L45.5333 9.54688C45.4549 9.57481 45.3738 9.59409 45.2913 9.60437C44.9959 9.64748 44.6969 9.687 44.3979 9.71215L44.4086 9.70497Z" fill="white"/>
<path d="M44.3516 9.74809L44.4014 9.70497L45.1666 9.60078L45.5225 9.54688H45.6364L45.5332 9.59359C45.4538 9.62231 45.3714 9.64161 45.2876 9.65108C44.9815 9.69779 44.679 9.73373 44.3943 9.75888L44.3516 9.74809Z" fill="white"/>
</g>
<g opacity="0.4">
<path d="M44.9567 9.23451L46.0957 9.10156C45.7148 9.15546 45.3304 9.20217 44.946 9.24528L44.9567 9.23451Z" fill="white"/>
<path d="M44.8997 9.26684L44.9317 9.23451L46.0706 9.10156V9.1339C45.6684 9.19139 45.2627 9.2381 44.9246 9.27404L44.8997 9.26684Z" fill="white"/>
</g>
<g opacity="0.4">
<path d="M45.5728 8.63949L46.7011 8.49219L45.5586 8.63949H45.5728Z" fill="white"/>
<path d="M45.5156 8.67419L45.5619 8.62748L46.7186 8.47656V8.51968L45.7363 8.64544L45.5156 8.67419Z" fill="white"/>
</g>
<g opacity="0.05">
<path d="M50.6516 8.1482L46.7614 8.69075L46.6155 8.044C46.601 8.01146 46.5793 7.98271 46.5521 7.95995C46.5249 7.93719 46.4929 7.92102 46.4585 7.9127C46.4241 7.90437 46.3884 7.90411 46.3539 7.91192C46.3194 7.91973 46.2871 7.93541 46.2596 7.95776L43.4443 10.6562C43.3989 10.6978 43.365 10.7505 43.3457 10.8092C43.3264 10.868 43.3225 10.9307 43.3343 10.9915C43.3461 11.0522 43.3733 11.1088 43.4131 11.1558C43.453 11.2028 43.5042 11.2386 43.5618 11.2598L47.2953 13.0564C47.4555 13.1318 47.6512 13.0168 47.6156 12.8623L47.4733 12.2084L50.769 11.7449L50.6516 8.1482Z" fill="#25C49A"/>
</g>
<g clip-path="url(#clip0_8717_60418)">
<path d="M58 54.1617C58 54.6265 57.7884 55.0037 57.5322 55.0018L0.467786 54.8579C0.209637 54.8579 0.00195312 54.4787 0.00195312 54.0139C0.00195312 53.5491 0.213518 53.1719 0.471667 53.1719L57.5361 53.3177C57.7943 53.3177 58.002 53.7066 58 54.1617Z" fill="#E6E6E6"/>
<path d="M8.58304 25.8906H7.02832V26.2718H8.58304V25.8906Z" fill="#919191"/>
<path d="M2.03415 25.6947C2.04578 25.7306 2.06574 25.7633 2.09238 25.79C2.32724 26.0409 3.15603 26.2042 3.81984 26.2411C4.70687 26.2878 7.40869 26.2703 7.40869 26.2703V25.2144C7.40869 25.0821 7.10396 24.9674 6.65171 24.9771C5.68123 24.9985 4.07799 25.0471 3.3773 25.1405C2.67661 25.2338 2.30201 25.335 2.13314 25.4633C2.08292 25.4949 2.04625 25.5441 2.03027 25.6014C2.02398 25.6323 2.02531 25.6644 2.03415 25.6947Z" fill="#E6E6E6"/>
<path d="M2.03027 25.6033H7.4087V25.2144C7.4087 25.0821 7.10202 24.9674 6.65172 24.9771C5.68123 24.9985 4.07799 25.0471 3.3773 25.1405C2.43982 25.2591 2.07103 25.4166 2.03027 25.6033Z" fill="#868686"/>
<path d="M2.03415 25.7002C2.04578 25.7361 2.06574 25.7687 2.09238 25.7954L4.26238 25.7235L4.71851 25.5601L2.13314 25.4688C2.08292 25.5004 2.04625 25.5496 2.03027 25.6068C2.02398 25.6378 2.02531 25.6698 2.03415 25.7002Z" fill="#B3BACF"/>
<path d="M50.9698 25.8906H49.415V26.2718H50.9698V25.8906Z" fill="#919191"/>
<path d="M55.9658 25.6947C55.9542 25.7306 55.9343 25.7633 55.9076 25.79C55.6728 26.0409 54.844 26.2042 54.1802 26.2411C53.2951 26.2878 50.5913 26.2703 50.5913 26.2703V25.2144C50.5913 25.0821 50.898 24.9674 51.3502 24.9771C52.3091 24.9985 53.922 25.0471 54.6227 25.1405C55.3234 25.2338 55.698 25.335 55.8669 25.4633C55.9176 25.4943 55.9545 25.5438 55.9697 25.6014C55.9772 25.6322 55.9759 25.6646 55.9658 25.6947Z" fill="#E6E6E6"/>
<path d="M55.9658 25.6033H50.5913V25.2144C50.5913 25.0821 50.898 24.9674 51.3502 24.9771C52.3091 24.9985 53.922 25.0471 54.6227 25.1405C55.5621 25.2591 55.929 25.4166 55.9658 25.6033Z" fill="#868686"/>
<path d="M55.9659 25.7002C55.9542 25.7361 55.9343 25.7687 55.9076 25.7954L53.7376 25.7235L53.2815 25.5601L55.8669 25.4688C55.9176 25.4998 55.9545 25.5492 55.9697 25.6068C55.9772 25.6377 55.9759 25.67 55.9659 25.7002Z" fill="#B3BACF"/>
<path opacity="0.87" d="M15.6055 17.9486L19.6136 17.4838H25.2269L30.5354 17.3516L35.316 17.3963L39.3862 17.6121L42.7286 17.651L44.2289 18.3705L45.7118 20.1207L46.6028 21.233L47.7732 23.1524L48.7203 24.7081L49.7529 26.8939L49.4579 27.1992L29.5552 26.5497L8.20459 27.0786L9.73019 24.1091L10.7259 22.2365L12.1059 20.3152L13.6199 18.6214L15.6055 17.9486Z" fill="#0B6950"/>
<path d="M38.2449 24.4688H19.7533C18.8593 24.4688 18.1345 25.1949 18.1345 26.0906V27.3974C18.1345 28.2931 18.8593 29.0192 19.7533 29.0192H38.2449C39.1389 29.0192 39.8637 28.2931 39.8637 27.3974V26.0906C39.8637 25.1949 39.1389 24.4688 38.2449 24.4688Z" fill="#094349"/>
<path d="M49.2657 25.8417L48.008 23.4304L46.6047 21.3205L45.2305 19.4459L43.5049 18.1566L37.422 17.4798L28.016 17.3359L20.6675 17.4798L14.4952 18.1546L12.8008 19.5606L11.3975 21.2602L10.2853 23.0104L9.26239 24.8266L8.35596 26.6274L8.16187 27.3022H8.96931L16.1198 27.1077C16.0274 26.9995 15.9777 26.8612 15.9801 26.7188C15.9801 26.7188 18.1947 21.093 18.4917 21.093H39.5085C39.8055 21.093 42.0201 26.7188 42.0201 26.7188C42.0202 26.8336 41.9879 26.9462 41.9269 27.0435L47.3054 27.1466L49.8946 27.2944L49.2657 25.8417Z" fill="#062629"/>
<path d="M44.2289 36.2693C44.2291 36.4286 44.1981 36.5863 44.1374 36.7335C44.0768 36.8807 43.9877 37.0145 43.8754 37.1272C43.7631 37.2399 43.6297 37.3293 43.4829 37.3904C43.336 37.4514 43.1786 37.4828 43.0197 37.4828H35.7566C35.4354 37.4828 35.1273 37.3549 34.9001 37.1273C34.673 36.8998 34.5454 36.5911 34.5454 36.2693C34.5454 36.2693 35.0869 24.1484 35.7566 24.1484H43.0197C43.6874 24.1484 44.2289 36.2693 44.2289 36.2693Z" fill="#0F3639"/>
<path d="M42.3132 22.7884C42.3127 23.1614 42.1644 23.5191 41.9009 23.7827C41.6374 24.0463 41.2803 24.1943 40.9079 24.1943H37.8664C37.4941 24.1943 37.1369 24.0463 36.8735 23.7827C36.61 23.5191 36.4617 23.1614 36.4612 22.7884C36.4612 22.7884 37.0901 20.8438 37.8664 20.8438H40.9079C41.6843 20.8535 42.3132 22.7884 42.3132 22.7884Z" fill="#0F3639"/>
<path d="M23.4567 36.2693C23.4567 36.5911 23.3291 36.8998 23.1019 37.1273C22.8748 37.3549 22.5667 37.4828 22.2455 37.4828H14.9824C14.8234 37.4828 14.6659 37.4514 14.5189 37.3904C14.372 37.3294 14.2384 37.24 14.126 37.1273C14.0135 37.0147 13.9243 36.8809 13.8634 36.7337C13.8026 36.5865 13.7712 36.4287 13.7712 36.2693C13.7712 36.2693 14.3128 24.1484 14.9824 24.1484H22.2455C22.9132 24.1484 23.4567 36.2693 23.4567 36.2693Z" fill="#0F3639"/>
<path d="M21.539 22.7884C21.5385 23.1614 21.3902 23.5191 21.1268 23.7827C20.8633 24.0463 20.5061 24.1943 20.1338 24.1943H17.0923C16.7201 24.1943 16.3632 24.0462 16.1 23.7825C15.8368 23.5189 15.689 23.1613 15.689 22.7884C15.689 22.7884 16.3159 20.8438 17.0923 20.8438H20.1338C20.9102 20.8535 21.539 22.7884 21.539 22.7884Z" fill="#0F3639"/>
<path d="M39.8656 24.3359C39.1214 24.3356 38.3939 24.5563 37.775 24.9703C37.1561 25.3842 36.6737 25.9728 36.3888 26.6615C36.1038 27.3502 36.0292 28.1082 36.1742 28.8394C36.3193 29.5706 36.6776 30.2423 37.2038 30.7695C37.73 31.2967 38.4004 31.6556 39.1303 31.801C39.8601 31.9464 40.6166 31.8716 41.304 31.5861C41.9915 31.3006 42.5789 30.8172 42.9921 30.1972C43.4053 29.5771 43.6256 28.8482 43.6252 28.1027C43.6247 27.1038 43.2285 26.1461 42.5235 25.4398C41.8185 24.7335 40.8626 24.3365 39.8656 24.3359ZM39.8656 31.498C39.1953 31.498 38.5401 31.2989 37.9828 30.9258C37.4255 30.5527 36.9911 30.0224 36.7346 29.402C36.4781 28.7816 36.411 28.0989 36.5418 27.4403C36.6725 26.7817 36.9953 26.1767 37.4693 25.7018C37.9432 25.227 38.5471 24.9036 39.2044 24.7726C39.8618 24.6416 40.5432 24.7088 41.1625 24.9658C41.7817 25.2228 42.311 25.658 42.6834 26.2163C43.0558 26.7747 43.2545 27.4312 43.2545 28.1027C43.2548 28.5486 43.1673 28.9903 42.9971 29.4023C42.8269 29.8144 42.5772 30.1888 42.2625 30.5041C41.9478 30.8194 41.5741 31.0695 41.1628 31.2401C40.7515 31.4106 40.3107 31.4983 39.8656 31.498Z" fill="#182527"/>
<path d="M8.64311 26.7742L34.8772 26.3697C34.8772 26.3697 39.6151 23.8611 44.7898 26.6302L49.4578 26.8247L49.8926 29.7047L7.83179 29.5297L8.64311 26.7742Z" fill="#182527"/>
<g opacity="0.23">
<path d="M40.05 17.9477C31.5447 20.6896 27.1853 25.3917 22.8278 28.7462L13.7053 28.0948L11.5178 27.4239C12.9114 26.1035 18.8197 19.9468 25.7121 17.1484L40.05 17.9477Z" fill="#199675"/>
</g>
<path d="M1.66528 52.9676C1.66528 53.7201 2.37956 54.3288 3.25882 54.3288H7.30962C8.19082 54.3288 8.90315 53.7201 8.90315 52.9676V46.0097C8.90315 45.2591 8.19082 44.6484 7.30962 44.6484H3.25882C2.37956 44.6484 1.66528 45.2591 1.66528 46.0097V52.9676Z" fill="#172224"/>
<path d="M7.24747 45.9141H7.03784V54.3285H7.24747V45.9141Z" fill="black"/>
<path d="M6.54507 45.9141H6.33545V54.3285H6.54507V45.9141Z" fill="black"/>
<path d="M3.53067 45.9141H3.32104V54.3285H3.53067V45.9141Z" fill="black"/>
<path d="M4.23331 45.9141H4.02368V54.3285H4.23331V45.9141Z" fill="black"/>
<path d="M56.3346 52.9676C56.3346 53.7201 55.6222 54.3288 54.741 54.3288H50.6902C49.809 54.3288 49.0967 53.7201 49.0967 52.9676V46.0097C49.0967 45.2591 49.809 44.6484 50.6902 44.6484H54.741C55.6222 44.6484 56.3346 45.2591 56.3346 46.0097V52.9676Z" fill="#172224"/>
<path d="M50.9621 45.9141H50.7524V54.3285H50.9621V45.9141Z" fill="black"/>
<path d="M51.6647 45.9141H51.4551V54.3285H51.6647V45.9141Z" fill="black"/>
<path d="M54.6791 45.9141H54.4695V54.3285H54.6791V45.9141Z" fill="black"/>
<path d="M53.9745 45.9141H53.7649V54.3285H53.9745V45.9141Z" fill="black"/>
<path d="M56.7112 38.0362C56.6996 37.762 56.6841 37.4975 56.6627 37.2447C56.6019 36.4301 56.4826 35.621 56.3056 34.8236C56.2305 34.4814 56.1497 34.1689 56.063 33.8863C55.9614 33.5461 55.8428 33.2112 55.7078 32.8829C55.6146 32.6612 55.5253 32.4765 55.4496 32.3267C55.3603 32.1469 55.2578 31.974 55.1429 31.8095C54.5335 30.8371 53.5378 29.8765 52.5945 29.087C52.1422 28.6981 51.7016 28.3616 51.3212 28.0777L51.2047 27.9922C50.7641 27.6674 50.4283 27.4321 50.2537 27.3213L50.143 27.2474C47.5285 21.4485 44.7918 18.5471 44.7918 18.5471C43.6718 17.5359 42.2685 17.4095 41.3698 17.3589C34.3416 16.97 29.0001 17.0089 29.0001 17.0089C29.0001 17.0089 23.6585 16.97 16.6303 17.3589C15.7316 17.4095 14.3283 17.5359 13.2103 18.5471C13.2103 18.5471 10.4735 21.4485 7.85709 27.2474L7.74646 27.3213C7.57953 27.4321 7.23598 27.6674 6.79538 27.9922L6.67892 28.0777C6.30043 28.3616 5.85983 28.7039 5.40759 29.087C4.46234 29.8843 3.46662 30.8547 2.8591 31.8095C2.74193 31.9746 2.63808 32.1489 2.54854 32.3306V32.3442C2.47284 32.494 2.38744 32.6748 2.29816 32.8907C2.20887 33.1065 2.11765 33.3457 2.02642 33.6238V33.6413V33.6549L1.97402 33.8299L1.95072 33.9038C1.87309 34.1625 1.79739 34.4483 1.72557 34.7614C1.54347 35.5793 1.42022 36.4092 1.35679 37.2447C1.33738 37.48 1.31991 37.7211 1.31021 37.9739C1.28497 38.5048 1.27721 39.0746 1.29079 39.6833C1.29079 39.7533 1.29079 39.8252 1.29079 39.8972V40.2569C1.29079 41.4509 1.34708 45.3927 1.64211 49.2139C1.64211 49.2139 1.64211 50.0034 3.92275 50.0929C3.92275 50.0929 24.6251 50.1804 29.0117 50.0929C33.3983 50.1804 54.1006 50.0929 54.1006 50.0929C56.3832 50.0034 56.3832 49.2139 56.3832 49.2139C56.6763 45.3908 56.7248 41.449 56.7307 40.2569C56.7307 40.0236 56.7307 39.8972 56.7307 39.8972C56.7307 39.8252 56.7307 39.7533 56.7307 39.6833C56.7384 39.0986 56.732 38.5495 56.7112 38.0362ZM13.517 19.2666C14.6136 18.3274 15.9897 18.2107 16.8729 18.164C23.7614 17.8023 29.0001 17.8373 29.0001 17.8373C29.0001 17.8373 34.2407 17.8023 41.1292 18.164C42.0123 18.2107 43.3865 18.3274 44.4851 19.2666C44.4851 19.2666 47.0297 21.8238 49.5316 26.9343C43.0565 26.489 36.1583 26.2478 29.0001 26.2478C21.8418 26.2478 14.9436 26.489 8.46849 26.9343C10.9704 21.8238 13.517 19.2666 13.517 19.2666Z" fill="#E6E6E6"/>
<g style="mix-blend-mode:screen" opacity="0.25">
<path d="M56.7112 38.0326C45.9796 38.6373 36.3951 38.8376 28.4003 38.8376C23.115 38.8376 18.5246 38.7501 14.7572 38.6335C8.88579 38.4526 4.33616 38.1862 1.29272 37.9703C1.30243 37.7175 1.3199 37.4764 1.33931 37.2411C1.40274 36.4056 1.52599 35.5757 1.70809 34.7578L2.14675 34.787C5.1436 34.9951 9.50884 35.244 15.0212 35.4132C24.3378 35.699 38.7631 35.8021 56.3056 34.8298C56.4825 35.6271 56.6019 36.4363 56.6627 37.2508C56.6841 37.4939 56.6996 37.7584 56.7112 38.0326Z" fill="#E6E6E6"/>
</g>
<path d="M19.6272 35.9187L19.6408 36.0509C17.5853 36.2551 14.206 35.9634 12.4184 35.7787C12.4009 35.732 12.3854 35.6854 12.3718 35.6406C14.1323 35.8254 17.56 36.1248 19.6272 35.9187Z" fill="#254554"/>
<path d="M40.0033 35.8308L39.9917 35.9631C42.0472 36.1672 45.4264 35.8756 47.214 35.6908L47.2606 35.5547C45.5002 35.7394 42.0724 36.037 40.0033 35.8308Z" fill="#254554"/>
<g style="mix-blend-mode:screen" opacity="0.45">
<g style="mix-blend-mode:screen" opacity="0.6">
<path d="M12.065 35.3147L5.77625 33.8931C5.54208 32.2987 5.41885 30.6898 5.40747 29.0782C5.85972 28.6893 6.29838 28.3529 6.67881 28.069L6.79526 27.9834C7.23586 27.6586 7.57165 27.4233 7.74634 27.3125C9.87364 30.2003 12.065 35.3147 12.065 35.3147Z" fill="#E6E6E6"/>
</g>
<g style="mix-blend-mode:screen" opacity="0.6">
<path d="M52.5943 29.0782C52.5822 30.6899 52.4583 32.2987 52.2235 33.8931L45.9348 35.3147C45.9348 35.3147 48.1262 30.2003 50.2535 27.3125C50.4204 27.4233 50.7659 27.6586 51.2045 27.9834L51.321 28.069C51.6956 28.3529 52.142 28.6951 52.5943 29.0782Z" fill="#E6E6E6"/>
</g>
</g>
<path d="M31.8242 19.7196C31.8242 20.1086 31.3739 20.408 30.8227 20.408H27.1795C26.6283 20.408 26.176 20.0989 26.176 19.7196C26.176 19.3404 26.6283 19.0312 27.1795 19.0312H30.8227C31.3739 19.0312 31.8242 19.3404 31.8242 19.7196Z" fill="#0F3639"/>
<path d="M29.2095 18.7109H28.7903V19.2165H29.2095V18.7109Z" fill="#0F3639"/>
<path d="M29.3745 18.7098C29.3745 18.8498 29.2096 18.9626 29.0058 18.9626C28.802 18.9626 28.6389 18.8498 28.6389 18.7098C28.6389 18.5698 28.7923 18.4531 28.9999 18.4531C29.2076 18.4531 29.3745 18.5698 29.3745 18.7098Z" fill="#0F3639"/>
<g style="mix-blend-mode:multiply" opacity="0.14">
<path d="M56.7209 40.2578C56.7209 41.4499 56.6646 45.3916 56.3695 49.2031C56.3695 49.2031 56.3695 49.8993 54.4907 50.0587C54.3645 50.0685 54.2306 50.0782 54.0889 50.0821C54.0889 50.0821 33.3865 50.1715 29 50.0821C24.6134 50.1715 3.911 50.0821 3.911 50.0821C3.76737 50.0821 3.63539 50.0685 3.51117 50.0587C1.62843 49.8993 1.62843 49.2031 1.62843 49.2031C1.33534 45.3839 1.28876 41.4421 1.27905 40.2578C9.95906 40.674 23.212 41.2593 29 41.2593C34.7879 41.2593 48.0428 40.674 56.7209 40.2578Z" fill="#161616"/>
</g>
<path d="M8.74417 34.9928L8.62383 35.0453C7.80086 33.1454 7.04776 29.8279 6.68286 28.0699L6.79932 27.9844C7.15646 29.7209 7.91732 33.0813 8.74417 34.9928Z" fill="#78561D"/>
<path d="M51.3211 28.07C50.9542 29.8201 50.1992 33.1455 49.3801 35.0454L49.2578 34.9929C50.0847 33.0813 50.8455 29.721 51.1988 27.9922L51.3211 28.07Z" fill="#78561D"/>
<path d="M55.5777 35.0623C50.8941 35.6632 50.1585 35.7021 50.1585 35.7021C46.195 36.091 43.9474 36.091 43.4253 36.0774L44.5297 35.3267C45.4812 34.7321 46.4736 34.2058 47.4994 33.7516C49.5607 33.3277 52.9535 32.7307 55.4574 32.3281C55.535 32.4798 55.6223 32.6645 55.7155 32.8862C55.8505 33.2146 55.9691 33.5495 56.0707 33.8897C55.4884 34.1133 55.566 34.37 55.7776 34.5081C55.8046 34.5273 55.834 34.543 55.865 34.5547C56.6763 34.9242 55.5777 35.0623 55.5777 35.0623Z" fill="#ADB5C9"/>
<path d="M53.3301 33.5194L50.5739 33.7547C50.4429 33.7607 50.3155 33.7994 50.2033 33.8673C50.0911 33.9353 49.9977 34.0302 49.9314 34.1436C49.7798 34.052 49.6033 34.0105 49.4268 34.025L48.2738 34.1242C47.8973 34.1553 47.6547 34.4392 47.7304 34.7581C47.7855 34.9253 47.8965 35.0682 48.0447 35.1628C48.1929 35.2574 48.3691 35.2979 48.5436 35.2773L49.6985 35.1781C49.8609 35.17 50.0142 35.1005 50.1275 34.9837C50.2363 35.0759 50.3624 35.1456 50.4983 35.1886C50.6343 35.2317 50.7774 35.2473 50.9194 35.2345L53.6756 34.9992C54.1569 34.9584 54.4694 34.5928 54.3743 34.1844C54.2792 33.7761 53.8114 33.4785 53.3301 33.5194Z" fill="#9399AB"/>
<g style="mix-blend-mode:screen" opacity="0.48">
<path d="M55.4495 32.3281C55.5271 32.4798 55.6145 32.6645 55.7076 32.8862C54.6362 33.0807 53.1999 33.3121 52.4662 33.4696L52.078 33.5513L51.3482 33.703C50.9076 33.7963 50.4845 33.8974 50.0749 33.9791L49.7159 34.0588C49.1413 34.1885 48.5959 34.3142 48.0796 34.4361L47.7438 34.5158C46.5133 34.8095 45.4477 35.0856 44.5374 35.3365C45.4889 34.7418 46.4813 34.2155 47.507 33.7613C49.5606 33.3277 52.9534 32.7307 55.4495 32.3281Z" fill="#ABB3C7"/>
</g>
<path d="M14.5301 36.0774C14.0158 36.0774 11.7604 36.0891 7.79691 35.7021C7.79691 35.7021 7.05934 35.6632 2.37579 35.0623C2.37579 35.0623 1.27914 34.9242 2.09823 34.5548C2.12865 34.5431 2.15737 34.5274 2.18363 34.5081C2.39132 34.3739 2.47284 34.1192 1.93325 33.9072L1.9546 33.8333L2.00894 33.6602V33.6447V33.6272C2.10211 33.3491 2.20304 33.106 2.28068 32.894C2.35832 32.6821 2.45537 32.5051 2.53106 32.3476V32.3359C5.02133 32.7365 8.38891 33.3296 10.4386 33.7516C11.4641 34.2062 12.4565 34.7326 13.4082 35.3268L14.5301 36.0774Z" fill="#ADB5C9"/>
<path d="M4.62337 33.5193L7.37955 33.7546C7.51072 33.7597 7.63846 33.7981 7.75081 33.8661C7.86317 33.9341 7.95647 34.0296 8.02201 34.1435C8.17375 34.0522 8.35021 34.0107 8.52666 34.0249L9.68154 34.1241C10.0561 34.1552 10.3007 34.4391 10.225 34.758C10.1677 34.9241 10.0558 35.0658 9.90782 35.1601C9.75978 35.2544 9.58425 35.2957 9.4098 35.2772L8.25687 35.1761C8.09393 35.1679 7.94006 35.0985 7.82597 34.9817C7.71781 35.0761 7.59181 35.1479 7.45544 35.1927C7.31907 35.2374 7.17511 35.2543 7.03212 35.2422L4.27594 35.0069C3.79458 34.9661 3.48403 34.6005 3.57913 34.1921C3.67424 33.7838 4.14201 33.4785 4.62337 33.5193Z" fill="#9399AB"/>
<g style="mix-blend-mode:screen" opacity="0.48">
<path d="M13.4257 35.3268C12.5154 35.0759 11.4478 34.7998 10.2172 34.5061L9.8834 34.4264C9.36581 34.2968 8.82039 34.171 8.24716 34.0492L7.88614 33.9694C7.47724 33.8774 7.05282 33.7853 6.61287 33.6933L5.88306 33.5416L5.49487 33.4599C4.68549 33.2966 3.27828 33.071 2.2981 32.894C2.38738 32.6782 2.47278 32.5051 2.54848 32.3476V32.3359C5.03874 32.7365 8.40632 33.3296 10.456 33.7516C11.4815 34.2062 12.4739 34.7326 13.4257 35.3268Z" fill="#ABB3C7"/>
</g>
<path d="M54.4907 50.0677C54.3646 50.0774 54.2306 50.0872 54.089 50.091H52.9108C48.4602 50.1085 32.7538 50.161 29 50.091C25.2462 50.1669 9.54181 50.1144 5.09117 50.091H3.91106C3.76743 50.091 3.63544 50.0774 3.50928 50.0677C4.18473 49.2062 6.11406 46.7774 7.66683 45.2664C7.66683 45.2664 9.38265 43.4832 11.3993 43.5163C11.3993 43.5163 22.1115 43.7477 29 43.7866C35.8885 43.7477 46.6026 43.5163 46.6026 43.5163C48.4485 43.4774 50.3332 45.2664 50.3332 45.2664C51.8898 46.7774 53.8172 49.2062 54.4907 50.0677Z" fill="#070707"/>
<path d="M42.8683 35.8812C42.8686 35.9304 42.8591 35.9791 42.8405 36.0247C42.8219 36.0702 42.7945 36.1116 42.7599 36.1465C42.7252 36.1813 42.6841 36.209 42.6387 36.2279C42.5934 36.2468 42.5448 36.2565 42.4957 36.2565H15.5162C15.4669 36.2568 15.4181 36.2472 15.3726 36.2285C15.327 36.2097 15.2856 36.182 15.2508 36.1471C15.2159 36.1122 15.1883 36.0708 15.1696 36.0251C15.1509 35.9795 15.1413 35.9305 15.1416 35.8812C15.1416 35.832 15.1513 35.7833 15.1702 35.7379C15.189 35.6924 15.2166 35.6512 15.2514 35.6165C15.2863 35.5818 15.3276 35.5543 15.373 35.5357C15.4184 35.517 15.4671 35.5076 15.5162 35.5078H42.4957C42.5945 35.5078 42.6893 35.5472 42.7592 35.6172C42.8291 35.6872 42.8683 35.7822 42.8683 35.8812Z" fill="#1C292B"/>
<path d="M52.9107 50.0964C48.46 50.1139 32.7537 50.1664 28.9999 50.0964C25.2461 50.1723 9.5417 50.1198 5.09106 50.0964C5.23858 49.9136 5.39774 49.7172 5.5666 49.513C6.43462 48.4432 7.3558 47.4177 8.32666 46.4405C9.02362 45.7528 9.86706 45.2322 10.7936 44.9179C11.1654 44.8017 11.5533 44.7453 11.9427 44.7506C11.9427 44.7506 22.3249 44.9743 28.9999 45.0132C35.6749 44.9743 46.0591 44.7506 46.0591 44.7506C47.8467 44.7118 49.6751 46.4405 49.6751 46.4405C50.8185 47.6 51.8986 48.8204 52.9107 50.0964Z" fill="#27312E"/>
<path d="M10.7937 44.9219C10.6268 45.1533 10.4676 45.3769 10.3162 45.5908C8.47422 48.2005 7.80459 49.4898 7.80459 49.4898C7.23782 49.5112 6.73123 49.5209 6.30228 49.5209C6.02278 49.5209 5.77627 49.5209 5.56665 49.5209C6.43467 48.451 7.35585 47.4256 8.32671 46.4484C9.02328 45.7593 9.86675 45.2373 10.7937 44.9219Z" fill="#ADB5C9"/>
<path d="M10.3162 45.5859C8.47419 48.1956 7.80455 49.4849 7.80455 49.4849C7.23779 49.5063 6.7312 49.516 6.30225 49.516C7.09416 48.5671 8.04912 47.4761 8.88179 46.6613C9.31026 46.2408 9.7926 45.8792 10.3162 45.5859Z" fill="#BBC3D9"/>
<path d="M47.1404 44.9219C47.3073 45.1533 47.4665 45.3769 47.6179 45.5908C49.4579 48.2005 50.1275 49.4898 50.1275 49.4898C50.6962 49.5112 51.2009 49.5209 51.6298 49.5209C51.9093 49.5209 52.1558 49.5209 52.3674 49.5209C51.5425 48.5233 50.5099 47.3274 49.6073 46.4484C48.9104 45.7597 48.0671 45.2379 47.1404 44.9219Z" fill="#ADB5C9"/>
<path d="M47.6196 45.5859C49.4597 48.1956 50.1293 49.4849 50.1293 49.4849C50.698 49.5063 51.2027 49.516 51.6316 49.516C50.8416 48.5671 49.8847 47.4761 49.054 46.6613C48.6255 46.2408 48.1432 45.8792 47.6196 45.5859Z" fill="#BBC3D9"/>
</g>
<defs>
<clipPath id="clip0_8717_60418">
<rect width="58" height="38" fill="white" transform="translate(0 17)"/>
</clipPath>
</defs>
</svg>
