<svg width="58" height="55" viewBox="0 0 58 55" fill="none" xmlns="http://www.w3.org/2000/svg">
<g clip-path="url(#clip0_8717_60402)">
<path d="M19.0023 37.2969L18.6804 42.7745L19.4396 47.3142L19.0023 51.854L19.6955 52.8997L19.0023 53.9537L19.6955 54.9995H20.9746V37.2969H19.0023Z" fill="#E0E0E0"/>
<path d="M22.5095 47.3142L23.2687 42.7745L22.9469 37.2969H20.9746V54.9995H22.2537L22.9469 53.9537L22.2537 52.8997L22.9469 51.854L22.5095 47.3142Z" fill="#B5B5B5"/>
<path d="M20.9746 27.9297C17.8057 27.9297 15.198 33.2413 15.198 36.4366C15.198 39.6318 17.7727 39.499 20.9746 39.499C24.1765 39.499 26.7512 39.6318 26.7512 36.4366C26.7512 33.2413 24.1517 27.9297 20.9746 27.9297ZM21.6925 34.6688H20.2484C19.778 34.6688 18.5979 35.0257 18.2596 34.5858C16.8155 32.9259 20.0999 29.3489 20.9994 29.1912C21.8246 29.3489 25.1255 32.8844 23.6979 34.5858C23.3182 35.0506 22.1629 34.6937 21.6925 34.6937V34.6688Z" fill="#0C0A0A"/>
<path d="M20.9747 27.9297C17.8059 27.9297 15.1981 33.2413 15.1981 36.4366C15.1819 36.9476 15.2719 37.4564 15.4622 37.9304C17.9347 37.5224 20.2318 36.3875 22.0641 34.6688H20.1825C19.7121 34.6688 18.5321 35.0257 18.1937 34.5858C16.7496 32.9259 20.034 29.3489 20.9335 29.1912C21.6019 29.3157 23.4092 31.0669 23.9126 32.9342C24.3733 32.1008 24.5583 31.1416 24.4407 30.1954C23.533 28.9007 22.3116 27.9297 20.9747 27.9297Z" fill="#3B3B3B"/>
<path d="M21.6348 30.7734C19.9348 30.7734 18.2266 28.8397 18.2266 24.5157C18.2266 20.1917 20.0751 19.1875 21.6348 19.1875C23.1944 19.1875 25.043 20.117 25.043 24.5157C25.043 28.9144 23.3265 30.7734 21.6348 30.7734ZM21.6348 20.117C21.0158 20.117 19.1591 20.117 19.1591 24.5157C19.1591 27.6529 20.1741 29.8439 21.6348 29.8439C23.0954 29.8439 24.1104 27.6529 24.1104 24.5157C24.1104 20.117 22.2454 20.117 21.6348 20.117Z" fill="url(#paint0_linear_8717_60402)"/>
<path d="M38.9811 2.60156L42.1087 11.2744C42.1087 11.2744 34.3515 12.9343 31.488 13.7642C31.0424 13.897 28.5667 14.1875 28.5667 14.1875L26.4954 2.64306L38.9811 2.60156Z" fill="#F2CE9E"/>
<path d="M27.5517 3.20517C27.5517 1.54529 19.382 4.53307 19.382 4.53307C19.382 4.53307 16.3204 6.47512 15 14.177C16.3039 19.3641 17.4757 21.3144 18.5897 21.746C18.8824 20.9358 19.3667 20.2095 20.0009 19.6296C19.6502 18.1341 19.3747 16.6217 19.1757 15.0982C18.9446 11.7784 20.8261 10.6829 22.7737 10.5833C26.809 10.3675 24.6882 15.9862 24.6882 15.9862C24.6882 15.9862 28.8143 12.3179 29.8541 13.6624L27.5517 3.20517Z" fill="#F2CE9E"/>
<path d="M33.9803 13.3812L28.8062 17.8214L28.3193 18.2364L28.2533 18.2862L28.1212 18.3774L27.8654 18.5683L26.8586 19.2904L25.0679 20.5851L23.3267 21.8383C23.0507 22.0349 22.7151 22.1285 22.3778 22.1029C22.0405 22.0773 21.7227 21.9341 21.4791 21.6981C21.2356 21.462 21.0816 21.1478 21.0438 20.8098C21.0059 20.4718 21.0866 20.1311 21.2718 19.8464L22.5674 18.1202L23.8961 16.3607L24.6388 15.3648L24.8286 15.1075L24.9276 14.983L24.9771 14.9166L25.3897 14.4352L29.813 9.22323C30.066 8.92569 30.3748 8.68118 30.7218 8.50368C31.0688 8.32618 31.4472 8.21915 31.8353 8.18871C32.2235 8.15827 32.6137 8.20501 32.9839 8.32626C33.3541 8.44752 33.6969 8.64091 33.9927 8.8954C34.2886 9.14989 34.5317 9.46049 34.7082 9.80947C34.8847 10.1585 34.9911 10.539 35.0214 10.9293C35.0516 11.3197 35.0052 11.7122 34.8846 12.0845C34.764 12.4567 34.5717 12.8015 34.3187 13.099C34.2126 13.201 34.0996 13.2953 33.9803 13.3812Z" fill="#F2CE9E"/>
<path d="M36.9512 12.2777C35.8041 13.1076 34.8468 14.8505 32.2556 14.8505C29.6644 14.8505 27.5601 13.6969 27.5601 12.2777C27.5601 10.8585 34.3599 8.47656 36.9512 8.47656C39.5424 8.47656 38.3045 11.2735 36.9512 12.2777Z" fill="#F2CE9E"/>
<path d="M40.3344 0L42.9999 11.8764L37.4544 13.2375L34.7971 1.3611L40.3344 0Z" fill="#199675"/>
<path d="M40.7388 10.1922C40.7388 10.4187 40.672 10.6401 40.5469 10.8285C40.4217 11.0168 40.2439 11.1636 40.0358 11.2503C39.8277 11.337 39.5987 11.3597 39.3778 11.3155C39.1569 11.2713 38.954 11.1622 38.7947 11.0021C38.6355 10.8419 38.527 10.6378 38.4831 10.4156C38.4391 10.1935 38.4617 9.96318 38.5479 9.7539C38.6341 9.54462 38.78 9.36574 38.9673 9.23989C39.1546 9.11405 39.3748 9.04688 39.6 9.04688C39.902 9.04688 40.1917 9.16754 40.4053 9.38233C40.6188 9.59712 40.7388 9.88843 40.7388 10.1922Z" fill="#FDAF3A"/>
</g>
<defs>
<linearGradient id="paint0_linear_8717_60402" x1="21.6348" y1="19.1875" x2="21.6348" y2="30.7734" gradientUnits="userSpaceOnUse">
<stop stop-color="#AEAEAE"/>
<stop offset="1" stop-color="#878787"/>
</linearGradient>
<clipPath id="clip0_8717_60402">
<rect width="28" height="55" fill="white" transform="translate(15)"/>
</clipPath>
</defs>
</svg>
